%TF.GenerationSoftware,KiCad,Pcbnew,9.0.7*%
%TF.CreationDate,2026-01-21T14:26:45-05:00*%
%TF.ProjectId,pcb,7063622e-6b69-4636-9164-5f7063625858,rev?*%
%TF.SameCoordinates,Original*%
%TF.FileFunction,Legend,Top*%
%TF.FilePolarity,Positive*%
%FSLAX46Y46*%
G04 Gerber Fmt 4.6, Leading zero omitted, Abs format (unit mm)*
G04 Created by KiCad (PCBNEW 9.0.7) date 2026-01-21 14:26:45*
%MOMM*%
%LPD*%
G01*
G04 APERTURE LIST*
%ADD10C,0.150000*%
%ADD11C,0.120000*%
G04 APERTURE END LIST*
D10*
X118547618Y-107907200D02*
X118642856Y-107954819D01*
X118642856Y-107954819D02*
X118833332Y-107954819D01*
X118833332Y-107954819D02*
X118928570Y-107907200D01*
X118928570Y-107907200D02*
X118976189Y-107811961D01*
X118976189Y-107811961D02*
X118976189Y-107764342D01*
X118976189Y-107764342D02*
X118928570Y-107669104D01*
X118928570Y-107669104D02*
X118833332Y-107621485D01*
X118833332Y-107621485D02*
X118690475Y-107621485D01*
X118690475Y-107621485D02*
X118595237Y-107573866D01*
X118595237Y-107573866D02*
X118547618Y-107478628D01*
X118547618Y-107478628D02*
X118547618Y-107431009D01*
X118547618Y-107431009D02*
X118595237Y-107335771D01*
X118595237Y-107335771D02*
X118690475Y-107288152D01*
X118690475Y-107288152D02*
X118833332Y-107288152D01*
X118833332Y-107288152D02*
X118928570Y-107335771D01*
X119404761Y-107954819D02*
X119404761Y-107288152D01*
X119404761Y-107383390D02*
X119452380Y-107335771D01*
X119452380Y-107335771D02*
X119547618Y-107288152D01*
X119547618Y-107288152D02*
X119690475Y-107288152D01*
X119690475Y-107288152D02*
X119785713Y-107335771D01*
X119785713Y-107335771D02*
X119833332Y-107431009D01*
X119833332Y-107431009D02*
X119833332Y-107954819D01*
X119833332Y-107431009D02*
X119880951Y-107335771D01*
X119880951Y-107335771D02*
X119976189Y-107288152D01*
X119976189Y-107288152D02*
X120119046Y-107288152D01*
X120119046Y-107288152D02*
X120214285Y-107335771D01*
X120214285Y-107335771D02*
X120261904Y-107431009D01*
X120261904Y-107431009D02*
X120261904Y-107954819D01*
X121166665Y-107954819D02*
X121166665Y-107431009D01*
X121166665Y-107431009D02*
X121119046Y-107335771D01*
X121119046Y-107335771D02*
X121023808Y-107288152D01*
X121023808Y-107288152D02*
X120833332Y-107288152D01*
X120833332Y-107288152D02*
X120738094Y-107335771D01*
X121166665Y-107907200D02*
X121071427Y-107954819D01*
X121071427Y-107954819D02*
X120833332Y-107954819D01*
X120833332Y-107954819D02*
X120738094Y-107907200D01*
X120738094Y-107907200D02*
X120690475Y-107811961D01*
X120690475Y-107811961D02*
X120690475Y-107716723D01*
X120690475Y-107716723D02*
X120738094Y-107621485D01*
X120738094Y-107621485D02*
X120833332Y-107573866D01*
X120833332Y-107573866D02*
X121071427Y-107573866D01*
X121071427Y-107573866D02*
X121166665Y-107526247D01*
X121642856Y-107954819D02*
X121642856Y-107288152D01*
X121642856Y-107478628D02*
X121690475Y-107383390D01*
X121690475Y-107383390D02*
X121738094Y-107335771D01*
X121738094Y-107335771D02*
X121833332Y-107288152D01*
X121833332Y-107288152D02*
X121928570Y-107288152D01*
X122119047Y-107288152D02*
X122499999Y-107288152D01*
X122261904Y-106954819D02*
X122261904Y-107811961D01*
X122261904Y-107811961D02*
X122309523Y-107907200D01*
X122309523Y-107907200D02*
X122404761Y-107954819D01*
X122404761Y-107954819D02*
X122499999Y-107954819D01*
X122595238Y-108050057D02*
X123357142Y-108050057D01*
X123595238Y-107954819D02*
X123595238Y-107288152D01*
X123595238Y-107383390D02*
X123642857Y-107335771D01*
X123642857Y-107335771D02*
X123738095Y-107288152D01*
X123738095Y-107288152D02*
X123880952Y-107288152D01*
X123880952Y-107288152D02*
X123976190Y-107335771D01*
X123976190Y-107335771D02*
X124023809Y-107431009D01*
X124023809Y-107431009D02*
X124023809Y-107954819D01*
X124023809Y-107431009D02*
X124071428Y-107335771D01*
X124071428Y-107335771D02*
X124166666Y-107288152D01*
X124166666Y-107288152D02*
X124309523Y-107288152D01*
X124309523Y-107288152D02*
X124404762Y-107335771D01*
X124404762Y-107335771D02*
X124452381Y-107431009D01*
X124452381Y-107431009D02*
X124452381Y-107954819D01*
X125071428Y-107954819D02*
X124976190Y-107907200D01*
X124976190Y-107907200D02*
X124928571Y-107859580D01*
X124928571Y-107859580D02*
X124880952Y-107764342D01*
X124880952Y-107764342D02*
X124880952Y-107478628D01*
X124880952Y-107478628D02*
X124928571Y-107383390D01*
X124928571Y-107383390D02*
X124976190Y-107335771D01*
X124976190Y-107335771D02*
X125071428Y-107288152D01*
X125071428Y-107288152D02*
X125214285Y-107288152D01*
X125214285Y-107288152D02*
X125309523Y-107335771D01*
X125309523Y-107335771D02*
X125357142Y-107383390D01*
X125357142Y-107383390D02*
X125404761Y-107478628D01*
X125404761Y-107478628D02*
X125404761Y-107764342D01*
X125404761Y-107764342D02*
X125357142Y-107859580D01*
X125357142Y-107859580D02*
X125309523Y-107907200D01*
X125309523Y-107907200D02*
X125214285Y-107954819D01*
X125214285Y-107954819D02*
X125071428Y-107954819D01*
X125690476Y-107288152D02*
X126071428Y-107288152D01*
X125833333Y-106954819D02*
X125833333Y-107811961D01*
X125833333Y-107811961D02*
X125880952Y-107907200D01*
X125880952Y-107907200D02*
X125976190Y-107954819D01*
X125976190Y-107954819D02*
X126071428Y-107954819D01*
X126547619Y-107954819D02*
X126452381Y-107907200D01*
X126452381Y-107907200D02*
X126404762Y-107859580D01*
X126404762Y-107859580D02*
X126357143Y-107764342D01*
X126357143Y-107764342D02*
X126357143Y-107478628D01*
X126357143Y-107478628D02*
X126404762Y-107383390D01*
X126404762Y-107383390D02*
X126452381Y-107335771D01*
X126452381Y-107335771D02*
X126547619Y-107288152D01*
X126547619Y-107288152D02*
X126690476Y-107288152D01*
X126690476Y-107288152D02*
X126785714Y-107335771D01*
X126785714Y-107335771D02*
X126833333Y-107383390D01*
X126833333Y-107383390D02*
X126880952Y-107478628D01*
X126880952Y-107478628D02*
X126880952Y-107764342D01*
X126880952Y-107764342D02*
X126833333Y-107859580D01*
X126833333Y-107859580D02*
X126785714Y-107907200D01*
X126785714Y-107907200D02*
X126690476Y-107954819D01*
X126690476Y-107954819D02*
X126547619Y-107954819D01*
X127309524Y-107954819D02*
X127309524Y-107288152D01*
X127309524Y-107478628D02*
X127357143Y-107383390D01*
X127357143Y-107383390D02*
X127404762Y-107335771D01*
X127404762Y-107335771D02*
X127500000Y-107288152D01*
X127500000Y-107288152D02*
X127595238Y-107288152D01*
X128452381Y-107954819D02*
X127880953Y-107954819D01*
X128166667Y-107954819D02*
X128166667Y-106954819D01*
X128166667Y-106954819D02*
X128071429Y-107097676D01*
X128071429Y-107097676D02*
X127976191Y-107192914D01*
X127976191Y-107192914D02*
X127880953Y-107240533D01*
X112954819Y-115357142D02*
X112288152Y-115357142D01*
X112478628Y-115357142D02*
X112383390Y-115309523D01*
X112383390Y-115309523D02*
X112335771Y-115261904D01*
X112335771Y-115261904D02*
X112288152Y-115166666D01*
X112288152Y-115166666D02*
X112288152Y-115071428D01*
X112954819Y-114738094D02*
X112288152Y-114738094D01*
X111954819Y-114738094D02*
X112002438Y-114785713D01*
X112002438Y-114785713D02*
X112050057Y-114738094D01*
X112050057Y-114738094D02*
X112002438Y-114690475D01*
X112002438Y-114690475D02*
X111954819Y-114738094D01*
X111954819Y-114738094D02*
X112050057Y-114738094D01*
X112288152Y-113833333D02*
X113097676Y-113833333D01*
X113097676Y-113833333D02*
X113192914Y-113880952D01*
X113192914Y-113880952D02*
X113240533Y-113928571D01*
X113240533Y-113928571D02*
X113288152Y-114023809D01*
X113288152Y-114023809D02*
X113288152Y-114166666D01*
X113288152Y-114166666D02*
X113240533Y-114261904D01*
X112907200Y-113833333D02*
X112954819Y-113928571D01*
X112954819Y-113928571D02*
X112954819Y-114119047D01*
X112954819Y-114119047D02*
X112907200Y-114214285D01*
X112907200Y-114214285D02*
X112859580Y-114261904D01*
X112859580Y-114261904D02*
X112764342Y-114309523D01*
X112764342Y-114309523D02*
X112478628Y-114309523D01*
X112478628Y-114309523D02*
X112383390Y-114261904D01*
X112383390Y-114261904D02*
X112335771Y-114214285D01*
X112335771Y-114214285D02*
X112288152Y-114119047D01*
X112288152Y-114119047D02*
X112288152Y-113928571D01*
X112288152Y-113928571D02*
X112335771Y-113833333D01*
X112954819Y-113357142D02*
X111954819Y-113357142D01*
X112954819Y-112928571D02*
X112431009Y-112928571D01*
X112431009Y-112928571D02*
X112335771Y-112976190D01*
X112335771Y-112976190D02*
X112288152Y-113071428D01*
X112288152Y-113071428D02*
X112288152Y-113214285D01*
X112288152Y-113214285D02*
X112335771Y-113309523D01*
X112335771Y-113309523D02*
X112383390Y-113357142D01*
X112288152Y-112595237D02*
X112288152Y-112214285D01*
X111954819Y-112452380D02*
X112811961Y-112452380D01*
X112811961Y-112452380D02*
X112907200Y-112404761D01*
X112907200Y-112404761D02*
X112954819Y-112309523D01*
X112954819Y-112309523D02*
X112954819Y-112214285D01*
X113050057Y-112119047D02*
X113050057Y-111357142D01*
X112431009Y-111119046D02*
X112431009Y-110785713D01*
X112954819Y-110642856D02*
X112954819Y-111119046D01*
X112954819Y-111119046D02*
X111954819Y-111119046D01*
X111954819Y-111119046D02*
X111954819Y-110642856D01*
X112907200Y-110261903D02*
X112954819Y-110119046D01*
X112954819Y-110119046D02*
X112954819Y-109880951D01*
X112954819Y-109880951D02*
X112907200Y-109785713D01*
X112907200Y-109785713D02*
X112859580Y-109738094D01*
X112859580Y-109738094D02*
X112764342Y-109690475D01*
X112764342Y-109690475D02*
X112669104Y-109690475D01*
X112669104Y-109690475D02*
X112573866Y-109738094D01*
X112573866Y-109738094D02*
X112526247Y-109785713D01*
X112526247Y-109785713D02*
X112478628Y-109880951D01*
X112478628Y-109880951D02*
X112431009Y-110071427D01*
X112431009Y-110071427D02*
X112383390Y-110166665D01*
X112383390Y-110166665D02*
X112335771Y-110214284D01*
X112335771Y-110214284D02*
X112240533Y-110261903D01*
X112240533Y-110261903D02*
X112145295Y-110261903D01*
X112145295Y-110261903D02*
X112050057Y-110214284D01*
X112050057Y-110214284D02*
X112002438Y-110166665D01*
X112002438Y-110166665D02*
X111954819Y-110071427D01*
X111954819Y-110071427D02*
X111954819Y-109833332D01*
X111954819Y-109833332D02*
X112002438Y-109690475D01*
X112954819Y-109261903D02*
X111954819Y-109261903D01*
X111954819Y-109261903D02*
X111954819Y-108880951D01*
X111954819Y-108880951D02*
X112002438Y-108785713D01*
X112002438Y-108785713D02*
X112050057Y-108738094D01*
X112050057Y-108738094D02*
X112145295Y-108690475D01*
X112145295Y-108690475D02*
X112288152Y-108690475D01*
X112288152Y-108690475D02*
X112383390Y-108738094D01*
X112383390Y-108738094D02*
X112431009Y-108785713D01*
X112431009Y-108785713D02*
X112478628Y-108880951D01*
X112478628Y-108880951D02*
X112478628Y-109261903D01*
X111954819Y-108357141D02*
X111954819Y-107738094D01*
X111954819Y-107738094D02*
X112335771Y-108071427D01*
X112335771Y-108071427D02*
X112335771Y-107928570D01*
X112335771Y-107928570D02*
X112383390Y-107833332D01*
X112383390Y-107833332D02*
X112431009Y-107785713D01*
X112431009Y-107785713D02*
X112526247Y-107738094D01*
X112526247Y-107738094D02*
X112764342Y-107738094D01*
X112764342Y-107738094D02*
X112859580Y-107785713D01*
X112859580Y-107785713D02*
X112907200Y-107833332D01*
X112907200Y-107833332D02*
X112954819Y-107928570D01*
X112954819Y-107928570D02*
X112954819Y-108214284D01*
X112954819Y-108214284D02*
X112907200Y-108309522D01*
X112907200Y-108309522D02*
X112859580Y-108357141D01*
X112050057Y-107357141D02*
X112002438Y-107309522D01*
X112002438Y-107309522D02*
X111954819Y-107214284D01*
X111954819Y-107214284D02*
X111954819Y-106976189D01*
X111954819Y-106976189D02*
X112002438Y-106880951D01*
X112002438Y-106880951D02*
X112050057Y-106833332D01*
X112050057Y-106833332D02*
X112145295Y-106785713D01*
X112145295Y-106785713D02*
X112240533Y-106785713D01*
X112240533Y-106785713D02*
X112383390Y-106833332D01*
X112383390Y-106833332D02*
X112954819Y-107404760D01*
X112954819Y-107404760D02*
X112954819Y-106785713D01*
X112573866Y-106357141D02*
X112573866Y-105595237D01*
X112859580Y-104547618D02*
X112907200Y-104595237D01*
X112907200Y-104595237D02*
X112954819Y-104738094D01*
X112954819Y-104738094D02*
X112954819Y-104833332D01*
X112954819Y-104833332D02*
X112907200Y-104976189D01*
X112907200Y-104976189D02*
X112811961Y-105071427D01*
X112811961Y-105071427D02*
X112716723Y-105119046D01*
X112716723Y-105119046D02*
X112526247Y-105166665D01*
X112526247Y-105166665D02*
X112383390Y-105166665D01*
X112383390Y-105166665D02*
X112192914Y-105119046D01*
X112192914Y-105119046D02*
X112097676Y-105071427D01*
X112097676Y-105071427D02*
X112002438Y-104976189D01*
X112002438Y-104976189D02*
X111954819Y-104833332D01*
X111954819Y-104833332D02*
X111954819Y-104738094D01*
X111954819Y-104738094D02*
X112002438Y-104595237D01*
X112002438Y-104595237D02*
X112050057Y-104547618D01*
X112954819Y-103595237D02*
X112954819Y-104166665D01*
X112954819Y-103880951D02*
X111954819Y-103880951D01*
X111954819Y-103880951D02*
X112097676Y-103976189D01*
X112097676Y-103976189D02*
X112192914Y-104071427D01*
X112192914Y-104071427D02*
X112240533Y-104166665D01*
X103454819Y-115238095D02*
X103407200Y-115333333D01*
X103407200Y-115333333D02*
X103311961Y-115380952D01*
X103311961Y-115380952D02*
X102454819Y-115380952D01*
X103407200Y-114476190D02*
X103454819Y-114571428D01*
X103454819Y-114571428D02*
X103454819Y-114761904D01*
X103454819Y-114761904D02*
X103407200Y-114857142D01*
X103407200Y-114857142D02*
X103311961Y-114904761D01*
X103311961Y-114904761D02*
X102931009Y-114904761D01*
X102931009Y-114904761D02*
X102835771Y-114857142D01*
X102835771Y-114857142D02*
X102788152Y-114761904D01*
X102788152Y-114761904D02*
X102788152Y-114571428D01*
X102788152Y-114571428D02*
X102835771Y-114476190D01*
X102835771Y-114476190D02*
X102931009Y-114428571D01*
X102931009Y-114428571D02*
X103026247Y-114428571D01*
X103026247Y-114428571D02*
X103121485Y-114904761D01*
X102788152Y-114142856D02*
X102788152Y-113761904D01*
X103454819Y-113999999D02*
X102597676Y-113999999D01*
X102597676Y-113999999D02*
X102502438Y-113952380D01*
X102502438Y-113952380D02*
X102454819Y-113857142D01*
X102454819Y-113857142D02*
X102454819Y-113761904D01*
X102788152Y-113571427D02*
X102788152Y-113190475D01*
X102454819Y-113428570D02*
X103311961Y-113428570D01*
X103311961Y-113428570D02*
X103407200Y-113380951D01*
X103407200Y-113380951D02*
X103454819Y-113285713D01*
X103454819Y-113285713D02*
X103454819Y-113190475D01*
X103550057Y-113095237D02*
X103550057Y-112333332D01*
X102931009Y-112095236D02*
X102931009Y-111761903D01*
X103454819Y-111619046D02*
X103454819Y-112095236D01*
X103454819Y-112095236D02*
X102454819Y-112095236D01*
X102454819Y-112095236D02*
X102454819Y-111619046D01*
X103407200Y-111238093D02*
X103454819Y-111095236D01*
X103454819Y-111095236D02*
X103454819Y-110857141D01*
X103454819Y-110857141D02*
X103407200Y-110761903D01*
X103407200Y-110761903D02*
X103359580Y-110714284D01*
X103359580Y-110714284D02*
X103264342Y-110666665D01*
X103264342Y-110666665D02*
X103169104Y-110666665D01*
X103169104Y-110666665D02*
X103073866Y-110714284D01*
X103073866Y-110714284D02*
X103026247Y-110761903D01*
X103026247Y-110761903D02*
X102978628Y-110857141D01*
X102978628Y-110857141D02*
X102931009Y-111047617D01*
X102931009Y-111047617D02*
X102883390Y-111142855D01*
X102883390Y-111142855D02*
X102835771Y-111190474D01*
X102835771Y-111190474D02*
X102740533Y-111238093D01*
X102740533Y-111238093D02*
X102645295Y-111238093D01*
X102645295Y-111238093D02*
X102550057Y-111190474D01*
X102550057Y-111190474D02*
X102502438Y-111142855D01*
X102502438Y-111142855D02*
X102454819Y-111047617D01*
X102454819Y-111047617D02*
X102454819Y-110809522D01*
X102454819Y-110809522D02*
X102502438Y-110666665D01*
X103454819Y-110238093D02*
X102454819Y-110238093D01*
X102454819Y-110238093D02*
X102454819Y-109857141D01*
X102454819Y-109857141D02*
X102502438Y-109761903D01*
X102502438Y-109761903D02*
X102550057Y-109714284D01*
X102550057Y-109714284D02*
X102645295Y-109666665D01*
X102645295Y-109666665D02*
X102788152Y-109666665D01*
X102788152Y-109666665D02*
X102883390Y-109714284D01*
X102883390Y-109714284D02*
X102931009Y-109761903D01*
X102931009Y-109761903D02*
X102978628Y-109857141D01*
X102978628Y-109857141D02*
X102978628Y-110238093D01*
X102454819Y-109333331D02*
X102454819Y-108714284D01*
X102454819Y-108714284D02*
X102835771Y-109047617D01*
X102835771Y-109047617D02*
X102835771Y-108904760D01*
X102835771Y-108904760D02*
X102883390Y-108809522D01*
X102883390Y-108809522D02*
X102931009Y-108761903D01*
X102931009Y-108761903D02*
X103026247Y-108714284D01*
X103026247Y-108714284D02*
X103264342Y-108714284D01*
X103264342Y-108714284D02*
X103359580Y-108761903D01*
X103359580Y-108761903D02*
X103407200Y-108809522D01*
X103407200Y-108809522D02*
X103454819Y-108904760D01*
X103454819Y-108904760D02*
X103454819Y-109190474D01*
X103454819Y-109190474D02*
X103407200Y-109285712D01*
X103407200Y-109285712D02*
X103359580Y-109333331D01*
X102550057Y-108333331D02*
X102502438Y-108285712D01*
X102502438Y-108285712D02*
X102454819Y-108190474D01*
X102454819Y-108190474D02*
X102454819Y-107952379D01*
X102454819Y-107952379D02*
X102502438Y-107857141D01*
X102502438Y-107857141D02*
X102550057Y-107809522D01*
X102550057Y-107809522D02*
X102645295Y-107761903D01*
X102645295Y-107761903D02*
X102740533Y-107761903D01*
X102740533Y-107761903D02*
X102883390Y-107809522D01*
X102883390Y-107809522D02*
X103454819Y-108380950D01*
X103454819Y-108380950D02*
X103454819Y-107761903D01*
X103073866Y-107333331D02*
X103073866Y-106571427D01*
X103359580Y-105523808D02*
X103407200Y-105571427D01*
X103407200Y-105571427D02*
X103454819Y-105714284D01*
X103454819Y-105714284D02*
X103454819Y-105809522D01*
X103454819Y-105809522D02*
X103407200Y-105952379D01*
X103407200Y-105952379D02*
X103311961Y-106047617D01*
X103311961Y-106047617D02*
X103216723Y-106095236D01*
X103216723Y-106095236D02*
X103026247Y-106142855D01*
X103026247Y-106142855D02*
X102883390Y-106142855D01*
X102883390Y-106142855D02*
X102692914Y-106095236D01*
X102692914Y-106095236D02*
X102597676Y-106047617D01*
X102597676Y-106047617D02*
X102502438Y-105952379D01*
X102502438Y-105952379D02*
X102454819Y-105809522D01*
X102454819Y-105809522D02*
X102454819Y-105714284D01*
X102454819Y-105714284D02*
X102502438Y-105571427D01*
X102502438Y-105571427D02*
X102550057Y-105523808D01*
X103454819Y-104571427D02*
X103454819Y-105142855D01*
X103454819Y-104857141D02*
X102454819Y-104857141D01*
X102454819Y-104857141D02*
X102597676Y-104952379D01*
X102597676Y-104952379D02*
X102692914Y-105047617D01*
X102692914Y-105047617D02*
X102740533Y-105142855D01*
X118760952Y-119288152D02*
X118760952Y-120145295D01*
X118760952Y-120145295D02*
X118713333Y-120240533D01*
X118713333Y-120240533D02*
X118618095Y-120288152D01*
X118618095Y-120288152D02*
X118570476Y-120288152D01*
X118760952Y-118954819D02*
X118713333Y-119002438D01*
X118713333Y-119002438D02*
X118760952Y-119050057D01*
X118760952Y-119050057D02*
X118808571Y-119002438D01*
X118808571Y-119002438D02*
X118760952Y-118954819D01*
X118760952Y-118954819D02*
X118760952Y-119050057D01*
X119379999Y-119954819D02*
X119284761Y-119907200D01*
X119284761Y-119907200D02*
X119237142Y-119859580D01*
X119237142Y-119859580D02*
X119189523Y-119764342D01*
X119189523Y-119764342D02*
X119189523Y-119478628D01*
X119189523Y-119478628D02*
X119237142Y-119383390D01*
X119237142Y-119383390D02*
X119284761Y-119335771D01*
X119284761Y-119335771D02*
X119379999Y-119288152D01*
X119379999Y-119288152D02*
X119522856Y-119288152D01*
X119522856Y-119288152D02*
X119618094Y-119335771D01*
X119618094Y-119335771D02*
X119665713Y-119383390D01*
X119665713Y-119383390D02*
X119713332Y-119478628D01*
X119713332Y-119478628D02*
X119713332Y-119764342D01*
X119713332Y-119764342D02*
X119665713Y-119859580D01*
X119665713Y-119859580D02*
X119618094Y-119907200D01*
X119618094Y-119907200D02*
X119522856Y-119954819D01*
X119522856Y-119954819D02*
X119379999Y-119954819D01*
X120046666Y-119288152D02*
X120284761Y-119954819D01*
X120522856Y-119288152D02*
X120284761Y-119954819D01*
X120284761Y-119954819D02*
X120189523Y-120192914D01*
X120189523Y-120192914D02*
X120141904Y-120240533D01*
X120141904Y-120240533D02*
X120046666Y-120288152D01*
X120856190Y-119907200D02*
X120951428Y-119954819D01*
X120951428Y-119954819D02*
X121141904Y-119954819D01*
X121141904Y-119954819D02*
X121237142Y-119907200D01*
X121237142Y-119907200D02*
X121284761Y-119811961D01*
X121284761Y-119811961D02*
X121284761Y-119764342D01*
X121284761Y-119764342D02*
X121237142Y-119669104D01*
X121237142Y-119669104D02*
X121141904Y-119621485D01*
X121141904Y-119621485D02*
X120999047Y-119621485D01*
X120999047Y-119621485D02*
X120903809Y-119573866D01*
X120903809Y-119573866D02*
X120856190Y-119478628D01*
X120856190Y-119478628D02*
X120856190Y-119431009D01*
X120856190Y-119431009D02*
X120903809Y-119335771D01*
X120903809Y-119335771D02*
X120999047Y-119288152D01*
X120999047Y-119288152D02*
X121141904Y-119288152D01*
X121141904Y-119288152D02*
X121237142Y-119335771D01*
X121570476Y-119288152D02*
X121951428Y-119288152D01*
X121713333Y-118954819D02*
X121713333Y-119811961D01*
X121713333Y-119811961D02*
X121760952Y-119907200D01*
X121760952Y-119907200D02*
X121856190Y-119954819D01*
X121856190Y-119954819D02*
X121951428Y-119954819D01*
X122284762Y-119954819D02*
X122284762Y-119288152D01*
X122284762Y-118954819D02*
X122237143Y-119002438D01*
X122237143Y-119002438D02*
X122284762Y-119050057D01*
X122284762Y-119050057D02*
X122332381Y-119002438D01*
X122332381Y-119002438D02*
X122284762Y-118954819D01*
X122284762Y-118954819D02*
X122284762Y-119050057D01*
X123189523Y-119907200D02*
X123094285Y-119954819D01*
X123094285Y-119954819D02*
X122903809Y-119954819D01*
X122903809Y-119954819D02*
X122808571Y-119907200D01*
X122808571Y-119907200D02*
X122760952Y-119859580D01*
X122760952Y-119859580D02*
X122713333Y-119764342D01*
X122713333Y-119764342D02*
X122713333Y-119478628D01*
X122713333Y-119478628D02*
X122760952Y-119383390D01*
X122760952Y-119383390D02*
X122808571Y-119335771D01*
X122808571Y-119335771D02*
X122903809Y-119288152D01*
X122903809Y-119288152D02*
X123094285Y-119288152D01*
X123094285Y-119288152D02*
X123189523Y-119335771D01*
X123618095Y-119954819D02*
X123618095Y-118954819D01*
X123713333Y-119573866D02*
X123999047Y-119954819D01*
X123999047Y-119288152D02*
X123618095Y-119669104D01*
X124189524Y-120050057D02*
X124951428Y-120050057D01*
X125141905Y-119050057D02*
X125189524Y-119002438D01*
X125189524Y-119002438D02*
X125284762Y-118954819D01*
X125284762Y-118954819D02*
X125522857Y-118954819D01*
X125522857Y-118954819D02*
X125618095Y-119002438D01*
X125618095Y-119002438D02*
X125665714Y-119050057D01*
X125665714Y-119050057D02*
X125713333Y-119145295D01*
X125713333Y-119145295D02*
X125713333Y-119240533D01*
X125713333Y-119240533D02*
X125665714Y-119383390D01*
X125665714Y-119383390D02*
X125094286Y-119954819D01*
X125094286Y-119954819D02*
X125713333Y-119954819D01*
X126570476Y-119954819D02*
X126570476Y-119431009D01*
X126570476Y-119431009D02*
X126522857Y-119335771D01*
X126522857Y-119335771D02*
X126427619Y-119288152D01*
X126427619Y-119288152D02*
X126237143Y-119288152D01*
X126237143Y-119288152D02*
X126141905Y-119335771D01*
X126570476Y-119907200D02*
X126475238Y-119954819D01*
X126475238Y-119954819D02*
X126237143Y-119954819D01*
X126237143Y-119954819D02*
X126141905Y-119907200D01*
X126141905Y-119907200D02*
X126094286Y-119811961D01*
X126094286Y-119811961D02*
X126094286Y-119716723D01*
X126094286Y-119716723D02*
X126141905Y-119621485D01*
X126141905Y-119621485D02*
X126237143Y-119573866D01*
X126237143Y-119573866D02*
X126475238Y-119573866D01*
X126475238Y-119573866D02*
X126570476Y-119526247D01*
X126951429Y-119954819D02*
X127475238Y-119288152D01*
X126951429Y-119288152D02*
X127475238Y-119954819D01*
X128237143Y-119907200D02*
X128141905Y-119954819D01*
X128141905Y-119954819D02*
X127951429Y-119954819D01*
X127951429Y-119954819D02*
X127856191Y-119907200D01*
X127856191Y-119907200D02*
X127808572Y-119811961D01*
X127808572Y-119811961D02*
X127808572Y-119431009D01*
X127808572Y-119431009D02*
X127856191Y-119335771D01*
X127856191Y-119335771D02*
X127951429Y-119288152D01*
X127951429Y-119288152D02*
X128141905Y-119288152D01*
X128141905Y-119288152D02*
X128237143Y-119335771D01*
X128237143Y-119335771D02*
X128284762Y-119431009D01*
X128284762Y-119431009D02*
X128284762Y-119526247D01*
X128284762Y-119526247D02*
X127808572Y-119621485D01*
X128665715Y-119907200D02*
X128760953Y-119954819D01*
X128760953Y-119954819D02*
X128951429Y-119954819D01*
X128951429Y-119954819D02*
X129046667Y-119907200D01*
X129046667Y-119907200D02*
X129094286Y-119811961D01*
X129094286Y-119811961D02*
X129094286Y-119764342D01*
X129094286Y-119764342D02*
X129046667Y-119669104D01*
X129046667Y-119669104D02*
X128951429Y-119621485D01*
X128951429Y-119621485D02*
X128808572Y-119621485D01*
X128808572Y-119621485D02*
X128713334Y-119573866D01*
X128713334Y-119573866D02*
X128665715Y-119478628D01*
X128665715Y-119478628D02*
X128665715Y-119431009D01*
X128665715Y-119431009D02*
X128713334Y-119335771D01*
X128713334Y-119335771D02*
X128808572Y-119288152D01*
X128808572Y-119288152D02*
X128951429Y-119288152D01*
X128951429Y-119288152D02*
X129046667Y-119335771D01*
X130046667Y-119954819D02*
X129475239Y-119954819D01*
X129760953Y-119954819D02*
X129760953Y-118954819D01*
X129760953Y-118954819D02*
X129665715Y-119097676D01*
X129665715Y-119097676D02*
X129570477Y-119192914D01*
X129570477Y-119192914D02*
X129475239Y-119240533D01*
D11*
%TO.C,volt_reg1*%
X133760000Y-104430000D02*
X133760000Y-114650000D01*
X132380000Y-104430000D02*
X132380000Y-114650000D01*
X129140000Y-104430000D02*
X133760000Y-104430000D01*
X133760000Y-107690000D02*
X132380000Y-107690000D01*
X133760000Y-111390000D02*
X132380000Y-111390000D01*
X133760000Y-114650000D02*
X129140000Y-114650000D01*
X129140000Y-114650000D02*
X129140000Y-104430000D01*
%TO.C,smart_motor1*%
X125380000Y-109120000D02*
X125380000Y-110500000D01*
X124000000Y-109120000D02*
X125380000Y-109120000D01*
X122730000Y-109120000D02*
X120080000Y-109120000D01*
X122730000Y-109120000D02*
X122730000Y-111880000D01*
X120080000Y-109120000D02*
X120080000Y-111880000D01*
X122730000Y-111880000D02*
X120080000Y-111880000D01*
%TO.C,right_ESP32-C1*%
X113910000Y-101270000D02*
X113910000Y-119110000D01*
X113910000Y-101270000D02*
X116570000Y-101270000D01*
X113910000Y-119110000D02*
X116570000Y-119110000D01*
X115240000Y-98670000D02*
X116570000Y-98670000D01*
X116570000Y-98670000D02*
X116570000Y-100000000D01*
X116570000Y-101270000D02*
X116570000Y-119110000D01*
%TO.C,output_c_pol1*%
X122339000Y-97249759D02*
X122339000Y-97879759D01*
X122654000Y-97564759D02*
X122024000Y-97564759D01*
X123730000Y-100750000D02*
X117270000Y-100750000D01*
X123730000Y-100790000D02*
X117270000Y-100790000D01*
X123729000Y-100830000D02*
X117271000Y-100830000D01*
X123728000Y-100870000D02*
X117272000Y-100870000D01*
X123726000Y-100910000D02*
X117274000Y-100910000D01*
X123724000Y-100950000D02*
X117276000Y-100950000D01*
X123721000Y-100990000D02*
X121540000Y-100990000D01*
X119460000Y-100990000D02*
X117279000Y-100990000D01*
X123718000Y-101030000D02*
X121540000Y-101030000D01*
X119460000Y-101030000D02*
X117282000Y-101030000D01*
X123714000Y-101070000D02*
X121540000Y-101070000D01*
X119460000Y-101070000D02*
X117286000Y-101070000D01*
X123710000Y-101110000D02*
X121540000Y-101110000D01*
X119460000Y-101110000D02*
X117290000Y-101110000D01*
X123705000Y-101150000D02*
X121540000Y-101150000D01*
X119460000Y-101150000D02*
X117295000Y-101150000D01*
X123700000Y-101190000D02*
X121540000Y-101190000D01*
X119460000Y-101190000D02*
X117300000Y-101190000D01*
X123695000Y-101230000D02*
X121540000Y-101230000D01*
X119460000Y-101230000D02*
X117305000Y-101230000D01*
X123688000Y-101270000D02*
X121540000Y-101270000D01*
X119460000Y-101270000D02*
X117312000Y-101270000D01*
X123682000Y-101310000D02*
X121540000Y-101310000D01*
X119460000Y-101310000D02*
X117318000Y-101310000D01*
X123674000Y-101350000D02*
X121540000Y-101350000D01*
X119460000Y-101350000D02*
X117326000Y-101350000D01*
X123667000Y-101390000D02*
X121540000Y-101390000D01*
X119460000Y-101390000D02*
X117333000Y-101390000D01*
X123659000Y-101430000D02*
X121540000Y-101430000D01*
X119460000Y-101430000D02*
X117341000Y-101430000D01*
X123650000Y-101470000D02*
X121540000Y-101470000D01*
X119460000Y-101470000D02*
X117350000Y-101470000D01*
X123640000Y-101510000D02*
X121540000Y-101510000D01*
X119460000Y-101510000D02*
X117360000Y-101510000D01*
X123631000Y-101550000D02*
X121540000Y-101550000D01*
X119460000Y-101550000D02*
X117369000Y-101550000D01*
X123620000Y-101590000D02*
X121540000Y-101590000D01*
X119460000Y-101590000D02*
X117380000Y-101590000D01*
X123609000Y-101630000D02*
X121540000Y-101630000D01*
X119460000Y-101630000D02*
X117391000Y-101630000D01*
X123598000Y-101670000D02*
X121540000Y-101670000D01*
X119460000Y-101670000D02*
X117402000Y-101670000D01*
X123586000Y-101710000D02*
X121540000Y-101710000D01*
X119460000Y-101710000D02*
X117414000Y-101710000D01*
X123573000Y-101750000D02*
X121540000Y-101750000D01*
X119460000Y-101750000D02*
X117427000Y-101750000D01*
X123560000Y-101790000D02*
X121540000Y-101790000D01*
X119460000Y-101790000D02*
X117440000Y-101790000D01*
X123547000Y-101830000D02*
X121540000Y-101830000D01*
X119460000Y-101830000D02*
X117453000Y-101830000D01*
X123532000Y-101870000D02*
X121540000Y-101870000D01*
X119460000Y-101870000D02*
X117468000Y-101870000D01*
X123517000Y-101910000D02*
X121540000Y-101910000D01*
X119460000Y-101910000D02*
X117483000Y-101910000D01*
X123502000Y-101950000D02*
X121540000Y-101950000D01*
X119460000Y-101950000D02*
X117498000Y-101950000D01*
X123486000Y-101990000D02*
X121540000Y-101990000D01*
X119460000Y-101990000D02*
X117514000Y-101990000D01*
X123469000Y-102030000D02*
X121540000Y-102030000D01*
X119460000Y-102030000D02*
X117531000Y-102030000D01*
X123452000Y-102070000D02*
X121540000Y-102070000D01*
X119460000Y-102070000D02*
X117548000Y-102070000D01*
X123434000Y-102110000D02*
X121540000Y-102110000D01*
X119460000Y-102110000D02*
X117566000Y-102110000D01*
X123415000Y-102150000D02*
X121540000Y-102150000D01*
X119460000Y-102150000D02*
X117585000Y-102150000D01*
X123396000Y-102190000D02*
X121540000Y-102190000D01*
X119460000Y-102190000D02*
X117604000Y-102190000D01*
X123376000Y-102230000D02*
X121540000Y-102230000D01*
X119460000Y-102230000D02*
X117624000Y-102230000D01*
X123355000Y-102270000D02*
X121540000Y-102270000D01*
X119460000Y-102270000D02*
X117645000Y-102270000D01*
X123334000Y-102310000D02*
X121540000Y-102310000D01*
X119460000Y-102310000D02*
X117666000Y-102310000D01*
X123312000Y-102350000D02*
X121540000Y-102350000D01*
X119460000Y-102350000D02*
X117688000Y-102350000D01*
X123289000Y-102390000D02*
X121540000Y-102390000D01*
X119460000Y-102390000D02*
X117711000Y-102390000D01*
X123265000Y-102430000D02*
X121540000Y-102430000D01*
X119460000Y-102430000D02*
X117735000Y-102430000D01*
X123241000Y-102470000D02*
X121540000Y-102470000D01*
X119460000Y-102470000D02*
X117759000Y-102470000D01*
X123216000Y-102510000D02*
X121540000Y-102510000D01*
X119460000Y-102510000D02*
X117784000Y-102510000D01*
X123190000Y-102550000D02*
X121540000Y-102550000D01*
X119460000Y-102550000D02*
X117810000Y-102550000D01*
X123163000Y-102590000D02*
X121540000Y-102590000D01*
X119460000Y-102590000D02*
X117837000Y-102590000D01*
X123136000Y-102630000D02*
X121540000Y-102630000D01*
X119460000Y-102630000D02*
X117864000Y-102630000D01*
X123107000Y-102670000D02*
X121540000Y-102670000D01*
X119460000Y-102670000D02*
X117893000Y-102670000D01*
X123077000Y-102710000D02*
X121540000Y-102710000D01*
X119460000Y-102710000D02*
X117923000Y-102710000D01*
X123047000Y-102750000D02*
X121540000Y-102750000D01*
X119460000Y-102750000D02*
X117953000Y-102750000D01*
X123016000Y-102790000D02*
X121540000Y-102790000D01*
X119460000Y-102790000D02*
X117984000Y-102790000D01*
X122983000Y-102830000D02*
X121540000Y-102830000D01*
X119460000Y-102830000D02*
X118017000Y-102830000D01*
X122950000Y-102870000D02*
X121540000Y-102870000D01*
X119460000Y-102870000D02*
X118050000Y-102870000D01*
X122915000Y-102910000D02*
X121540000Y-102910000D01*
X119460000Y-102910000D02*
X118085000Y-102910000D01*
X122879000Y-102950000D02*
X121540000Y-102950000D01*
X119460000Y-102950000D02*
X118121000Y-102950000D01*
X122842000Y-102990000D02*
X121540000Y-102990000D01*
X119460000Y-102990000D02*
X118158000Y-102990000D01*
X122804000Y-103030000D02*
X121540000Y-103030000D01*
X119460000Y-103030000D02*
X118196000Y-103030000D01*
X122764000Y-103070000D02*
X118236000Y-103070000D01*
X122723000Y-103110000D02*
X118277000Y-103110000D01*
X122681000Y-103150000D02*
X118319000Y-103150000D01*
X122637000Y-103190000D02*
X118363000Y-103190000D01*
X122591000Y-103230000D02*
X118409000Y-103230000D01*
X122544000Y-103270000D02*
X118456000Y-103270000D01*
X122495000Y-103310000D02*
X118505000Y-103310000D01*
X122443000Y-103350000D02*
X118557000Y-103350000D01*
X122390000Y-103390000D02*
X118610000Y-103390000D01*
X122334000Y-103430000D02*
X118666000Y-103430000D01*
X122275000Y-103470000D02*
X118725000Y-103470000D01*
X122214000Y-103510000D02*
X118786000Y-103510000D01*
X122149000Y-103550000D02*
X118851000Y-103550000D01*
X122081000Y-103590000D02*
X118919000Y-103590000D01*
X122009000Y-103630000D02*
X118991000Y-103630000D01*
X121932000Y-103670000D02*
X119068000Y-103670000D01*
X121850000Y-103710000D02*
X119150000Y-103710000D01*
X121761000Y-103750000D02*
X119239000Y-103750000D01*
X121665000Y-103790000D02*
X119335000Y-103790000D01*
X121558000Y-103830000D02*
X119442000Y-103830000D01*
X121439000Y-103870000D02*
X119561000Y-103870000D01*
X121301000Y-103910000D02*
X119699000Y-103910000D01*
X121133000Y-103950000D02*
X119867000Y-103950000D01*
X120902000Y-103990000D02*
X120098000Y-103990000D01*
X123770000Y-100750000D02*
G75*
G02*
X117230000Y-100750000I-3270000J0D01*
G01*
X117230000Y-100750000D02*
G75*
G02*
X123770000Y-100750000I3270000J0D01*
G01*
%TO.C,left_ESP32-C1*%
X98670000Y-101270000D02*
X98670000Y-119110000D01*
X98670000Y-101270000D02*
X101330000Y-101270000D01*
X98670000Y-119110000D02*
X101330000Y-119110000D01*
X100000000Y-98670000D02*
X101330000Y-98670000D01*
X101330000Y-98670000D02*
X101330000Y-100000000D01*
X101330000Y-101270000D02*
X101330000Y-119110000D01*
%TO.C,joystick_2axes1*%
X118000000Y-118380000D02*
X118000000Y-117000000D01*
X119380000Y-118380000D02*
X118000000Y-118380000D01*
X120650000Y-118380000D02*
X130920000Y-118380000D01*
X120650000Y-118380000D02*
X120650000Y-115620000D01*
X130920000Y-118380000D02*
X130920000Y-115620000D01*
X120650000Y-115620000D02*
X130920000Y-115620000D01*
%TO.C,input_c_pol1*%
X124249759Y-99161000D02*
X124879759Y-99161000D01*
X124564759Y-98846000D02*
X124564759Y-99476000D01*
X127750000Y-97770000D02*
X127750000Y-104230000D01*
X127790000Y-97770000D02*
X127790000Y-104230000D01*
X127830000Y-97771000D02*
X127830000Y-104229000D01*
X127870000Y-97772000D02*
X127870000Y-104228000D01*
X127910000Y-97774000D02*
X127910000Y-104226000D01*
X127950000Y-97776000D02*
X127950000Y-104224000D01*
X127990000Y-97779000D02*
X127990000Y-99960000D01*
X127990000Y-102040000D02*
X127990000Y-104221000D01*
X128030000Y-97782000D02*
X128030000Y-99960000D01*
X128030000Y-102040000D02*
X128030000Y-104218000D01*
X128070000Y-97786000D02*
X128070000Y-99960000D01*
X128070000Y-102040000D02*
X128070000Y-104214000D01*
X128110000Y-97790000D02*
X128110000Y-99960000D01*
X128110000Y-102040000D02*
X128110000Y-104210000D01*
X128150000Y-97795000D02*
X128150000Y-99960000D01*
X128150000Y-102040000D02*
X128150000Y-104205000D01*
X128190000Y-97800000D02*
X128190000Y-99960000D01*
X128190000Y-102040000D02*
X128190000Y-104200000D01*
X128230000Y-97805000D02*
X128230000Y-99960000D01*
X128230000Y-102040000D02*
X128230000Y-104195000D01*
X128270000Y-97812000D02*
X128270000Y-99960000D01*
X128270000Y-102040000D02*
X128270000Y-104188000D01*
X128310000Y-97818000D02*
X128310000Y-99960000D01*
X128310000Y-102040000D02*
X128310000Y-104182000D01*
X128350000Y-97826000D02*
X128350000Y-99960000D01*
X128350000Y-102040000D02*
X128350000Y-104174000D01*
X128390000Y-97833000D02*
X128390000Y-99960000D01*
X128390000Y-102040000D02*
X128390000Y-104167000D01*
X128430000Y-97841000D02*
X128430000Y-99960000D01*
X128430000Y-102040000D02*
X128430000Y-104159000D01*
X128470000Y-97850000D02*
X128470000Y-99960000D01*
X128470000Y-102040000D02*
X128470000Y-104150000D01*
X128510000Y-97860000D02*
X128510000Y-99960000D01*
X128510000Y-102040000D02*
X128510000Y-104140000D01*
X128550000Y-97869000D02*
X128550000Y-99960000D01*
X128550000Y-102040000D02*
X128550000Y-104131000D01*
X128590000Y-97880000D02*
X128590000Y-99960000D01*
X128590000Y-102040000D02*
X128590000Y-104120000D01*
X128630000Y-97891000D02*
X128630000Y-99960000D01*
X128630000Y-102040000D02*
X128630000Y-104109000D01*
X128670000Y-97902000D02*
X128670000Y-99960000D01*
X128670000Y-102040000D02*
X128670000Y-104098000D01*
X128710000Y-97914000D02*
X128710000Y-99960000D01*
X128710000Y-102040000D02*
X128710000Y-104086000D01*
X128750000Y-97927000D02*
X128750000Y-99960000D01*
X128750000Y-102040000D02*
X128750000Y-104073000D01*
X128790000Y-97940000D02*
X128790000Y-99960000D01*
X128790000Y-102040000D02*
X128790000Y-104060000D01*
X128830000Y-97953000D02*
X128830000Y-99960000D01*
X128830000Y-102040000D02*
X128830000Y-104047000D01*
X128870000Y-97968000D02*
X128870000Y-99960000D01*
X128870000Y-102040000D02*
X128870000Y-104032000D01*
X128910000Y-97983000D02*
X128910000Y-99960000D01*
X128910000Y-102040000D02*
X128910000Y-104017000D01*
X128950000Y-97998000D02*
X128950000Y-99960000D01*
X128950000Y-102040000D02*
X128950000Y-104002000D01*
X128990000Y-98014000D02*
X128990000Y-99960000D01*
X128990000Y-102040000D02*
X128990000Y-103986000D01*
X129030000Y-98031000D02*
X129030000Y-99960000D01*
X129030000Y-102040000D02*
X129030000Y-103969000D01*
X129070000Y-98048000D02*
X129070000Y-99960000D01*
X129070000Y-102040000D02*
X129070000Y-103952000D01*
X129110000Y-98066000D02*
X129110000Y-99960000D01*
X129110000Y-102040000D02*
X129110000Y-103934000D01*
X129150000Y-98085000D02*
X129150000Y-99960000D01*
X129150000Y-102040000D02*
X129150000Y-103915000D01*
X129190000Y-98104000D02*
X129190000Y-99960000D01*
X129190000Y-102040000D02*
X129190000Y-103896000D01*
X129230000Y-98124000D02*
X129230000Y-99960000D01*
X129230000Y-102040000D02*
X129230000Y-103876000D01*
X129270000Y-98145000D02*
X129270000Y-99960000D01*
X129270000Y-102040000D02*
X129270000Y-103855000D01*
X129310000Y-98166000D02*
X129310000Y-99960000D01*
X129310000Y-102040000D02*
X129310000Y-103834000D01*
X129350000Y-98188000D02*
X129350000Y-99960000D01*
X129350000Y-102040000D02*
X129350000Y-103812000D01*
X129390000Y-98211000D02*
X129390000Y-99960000D01*
X129390000Y-102040000D02*
X129390000Y-103789000D01*
X129430000Y-98235000D02*
X129430000Y-99960000D01*
X129430000Y-102040000D02*
X129430000Y-103765000D01*
X129470000Y-98259000D02*
X129470000Y-99960000D01*
X129470000Y-102040000D02*
X129470000Y-103741000D01*
X129510000Y-98284000D02*
X129510000Y-99960000D01*
X129510000Y-102040000D02*
X129510000Y-103716000D01*
X129550000Y-98310000D02*
X129550000Y-99960000D01*
X129550000Y-102040000D02*
X129550000Y-103690000D01*
X129590000Y-98337000D02*
X129590000Y-99960000D01*
X129590000Y-102040000D02*
X129590000Y-103663000D01*
X129630000Y-98364000D02*
X129630000Y-99960000D01*
X129630000Y-102040000D02*
X129630000Y-103636000D01*
X129670000Y-98393000D02*
X129670000Y-99960000D01*
X129670000Y-102040000D02*
X129670000Y-103607000D01*
X129710000Y-98423000D02*
X129710000Y-99960000D01*
X129710000Y-102040000D02*
X129710000Y-103577000D01*
X129750000Y-98453000D02*
X129750000Y-99960000D01*
X129750000Y-102040000D02*
X129750000Y-103547000D01*
X129790000Y-98484000D02*
X129790000Y-99960000D01*
X129790000Y-102040000D02*
X129790000Y-103516000D01*
X129830000Y-98517000D02*
X129830000Y-99960000D01*
X129830000Y-102040000D02*
X129830000Y-103483000D01*
X129870000Y-98550000D02*
X129870000Y-99960000D01*
X129870000Y-102040000D02*
X129870000Y-103450000D01*
X129910000Y-98585000D02*
X129910000Y-99960000D01*
X129910000Y-102040000D02*
X129910000Y-103415000D01*
X129950000Y-98621000D02*
X129950000Y-99960000D01*
X129950000Y-102040000D02*
X129950000Y-103379000D01*
X129990000Y-98658000D02*
X129990000Y-99960000D01*
X129990000Y-102040000D02*
X129990000Y-103342000D01*
X130030000Y-98696000D02*
X130030000Y-99960000D01*
X130030000Y-102040000D02*
X130030000Y-103304000D01*
X130070000Y-98736000D02*
X130070000Y-103264000D01*
X130110000Y-98777000D02*
X130110000Y-103223000D01*
X130150000Y-98819000D02*
X130150000Y-103181000D01*
X130190000Y-98863000D02*
X130190000Y-103137000D01*
X130230000Y-98909000D02*
X130230000Y-103091000D01*
X130270000Y-98956000D02*
X130270000Y-103044000D01*
X130310000Y-99005000D02*
X130310000Y-102995000D01*
X130350000Y-99057000D02*
X130350000Y-102943000D01*
X130390000Y-99110000D02*
X130390000Y-102890000D01*
X130430000Y-99166000D02*
X130430000Y-102834000D01*
X130470000Y-99225000D02*
X130470000Y-102775000D01*
X130510000Y-99286000D02*
X130510000Y-102714000D01*
X130550000Y-99351000D02*
X130550000Y-102649000D01*
X130590000Y-99419000D02*
X130590000Y-102581000D01*
X130630000Y-99491000D02*
X130630000Y-102509000D01*
X130670000Y-99568000D02*
X130670000Y-102432000D01*
X130710000Y-99650000D02*
X130710000Y-102350000D01*
X130750000Y-99739000D02*
X130750000Y-102261000D01*
X130790000Y-99835000D02*
X130790000Y-102165000D01*
X130830000Y-99942000D02*
X130830000Y-102058000D01*
X130870000Y-100061000D02*
X130870000Y-101939000D01*
X130910000Y-100199000D02*
X130910000Y-101801000D01*
X130950000Y-100367000D02*
X130950000Y-101633000D01*
X130990000Y-100598000D02*
X130990000Y-101402000D01*
X131020000Y-101000000D02*
G75*
G02*
X124480000Y-101000000I-3270000J0D01*
G01*
X124480000Y-101000000D02*
G75*
G02*
X131020000Y-101000000I3270000J0D01*
G01*
%TD*%
M02*
