%TF.GenerationSoftware,KiCad,Pcbnew,9.0.7*%
%TF.CreationDate,2026-01-21T14:26:45-05:00*%
%TF.ProjectId,pcb,7063622e-6b69-4636-9164-5f7063625858,rev?*%
%TF.SameCoordinates,Original*%
%TF.FileFunction,Copper,L2,Bot*%
%TF.FilePolarity,Positive*%
%FSLAX46Y46*%
G04 Gerber Fmt 4.6, Leading zero omitted, Abs format (unit mm)*
G04 Created by KiCad (PCBNEW 9.0.7) date 2026-01-21 14:26:45*
%MOMM*%
%LPD*%
G01*
G04 APERTURE LIST*
G04 Aperture macros list*
%AMRoundRect*
0 Rectangle with rounded corners*
0 $1 Rounding radius*
0 $2 $3 $4 $5 $6 $7 $8 $9 X,Y pos of 4 corners*
0 Add a 4 corners polygon primitive as box body*
4,1,4,$2,$3,$4,$5,$6,$7,$8,$9,$2,$3,0*
0 Add four circle primitives for the rounded corners*
1,1,$1+$1,$2,$3*
1,1,$1+$1,$4,$5*
1,1,$1+$1,$6,$7*
1,1,$1+$1,$8,$9*
0 Add four rect primitives between the rounded corners*
20,1,$1+$1,$2,$3,$4,$5,0*
20,1,$1+$1,$4,$5,$6,$7,0*
20,1,$1+$1,$6,$7,$8,$9,0*
20,1,$1+$1,$8,$9,$2,$3,0*%
G04 Aperture macros list end*
%TA.AperFunction,ComponentPad*%
%ADD10R,2.000000X1.905000*%
%TD*%
%TA.AperFunction,ComponentPad*%
%ADD11O,2.000000X1.905000*%
%TD*%
%TA.AperFunction,ComponentPad*%
%ADD12R,1.700000X1.700000*%
%TD*%
%TA.AperFunction,ComponentPad*%
%ADD13C,1.700000*%
%TD*%
%TA.AperFunction,ComponentPad*%
%ADD14RoundRect,0.250000X-0.550000X0.550000X-0.550000X-0.550000X0.550000X-0.550000X0.550000X0.550000X0*%
%TD*%
%TA.AperFunction,ComponentPad*%
%ADD15C,1.600000*%
%TD*%
%TA.AperFunction,ComponentPad*%
%ADD16RoundRect,0.250000X-0.550000X-0.550000X0.550000X-0.550000X0.550000X0.550000X-0.550000X0.550000X0*%
%TD*%
%TA.AperFunction,Conductor*%
%ADD17C,0.500000*%
%TD*%
G04 APERTURE END LIST*
D10*
%TO.P,volt_reg1,1,7V4*%
%TO.N,Net-(smart_motor1-7V4)*%
X130500000Y-107000000D03*
D11*
%TO.P,volt_reg1,2,GND*%
%TO.N,Net-(joystick_2axes1-GND)*%
X130500000Y-109540000D03*
%TO.P,volt_reg1,3,5V*%
%TO.N,Net-(right_ESP32-C1-5V)*%
X130500000Y-112080000D03*
%TD*%
D12*
%TO.P,smart_motor1,1,7V4*%
%TO.N,Net-(smart_motor1-7V4)*%
X124000000Y-110500000D03*
D13*
%TO.P,smart_motor1,2,GND*%
%TO.N,Net-(joystick_2axes1-GND)*%
X121460000Y-110500000D03*
%TD*%
D12*
%TO.P,right_ESP32-C1,1,5V*%
%TO.N,Net-(right_ESP32-C1-5V)*%
X115240000Y-100000000D03*
D13*
%TO.P,right_ESP32-C1,2,GND*%
%TO.N,Net-(joystick_2axes1-GND)*%
X115240000Y-102540000D03*
%TO.P,right_ESP32-C1,3,3V3*%
%TO.N,Net-(joystick_2axes1-5V)*%
X115240000Y-105080000D03*
%TO.P,right_ESP32-C1,4,4*%
%TO.N,unconnected-(right_ESP32-C1-Pad4)*%
X115240000Y-107620000D03*
%TO.P,right_ESP32-C1,5,3*%
%TO.N,Net-(joystick_2axes1-Rx)*%
X115240000Y-110160000D03*
%TO.P,right_ESP32-C1,6,2*%
%TO.N,unconnected-(right_ESP32-C1-2-Pad6)*%
X115240000Y-112700000D03*
%TO.P,right_ESP32-C1,7,1*%
%TO.N,Net-(joystick_2axes1-SW)*%
X115240000Y-115240000D03*
%TO.P,right_ESP32-C1,8,0*%
%TO.N,Net-(joystick_2axes1-Ry)*%
X115240000Y-117780000D03*
%TD*%
D14*
%TO.P,output_c_pol1,1*%
%TO.N,Net-(right_ESP32-C1-5V)*%
X120500000Y-99500000D03*
D15*
%TO.P,output_c_pol1,2*%
%TO.N,Net-(joystick_2axes1-GND)*%
X120500000Y-102000000D03*
%TD*%
D12*
%TO.P,left_ESP32-C1,1,5*%
%TO.N,unconnected-(left_ESP32-C1-5-Pad1)*%
X100000000Y-100000000D03*
D13*
%TO.P,left_ESP32-C1,2,6*%
%TO.N,unconnected-(left_ESP32-C1-6-Pad2)*%
X100000000Y-102540000D03*
%TO.P,left_ESP32-C1,3,7*%
%TO.N,unconnected-(left_ESP32-C1-7-Pad3)*%
X100000000Y-105080000D03*
%TO.P,left_ESP32-C1,4,8*%
%TO.N,unconnected-(left_ESP32-C1-8-Pad4)*%
X100000000Y-107620000D03*
%TO.P,left_ESP32-C1,5,9*%
%TO.N,unconnected-(left_ESP32-C1-9-Pad5)*%
X100000000Y-110160000D03*
%TO.P,left_ESP32-C1,6,10*%
%TO.N,unconnected-(left_ESP32-C1-10-Pad6)*%
X100000000Y-112700000D03*
%TO.P,left_ESP32-C1,7,20*%
%TO.N,unconnected-(left_ESP32-C1-20-Pad7)*%
X100000000Y-115240000D03*
%TO.P,left_ESP32-C1,8,21*%
%TO.N,unconnected-(left_ESP32-C1-21-Pad8)*%
X100000000Y-117780000D03*
%TD*%
D12*
%TO.P,joystick_2axes1,1,SW*%
%TO.N,Net-(joystick_2axes1-SW)*%
X119380000Y-117000000D03*
D13*
%TO.P,joystick_2axes1,2,Ry*%
%TO.N,Net-(joystick_2axes1-Ry)*%
X121920000Y-117000000D03*
%TO.P,joystick_2axes1,3,Rx*%
%TO.N,Net-(joystick_2axes1-Rx)*%
X124460000Y-117000000D03*
%TO.P,joystick_2axes1,4,5V*%
%TO.N,Net-(joystick_2axes1-5V)*%
X127000000Y-117000000D03*
%TO.P,joystick_2axes1,5,GND*%
%TO.N,Net-(joystick_2axes1-GND)*%
X129540000Y-117000000D03*
%TD*%
D16*
%TO.P,input_c_pol1,1*%
%TO.N,Net-(smart_motor1-7V4)*%
X126500000Y-101000000D03*
D15*
%TO.P,input_c_pol1,2*%
%TO.N,Net-(joystick_2axes1-GND)*%
X129000000Y-101000000D03*
%TD*%
D17*
%TO.N,Net-(joystick_2axes1-GND)*%
X129000000Y-101000000D02*
X129000000Y-116460000D01*
X129000000Y-116460000D02*
X129540000Y-117000000D01*
X129000000Y-101000000D02*
X129000000Y-108040000D01*
X129000000Y-108040000D02*
X130500000Y-109540000D01*
X120500000Y-102000000D02*
X120500000Y-109540000D01*
X120500000Y-109540000D02*
X121460000Y-110500000D01*
X120500000Y-102000000D02*
X121299999Y-102799999D01*
X121299999Y-102799999D02*
X127200001Y-102799999D01*
X127200001Y-102799999D02*
X129000000Y-101000000D01*
X119960000Y-102540000D02*
X120500000Y-102000000D01*
X115240000Y-102540000D02*
X119960000Y-102540000D01*
%TD*%
M02*
