%TF.GenerationSoftware,KiCad,Pcbnew,9.0.7*%
%TF.CreationDate,2026-01-28T06:38:56-05:00*%
%TF.ProjectId,teleop_pcb,74656c65-6f70-45f7-9063-622e6b696361,rev?*%
%TF.SameCoordinates,Original*%
%TF.FileFunction,Soldermask,Bot*%
%TF.FilePolarity,Negative*%
%FSLAX46Y46*%
G04 Gerber Fmt 4.6, Leading zero omitted, Abs format (unit mm)*
G04 Created by KiCad (PCBNEW 9.0.7) date 2026-01-28 06:38:56*
%MOMM*%
%LPD*%
G01*
G04 APERTURE LIST*
G04 Aperture macros list*
%AMRoundRect*
0 Rectangle with rounded corners*
0 $1 Rounding radius*
0 $2 $3 $4 $5 $6 $7 $8 $9 X,Y pos of 4 corners*
0 Add a 4 corners polygon primitive as box body*
4,1,4,$2,$3,$4,$5,$6,$7,$8,$9,$2,$3,0*
0 Add four circle primitives for the rounded corners*
1,1,$1+$1,$2,$3*
1,1,$1+$1,$4,$5*
1,1,$1+$1,$6,$7*
1,1,$1+$1,$8,$9*
0 Add four rect primitives between the rounded corners*
20,1,$1+$1,$2,$3,$4,$5,0*
20,1,$1+$1,$4,$5,$6,$7,0*
20,1,$1+$1,$6,$7,$8,$9,0*
20,1,$1+$1,$8,$9,$2,$3,0*%
G04 Aperture macros list end*
%ADD10R,1.700000X1.700000*%
%ADD11C,1.700000*%
%ADD12R,1.905000X2.000000*%
%ADD13O,1.905000X2.000000*%
%ADD14C,5.000000*%
%ADD15RoundRect,0.250000X0.350000X-0.350000X0.350000X0.350000X-0.350000X0.350000X-0.350000X-0.350000X0*%
%ADD16C,1.200000*%
%ADD17C,1.552000*%
%ADD18RoundRect,0.250000X0.550000X-0.550000X0.550000X0.550000X-0.550000X0.550000X-0.550000X-0.550000X0*%
%ADD19C,1.600000*%
G04 APERTURE END LIST*
D10*
%TO.C,RIGHT_IMU1*%
X135500000Y-80300000D03*
D11*
X135500000Y-82840000D03*
X135500000Y-85380000D03*
X135500000Y-87920000D03*
X135500000Y-90460000D03*
X135500000Y-93000000D03*
%TD*%
D10*
%TO.C,LEFT_IMU1*%
X122800000Y-80300000D03*
D11*
X122800000Y-82840000D03*
X122800000Y-85380000D03*
X122800000Y-87920000D03*
X122800000Y-90460000D03*
X122800000Y-93000000D03*
%TD*%
D12*
%TO.C,volt_reg1*%
X146000000Y-88000000D03*
D13*
X143460000Y-88000000D03*
X140920000Y-88000000D03*
%TD*%
D10*
%TO.C,joystick_2axes1*%
X151500000Y-83920000D03*
D11*
X151500000Y-86460000D03*
X151500000Y-89000000D03*
X151500000Y-91540000D03*
X151500000Y-94080000D03*
%TD*%
D10*
%TO.C,smart_motor1*%
X140460000Y-94500000D03*
D11*
X143000000Y-94500000D03*
X145540000Y-94500000D03*
%TD*%
D14*
%TO.C,H2*%
X100000000Y-87000000D03*
%TD*%
%TO.C,H3*%
X151500000Y-79000000D03*
%TD*%
D15*
%TO.C,output_c1*%
X140000000Y-81972600D03*
D16*
X140000000Y-79972600D03*
%TD*%
D14*
%TO.C,H1*%
X129250000Y-92250000D03*
%TD*%
D17*
%TO.C,ESP32-C3_SuperMini1*%
X116380000Y-78880000D03*
X113840000Y-78880000D03*
X111300000Y-78880000D03*
X108760000Y-78880000D03*
X103680000Y-78880000D03*
X106220000Y-78880000D03*
X98600000Y-94120000D03*
X98600000Y-78880000D03*
X101140000Y-94120000D03*
X103680000Y-94120000D03*
X106220000Y-94120000D03*
X108760000Y-94120000D03*
X111300000Y-94120000D03*
X113840000Y-94120000D03*
X116380000Y-94120000D03*
X101140000Y-78880000D03*
%TD*%
D18*
%TO.C,input_c1*%
X146000000Y-83500000D03*
D19*
X146000000Y-81000000D03*
%TD*%
M02*
