%TF.GenerationSoftware,KiCad,Pcbnew,9.0.7*%
%TF.CreationDate,2026-01-28T06:38:56-05:00*%
%TF.ProjectId,teleop_pcb,74656c65-6f70-45f7-9063-622e6b696361,rev?*%
%TF.SameCoordinates,Original*%
%TF.FileFunction,Copper,L2,Bot*%
%TF.FilePolarity,Positive*%
%FSLAX46Y46*%
G04 Gerber Fmt 4.6, Leading zero omitted, Abs format (unit mm)*
G04 Created by KiCad (PCBNEW 9.0.7) date 2026-01-28 06:38:56*
%MOMM*%
%LPD*%
G01*
G04 APERTURE LIST*
G04 Aperture macros list*
%AMRoundRect*
0 Rectangle with rounded corners*
0 $1 Rounding radius*
0 $2 $3 $4 $5 $6 $7 $8 $9 X,Y pos of 4 corners*
0 Add a 4 corners polygon primitive as box body*
4,1,4,$2,$3,$4,$5,$6,$7,$8,$9,$2,$3,0*
0 Add four circle primitives for the rounded corners*
1,1,$1+$1,$2,$3*
1,1,$1+$1,$4,$5*
1,1,$1+$1,$6,$7*
1,1,$1+$1,$8,$9*
0 Add four rect primitives between the rounded corners*
20,1,$1+$1,$2,$3,$4,$5,0*
20,1,$1+$1,$4,$5,$6,$7,0*
20,1,$1+$1,$6,$7,$8,$9,0*
20,1,$1+$1,$8,$9,$2,$3,0*%
G04 Aperture macros list end*
%ADD10C,0.300000*%
%TA.AperFunction,NonConductor*%
%ADD11C,0.300000*%
%TD*%
%TA.AperFunction,ComponentPad*%
%ADD12R,1.700000X1.700000*%
%TD*%
%TA.AperFunction,ComponentPad*%
%ADD13C,1.700000*%
%TD*%
%TA.AperFunction,ComponentPad*%
%ADD14R,1.905000X2.000000*%
%TD*%
%TA.AperFunction,ComponentPad*%
%ADD15O,1.905000X2.000000*%
%TD*%
%TA.AperFunction,ComponentPad*%
%ADD16C,5.000000*%
%TD*%
%TA.AperFunction,ComponentPad*%
%ADD17RoundRect,0.250000X0.350000X-0.350000X0.350000X0.350000X-0.350000X0.350000X-0.350000X-0.350000X0*%
%TD*%
%TA.AperFunction,ComponentPad*%
%ADD18C,1.200000*%
%TD*%
%TA.AperFunction,ComponentPad*%
%ADD19C,1.348000*%
%TD*%
%TA.AperFunction,ComponentPad*%
%ADD20RoundRect,0.250000X0.550000X-0.550000X0.550000X0.550000X-0.550000X0.550000X-0.550000X-0.550000X0*%
%TD*%
%TA.AperFunction,ComponentPad*%
%ADD21C,1.600000*%
%TD*%
%TA.AperFunction,Conductor*%
%ADD22C,0.200000*%
%TD*%
G04 APERTURE END LIST*
D10*
D11*
X117659774Y-81627509D02*
X117802632Y-81556080D01*
X117802632Y-81556080D02*
X118016917Y-81556080D01*
X118016917Y-81556080D02*
X118231203Y-81627509D01*
X118231203Y-81627509D02*
X118374060Y-81770366D01*
X118374060Y-81770366D02*
X118445489Y-81913223D01*
X118445489Y-81913223D02*
X118516917Y-82198937D01*
X118516917Y-82198937D02*
X118516917Y-82413223D01*
X118516917Y-82413223D02*
X118445489Y-82698937D01*
X118445489Y-82698937D02*
X118374060Y-82841794D01*
X118374060Y-82841794D02*
X118231203Y-82984652D01*
X118231203Y-82984652D02*
X118016917Y-83056080D01*
X118016917Y-83056080D02*
X117874060Y-83056080D01*
X117874060Y-83056080D02*
X117659774Y-82984652D01*
X117659774Y-82984652D02*
X117588346Y-82913223D01*
X117588346Y-82913223D02*
X117588346Y-82413223D01*
X117588346Y-82413223D02*
X117874060Y-82413223D01*
X116302632Y-83056080D02*
X116302632Y-82270366D01*
X116302632Y-82270366D02*
X116374060Y-82127509D01*
X116374060Y-82127509D02*
X116516917Y-82056080D01*
X116516917Y-82056080D02*
X116802632Y-82056080D01*
X116802632Y-82056080D02*
X116945489Y-82127509D01*
X116302632Y-82984652D02*
X116445489Y-83056080D01*
X116445489Y-83056080D02*
X116802632Y-83056080D01*
X116802632Y-83056080D02*
X116945489Y-82984652D01*
X116945489Y-82984652D02*
X117016917Y-82841794D01*
X117016917Y-82841794D02*
X117016917Y-82698937D01*
X117016917Y-82698937D02*
X116945489Y-82556080D01*
X116945489Y-82556080D02*
X116802632Y-82484652D01*
X116802632Y-82484652D02*
X116445489Y-82484652D01*
X116445489Y-82484652D02*
X116302632Y-82413223D01*
X115588346Y-83056080D02*
X115588346Y-81556080D01*
X115588346Y-82127509D02*
X115445489Y-82056080D01*
X115445489Y-82056080D02*
X115159774Y-82056080D01*
X115159774Y-82056080D02*
X115016917Y-82127509D01*
X115016917Y-82127509D02*
X114945489Y-82198937D01*
X114945489Y-82198937D02*
X114874060Y-82341794D01*
X114874060Y-82341794D02*
X114874060Y-82770366D01*
X114874060Y-82770366D02*
X114945489Y-82913223D01*
X114945489Y-82913223D02*
X115016917Y-82984652D01*
X115016917Y-82984652D02*
X115159774Y-83056080D01*
X115159774Y-83056080D02*
X115445489Y-83056080D01*
X115445489Y-83056080D02*
X115588346Y-82984652D01*
X114231203Y-83056080D02*
X114231203Y-82056080D01*
X114231203Y-82341794D02*
X114159774Y-82198937D01*
X114159774Y-82198937D02*
X114088346Y-82127509D01*
X114088346Y-82127509D02*
X113945488Y-82056080D01*
X113945488Y-82056080D02*
X113802631Y-82056080D01*
X113302632Y-83056080D02*
X113302632Y-82056080D01*
X113302632Y-81556080D02*
X113374060Y-81627509D01*
X113374060Y-81627509D02*
X113302632Y-81698937D01*
X113302632Y-81698937D02*
X113231203Y-81627509D01*
X113231203Y-81627509D02*
X113302632Y-81556080D01*
X113302632Y-81556080D02*
X113302632Y-81698937D01*
X112016917Y-82984652D02*
X112159774Y-83056080D01*
X112159774Y-83056080D02*
X112445489Y-83056080D01*
X112445489Y-83056080D02*
X112588346Y-82984652D01*
X112588346Y-82984652D02*
X112659774Y-82841794D01*
X112659774Y-82841794D02*
X112659774Y-82270366D01*
X112659774Y-82270366D02*
X112588346Y-82127509D01*
X112588346Y-82127509D02*
X112445489Y-82056080D01*
X112445489Y-82056080D02*
X112159774Y-82056080D01*
X112159774Y-82056080D02*
X112016917Y-82127509D01*
X112016917Y-82127509D02*
X111945489Y-82270366D01*
X111945489Y-82270366D02*
X111945489Y-82413223D01*
X111945489Y-82413223D02*
X112659774Y-82556080D01*
X111088346Y-83056080D02*
X111231203Y-82984652D01*
X111231203Y-82984652D02*
X111302632Y-82841794D01*
X111302632Y-82841794D02*
X111302632Y-81556080D01*
X110874061Y-83198937D02*
X109731203Y-83198937D01*
X109088346Y-81556080D02*
X108802632Y-81556080D01*
X108802632Y-81556080D02*
X108659775Y-81627509D01*
X108659775Y-81627509D02*
X108516918Y-81770366D01*
X108516918Y-81770366D02*
X108445489Y-82056080D01*
X108445489Y-82056080D02*
X108445489Y-82556080D01*
X108445489Y-82556080D02*
X108516918Y-82841794D01*
X108516918Y-82841794D02*
X108659775Y-82984652D01*
X108659775Y-82984652D02*
X108802632Y-83056080D01*
X108802632Y-83056080D02*
X109088346Y-83056080D01*
X109088346Y-83056080D02*
X109231204Y-82984652D01*
X109231204Y-82984652D02*
X109374061Y-82841794D01*
X109374061Y-82841794D02*
X109445489Y-82556080D01*
X109445489Y-82556080D02*
X109445489Y-82056080D01*
X109445489Y-82056080D02*
X109374061Y-81770366D01*
X109374061Y-81770366D02*
X109231204Y-81627509D01*
X109231204Y-81627509D02*
X109088346Y-81556080D01*
X108159775Y-83198937D02*
X107016917Y-83198937D01*
X106016918Y-83056080D02*
X106016918Y-81556080D01*
X106016918Y-82984652D02*
X106159775Y-83056080D01*
X106159775Y-83056080D02*
X106445489Y-83056080D01*
X106445489Y-83056080D02*
X106588346Y-82984652D01*
X106588346Y-82984652D02*
X106659775Y-82913223D01*
X106659775Y-82913223D02*
X106731203Y-82770366D01*
X106731203Y-82770366D02*
X106731203Y-82341794D01*
X106731203Y-82341794D02*
X106659775Y-82198937D01*
X106659775Y-82198937D02*
X106588346Y-82127509D01*
X106588346Y-82127509D02*
X106445489Y-82056080D01*
X106445489Y-82056080D02*
X106159775Y-82056080D01*
X106159775Y-82056080D02*
X106016918Y-82127509D01*
X104659775Y-83056080D02*
X104659775Y-82270366D01*
X104659775Y-82270366D02*
X104731203Y-82127509D01*
X104731203Y-82127509D02*
X104874060Y-82056080D01*
X104874060Y-82056080D02*
X105159775Y-82056080D01*
X105159775Y-82056080D02*
X105302632Y-82127509D01*
X104659775Y-82984652D02*
X104802632Y-83056080D01*
X104802632Y-83056080D02*
X105159775Y-83056080D01*
X105159775Y-83056080D02*
X105302632Y-82984652D01*
X105302632Y-82984652D02*
X105374060Y-82841794D01*
X105374060Y-82841794D02*
X105374060Y-82698937D01*
X105374060Y-82698937D02*
X105302632Y-82556080D01*
X105302632Y-82556080D02*
X105159775Y-82484652D01*
X105159775Y-82484652D02*
X104802632Y-82484652D01*
X104802632Y-82484652D02*
X104659775Y-82413223D01*
X104302632Y-83198937D02*
X103159774Y-83198937D01*
X102874060Y-82984652D02*
X102659775Y-83056080D01*
X102659775Y-83056080D02*
X102302632Y-83056080D01*
X102302632Y-83056080D02*
X102159775Y-82984652D01*
X102159775Y-82984652D02*
X102088346Y-82913223D01*
X102088346Y-82913223D02*
X102016917Y-82770366D01*
X102016917Y-82770366D02*
X102016917Y-82627509D01*
X102016917Y-82627509D02*
X102088346Y-82484652D01*
X102088346Y-82484652D02*
X102159775Y-82413223D01*
X102159775Y-82413223D02*
X102302632Y-82341794D01*
X102302632Y-82341794D02*
X102588346Y-82270366D01*
X102588346Y-82270366D02*
X102731203Y-82198937D01*
X102731203Y-82198937D02*
X102802632Y-82127509D01*
X102802632Y-82127509D02*
X102874060Y-81984652D01*
X102874060Y-81984652D02*
X102874060Y-81841794D01*
X102874060Y-81841794D02*
X102802632Y-81698937D01*
X102802632Y-81698937D02*
X102731203Y-81627509D01*
X102731203Y-81627509D02*
X102588346Y-81556080D01*
X102588346Y-81556080D02*
X102231203Y-81556080D01*
X102231203Y-81556080D02*
X102016917Y-81627509D01*
X101374061Y-83056080D02*
X101374061Y-82056080D01*
X101374061Y-81556080D02*
X101445489Y-81627509D01*
X101445489Y-81627509D02*
X101374061Y-81698937D01*
X101374061Y-81698937D02*
X101302632Y-81627509D01*
X101302632Y-81627509D02*
X101374061Y-81556080D01*
X101374061Y-81556080D02*
X101374061Y-81698937D01*
X100445489Y-83056080D02*
X100588346Y-82984652D01*
X100588346Y-82984652D02*
X100659775Y-82841794D01*
X100659775Y-82841794D02*
X100659775Y-81556080D01*
X100016918Y-82056080D02*
X99659775Y-83056080D01*
X99659775Y-83056080D02*
X99302632Y-82056080D01*
X98088347Y-83056080D02*
X98088347Y-82270366D01*
X98088347Y-82270366D02*
X98159775Y-82127509D01*
X98159775Y-82127509D02*
X98302632Y-82056080D01*
X98302632Y-82056080D02*
X98588347Y-82056080D01*
X98588347Y-82056080D02*
X98731204Y-82127509D01*
X98088347Y-82984652D02*
X98231204Y-83056080D01*
X98231204Y-83056080D02*
X98588347Y-83056080D01*
X98588347Y-83056080D02*
X98731204Y-82984652D01*
X98731204Y-82984652D02*
X98802632Y-82841794D01*
X98802632Y-82841794D02*
X98802632Y-82698937D01*
X98802632Y-82698937D02*
X98731204Y-82556080D01*
X98731204Y-82556080D02*
X98588347Y-82484652D01*
X98588347Y-82484652D02*
X98231204Y-82484652D01*
X98231204Y-82484652D02*
X98088347Y-82413223D01*
X118659774Y-83970996D02*
X117802632Y-83970996D01*
X118231203Y-85470996D02*
X118231203Y-83970996D01*
X116731203Y-85399568D02*
X116874060Y-85470996D01*
X116874060Y-85470996D02*
X117159775Y-85470996D01*
X117159775Y-85470996D02*
X117302632Y-85399568D01*
X117302632Y-85399568D02*
X117374060Y-85256710D01*
X117374060Y-85256710D02*
X117374060Y-84685282D01*
X117374060Y-84685282D02*
X117302632Y-84542425D01*
X117302632Y-84542425D02*
X117159775Y-84470996D01*
X117159775Y-84470996D02*
X116874060Y-84470996D01*
X116874060Y-84470996D02*
X116731203Y-84542425D01*
X116731203Y-84542425D02*
X116659775Y-84685282D01*
X116659775Y-84685282D02*
X116659775Y-84828139D01*
X116659775Y-84828139D02*
X117374060Y-84970996D01*
X115802632Y-85470996D02*
X115945489Y-85399568D01*
X115945489Y-85399568D02*
X116016918Y-85256710D01*
X116016918Y-85256710D02*
X116016918Y-83970996D01*
X114659775Y-85399568D02*
X114802632Y-85470996D01*
X114802632Y-85470996D02*
X115088347Y-85470996D01*
X115088347Y-85470996D02*
X115231204Y-85399568D01*
X115231204Y-85399568D02*
X115302632Y-85256710D01*
X115302632Y-85256710D02*
X115302632Y-84685282D01*
X115302632Y-84685282D02*
X115231204Y-84542425D01*
X115231204Y-84542425D02*
X115088347Y-84470996D01*
X115088347Y-84470996D02*
X114802632Y-84470996D01*
X114802632Y-84470996D02*
X114659775Y-84542425D01*
X114659775Y-84542425D02*
X114588347Y-84685282D01*
X114588347Y-84685282D02*
X114588347Y-84828139D01*
X114588347Y-84828139D02*
X115302632Y-84970996D01*
X113659775Y-83970996D02*
X113374061Y-83970996D01*
X113374061Y-83970996D02*
X113231204Y-84042425D01*
X113231204Y-84042425D02*
X113088347Y-84185282D01*
X113088347Y-84185282D02*
X113016918Y-84470996D01*
X113016918Y-84470996D02*
X113016918Y-84970996D01*
X113016918Y-84970996D02*
X113088347Y-85256710D01*
X113088347Y-85256710D02*
X113231204Y-85399568D01*
X113231204Y-85399568D02*
X113374061Y-85470996D01*
X113374061Y-85470996D02*
X113659775Y-85470996D01*
X113659775Y-85470996D02*
X113802633Y-85399568D01*
X113802633Y-85399568D02*
X113945490Y-85256710D01*
X113945490Y-85256710D02*
X114016918Y-84970996D01*
X114016918Y-84970996D02*
X114016918Y-84470996D01*
X114016918Y-84470996D02*
X113945490Y-84185282D01*
X113945490Y-84185282D02*
X113802633Y-84042425D01*
X113802633Y-84042425D02*
X113659775Y-83970996D01*
X112374061Y-84470996D02*
X112374061Y-85970996D01*
X112374061Y-84542425D02*
X112231204Y-84470996D01*
X112231204Y-84470996D02*
X111945489Y-84470996D01*
X111945489Y-84470996D02*
X111802632Y-84542425D01*
X111802632Y-84542425D02*
X111731204Y-84613853D01*
X111731204Y-84613853D02*
X111659775Y-84756710D01*
X111659775Y-84756710D02*
X111659775Y-85185282D01*
X111659775Y-85185282D02*
X111731204Y-85328139D01*
X111731204Y-85328139D02*
X111802632Y-85399568D01*
X111802632Y-85399568D02*
X111945489Y-85470996D01*
X111945489Y-85470996D02*
X112231204Y-85470996D01*
X112231204Y-85470996D02*
X112374061Y-85399568D01*
X111374061Y-85613853D02*
X110231203Y-85613853D01*
X109874061Y-85470996D02*
X109874061Y-83970996D01*
X109874061Y-83970996D02*
X109302632Y-83970996D01*
X109302632Y-83970996D02*
X109159775Y-84042425D01*
X109159775Y-84042425D02*
X109088346Y-84113853D01*
X109088346Y-84113853D02*
X109016918Y-84256710D01*
X109016918Y-84256710D02*
X109016918Y-84470996D01*
X109016918Y-84470996D02*
X109088346Y-84613853D01*
X109088346Y-84613853D02*
X109159775Y-84685282D01*
X109159775Y-84685282D02*
X109302632Y-84756710D01*
X109302632Y-84756710D02*
X109874061Y-84756710D01*
X107516918Y-85328139D02*
X107588346Y-85399568D01*
X107588346Y-85399568D02*
X107802632Y-85470996D01*
X107802632Y-85470996D02*
X107945489Y-85470996D01*
X107945489Y-85470996D02*
X108159775Y-85399568D01*
X108159775Y-85399568D02*
X108302632Y-85256710D01*
X108302632Y-85256710D02*
X108374061Y-85113853D01*
X108374061Y-85113853D02*
X108445489Y-84828139D01*
X108445489Y-84828139D02*
X108445489Y-84613853D01*
X108445489Y-84613853D02*
X108374061Y-84328139D01*
X108374061Y-84328139D02*
X108302632Y-84185282D01*
X108302632Y-84185282D02*
X108159775Y-84042425D01*
X108159775Y-84042425D02*
X107945489Y-83970996D01*
X107945489Y-83970996D02*
X107802632Y-83970996D01*
X107802632Y-83970996D02*
X107588346Y-84042425D01*
X107588346Y-84042425D02*
X107516918Y-84113853D01*
X106374061Y-84685282D02*
X106159775Y-84756710D01*
X106159775Y-84756710D02*
X106088346Y-84828139D01*
X106088346Y-84828139D02*
X106016918Y-84970996D01*
X106016918Y-84970996D02*
X106016918Y-85185282D01*
X106016918Y-85185282D02*
X106088346Y-85328139D01*
X106088346Y-85328139D02*
X106159775Y-85399568D01*
X106159775Y-85399568D02*
X106302632Y-85470996D01*
X106302632Y-85470996D02*
X106874061Y-85470996D01*
X106874061Y-85470996D02*
X106874061Y-83970996D01*
X106874061Y-83970996D02*
X106374061Y-83970996D01*
X106374061Y-83970996D02*
X106231204Y-84042425D01*
X106231204Y-84042425D02*
X106159775Y-84113853D01*
X106159775Y-84113853D02*
X106088346Y-84256710D01*
X106088346Y-84256710D02*
X106088346Y-84399568D01*
X106088346Y-84399568D02*
X106159775Y-84542425D01*
X106159775Y-84542425D02*
X106231204Y-84613853D01*
X106231204Y-84613853D02*
X106374061Y-84685282D01*
X106374061Y-84685282D02*
X106874061Y-84685282D01*
X117588346Y-87885912D02*
X118088346Y-87171626D01*
X118445489Y-87885912D02*
X118445489Y-86385912D01*
X118445489Y-86385912D02*
X117874060Y-86385912D01*
X117874060Y-86385912D02*
X117731203Y-86457341D01*
X117731203Y-86457341D02*
X117659774Y-86528769D01*
X117659774Y-86528769D02*
X117588346Y-86671626D01*
X117588346Y-86671626D02*
X117588346Y-86885912D01*
X117588346Y-86885912D02*
X117659774Y-87028769D01*
X117659774Y-87028769D02*
X117731203Y-87100198D01*
X117731203Y-87100198D02*
X117874060Y-87171626D01*
X117874060Y-87171626D02*
X118445489Y-87171626D01*
X116374060Y-87814484D02*
X116516917Y-87885912D01*
X116516917Y-87885912D02*
X116802632Y-87885912D01*
X116802632Y-87885912D02*
X116945489Y-87814484D01*
X116945489Y-87814484D02*
X117016917Y-87671626D01*
X117016917Y-87671626D02*
X117016917Y-87100198D01*
X117016917Y-87100198D02*
X116945489Y-86957341D01*
X116945489Y-86957341D02*
X116802632Y-86885912D01*
X116802632Y-86885912D02*
X116516917Y-86885912D01*
X116516917Y-86885912D02*
X116374060Y-86957341D01*
X116374060Y-86957341D02*
X116302632Y-87100198D01*
X116302632Y-87100198D02*
X116302632Y-87243055D01*
X116302632Y-87243055D02*
X117016917Y-87385912D01*
X115802632Y-86885912D02*
X115445489Y-87885912D01*
X115445489Y-87885912D02*
X115088346Y-86885912D01*
X113731203Y-87885912D02*
X114588346Y-87885912D01*
X114159775Y-87885912D02*
X114159775Y-86385912D01*
X114159775Y-86385912D02*
X114302632Y-86600198D01*
X114302632Y-86600198D02*
X114445489Y-86743055D01*
X114445489Y-86743055D02*
X114588346Y-86814484D01*
X118588346Y-88800828D02*
X118231203Y-90300828D01*
X118231203Y-90300828D02*
X117945489Y-89229400D01*
X117945489Y-89229400D02*
X117659774Y-90300828D01*
X117659774Y-90300828D02*
X117302632Y-88800828D01*
X116159774Y-90229400D02*
X116302631Y-90300828D01*
X116302631Y-90300828D02*
X116588346Y-90300828D01*
X116588346Y-90300828D02*
X116731203Y-90229400D01*
X116731203Y-90229400D02*
X116802631Y-90086542D01*
X116802631Y-90086542D02*
X116802631Y-89515114D01*
X116802631Y-89515114D02*
X116731203Y-89372257D01*
X116731203Y-89372257D02*
X116588346Y-89300828D01*
X116588346Y-89300828D02*
X116302631Y-89300828D01*
X116302631Y-89300828D02*
X116159774Y-89372257D01*
X116159774Y-89372257D02*
X116088346Y-89515114D01*
X116088346Y-89515114D02*
X116088346Y-89657971D01*
X116088346Y-89657971D02*
X116802631Y-89800828D01*
X114802632Y-90300828D02*
X114802632Y-88800828D01*
X114802632Y-90229400D02*
X114945489Y-90300828D01*
X114945489Y-90300828D02*
X115231203Y-90300828D01*
X115231203Y-90300828D02*
X115374060Y-90229400D01*
X115374060Y-90229400D02*
X115445489Y-90157971D01*
X115445489Y-90157971D02*
X115516917Y-90015114D01*
X115516917Y-90015114D02*
X115516917Y-89586542D01*
X115516917Y-89586542D02*
X115445489Y-89443685D01*
X115445489Y-89443685D02*
X115374060Y-89372257D01*
X115374060Y-89372257D02*
X115231203Y-89300828D01*
X115231203Y-89300828D02*
X114945489Y-89300828D01*
X114945489Y-89300828D02*
X114802632Y-89372257D01*
X114088346Y-90157971D02*
X114016917Y-90229400D01*
X114016917Y-90229400D02*
X114088346Y-90300828D01*
X114088346Y-90300828D02*
X114159774Y-90229400D01*
X114159774Y-90229400D02*
X114088346Y-90157971D01*
X114088346Y-90157971D02*
X114088346Y-90300828D01*
X114088346Y-89372257D02*
X114016917Y-89443685D01*
X114016917Y-89443685D02*
X114088346Y-89515114D01*
X114088346Y-89515114D02*
X114159774Y-89443685D01*
X114159774Y-89443685D02*
X114088346Y-89372257D01*
X114088346Y-89372257D02*
X114088346Y-89515114D01*
X113445488Y-88943685D02*
X113374060Y-88872257D01*
X113374060Y-88872257D02*
X113231203Y-88800828D01*
X113231203Y-88800828D02*
X112874060Y-88800828D01*
X112874060Y-88800828D02*
X112731203Y-88872257D01*
X112731203Y-88872257D02*
X112659774Y-88943685D01*
X112659774Y-88943685D02*
X112588345Y-89086542D01*
X112588345Y-89086542D02*
X112588345Y-89229400D01*
X112588345Y-89229400D02*
X112659774Y-89443685D01*
X112659774Y-89443685D02*
X113516917Y-90300828D01*
X113516917Y-90300828D02*
X112588345Y-90300828D01*
X111731203Y-89443685D02*
X111874060Y-89372257D01*
X111874060Y-89372257D02*
X111945489Y-89300828D01*
X111945489Y-89300828D02*
X112016917Y-89157971D01*
X112016917Y-89157971D02*
X112016917Y-89086542D01*
X112016917Y-89086542D02*
X111945489Y-88943685D01*
X111945489Y-88943685D02*
X111874060Y-88872257D01*
X111874060Y-88872257D02*
X111731203Y-88800828D01*
X111731203Y-88800828D02*
X111445489Y-88800828D01*
X111445489Y-88800828D02*
X111302632Y-88872257D01*
X111302632Y-88872257D02*
X111231203Y-88943685D01*
X111231203Y-88943685D02*
X111159774Y-89086542D01*
X111159774Y-89086542D02*
X111159774Y-89157971D01*
X111159774Y-89157971D02*
X111231203Y-89300828D01*
X111231203Y-89300828D02*
X111302632Y-89372257D01*
X111302632Y-89372257D02*
X111445489Y-89443685D01*
X111445489Y-89443685D02*
X111731203Y-89443685D01*
X111731203Y-89443685D02*
X111874060Y-89515114D01*
X111874060Y-89515114D02*
X111945489Y-89586542D01*
X111945489Y-89586542D02*
X112016917Y-89729400D01*
X112016917Y-89729400D02*
X112016917Y-90015114D01*
X112016917Y-90015114D02*
X111945489Y-90157971D01*
X111945489Y-90157971D02*
X111874060Y-90229400D01*
X111874060Y-90229400D02*
X111731203Y-90300828D01*
X111731203Y-90300828D02*
X111445489Y-90300828D01*
X111445489Y-90300828D02*
X111302632Y-90229400D01*
X111302632Y-90229400D02*
X111231203Y-90157971D01*
X111231203Y-90157971D02*
X111159774Y-90015114D01*
X111159774Y-90015114D02*
X111159774Y-89729400D01*
X111159774Y-89729400D02*
X111231203Y-89586542D01*
X111231203Y-89586542D02*
X111302632Y-89515114D01*
X111302632Y-89515114D02*
X111445489Y-89443685D01*
X110874061Y-90443685D02*
X109731203Y-90443685D01*
X108945489Y-88800828D02*
X108945489Y-89872257D01*
X108945489Y-89872257D02*
X109016918Y-90086542D01*
X109016918Y-90086542D02*
X109159775Y-90229400D01*
X109159775Y-90229400D02*
X109374061Y-90300828D01*
X109374061Y-90300828D02*
X109516918Y-90300828D01*
X107588347Y-90300828D02*
X107588347Y-89515114D01*
X107588347Y-89515114D02*
X107659775Y-89372257D01*
X107659775Y-89372257D02*
X107802632Y-89300828D01*
X107802632Y-89300828D02*
X108088347Y-89300828D01*
X108088347Y-89300828D02*
X108231204Y-89372257D01*
X107588347Y-90229400D02*
X107731204Y-90300828D01*
X107731204Y-90300828D02*
X108088347Y-90300828D01*
X108088347Y-90300828D02*
X108231204Y-90229400D01*
X108231204Y-90229400D02*
X108302632Y-90086542D01*
X108302632Y-90086542D02*
X108302632Y-89943685D01*
X108302632Y-89943685D02*
X108231204Y-89800828D01*
X108231204Y-89800828D02*
X108088347Y-89729400D01*
X108088347Y-89729400D02*
X107731204Y-89729400D01*
X107731204Y-89729400D02*
X107588347Y-89657971D01*
X106874061Y-89300828D02*
X106874061Y-90300828D01*
X106874061Y-89443685D02*
X106802632Y-89372257D01*
X106802632Y-89372257D02*
X106659775Y-89300828D01*
X106659775Y-89300828D02*
X106445489Y-89300828D01*
X106445489Y-89300828D02*
X106302632Y-89372257D01*
X106302632Y-89372257D02*
X106231204Y-89515114D01*
X106231204Y-89515114D02*
X106231204Y-90300828D01*
X105516918Y-90157971D02*
X105445489Y-90229400D01*
X105445489Y-90229400D02*
X105516918Y-90300828D01*
X105516918Y-90300828D02*
X105588346Y-90229400D01*
X105588346Y-90229400D02*
X105516918Y-90157971D01*
X105516918Y-90157971D02*
X105516918Y-90300828D01*
X105516918Y-89372257D02*
X105445489Y-89443685D01*
X105445489Y-89443685D02*
X105516918Y-89515114D01*
X105516918Y-89515114D02*
X105588346Y-89443685D01*
X105588346Y-89443685D02*
X105516918Y-89372257D01*
X105516918Y-89372257D02*
X105516918Y-89515114D01*
X104874060Y-88943685D02*
X104802632Y-88872257D01*
X104802632Y-88872257D02*
X104659775Y-88800828D01*
X104659775Y-88800828D02*
X104302632Y-88800828D01*
X104302632Y-88800828D02*
X104159775Y-88872257D01*
X104159775Y-88872257D02*
X104088346Y-88943685D01*
X104088346Y-88943685D02*
X104016917Y-89086542D01*
X104016917Y-89086542D02*
X104016917Y-89229400D01*
X104016917Y-89229400D02*
X104088346Y-89443685D01*
X104088346Y-89443685D02*
X104945489Y-90300828D01*
X104945489Y-90300828D02*
X104016917Y-90300828D01*
X102731204Y-88800828D02*
X103016918Y-88800828D01*
X103016918Y-88800828D02*
X103159775Y-88872257D01*
X103159775Y-88872257D02*
X103231204Y-88943685D01*
X103231204Y-88943685D02*
X103374061Y-89157971D01*
X103374061Y-89157971D02*
X103445489Y-89443685D01*
X103445489Y-89443685D02*
X103445489Y-90015114D01*
X103445489Y-90015114D02*
X103374061Y-90157971D01*
X103374061Y-90157971D02*
X103302632Y-90229400D01*
X103302632Y-90229400D02*
X103159775Y-90300828D01*
X103159775Y-90300828D02*
X102874061Y-90300828D01*
X102874061Y-90300828D02*
X102731204Y-90229400D01*
X102731204Y-90229400D02*
X102659775Y-90157971D01*
X102659775Y-90157971D02*
X102588346Y-90015114D01*
X102588346Y-90015114D02*
X102588346Y-89657971D01*
X102588346Y-89657971D02*
X102659775Y-89515114D01*
X102659775Y-89515114D02*
X102731204Y-89443685D01*
X102731204Y-89443685D02*
X102874061Y-89372257D01*
X102874061Y-89372257D02*
X103159775Y-89372257D01*
X103159775Y-89372257D02*
X103302632Y-89443685D01*
X103302632Y-89443685D02*
X103374061Y-89515114D01*
X103374061Y-89515114D02*
X103445489Y-89657971D01*
D12*
%TO.P,RIGHT_IMU1,1,Pin_1*%
%TO.N,unconnected-(RIGHT_IMU1-Pin_1-Pad1)*%
X135500000Y-80300000D03*
D13*
%TO.P,RIGHT_IMU1,2,Pin_2*%
%TO.N,unconnected-(RIGHT_IMU1-Pin_2-Pad2)*%
X135500000Y-82840000D03*
%TO.P,RIGHT_IMU1,3,Pin_3*%
%TO.N,unconnected-(RIGHT_IMU1-Pin_3-Pad3)*%
X135500000Y-85380000D03*
%TO.P,RIGHT_IMU1,4,Pin_4*%
%TO.N,unconnected-(RIGHT_IMU1-Pin_4-Pad4)*%
X135500000Y-87920000D03*
%TO.P,RIGHT_IMU1,5,Pin_5*%
%TO.N,unconnected-(RIGHT_IMU1-Pin_5-Pad5)*%
X135500000Y-90460000D03*
%TO.P,RIGHT_IMU1,6,Pin_6*%
%TO.N,unconnected-(RIGHT_IMU1-Pin_6-Pad6)*%
X135500000Y-93000000D03*
%TD*%
D12*
%TO.P,LEFT_IMU1,1,D0*%
%TO.N,unconnected-(LEFT_IMU1-D0-Pad1)*%
X122800000Y-80300000D03*
D13*
%TO.P,LEFT_IMU1,2,VCC*%
%TO.N,/5V0*%
X122800000Y-82840000D03*
%TO.P,LEFT_IMU1,3,RX*%
%TO.N,/RX_IMU*%
X122800000Y-85380000D03*
%TO.P,LEFT_IMU1,4,TX*%
%TO.N,/TX_IMU*%
X122800000Y-87920000D03*
%TO.P,LEFT_IMU1,5,GND*%
%TO.N,GND*%
X122800000Y-90460000D03*
%TO.P,LEFT_IMU1,6,D1*%
%TO.N,unconnected-(LEFT_IMU1-D1-Pad6)*%
X122800000Y-93000000D03*
%TD*%
D14*
%TO.P,volt_reg1,1,IN*%
%TO.N,/7V4*%
X146000000Y-88000000D03*
D15*
%TO.P,volt_reg1,2,GND*%
%TO.N,GND*%
X143460000Y-88000000D03*
%TO.P,volt_reg1,3,OUT*%
%TO.N,/5V0*%
X140920000Y-88000000D03*
%TD*%
D12*
%TO.P,joystick_2axes1,1,SW*%
%TO.N,/SW*%
X151500000Y-83920000D03*
D13*
%TO.P,joystick_2axes1,2,Ry*%
%TO.N,/RY*%
X151500000Y-86460000D03*
%TO.P,joystick_2axes1,3,Rx*%
%TO.N,/RX*%
X151500000Y-89000000D03*
%TO.P,joystick_2axes1,4,5V*%
%TO.N,/3V3*%
X151500000Y-91540000D03*
%TO.P,joystick_2axes1,5,GND*%
%TO.N,GND*%
X151500000Y-94080000D03*
%TD*%
D12*
%TO.P,smart_motor1,1,7V4*%
%TO.N,/7V4*%
X140460000Y-94500000D03*
D13*
%TO.P,smart_motor1,2,GND*%
%TO.N,GND*%
X143000000Y-94500000D03*
%TO.P,smart_motor1,3,DATA*%
%TO.N,unconnected-(smart_motor1-DATA-Pad3)*%
X145540000Y-94500000D03*
%TD*%
D16*
%TO.P,H2,1,1*%
%TO.N,unconnected-(H2-Pad1)*%
X100000000Y-87000000D03*
%TD*%
%TO.P,H3,1,1*%
%TO.N,unconnected-(H3-Pad1)*%
X151500000Y-79000000D03*
%TD*%
D17*
%TO.P,output_c1,1*%
%TO.N,/5V0*%
X140000000Y-81972600D03*
D18*
%TO.P,output_c1,2*%
%TO.N,GND*%
X140000000Y-79972600D03*
%TD*%
D16*
%TO.P,H1,1,1*%
%TO.N,unconnected-(H1-Pad1)*%
X129250000Y-92250000D03*
%TD*%
D19*
%TO.P,ESP32-C3_SuperMini1,0,GPIO0*%
%TO.N,/RY*%
X116380000Y-78880000D03*
%TO.P,ESP32-C3_SuperMini1,1,GPIO1*%
%TO.N,/SW*%
X113840000Y-78880000D03*
%TO.P,ESP32-C3_SuperMini1,2,GPIO2*%
%TO.N,unconnected-(ESP32-C3_SuperMini1-GPIO2-Pad2)*%
X111300000Y-78880000D03*
%TO.P,ESP32-C3_SuperMini1,3,GPIO3*%
%TO.N,/RX*%
X108760000Y-78880000D03*
%TO.P,ESP32-C3_SuperMini1,3.3,3V3*%
%TO.N,/3V3*%
X103680000Y-78880000D03*
%TO.P,ESP32-C3_SuperMini1,4,GPIO4*%
%TO.N,unconnected-(ESP32-C3_SuperMini1-GPIO4-Pad4)*%
X106220000Y-78880000D03*
%TO.P,ESP32-C3_SuperMini1,5,GPIO5*%
%TO.N,unconnected-(ESP32-C3_SuperMini1-GPIO5-Pad5)*%
X98600000Y-94120000D03*
%TO.P,ESP32-C3_SuperMini1,5V,5V*%
%TO.N,/5V0*%
X98600000Y-78880000D03*
%TO.P,ESP32-C3_SuperMini1,6,GPIO6*%
%TO.N,unconnected-(ESP32-C3_SuperMini1-GPIO6-Pad6)*%
X101140000Y-94120000D03*
%TO.P,ESP32-C3_SuperMini1,7,GPIO7*%
%TO.N,unconnected-(ESP32-C3_SuperMini1-GPIO7-Pad7)*%
X103680000Y-94120000D03*
%TO.P,ESP32-C3_SuperMini1,8,GPIO8*%
%TO.N,unconnected-(ESP32-C3_SuperMini1-GPIO8-Pad8)*%
X106220000Y-94120000D03*
%TO.P,ESP32-C3_SuperMini1,9,GPIO9*%
%TO.N,unconnected-(ESP32-C3_SuperMini1-GPIO9-Pad9)*%
X108760000Y-94120000D03*
%TO.P,ESP32-C3_SuperMini1,10,GPIO10*%
%TO.N,unconnected-(ESP32-C3_SuperMini1-GPIO10-Pad10)*%
X111300000Y-94120000D03*
%TO.P,ESP32-C3_SuperMini1,20,GPIO20*%
%TO.N,/TX_IMU*%
X113840000Y-94120000D03*
%TO.P,ESP32-C3_SuperMini1,21,GPIO21*%
%TO.N,/RX_IMU*%
X116380000Y-94120000D03*
%TO.P,ESP32-C3_SuperMini1,G,GND*%
%TO.N,GND*%
X101140000Y-78880000D03*
%TD*%
D20*
%TO.P,input_c1,1*%
%TO.N,/7V4*%
X146000000Y-83500000D03*
D21*
%TO.P,input_c1,2*%
%TO.N,GND*%
X146000000Y-81000000D03*
%TD*%
D22*
%TO.N,/SW*%
X150477050Y-83920000D02*
X151500000Y-83920000D01*
X144462050Y-77905000D02*
X150477050Y-83920000D01*
X113840000Y-78880000D02*
X114815000Y-77905000D01*
X114815000Y-77905000D02*
X144462050Y-77905000D01*
%TO.N,/3V3*%
X103680000Y-78880000D02*
X105611000Y-76949000D01*
X152651000Y-82769000D02*
X152651000Y-85071000D01*
X144529000Y-76949000D02*
X150349000Y-82769000D01*
X150349000Y-82769000D02*
X152651000Y-82769000D01*
X105611000Y-76949000D02*
X144529000Y-76949000D01*
X152651000Y-85071000D02*
X150349000Y-85071000D01*
X150349000Y-85071000D02*
X150349000Y-90389000D01*
X150349000Y-90389000D02*
X151500000Y-91540000D01*
%TO.N,GND*%
X144151000Y-95651000D02*
X149929000Y-95651000D01*
X129269000Y-83991000D02*
X135981600Y-83991000D01*
X121411000Y-89071000D02*
X122800000Y-90460000D01*
X143460000Y-88000000D02*
X143460000Y-94040000D01*
X149929000Y-95651000D02*
X151500000Y-94080000D01*
X143000000Y-94500000D02*
X144151000Y-95651000D01*
X111331000Y-89071000D02*
X121411000Y-89071000D01*
X101140000Y-78880000D02*
X111331000Y-89071000D01*
X135981600Y-83991000D02*
X140000000Y-79972600D01*
X143460000Y-83540000D02*
X143460000Y-88000000D01*
X140000000Y-79972600D02*
X144972600Y-79972600D01*
X122800000Y-90460000D02*
X129269000Y-83991000D01*
X143460000Y-94040000D02*
X143000000Y-94500000D01*
X144972600Y-79972600D02*
X146000000Y-81000000D01*
X146000000Y-81000000D02*
X143460000Y-83540000D01*
%TD*%
%TA.AperFunction,Conductor*%
%TO.N,GND*%
G36*
X104977941Y-76520185D02*
G01*
X105023696Y-76572989D01*
X105033640Y-76642147D01*
X105004615Y-76705703D01*
X104998583Y-76712181D01*
X104018105Y-77692658D01*
X103956782Y-77726143D01*
X103911026Y-77727450D01*
X103772440Y-77705500D01*
X103772435Y-77705500D01*
X103587565Y-77705500D01*
X103587560Y-77705500D01*
X103404969Y-77734419D01*
X103229150Y-77791546D01*
X103229147Y-77791547D01*
X103064424Y-77875479D01*
X102914870Y-77984135D01*
X102914865Y-77984139D01*
X102784139Y-78114865D01*
X102784135Y-78114870D01*
X102675479Y-78264424D01*
X102591547Y-78429147D01*
X102591546Y-78429150D01*
X102534419Y-78604971D01*
X102532218Y-78618867D01*
X102502286Y-78682000D01*
X102442973Y-78718928D01*
X102373110Y-78717927D01*
X102314879Y-78679315D01*
X102287272Y-78618857D01*
X102285091Y-78605087D01*
X102227986Y-78429338D01*
X102144092Y-78264686D01*
X102129269Y-78244283D01*
X101557642Y-78815909D01*
X101531378Y-78717886D01*
X101476084Y-78622114D01*
X101397886Y-78543916D01*
X101302114Y-78488622D01*
X101204090Y-78462356D01*
X101775716Y-77890730D01*
X101755307Y-77875903D01*
X101755303Y-77875900D01*
X101590664Y-77792014D01*
X101414908Y-77734907D01*
X101232395Y-77706000D01*
X101047605Y-77706000D01*
X100865091Y-77734907D01*
X100689338Y-77792013D01*
X100524692Y-77875903D01*
X100524688Y-77875906D01*
X100504283Y-77890729D01*
X100504283Y-77890730D01*
X101075910Y-78462356D01*
X100977886Y-78488622D01*
X100882114Y-78543916D01*
X100803916Y-78622114D01*
X100748622Y-78717886D01*
X100722356Y-78815909D01*
X100150730Y-78244283D01*
X100150729Y-78244283D01*
X100135906Y-78264688D01*
X100135903Y-78264692D01*
X100052013Y-78429338D01*
X99994908Y-78605088D01*
X99992726Y-78618864D01*
X99962795Y-78681998D01*
X99903483Y-78718928D01*
X99833620Y-78717928D01*
X99775388Y-78679317D01*
X99747780Y-78618860D01*
X99745580Y-78604970D01*
X99688453Y-78429150D01*
X99688452Y-78429147D01*
X99659388Y-78372106D01*
X99604523Y-78264428D01*
X99581260Y-78232409D01*
X99495864Y-78114870D01*
X99495860Y-78114865D01*
X99365134Y-77984139D01*
X99365129Y-77984135D01*
X99215575Y-77875479D01*
X99215574Y-77875478D01*
X99215572Y-77875477D01*
X99162799Y-77848588D01*
X99050852Y-77791547D01*
X99050849Y-77791546D01*
X98875030Y-77734419D01*
X98692440Y-77705500D01*
X98692435Y-77705500D01*
X98507565Y-77705500D01*
X98507560Y-77705500D01*
X98324969Y-77734419D01*
X98149150Y-77791546D01*
X98149147Y-77791547D01*
X97984424Y-77875479D01*
X97834870Y-77984135D01*
X97834865Y-77984139D01*
X97704139Y-78114865D01*
X97704135Y-78114870D01*
X97595479Y-78264424D01*
X97511547Y-78429147D01*
X97511546Y-78429150D01*
X97454419Y-78604969D01*
X97425500Y-78787559D01*
X97425500Y-78972440D01*
X97454419Y-79155030D01*
X97511546Y-79330849D01*
X97511547Y-79330852D01*
X97595479Y-79495575D01*
X97704135Y-79645129D01*
X97704139Y-79645134D01*
X97834865Y-79775860D01*
X97834870Y-79775864D01*
X97912074Y-79831955D01*
X97984428Y-79884523D01*
X98071570Y-79928924D01*
X98149147Y-79968452D01*
X98149150Y-79968453D01*
X98324969Y-80025580D01*
X98507560Y-80054500D01*
X98507565Y-80054500D01*
X98692440Y-80054500D01*
X98875030Y-80025580D01*
X99050849Y-79968453D01*
X99050852Y-79968452D01*
X99051767Y-79967986D01*
X99215572Y-79884523D01*
X99365136Y-79775859D01*
X99495859Y-79645136D01*
X99604523Y-79495572D01*
X99688452Y-79330852D01*
X99745580Y-79155029D01*
X99747780Y-79141137D01*
X99777708Y-79078005D01*
X99837019Y-79041073D01*
X99906882Y-79042069D01*
X99965115Y-79080678D01*
X99992726Y-79141136D01*
X99994907Y-79154910D01*
X100052014Y-79330664D01*
X100135900Y-79495303D01*
X100135903Y-79495307D01*
X100150730Y-79515715D01*
X100150730Y-79515716D01*
X100722356Y-78944089D01*
X100748622Y-79042114D01*
X100803916Y-79137886D01*
X100882114Y-79216084D01*
X100977886Y-79271378D01*
X101075909Y-79297643D01*
X100504283Y-79869268D01*
X100504283Y-79869269D01*
X100524686Y-79884092D01*
X100689338Y-79967986D01*
X100865091Y-80025092D01*
X101047605Y-80054000D01*
X101232395Y-80054000D01*
X101414908Y-80025092D01*
X101590661Y-79967986D01*
X101755310Y-79884094D01*
X101775715Y-79869268D01*
X101775716Y-79869268D01*
X101204090Y-79297642D01*
X101302114Y-79271378D01*
X101397886Y-79216084D01*
X101476084Y-79137886D01*
X101531378Y-79042114D01*
X101557642Y-78944090D01*
X102129268Y-79515716D01*
X102129268Y-79515715D01*
X102144094Y-79495310D01*
X102227986Y-79330661D01*
X102285091Y-79154911D01*
X102287272Y-79141143D01*
X102317199Y-79078007D01*
X102376509Y-79041073D01*
X102446372Y-79042068D01*
X102504606Y-79080676D01*
X102532219Y-79141133D01*
X102532220Y-79141140D01*
X102534420Y-79155029D01*
X102534420Y-79155031D01*
X102534421Y-79155033D01*
X102591546Y-79330849D01*
X102591547Y-79330852D01*
X102675479Y-79495575D01*
X102784135Y-79645129D01*
X102784139Y-79645134D01*
X102914865Y-79775860D01*
X102914870Y-79775864D01*
X102992074Y-79831955D01*
X103064428Y-79884523D01*
X103151570Y-79928924D01*
X103229147Y-79968452D01*
X103229150Y-79968453D01*
X103404969Y-80025580D01*
X103587560Y-80054500D01*
X103587565Y-80054500D01*
X103772440Y-80054500D01*
X103955030Y-80025580D01*
X104130849Y-79968453D01*
X104130852Y-79968452D01*
X104131767Y-79967986D01*
X104295572Y-79884523D01*
X104445136Y-79775859D01*
X104575859Y-79645136D01*
X104684523Y-79495572D01*
X104768452Y-79330852D01*
X104825580Y-79155029D01*
X104827527Y-79142737D01*
X104857456Y-79079602D01*
X104916768Y-79042671D01*
X104986630Y-79043669D01*
X105044863Y-79082279D01*
X105072473Y-79142737D01*
X105074420Y-79155030D01*
X105131546Y-79330849D01*
X105131547Y-79330852D01*
X105215479Y-79495575D01*
X105324135Y-79645129D01*
X105324139Y-79645134D01*
X105454865Y-79775860D01*
X105454870Y-79775864D01*
X105532074Y-79831955D01*
X105604428Y-79884523D01*
X105691570Y-79928924D01*
X105769147Y-79968452D01*
X105769150Y-79968453D01*
X105944969Y-80025580D01*
X106127560Y-80054500D01*
X106127565Y-80054500D01*
X106312440Y-80054500D01*
X106495030Y-80025580D01*
X106670849Y-79968453D01*
X106670852Y-79968452D01*
X106671767Y-79967986D01*
X106835572Y-79884523D01*
X106985136Y-79775859D01*
X107115859Y-79645136D01*
X107224523Y-79495572D01*
X107308452Y-79330852D01*
X107365580Y-79155029D01*
X107367527Y-79142737D01*
X107397456Y-79079602D01*
X107456768Y-79042671D01*
X107526630Y-79043669D01*
X107584863Y-79082279D01*
X107612473Y-79142737D01*
X107614420Y-79155030D01*
X107671546Y-79330849D01*
X107671547Y-79330852D01*
X107755479Y-79495575D01*
X107864135Y-79645129D01*
X107864139Y-79645134D01*
X107994865Y-79775860D01*
X107994870Y-79775864D01*
X108072074Y-79831955D01*
X108144428Y-79884523D01*
X108231570Y-79928924D01*
X108309147Y-79968452D01*
X108309150Y-79968453D01*
X108484969Y-80025580D01*
X108667560Y-80054500D01*
X108667565Y-80054500D01*
X108852440Y-80054500D01*
X109035030Y-80025580D01*
X109210849Y-79968453D01*
X109210852Y-79968452D01*
X109211767Y-79967986D01*
X109375572Y-79884523D01*
X109525136Y-79775859D01*
X109655859Y-79645136D01*
X109764523Y-79495572D01*
X109848452Y-79330852D01*
X109905580Y-79155029D01*
X109907527Y-79142737D01*
X109937456Y-79079602D01*
X109996768Y-79042671D01*
X110066630Y-79043669D01*
X110124863Y-79082279D01*
X110152473Y-79142737D01*
X110154420Y-79155030D01*
X110211546Y-79330849D01*
X110211547Y-79330852D01*
X110295479Y-79495575D01*
X110404135Y-79645129D01*
X110404139Y-79645134D01*
X110534865Y-79775860D01*
X110534870Y-79775864D01*
X110612074Y-79831955D01*
X110684428Y-79884523D01*
X110771570Y-79928924D01*
X110849147Y-79968452D01*
X110849150Y-79968453D01*
X111024969Y-80025580D01*
X111207560Y-80054500D01*
X111207565Y-80054500D01*
X111392440Y-80054500D01*
X111575030Y-80025580D01*
X111750849Y-79968453D01*
X111750852Y-79968452D01*
X111751767Y-79967986D01*
X111915572Y-79884523D01*
X112065136Y-79775859D01*
X112195859Y-79645136D01*
X112304523Y-79495572D01*
X112388452Y-79330852D01*
X112445580Y-79155029D01*
X112447527Y-79142737D01*
X112477456Y-79079602D01*
X112536768Y-79042671D01*
X112606630Y-79043669D01*
X112664863Y-79082279D01*
X112692473Y-79142737D01*
X112694420Y-79155030D01*
X112751546Y-79330849D01*
X112751547Y-79330852D01*
X112835479Y-79495575D01*
X112944135Y-79645129D01*
X112944139Y-79645134D01*
X113074865Y-79775860D01*
X113074870Y-79775864D01*
X113152074Y-79831955D01*
X113224428Y-79884523D01*
X113311570Y-79928924D01*
X113389147Y-79968452D01*
X113389150Y-79968453D01*
X113564969Y-80025580D01*
X113747560Y-80054500D01*
X113747565Y-80054500D01*
X113932440Y-80054500D01*
X114115030Y-80025580D01*
X114290849Y-79968453D01*
X114290852Y-79968452D01*
X114291767Y-79967986D01*
X114455572Y-79884523D01*
X114605136Y-79775859D01*
X114735859Y-79645136D01*
X114844523Y-79495572D01*
X114928452Y-79330852D01*
X114985580Y-79155029D01*
X114987527Y-79142737D01*
X115017456Y-79079602D01*
X115076768Y-79042671D01*
X115146630Y-79043669D01*
X115204863Y-79082279D01*
X115232473Y-79142737D01*
X115234420Y-79155030D01*
X115291546Y-79330849D01*
X115291547Y-79330852D01*
X115375479Y-79495575D01*
X115484135Y-79645129D01*
X115484139Y-79645134D01*
X115614865Y-79775860D01*
X115614870Y-79775864D01*
X115692074Y-79831955D01*
X115764428Y-79884523D01*
X115851570Y-79928924D01*
X115929147Y-79968452D01*
X115929150Y-79968453D01*
X116104969Y-80025580D01*
X116287560Y-80054500D01*
X116287565Y-80054500D01*
X116472440Y-80054500D01*
X116655030Y-80025580D01*
X116830849Y-79968453D01*
X116830852Y-79968452D01*
X116831767Y-79967986D01*
X116995572Y-79884523D01*
X117145136Y-79775859D01*
X117275859Y-79645136D01*
X117384523Y-79495572D01*
X117432131Y-79402135D01*
X121449500Y-79402135D01*
X121449500Y-81197870D01*
X121449501Y-81197876D01*
X121455908Y-81257483D01*
X121506202Y-81392328D01*
X121506206Y-81392335D01*
X121592452Y-81507544D01*
X121592455Y-81507547D01*
X121707664Y-81593793D01*
X121707671Y-81593797D01*
X121839082Y-81642810D01*
X121895016Y-81684681D01*
X121919433Y-81750145D01*
X121904582Y-81818418D01*
X121883431Y-81846673D01*
X121769889Y-81960215D01*
X121644951Y-82132179D01*
X121548444Y-82321585D01*
X121482753Y-82523760D01*
X121449500Y-82733713D01*
X121449500Y-82946286D01*
X121482753Y-83156239D01*
X121548444Y-83358414D01*
X121644951Y-83547820D01*
X121769890Y-83719786D01*
X121920213Y-83870109D01*
X122092182Y-83995050D01*
X122100946Y-83999516D01*
X122151742Y-84047491D01*
X122168536Y-84115312D01*
X122145998Y-84181447D01*
X122100946Y-84220484D01*
X122092182Y-84224949D01*
X121920213Y-84349890D01*
X121769890Y-84500213D01*
X121644951Y-84672179D01*
X121548444Y-84861585D01*
X121482753Y-85063760D01*
X121449500Y-85273713D01*
X121449500Y-85486286D01*
X121476893Y-85659243D01*
X121482754Y-85696243D01*
X121532696Y-85849949D01*
X121548444Y-85898414D01*
X121644951Y-86087820D01*
X121769890Y-86259786D01*
X121920213Y-86410109D01*
X122092182Y-86535050D01*
X122100946Y-86539516D01*
X122151742Y-86587491D01*
X122168536Y-86655312D01*
X122145998Y-86721447D01*
X122100946Y-86760484D01*
X122092182Y-86764949D01*
X121920213Y-86889890D01*
X121769890Y-87040213D01*
X121644951Y-87212179D01*
X121548444Y-87401585D01*
X121482753Y-87603760D01*
X121449500Y-87813713D01*
X121449500Y-88026286D01*
X121478960Y-88212292D01*
X121482754Y-88236243D01*
X121531980Y-88387745D01*
X121548444Y-88438414D01*
X121644951Y-88627820D01*
X121769890Y-88799786D01*
X121920213Y-88950109D01*
X122092179Y-89075048D01*
X122092181Y-89075049D01*
X122092184Y-89075051D01*
X122101493Y-89079794D01*
X122152290Y-89127766D01*
X122169087Y-89195587D01*
X122146552Y-89261722D01*
X122101505Y-89300760D01*
X122092446Y-89305376D01*
X122092440Y-89305380D01*
X122038282Y-89344727D01*
X122038282Y-89344728D01*
X122670591Y-89977037D01*
X122607007Y-89994075D01*
X122492993Y-90059901D01*
X122399901Y-90152993D01*
X122334075Y-90267007D01*
X122317037Y-90330591D01*
X121684728Y-89698282D01*
X121684727Y-89698282D01*
X121645380Y-89752439D01*
X121548904Y-89941782D01*
X121483242Y-90143869D01*
X121483242Y-90143872D01*
X121450000Y-90353753D01*
X121450000Y-90566246D01*
X121483242Y-90776127D01*
X121483242Y-90776130D01*
X121548904Y-90978217D01*
X121645375Y-91167550D01*
X121684728Y-91221716D01*
X122317037Y-90589408D01*
X122334075Y-90652993D01*
X122399901Y-90767007D01*
X122492993Y-90860099D01*
X122607007Y-90925925D01*
X122670590Y-90942962D01*
X122038282Y-91575269D01*
X122038282Y-91575270D01*
X122092452Y-91614626D01*
X122092451Y-91614626D01*
X122101495Y-91619234D01*
X122152292Y-91667208D01*
X122169087Y-91735029D01*
X122146550Y-91801164D01*
X122101499Y-91840202D01*
X122092182Y-91844949D01*
X121920213Y-91969890D01*
X121769890Y-92120213D01*
X121644951Y-92292179D01*
X121548444Y-92481585D01*
X121482753Y-92683760D01*
X121471724Y-92753397D01*
X121449500Y-92893713D01*
X121449500Y-93106287D01*
X121456424Y-93150000D01*
X121472015Y-93248444D01*
X121482754Y-93316243D01*
X121545097Y-93508115D01*
X121548444Y-93518414D01*
X121644951Y-93707820D01*
X121769890Y-93879786D01*
X121920213Y-94030109D01*
X122092179Y-94155048D01*
X122092181Y-94155049D01*
X122092184Y-94155051D01*
X122281588Y-94251557D01*
X122483757Y-94317246D01*
X122693713Y-94350500D01*
X122693714Y-94350500D01*
X122906286Y-94350500D01*
X122906287Y-94350500D01*
X123116243Y-94317246D01*
X123318412Y-94251557D01*
X123507816Y-94155051D01*
X123560299Y-94116920D01*
X123679786Y-94030109D01*
X123679788Y-94030106D01*
X123679792Y-94030104D01*
X123830104Y-93879792D01*
X123830106Y-93879788D01*
X123830109Y-93879786D01*
X123955048Y-93707820D01*
X123955047Y-93707820D01*
X123955051Y-93707816D01*
X124051557Y-93518412D01*
X124117246Y-93316243D01*
X124150500Y-93106287D01*
X124150500Y-92893713D01*
X124117246Y-92683757D01*
X124051557Y-92481588D01*
X123955051Y-92292184D01*
X123922816Y-92247816D01*
X123852405Y-92150902D01*
X123852404Y-92150901D01*
X123830107Y-92120211D01*
X123791387Y-92081491D01*
X126249500Y-92081491D01*
X126249500Y-92418508D01*
X126287231Y-92753381D01*
X126287233Y-92753397D01*
X126362223Y-93081953D01*
X126362227Y-93081965D01*
X126473532Y-93400054D01*
X126619752Y-93703683D01*
X126646689Y-93746553D01*
X126799054Y-93989039D01*
X126931444Y-94155051D01*
X127008404Y-94251557D01*
X127009175Y-94252523D01*
X127247477Y-94490825D01*
X127510961Y-94700946D01*
X127796314Y-94880246D01*
X128099949Y-95026469D01*
X128312549Y-95100861D01*
X128418034Y-95137772D01*
X128418046Y-95137776D01*
X128746606Y-95212767D01*
X129081492Y-95250499D01*
X129081493Y-95250500D01*
X129081496Y-95250500D01*
X129418507Y-95250500D01*
X129418507Y-95250499D01*
X129753394Y-95212767D01*
X130081954Y-95137776D01*
X130400051Y-95026469D01*
X130703686Y-94880246D01*
X130989039Y-94700946D01*
X131252523Y-94490825D01*
X131490825Y-94252523D01*
X131700946Y-93989039D01*
X131880246Y-93703686D01*
X132026469Y-93400051D01*
X132137776Y-93081954D01*
X132212767Y-92753394D01*
X132250500Y-92418504D01*
X132250500Y-92081496D01*
X132212767Y-91746606D01*
X132137776Y-91418046D01*
X132026469Y-91099949D01*
X131880246Y-90796314D01*
X131700946Y-90510961D01*
X131490825Y-90247477D01*
X131252523Y-90009175D01*
X130989039Y-89799054D01*
X130703686Y-89619754D01*
X130703683Y-89619752D01*
X130400054Y-89473532D01*
X130081965Y-89362227D01*
X130081953Y-89362223D01*
X129753397Y-89287233D01*
X129753381Y-89287231D01*
X129418508Y-89249500D01*
X129418504Y-89249500D01*
X129081496Y-89249500D01*
X129081491Y-89249500D01*
X128746618Y-89287231D01*
X128746602Y-89287233D01*
X128418046Y-89362223D01*
X128418034Y-89362227D01*
X128099945Y-89473532D01*
X127796316Y-89619752D01*
X127510962Y-89799053D01*
X127247477Y-90009174D01*
X127009174Y-90247477D01*
X126799053Y-90510962D01*
X126619752Y-90796316D01*
X126473532Y-91099945D01*
X126362227Y-91418034D01*
X126362223Y-91418046D01*
X126287233Y-91746602D01*
X126287231Y-91746618D01*
X126249500Y-92081491D01*
X123791387Y-92081491D01*
X123679786Y-91969890D01*
X123507817Y-91844949D01*
X123498504Y-91840204D01*
X123447707Y-91792230D01*
X123430912Y-91724409D01*
X123453449Y-91658274D01*
X123498507Y-91619232D01*
X123507555Y-91614622D01*
X123561716Y-91575270D01*
X123561717Y-91575270D01*
X122929408Y-90942962D01*
X122992993Y-90925925D01*
X123107007Y-90860099D01*
X123200099Y-90767007D01*
X123265925Y-90652993D01*
X123282962Y-90589409D01*
X123915270Y-91221717D01*
X123915270Y-91221716D01*
X123954622Y-91167554D01*
X124051095Y-90978217D01*
X124116757Y-90776130D01*
X124116757Y-90776127D01*
X124150000Y-90566246D01*
X124150000Y-90353753D01*
X124116757Y-90143872D01*
X124116757Y-90143869D01*
X124051095Y-89941782D01*
X123954624Y-89752449D01*
X123915270Y-89698282D01*
X123915269Y-89698282D01*
X123282962Y-90330590D01*
X123265925Y-90267007D01*
X123200099Y-90152993D01*
X123107007Y-90059901D01*
X122992993Y-89994075D01*
X122929409Y-89977037D01*
X123561716Y-89344728D01*
X123507547Y-89305373D01*
X123507547Y-89305372D01*
X123498500Y-89300763D01*
X123447706Y-89252788D01*
X123430912Y-89184966D01*
X123453451Y-89118832D01*
X123498508Y-89079793D01*
X123507816Y-89075051D01*
X123587007Y-89017515D01*
X123679786Y-88950109D01*
X123679788Y-88950106D01*
X123679792Y-88950104D01*
X123830104Y-88799792D01*
X123830106Y-88799788D01*
X123830109Y-88799786D01*
X123955048Y-88627820D01*
X123955047Y-88627820D01*
X123955051Y-88627816D01*
X124051557Y-88438412D01*
X124117246Y-88236243D01*
X124150500Y-88026287D01*
X124150500Y-87813713D01*
X124117246Y-87603757D01*
X124051557Y-87401588D01*
X123955051Y-87212184D01*
X123955049Y-87212181D01*
X123955048Y-87212179D01*
X123830109Y-87040213D01*
X123679786Y-86889890D01*
X123507820Y-86764951D01*
X123507115Y-86764591D01*
X123499054Y-86760485D01*
X123448259Y-86712512D01*
X123431463Y-86644692D01*
X123453999Y-86578556D01*
X123499054Y-86539515D01*
X123507816Y-86535051D01*
X123560715Y-86496618D01*
X123679786Y-86410109D01*
X123679788Y-86410106D01*
X123679792Y-86410104D01*
X123830104Y-86259792D01*
X123830106Y-86259788D01*
X123830109Y-86259786D01*
X123955048Y-86087820D01*
X123955047Y-86087820D01*
X123955051Y-86087816D01*
X124051557Y-85898412D01*
X124117246Y-85696243D01*
X124150500Y-85486287D01*
X124150500Y-85273713D01*
X124117246Y-85063757D01*
X124051557Y-84861588D01*
X123955051Y-84672184D01*
X123955049Y-84672181D01*
X123955048Y-84672179D01*
X123830109Y-84500213D01*
X123679786Y-84349890D01*
X123507820Y-84224951D01*
X123507115Y-84224591D01*
X123499054Y-84220485D01*
X123448259Y-84172512D01*
X123431463Y-84104692D01*
X123453999Y-84038556D01*
X123499054Y-83999515D01*
X123507816Y-83995051D01*
X123529789Y-83979086D01*
X123679786Y-83870109D01*
X123679788Y-83870106D01*
X123679792Y-83870104D01*
X123830104Y-83719792D01*
X123830106Y-83719788D01*
X123830109Y-83719786D01*
X123955048Y-83547820D01*
X123955047Y-83547820D01*
X123955051Y-83547816D01*
X124051557Y-83358412D01*
X124117246Y-83156243D01*
X124150500Y-82946287D01*
X124150500Y-82733713D01*
X124117246Y-82523757D01*
X124051557Y-82321588D01*
X123955051Y-82132184D01*
X123955049Y-82132181D01*
X123955048Y-82132179D01*
X123830109Y-81960213D01*
X123716569Y-81846673D01*
X123683084Y-81785350D01*
X123688068Y-81715658D01*
X123729940Y-81659725D01*
X123760915Y-81642810D01*
X123892331Y-81593796D01*
X124007546Y-81507546D01*
X124093796Y-81392331D01*
X124144091Y-81257483D01*
X124150500Y-81197873D01*
X124150499Y-79402135D01*
X134149500Y-79402135D01*
X134149500Y-81197870D01*
X134149501Y-81197876D01*
X134155908Y-81257483D01*
X134206202Y-81392328D01*
X134206206Y-81392335D01*
X134292452Y-81507544D01*
X134292455Y-81507547D01*
X134407664Y-81593793D01*
X134407671Y-81593797D01*
X134539082Y-81642810D01*
X134595016Y-81684681D01*
X134619433Y-81750145D01*
X134604582Y-81818418D01*
X134583431Y-81846673D01*
X134469889Y-81960215D01*
X134344951Y-82132179D01*
X134248444Y-82321585D01*
X134182753Y-82523760D01*
X134149500Y-82733713D01*
X134149500Y-82946286D01*
X134182753Y-83156239D01*
X134248444Y-83358414D01*
X134344951Y-83547820D01*
X134469890Y-83719786D01*
X134620213Y-83870109D01*
X134792182Y-83995050D01*
X134800946Y-83999516D01*
X134851742Y-84047491D01*
X134868536Y-84115312D01*
X134845998Y-84181447D01*
X134800946Y-84220484D01*
X134792182Y-84224949D01*
X134620213Y-84349890D01*
X134469890Y-84500213D01*
X134344951Y-84672179D01*
X134248444Y-84861585D01*
X134182753Y-85063760D01*
X134149500Y-85273713D01*
X134149500Y-85486286D01*
X134176893Y-85659243D01*
X134182754Y-85696243D01*
X134232696Y-85849949D01*
X134248444Y-85898414D01*
X134344951Y-86087820D01*
X134469890Y-86259786D01*
X134620213Y-86410109D01*
X134792182Y-86535050D01*
X134800946Y-86539516D01*
X134851742Y-86587491D01*
X134868536Y-86655312D01*
X134845998Y-86721447D01*
X134800946Y-86760484D01*
X134792182Y-86764949D01*
X134620213Y-86889890D01*
X134469890Y-87040213D01*
X134344951Y-87212179D01*
X134248444Y-87401585D01*
X134182753Y-87603760D01*
X134149500Y-87813713D01*
X134149500Y-88026286D01*
X134178960Y-88212292D01*
X134182754Y-88236243D01*
X134231980Y-88387745D01*
X134248444Y-88438414D01*
X134344951Y-88627820D01*
X134469890Y-88799786D01*
X134620213Y-88950109D01*
X134792182Y-89075050D01*
X134800946Y-89079516D01*
X134851742Y-89127491D01*
X134868536Y-89195312D01*
X134845998Y-89261447D01*
X134800946Y-89300484D01*
X134792182Y-89304949D01*
X134620213Y-89429890D01*
X134469890Y-89580213D01*
X134344951Y-89752179D01*
X134248444Y-89941585D01*
X134182753Y-90143760D01*
X134149500Y-90353713D01*
X134149500Y-90566286D01*
X134182735Y-90776127D01*
X134182754Y-90776243D01*
X134215357Y-90876585D01*
X134248444Y-90978414D01*
X134344951Y-91167820D01*
X134469890Y-91339786D01*
X134620213Y-91490109D01*
X134792182Y-91615050D01*
X134800946Y-91619516D01*
X134851742Y-91667491D01*
X134868536Y-91735312D01*
X134845998Y-91801447D01*
X134800946Y-91840484D01*
X134792182Y-91844949D01*
X134620213Y-91969890D01*
X134469890Y-92120213D01*
X134344951Y-92292179D01*
X134248444Y-92481585D01*
X134182753Y-92683760D01*
X134171724Y-92753397D01*
X134149500Y-92893713D01*
X134149500Y-93106287D01*
X134156424Y-93150000D01*
X134172015Y-93248444D01*
X134182754Y-93316243D01*
X134245097Y-93508115D01*
X134248444Y-93518414D01*
X134344951Y-93707820D01*
X134469890Y-93879786D01*
X134620213Y-94030109D01*
X134792179Y-94155048D01*
X134792181Y-94155049D01*
X134792184Y-94155051D01*
X134981588Y-94251557D01*
X135183757Y-94317246D01*
X135393713Y-94350500D01*
X135393714Y-94350500D01*
X135606286Y-94350500D01*
X135606287Y-94350500D01*
X135816243Y-94317246D01*
X136018412Y-94251557D01*
X136207816Y-94155051D01*
X136260299Y-94116920D01*
X136379786Y-94030109D01*
X136379788Y-94030106D01*
X136379792Y-94030104D01*
X136530104Y-93879792D01*
X136530106Y-93879788D01*
X136530109Y-93879786D01*
X136655048Y-93707820D01*
X136655047Y-93707820D01*
X136655051Y-93707816D01*
X136708898Y-93602135D01*
X139109500Y-93602135D01*
X139109500Y-95397870D01*
X139109501Y-95397876D01*
X139115908Y-95457483D01*
X139166202Y-95592328D01*
X139166206Y-95592335D01*
X139252452Y-95707544D01*
X139252455Y-95707547D01*
X139367664Y-95793793D01*
X139367671Y-95793797D01*
X139502517Y-95844091D01*
X139502516Y-95844091D01*
X139509444Y-95844835D01*
X139562127Y-95850500D01*
X141357872Y-95850499D01*
X141417483Y-95844091D01*
X141552331Y-95793796D01*
X141667546Y-95707546D01*
X141753796Y-95592331D01*
X141804091Y-95457483D01*
X141810500Y-95397873D01*
X141810499Y-95373979D01*
X141813330Y-95360963D01*
X141823940Y-95341525D01*
X141830179Y-95320275D01*
X141846803Y-95299643D01*
X141846808Y-95299636D01*
X141846811Y-95299634D01*
X141846818Y-95299626D01*
X142517037Y-94629408D01*
X142534075Y-94692993D01*
X142599901Y-94807007D01*
X142692993Y-94900099D01*
X142807007Y-94965925D01*
X142870590Y-94982962D01*
X142238282Y-95615269D01*
X142238282Y-95615270D01*
X142292449Y-95654624D01*
X142481782Y-95751095D01*
X142683870Y-95816757D01*
X142893754Y-95850000D01*
X143106246Y-95850000D01*
X143316127Y-95816757D01*
X143316130Y-95816757D01*
X143518217Y-95751095D01*
X143707554Y-95654622D01*
X143761716Y-95615270D01*
X143761717Y-95615270D01*
X143129408Y-94982962D01*
X143192993Y-94965925D01*
X143307007Y-94900099D01*
X143400099Y-94807007D01*
X143465925Y-94692993D01*
X143482962Y-94629408D01*
X144115270Y-95261717D01*
X144115270Y-95261716D01*
X144154622Y-95207555D01*
X144159232Y-95198507D01*
X144207205Y-95147709D01*
X144275025Y-95130912D01*
X144341161Y-95153447D01*
X144380204Y-95198504D01*
X144384949Y-95207817D01*
X144509890Y-95379786D01*
X144660213Y-95530109D01*
X144832179Y-95655048D01*
X144832181Y-95655049D01*
X144832184Y-95655051D01*
X145021588Y-95751557D01*
X145223757Y-95817246D01*
X145433713Y-95850500D01*
X145433714Y-95850500D01*
X145646286Y-95850500D01*
X145646287Y-95850500D01*
X145856243Y-95817246D01*
X146058412Y-95751557D01*
X146247816Y-95655051D01*
X146334138Y-95592335D01*
X146419786Y-95530109D01*
X146419788Y-95530106D01*
X146419792Y-95530104D01*
X146570104Y-95379792D01*
X146570106Y-95379788D01*
X146570109Y-95379786D01*
X146655890Y-95261717D01*
X146695051Y-95207816D01*
X146791557Y-95018412D01*
X146857246Y-94816243D01*
X146890500Y-94606287D01*
X146890500Y-94393713D01*
X146857246Y-94183757D01*
X146791557Y-93981588D01*
X146695051Y-93792184D01*
X146695049Y-93792181D01*
X146695048Y-93792179D01*
X146570109Y-93620213D01*
X146419786Y-93469890D01*
X146247820Y-93344951D01*
X146058414Y-93248444D01*
X146058413Y-93248443D01*
X146058412Y-93248443D01*
X145856243Y-93182754D01*
X145856241Y-93182753D01*
X145856240Y-93182753D01*
X145694957Y-93157208D01*
X145646287Y-93149500D01*
X145433713Y-93149500D01*
X145385042Y-93157208D01*
X145223760Y-93182753D01*
X145021585Y-93248444D01*
X144832179Y-93344951D01*
X144660213Y-93469890D01*
X144509890Y-93620213D01*
X144384949Y-93792182D01*
X144380202Y-93801499D01*
X144332227Y-93852293D01*
X144264405Y-93869087D01*
X144198271Y-93846548D01*
X144159234Y-93801495D01*
X144154626Y-93792452D01*
X144115270Y-93738282D01*
X144115269Y-93738282D01*
X143482962Y-94370590D01*
X143465925Y-94307007D01*
X143400099Y-94192993D01*
X143307007Y-94099901D01*
X143192993Y-94034075D01*
X143129409Y-94017037D01*
X143761716Y-93384728D01*
X143707550Y-93345375D01*
X143518217Y-93248904D01*
X143316129Y-93183242D01*
X143106246Y-93150000D01*
X142893754Y-93150000D01*
X142683872Y-93183242D01*
X142683869Y-93183242D01*
X142481782Y-93248904D01*
X142292439Y-93345380D01*
X142238282Y-93384727D01*
X142238282Y-93384728D01*
X142870591Y-94017037D01*
X142807007Y-94034075D01*
X142692993Y-94099901D01*
X142599901Y-94192993D01*
X142534075Y-94307007D01*
X142517037Y-94370591D01*
X141846818Y-93700372D01*
X141813333Y-93639049D01*
X141813330Y-93639036D01*
X141810499Y-93626015D01*
X141810499Y-93602128D01*
X141804091Y-93542517D01*
X141765741Y-93439695D01*
X141753798Y-93407673D01*
X141753793Y-93407664D01*
X141667547Y-93292455D01*
X141667544Y-93292452D01*
X141552335Y-93206206D01*
X141552328Y-93206202D01*
X141417482Y-93155908D01*
X141417483Y-93155908D01*
X141357883Y-93149501D01*
X141357881Y-93149500D01*
X141357873Y-93149500D01*
X141357864Y-93149500D01*
X139562129Y-93149500D01*
X139562123Y-93149501D01*
X139502516Y-93155908D01*
X139367671Y-93206202D01*
X139367664Y-93206206D01*
X139252455Y-93292452D01*
X139252452Y-93292455D01*
X139166206Y-93407664D01*
X139166202Y-93407671D01*
X139115908Y-93542517D01*
X139109501Y-93602116D01*
X139109500Y-93602135D01*
X136708898Y-93602135D01*
X136751557Y-93518412D01*
X136817246Y-93316243D01*
X136850500Y-93106287D01*
X136850500Y-92893713D01*
X136817246Y-92683757D01*
X136751557Y-92481588D01*
X136655051Y-92292184D01*
X136655049Y-92292181D01*
X136655048Y-92292179D01*
X136530109Y-92120213D01*
X136379786Y-91969890D01*
X136207820Y-91844951D01*
X136207115Y-91844591D01*
X136199054Y-91840485D01*
X136148259Y-91792512D01*
X136131463Y-91724692D01*
X136153999Y-91658556D01*
X136199054Y-91619515D01*
X136207816Y-91615051D01*
X136262572Y-91575269D01*
X136379786Y-91490109D01*
X136379788Y-91490106D01*
X136379792Y-91490104D01*
X136530104Y-91339792D01*
X136530106Y-91339788D01*
X136530109Y-91339786D01*
X136655048Y-91167820D01*
X136655047Y-91167820D01*
X136655051Y-91167816D01*
X136751557Y-90978412D01*
X136817246Y-90776243D01*
X136850500Y-90566287D01*
X136850500Y-90353713D01*
X136817246Y-90143757D01*
X136751557Y-89941588D01*
X136655051Y-89752184D01*
X136655049Y-89752181D01*
X136655048Y-89752179D01*
X136530109Y-89580213D01*
X136379786Y-89429890D01*
X136207820Y-89304951D01*
X136199600Y-89300763D01*
X136199054Y-89300485D01*
X136148259Y-89252512D01*
X136131463Y-89184692D01*
X136153999Y-89118556D01*
X136199054Y-89079515D01*
X136207816Y-89075051D01*
X136245236Y-89047864D01*
X136379786Y-88950109D01*
X136379788Y-88950106D01*
X136379792Y-88950104D01*
X136530104Y-88799792D01*
X136530106Y-88799788D01*
X136530109Y-88799786D01*
X136655048Y-88627820D01*
X136655047Y-88627820D01*
X136655051Y-88627816D01*
X136751557Y-88438412D01*
X136817246Y-88236243D01*
X136850500Y-88026287D01*
X136850500Y-87838146D01*
X139467000Y-87838146D01*
X139467000Y-88161853D01*
X139502778Y-88387746D01*
X139502778Y-88387749D01*
X139573450Y-88605255D01*
X139672569Y-88799786D01*
X139677283Y-88809038D01*
X139811714Y-88994066D01*
X139973434Y-89155786D01*
X140158462Y-89290217D01*
X140265444Y-89344727D01*
X140362244Y-89394049D01*
X140579751Y-89464721D01*
X140579752Y-89464721D01*
X140579755Y-89464722D01*
X140805646Y-89500500D01*
X140805647Y-89500500D01*
X141034353Y-89500500D01*
X141034354Y-89500500D01*
X141260245Y-89464722D01*
X141260248Y-89464721D01*
X141260249Y-89464721D01*
X141477755Y-89394049D01*
X141477755Y-89394048D01*
X141477758Y-89394048D01*
X141681538Y-89290217D01*
X141866566Y-89155786D01*
X142028286Y-88994066D01*
X142089992Y-88909134D01*
X142145319Y-88866470D01*
X142214932Y-88860491D01*
X142276727Y-88893096D01*
X142290626Y-88909135D01*
X142352097Y-88993741D01*
X142352097Y-88993742D01*
X142513757Y-89155402D01*
X142698723Y-89289788D01*
X142902429Y-89393582D01*
X143119871Y-89464234D01*
X143210000Y-89478509D01*
X143210000Y-88490747D01*
X143247708Y-88512518D01*
X143387591Y-88550000D01*
X143532409Y-88550000D01*
X143672292Y-88512518D01*
X143710000Y-88490747D01*
X143710000Y-89478508D01*
X143800128Y-89464234D01*
X144017570Y-89393582D01*
X144221276Y-89289788D01*
X144404059Y-89156988D01*
X144469865Y-89133508D01*
X144537919Y-89149333D01*
X144586614Y-89199439D01*
X144593127Y-89213974D01*
X144603701Y-89242326D01*
X144603706Y-89242335D01*
X144689952Y-89357544D01*
X144689955Y-89357547D01*
X144805164Y-89443793D01*
X144805171Y-89443797D01*
X144940017Y-89494091D01*
X144940016Y-89494091D01*
X144946944Y-89494835D01*
X144999627Y-89500500D01*
X147000372Y-89500499D01*
X147059983Y-89494091D01*
X147194831Y-89443796D01*
X147310046Y-89357546D01*
X147396296Y-89242331D01*
X147446591Y-89107483D01*
X147453000Y-89047873D01*
X147452999Y-86952128D01*
X147446591Y-86892517D01*
X147445613Y-86889896D01*
X147396297Y-86757671D01*
X147396293Y-86757664D01*
X147310047Y-86642455D01*
X147310044Y-86642452D01*
X147194835Y-86556206D01*
X147194828Y-86556202D01*
X147059982Y-86505908D01*
X147059983Y-86505908D01*
X147000383Y-86499501D01*
X147000381Y-86499500D01*
X147000373Y-86499500D01*
X147000364Y-86499500D01*
X144999629Y-86499500D01*
X144999623Y-86499501D01*
X144940016Y-86505908D01*
X144805171Y-86556202D01*
X144805164Y-86556206D01*
X144689955Y-86642452D01*
X144689952Y-86642455D01*
X144603706Y-86757664D01*
X144603702Y-86757671D01*
X144593127Y-86786026D01*
X144551256Y-86841960D01*
X144485791Y-86866377D01*
X144417518Y-86851525D01*
X144404060Y-86843011D01*
X144221279Y-86710213D01*
X144017568Y-86606417D01*
X143800124Y-86535765D01*
X143710000Y-86521490D01*
X143710000Y-87509252D01*
X143672292Y-87487482D01*
X143532409Y-87450000D01*
X143387591Y-87450000D01*
X143247708Y-87487482D01*
X143210000Y-87509252D01*
X143210000Y-86521490D01*
X143209999Y-86521490D01*
X143119875Y-86535765D01*
X142902431Y-86606417D01*
X142698723Y-86710211D01*
X142513757Y-86844597D01*
X142352097Y-87006257D01*
X142290627Y-87090864D01*
X142235297Y-87133529D01*
X142165684Y-87139508D01*
X142103889Y-87106902D01*
X142089991Y-87090864D01*
X142028286Y-87005934D01*
X141866566Y-86844214D01*
X141681538Y-86709783D01*
X141574633Y-86655312D01*
X141477755Y-86605950D01*
X141260248Y-86535278D01*
X141074812Y-86505908D01*
X141034354Y-86499500D01*
X140805646Y-86499500D01*
X140765188Y-86505908D01*
X140579753Y-86535278D01*
X140579750Y-86535278D01*
X140362244Y-86605950D01*
X140158461Y-86709783D01*
X140082530Y-86764951D01*
X139973434Y-86844214D01*
X139973432Y-86844216D01*
X139973431Y-86844216D01*
X139811716Y-87005931D01*
X139811716Y-87005932D01*
X139811714Y-87005934D01*
X139786809Y-87040213D01*
X139677283Y-87190961D01*
X139573450Y-87394744D01*
X139502778Y-87612250D01*
X139502778Y-87612253D01*
X139467000Y-87838146D01*
X136850500Y-87838146D01*
X136850500Y-87813713D01*
X136817246Y-87603757D01*
X136751557Y-87401588D01*
X136655051Y-87212184D01*
X136655049Y-87212181D01*
X136655048Y-87212179D01*
X136530109Y-87040213D01*
X136379786Y-86889890D01*
X136207820Y-86764951D01*
X136207115Y-86764591D01*
X136199054Y-86760485D01*
X136148259Y-86712512D01*
X136131463Y-86644692D01*
X136153999Y-86578556D01*
X136199054Y-86539515D01*
X136207816Y-86535051D01*
X136260715Y-86496618D01*
X136379786Y-86410109D01*
X136379788Y-86410106D01*
X136379792Y-86410104D01*
X136530104Y-86259792D01*
X136530106Y-86259788D01*
X136530109Y-86259786D01*
X136655048Y-86087820D01*
X136655047Y-86087820D01*
X136655051Y-86087816D01*
X136751557Y-85898412D01*
X136817246Y-85696243D01*
X136850500Y-85486287D01*
X136850500Y-85273713D01*
X136817246Y-85063757D01*
X136751557Y-84861588D01*
X136655051Y-84672184D01*
X136655049Y-84672181D01*
X136655048Y-84672179D01*
X136530109Y-84500213D01*
X136379786Y-84349890D01*
X136207820Y-84224951D01*
X136207115Y-84224591D01*
X136199054Y-84220485D01*
X136148259Y-84172512D01*
X136131463Y-84104692D01*
X136153999Y-84038556D01*
X136199054Y-83999515D01*
X136207816Y-83995051D01*
X136229789Y-83979086D01*
X136379786Y-83870109D01*
X136379788Y-83870106D01*
X136379792Y-83870104D01*
X136530104Y-83719792D01*
X136530106Y-83719788D01*
X136530109Y-83719786D01*
X136655048Y-83547820D01*
X136655047Y-83547820D01*
X136655051Y-83547816D01*
X136751557Y-83358412D01*
X136817246Y-83156243D01*
X136850500Y-82946287D01*
X136850500Y-82733713D01*
X136817246Y-82523757D01*
X136751557Y-82321588D01*
X136655051Y-82132184D01*
X136655049Y-82132181D01*
X136655048Y-82132179D01*
X136530109Y-81960213D01*
X136416569Y-81846673D01*
X136383084Y-81785350D01*
X136388068Y-81715658D01*
X136429940Y-81659725D01*
X136460915Y-81642810D01*
X136592331Y-81593796D01*
X136620668Y-81572583D01*
X138899500Y-81572583D01*
X138899500Y-82372601D01*
X138899501Y-82372619D01*
X138910000Y-82475396D01*
X138910001Y-82475399D01*
X138961451Y-82630663D01*
X138965186Y-82641934D01*
X139057288Y-82791256D01*
X139181344Y-82915312D01*
X139330666Y-83007414D01*
X139497203Y-83062599D01*
X139599991Y-83073100D01*
X140400008Y-83073099D01*
X140400016Y-83073098D01*
X140400019Y-83073098D01*
X140456302Y-83067348D01*
X140502797Y-83062599D01*
X140669334Y-83007414D01*
X140818656Y-82915312D01*
X140942712Y-82791256D01*
X141034814Y-82641934D01*
X141089999Y-82475397D01*
X141100500Y-82372609D01*
X141100499Y-81572592D01*
X141093854Y-81507546D01*
X141089999Y-81469803D01*
X141089998Y-81469800D01*
X141083750Y-81450946D01*
X141034814Y-81303266D01*
X140942712Y-81153944D01*
X140818656Y-81029888D01*
X140669334Y-80937786D01*
X140602278Y-80915566D01*
X140594121Y-80911454D01*
X140583506Y-80901516D01*
X140562254Y-80888407D01*
X140000001Y-80326153D01*
X140000000Y-80326153D01*
X139437742Y-80888409D01*
X139389066Y-80918434D01*
X139330666Y-80937786D01*
X139181342Y-81029889D01*
X139057289Y-81153942D01*
X138965187Y-81303263D01*
X138965185Y-81303268D01*
X138942164Y-81372741D01*
X138910001Y-81469803D01*
X138910001Y-81469804D01*
X138910000Y-81469804D01*
X138899500Y-81572583D01*
X136620668Y-81572583D01*
X136707546Y-81507546D01*
X136793796Y-81392331D01*
X136844091Y-81257483D01*
X136850500Y-81197873D01*
X136850499Y-79886028D01*
X138900000Y-79886028D01*
X138900000Y-80059171D01*
X138927085Y-80230184D01*
X138980592Y-80394859D01*
X139059196Y-80549125D01*
X139063709Y-80555336D01*
X139063709Y-80555337D01*
X139646446Y-79972601D01*
X139646446Y-79972599D01*
X139606951Y-79933104D01*
X139700000Y-79933104D01*
X139700000Y-80012096D01*
X139720444Y-80088396D01*
X139759940Y-80156805D01*
X139815795Y-80212660D01*
X139884204Y-80252156D01*
X139960504Y-80272600D01*
X140039496Y-80272600D01*
X140115796Y-80252156D01*
X140184205Y-80212660D01*
X140240060Y-80156805D01*
X140279556Y-80088396D01*
X140300000Y-80012096D01*
X140300000Y-79972599D01*
X140353553Y-79972599D01*
X140353553Y-79972600D01*
X140936289Y-80555336D01*
X140940803Y-80549125D01*
X141019408Y-80394857D01*
X141072914Y-80230184D01*
X141100000Y-80059171D01*
X141100000Y-79886028D01*
X141072914Y-79715015D01*
X141019408Y-79550342D01*
X140940801Y-79396071D01*
X140936290Y-79389862D01*
X140936289Y-79389861D01*
X140353553Y-79972599D01*
X140300000Y-79972599D01*
X140300000Y-79933104D01*
X140279556Y-79856804D01*
X140240060Y-79788395D01*
X140184205Y-79732540D01*
X140115796Y-79693044D01*
X140039496Y-79672600D01*
X139960504Y-79672600D01*
X139884204Y-79693044D01*
X139815795Y-79732540D01*
X139759940Y-79788395D01*
X139720444Y-79856804D01*
X139700000Y-79933104D01*
X139606951Y-79933104D01*
X139063709Y-79389861D01*
X139063708Y-79389861D01*
X139059203Y-79396063D01*
X139059193Y-79396080D01*
X138980592Y-79550340D01*
X138927085Y-79715015D01*
X138900000Y-79886028D01*
X136850499Y-79886028D01*
X136850499Y-79402128D01*
X136844091Y-79342517D01*
X136844088Y-79342510D01*
X136793797Y-79207671D01*
X136793795Y-79207668D01*
X136756522Y-79157878D01*
X136707546Y-79092454D01*
X136640301Y-79042114D01*
X136632545Y-79036308D01*
X139417261Y-79036308D01*
X139417261Y-79036309D01*
X140000000Y-79619046D01*
X140000001Y-79619046D01*
X140582737Y-79036309D01*
X140576525Y-79031796D01*
X140422259Y-78953192D01*
X140257584Y-78899685D01*
X140086571Y-78872600D01*
X139913429Y-78872600D01*
X139742415Y-78899685D01*
X139577740Y-78953192D01*
X139423480Y-79031793D01*
X139423463Y-79031803D01*
X139417261Y-79036308D01*
X136632545Y-79036308D01*
X136592335Y-79006206D01*
X136592328Y-79006202D01*
X136457482Y-78955908D01*
X136457483Y-78955908D01*
X136397883Y-78949501D01*
X136397881Y-78949500D01*
X136397873Y-78949500D01*
X136397864Y-78949500D01*
X134602129Y-78949500D01*
X134602123Y-78949501D01*
X134542516Y-78955908D01*
X134407671Y-79006202D01*
X134407664Y-79006206D01*
X134292455Y-79092452D01*
X134292452Y-79092455D01*
X134206206Y-79207664D01*
X134206202Y-79207671D01*
X134155910Y-79342513D01*
X134155908Y-79342516D01*
X134150152Y-79396063D01*
X134149501Y-79402123D01*
X134149500Y-79402135D01*
X124150499Y-79402135D01*
X124150499Y-79402128D01*
X124144091Y-79342517D01*
X124144088Y-79342510D01*
X124093797Y-79207671D01*
X124093793Y-79207664D01*
X124007547Y-79092455D01*
X124007544Y-79092452D01*
X123892335Y-79006206D01*
X123892328Y-79006202D01*
X123757482Y-78955908D01*
X123757483Y-78955908D01*
X123697883Y-78949501D01*
X123697881Y-78949500D01*
X123697873Y-78949500D01*
X123697864Y-78949500D01*
X121902129Y-78949500D01*
X121902123Y-78949501D01*
X121842516Y-78955908D01*
X121707671Y-79006202D01*
X121707664Y-79006206D01*
X121592455Y-79092452D01*
X121592452Y-79092455D01*
X121506206Y-79207664D01*
X121506202Y-79207671D01*
X121455910Y-79342513D01*
X121455908Y-79342516D01*
X121450152Y-79396063D01*
X121449501Y-79402123D01*
X121449500Y-79402135D01*
X117432131Y-79402135D01*
X117441152Y-79384429D01*
X117462512Y-79342511D01*
X117462512Y-79342510D01*
X117468451Y-79330853D01*
X117468452Y-79330852D01*
X117478476Y-79300000D01*
X117525580Y-79155030D01*
X117554500Y-78972440D01*
X117554500Y-78787559D01*
X117532538Y-78648898D01*
X117541493Y-78579605D01*
X117586489Y-78526153D01*
X117653240Y-78505513D01*
X117655011Y-78505500D01*
X144161953Y-78505500D01*
X144228992Y-78525185D01*
X144249634Y-78541819D01*
X145381671Y-79673856D01*
X145415156Y-79735179D01*
X145410172Y-79804871D01*
X145368300Y-79860804D01*
X145350286Y-79872021D01*
X145318648Y-79888141D01*
X145318645Y-79888143D01*
X145274077Y-79920523D01*
X145274077Y-79920524D01*
X145953554Y-80600000D01*
X145947339Y-80600000D01*
X145845606Y-80627259D01*
X145754394Y-80679920D01*
X145679920Y-80754394D01*
X145627259Y-80845606D01*
X145600000Y-80947339D01*
X145600000Y-80953553D01*
X144920524Y-80274077D01*
X144920523Y-80274077D01*
X144888143Y-80318644D01*
X144795244Y-80500968D01*
X144732009Y-80695582D01*
X144700000Y-80897682D01*
X144700000Y-81102317D01*
X144732009Y-81304417D01*
X144795244Y-81499031D01*
X144888141Y-81681350D01*
X144888147Y-81681359D01*
X144920523Y-81725921D01*
X144920524Y-81725922D01*
X145600000Y-81046446D01*
X145600000Y-81052661D01*
X145627259Y-81154394D01*
X145679920Y-81245606D01*
X145754394Y-81320080D01*
X145845606Y-81372741D01*
X145947339Y-81400000D01*
X145953553Y-81400000D01*
X145274076Y-82079474D01*
X145277052Y-82117282D01*
X145262687Y-82185659D01*
X145213636Y-82235415D01*
X145192440Y-82244715D01*
X145130672Y-82265184D01*
X145130663Y-82265187D01*
X144981342Y-82357289D01*
X144857289Y-82481342D01*
X144765187Y-82630663D01*
X144765185Y-82630668D01*
X144745543Y-82689945D01*
X144710001Y-82797203D01*
X144710001Y-82797204D01*
X144710000Y-82797204D01*
X144699500Y-82899983D01*
X144699500Y-84100001D01*
X144699501Y-84100018D01*
X144710000Y-84202796D01*
X144710001Y-84202799D01*
X144765185Y-84369331D01*
X144765187Y-84369336D01*
X144797136Y-84421134D01*
X144857288Y-84518656D01*
X144981344Y-84642712D01*
X145130666Y-84734814D01*
X145297203Y-84789999D01*
X145399991Y-84800500D01*
X146600008Y-84800499D01*
X146702797Y-84789999D01*
X146869334Y-84734814D01*
X147018656Y-84642712D01*
X147142712Y-84518656D01*
X147234814Y-84369334D01*
X147289999Y-84202797D01*
X147300500Y-84100009D01*
X147300499Y-82899992D01*
X147289999Y-82797203D01*
X147234814Y-82630666D01*
X147142712Y-82481344D01*
X147018656Y-82357288D01*
X146925888Y-82300069D01*
X146869336Y-82265187D01*
X146869335Y-82265186D01*
X146869334Y-82265186D01*
X146807558Y-82244715D01*
X146750115Y-82204943D01*
X146723292Y-82140427D01*
X146722946Y-82117280D01*
X146725921Y-82079473D01*
X146046447Y-81400000D01*
X146052661Y-81400000D01*
X146154394Y-81372741D01*
X146245606Y-81320080D01*
X146320080Y-81245606D01*
X146372741Y-81154394D01*
X146400000Y-81052661D01*
X146400000Y-81046446D01*
X147079474Y-81725921D01*
X147111861Y-81681347D01*
X147127976Y-81649718D01*
X147175949Y-81598921D01*
X147243769Y-81582124D01*
X147309905Y-81604659D01*
X147326143Y-81618329D01*
X150067625Y-84359811D01*
X150101110Y-84421134D01*
X150096126Y-84490826D01*
X150054254Y-84546759D01*
X150041945Y-84554878D01*
X149980290Y-84590475D01*
X149980282Y-84590481D01*
X149868481Y-84702282D01*
X149868475Y-84702290D01*
X149789426Y-84839209D01*
X149789423Y-84839216D01*
X149748500Y-84991943D01*
X149748500Y-90302330D01*
X149748499Y-90302348D01*
X149748499Y-90468054D01*
X149748498Y-90468054D01*
X149789423Y-90620787D01*
X149806011Y-90649516D01*
X149808018Y-90652993D01*
X149808234Y-90653366D01*
X149808235Y-90653369D01*
X149868475Y-90757709D01*
X149868481Y-90757717D01*
X149987349Y-90876585D01*
X149987355Y-90876590D01*
X150166241Y-91055476D01*
X150199726Y-91116799D01*
X150196492Y-91181473D01*
X150182753Y-91223757D01*
X150151983Y-91418034D01*
X150149500Y-91433713D01*
X150149500Y-91646287D01*
X150155276Y-91682754D01*
X150180965Y-91844951D01*
X150182754Y-91856243D01*
X150219682Y-91969896D01*
X150248444Y-92058414D01*
X150344951Y-92247820D01*
X150469890Y-92419786D01*
X150620213Y-92570109D01*
X150792179Y-92695048D01*
X150792181Y-92695049D01*
X150792184Y-92695051D01*
X150801493Y-92699794D01*
X150852290Y-92747766D01*
X150869087Y-92815587D01*
X150846552Y-92881722D01*
X150801505Y-92920760D01*
X150792446Y-92925376D01*
X150792440Y-92925380D01*
X150738282Y-92964727D01*
X150738282Y-92964728D01*
X151370591Y-93597037D01*
X151307007Y-93614075D01*
X151192993Y-93679901D01*
X151099901Y-93772993D01*
X151034075Y-93887007D01*
X151017037Y-93950591D01*
X150384728Y-93318282D01*
X150384727Y-93318282D01*
X150345380Y-93372439D01*
X150248904Y-93561782D01*
X150183242Y-93763869D01*
X150183242Y-93763872D01*
X150150000Y-93973753D01*
X150150000Y-94186246D01*
X150183242Y-94396127D01*
X150183242Y-94396130D01*
X150248904Y-94598217D01*
X150345375Y-94787550D01*
X150384728Y-94841716D01*
X151017037Y-94209408D01*
X151034075Y-94272993D01*
X151099901Y-94387007D01*
X151192993Y-94480099D01*
X151307007Y-94545925D01*
X151370590Y-94562962D01*
X150738282Y-95195269D01*
X150738282Y-95195270D01*
X150792449Y-95234624D01*
X150981782Y-95331095D01*
X151183870Y-95396757D01*
X151393754Y-95430000D01*
X151606246Y-95430000D01*
X151816127Y-95396757D01*
X151816130Y-95396757D01*
X152018217Y-95331095D01*
X152207554Y-95234622D01*
X152261716Y-95195270D01*
X152261717Y-95195270D01*
X151629408Y-94562962D01*
X151692993Y-94545925D01*
X151807007Y-94480099D01*
X151900099Y-94387007D01*
X151965925Y-94272993D01*
X151982962Y-94209409D01*
X152615270Y-94841717D01*
X152615270Y-94841716D01*
X152654622Y-94787554D01*
X152751095Y-94598217D01*
X152816757Y-94396130D01*
X152816757Y-94396127D01*
X152850000Y-94186246D01*
X152850000Y-93973753D01*
X152816757Y-93763872D01*
X152816757Y-93763869D01*
X152751095Y-93561782D01*
X152654624Y-93372449D01*
X152615270Y-93318282D01*
X152615269Y-93318282D01*
X151982962Y-93950590D01*
X151965925Y-93887007D01*
X151900099Y-93772993D01*
X151807007Y-93679901D01*
X151692993Y-93614075D01*
X151629409Y-93597037D01*
X152261716Y-92964728D01*
X152207547Y-92925373D01*
X152207547Y-92925372D01*
X152198500Y-92920763D01*
X152147706Y-92872788D01*
X152130912Y-92804966D01*
X152153451Y-92738832D01*
X152198508Y-92699793D01*
X152207816Y-92695051D01*
X152287007Y-92637515D01*
X152379786Y-92570109D01*
X152379788Y-92570106D01*
X152379792Y-92570104D01*
X152530104Y-92419792D01*
X152530106Y-92419788D01*
X152530109Y-92419786D01*
X152655048Y-92247820D01*
X152655047Y-92247820D01*
X152655051Y-92247816D01*
X152751557Y-92058412D01*
X152817246Y-91856243D01*
X152850500Y-91646287D01*
X152850500Y-91433713D01*
X152817246Y-91223757D01*
X152751557Y-91021588D01*
X152655051Y-90832184D01*
X152655049Y-90832181D01*
X152655048Y-90832179D01*
X152530109Y-90660213D01*
X152379786Y-90509890D01*
X152207820Y-90384951D01*
X152207115Y-90384591D01*
X152199054Y-90380485D01*
X152148259Y-90332512D01*
X152131463Y-90264692D01*
X152153999Y-90198556D01*
X152199054Y-90159515D01*
X152207816Y-90155051D01*
X152338780Y-90059901D01*
X152379786Y-90030109D01*
X152379788Y-90030106D01*
X152379792Y-90030104D01*
X152530104Y-89879792D01*
X152530106Y-89879788D01*
X152530109Y-89879786D01*
X152655048Y-89707820D01*
X152655047Y-89707820D01*
X152655051Y-89707816D01*
X152751557Y-89518412D01*
X152817246Y-89316243D01*
X152850500Y-89106287D01*
X152850500Y-88893713D01*
X152817246Y-88683757D01*
X152751557Y-88481588D01*
X152655051Y-88292184D01*
X152655049Y-88292181D01*
X152655048Y-88292179D01*
X152530109Y-88120213D01*
X152379786Y-87969890D01*
X152207820Y-87844951D01*
X152207115Y-87844591D01*
X152199054Y-87840485D01*
X152148259Y-87792512D01*
X152131463Y-87724692D01*
X152153999Y-87658556D01*
X152199054Y-87619515D01*
X152207816Y-87615051D01*
X152361496Y-87503397D01*
X152379786Y-87490109D01*
X152379788Y-87490106D01*
X152379792Y-87490104D01*
X152530104Y-87339792D01*
X152530106Y-87339788D01*
X152530109Y-87339786D01*
X152655048Y-87167820D01*
X152655047Y-87167820D01*
X152655051Y-87167816D01*
X152751557Y-86978412D01*
X152817246Y-86776243D01*
X152850500Y-86566287D01*
X152850500Y-86353713D01*
X152817246Y-86143757D01*
X152751557Y-85941588D01*
X152697406Y-85835312D01*
X152684511Y-85766644D01*
X152710787Y-85701903D01*
X152767894Y-85661646D01*
X152775785Y-85659247D01*
X152882784Y-85630577D01*
X153019716Y-85551520D01*
X153131520Y-85439716D01*
X153210577Y-85302784D01*
X153251500Y-85150057D01*
X153251500Y-82689943D01*
X153210577Y-82537216D01*
X153178320Y-82481344D01*
X153131524Y-82400290D01*
X153131518Y-82400282D01*
X153019717Y-82288481D01*
X153019709Y-82288475D01*
X152882790Y-82209426D01*
X152882786Y-82209424D01*
X152882784Y-82209423D01*
X152730057Y-82168500D01*
X152730056Y-82168500D01*
X152202550Y-82168500D01*
X152135511Y-82148815D01*
X152089756Y-82096011D01*
X152079812Y-82026853D01*
X152108837Y-81963297D01*
X152167615Y-81925523D01*
X152174958Y-81923609D01*
X152181851Y-81922035D01*
X152331954Y-81887776D01*
X152650051Y-81776469D01*
X152953686Y-81630246D01*
X153239039Y-81450946D01*
X153502523Y-81240825D01*
X153740825Y-81002523D01*
X153778553Y-80955213D01*
X153835740Y-80915073D01*
X153905552Y-80912223D01*
X153965822Y-80947568D01*
X153997416Y-81009886D01*
X153999500Y-81032526D01*
X153999500Y-93493148D01*
X153999470Y-93495873D01*
X153995006Y-93698944D01*
X153994754Y-93704582D01*
X153982218Y-93890043D01*
X153981683Y-93895891D01*
X153961459Y-94071191D01*
X153960613Y-94077219D01*
X153933303Y-94242294D01*
X153932117Y-94248482D01*
X153897987Y-94404948D01*
X153896438Y-94411253D01*
X153858469Y-94549993D01*
X153855435Y-94559545D01*
X153754277Y-94838417D01*
X153748816Y-94851190D01*
X153628263Y-95094472D01*
X153621219Y-95106845D01*
X153478768Y-95326687D01*
X153470292Y-95338245D01*
X153305016Y-95538252D01*
X153295372Y-95548650D01*
X153105415Y-95731291D01*
X153094952Y-95740286D01*
X152877998Y-95906737D01*
X152867079Y-95914223D01*
X152621073Y-96064245D01*
X152610031Y-96070234D01*
X152334080Y-96202267D01*
X152323176Y-96206858D01*
X152019061Y-96318153D01*
X152008457Y-96321503D01*
X151683262Y-96408400D01*
X151673016Y-96410678D01*
X151346044Y-96468975D01*
X151336144Y-96470331D01*
X151058429Y-96497026D01*
X151050706Y-96497526D01*
X150993712Y-96499431D01*
X150989570Y-96499500D01*
X100006406Y-96499500D01*
X100003858Y-96499474D01*
X99783558Y-96494946D01*
X99778297Y-96494726D01*
X99575096Y-96481904D01*
X99569650Y-96481439D01*
X99376512Y-96460674D01*
X99370904Y-96459942D01*
X99187945Y-96431782D01*
X99182189Y-96430756D01*
X99007957Y-96395461D01*
X99002092Y-96394124D01*
X98837472Y-96352372D01*
X98831520Y-96350704D01*
X98674075Y-96302304D01*
X98668082Y-96300293D01*
X98527338Y-96249041D01*
X98518381Y-96245378D01*
X98234085Y-96115927D01*
X98222336Y-96109799D01*
X97970454Y-95960793D01*
X97959292Y-95953346D01*
X97729047Y-95781035D01*
X97718785Y-95772454D01*
X97507576Y-95575535D01*
X97498454Y-95566079D01*
X97498163Y-95565744D01*
X97304719Y-95342676D01*
X97296884Y-95332644D01*
X97120210Y-95080773D01*
X97113707Y-95070458D01*
X97009237Y-94885136D01*
X96954830Y-94788623D01*
X96949631Y-94778301D01*
X96810389Y-94466403D01*
X96806374Y-94456225D01*
X96801504Y-94442080D01*
X96689540Y-94116905D01*
X96686599Y-94107046D01*
X96666453Y-94027559D01*
X97425500Y-94027559D01*
X97425500Y-94212440D01*
X97454419Y-94395030D01*
X97511546Y-94570849D01*
X97511547Y-94570852D01*
X97595479Y-94735575D01*
X97704135Y-94885129D01*
X97704139Y-94885134D01*
X97834865Y-95015860D01*
X97834870Y-95015864D01*
X97924211Y-95080773D01*
X97984428Y-95124523D01*
X98088205Y-95177400D01*
X98149147Y-95208452D01*
X98149150Y-95208453D01*
X98324969Y-95265580D01*
X98507560Y-95294500D01*
X98507565Y-95294500D01*
X98692440Y-95294500D01*
X98875030Y-95265580D01*
X99050849Y-95208453D01*
X99050852Y-95208452D01*
X99076725Y-95195269D01*
X99215572Y-95124523D01*
X99365136Y-95015859D01*
X99495859Y-94885136D01*
X99604523Y-94735572D01*
X99688452Y-94570852D01*
X99745580Y-94395029D01*
X99747527Y-94382737D01*
X99777456Y-94319602D01*
X99836768Y-94282671D01*
X99906630Y-94283669D01*
X99964863Y-94322279D01*
X99992473Y-94382737D01*
X99994420Y-94395030D01*
X100051546Y-94570849D01*
X100051547Y-94570852D01*
X100135479Y-94735575D01*
X100244135Y-94885129D01*
X100244139Y-94885134D01*
X100374865Y-95015860D01*
X100374870Y-95015864D01*
X100464211Y-95080773D01*
X100524428Y-95124523D01*
X100628205Y-95177400D01*
X100689147Y-95208452D01*
X100689150Y-95208453D01*
X100864969Y-95265580D01*
X101047560Y-95294500D01*
X101047565Y-95294500D01*
X101232440Y-95294500D01*
X101415030Y-95265580D01*
X101590849Y-95208453D01*
X101590852Y-95208452D01*
X101616725Y-95195269D01*
X101755572Y-95124523D01*
X101905136Y-95015859D01*
X102035859Y-94885136D01*
X102144523Y-94735572D01*
X102228452Y-94570852D01*
X102285580Y-94395029D01*
X102287527Y-94382737D01*
X102317456Y-94319602D01*
X102376768Y-94282671D01*
X102446630Y-94283669D01*
X102504863Y-94322279D01*
X102532473Y-94382737D01*
X102534420Y-94395030D01*
X102591546Y-94570849D01*
X102591547Y-94570852D01*
X102675479Y-94735575D01*
X102784135Y-94885129D01*
X102784139Y-94885134D01*
X102914865Y-95015860D01*
X102914870Y-95015864D01*
X103004211Y-95080773D01*
X103064428Y-95124523D01*
X103168205Y-95177400D01*
X103229147Y-95208452D01*
X103229150Y-95208453D01*
X103404969Y-95265580D01*
X103587560Y-95294500D01*
X103587565Y-95294500D01*
X103772440Y-95294500D01*
X103955030Y-95265580D01*
X104130849Y-95208453D01*
X104130852Y-95208452D01*
X104156725Y-95195269D01*
X104295572Y-95124523D01*
X104445136Y-95015859D01*
X104575859Y-94885136D01*
X104684523Y-94735572D01*
X104768452Y-94570852D01*
X104825580Y-94395029D01*
X104827527Y-94382737D01*
X104857456Y-94319602D01*
X104916768Y-94282671D01*
X104986630Y-94283669D01*
X105044863Y-94322279D01*
X105072473Y-94382737D01*
X105074420Y-94395030D01*
X105131546Y-94570849D01*
X105131547Y-94570852D01*
X105215479Y-94735575D01*
X105324135Y-94885129D01*
X105324139Y-94885134D01*
X105454865Y-95015860D01*
X105454870Y-95015864D01*
X105544211Y-95080773D01*
X105604428Y-95124523D01*
X105708205Y-95177400D01*
X105769147Y-95208452D01*
X105769150Y-95208453D01*
X105944969Y-95265580D01*
X106127560Y-95294500D01*
X106127565Y-95294500D01*
X106312440Y-95294500D01*
X106495030Y-95265580D01*
X106670849Y-95208453D01*
X106670852Y-95208452D01*
X106696725Y-95195269D01*
X106835572Y-95124523D01*
X106985136Y-95015859D01*
X107115859Y-94885136D01*
X107224523Y-94735572D01*
X107308452Y-94570852D01*
X107365580Y-94395029D01*
X107367527Y-94382737D01*
X107397456Y-94319602D01*
X107456768Y-94282671D01*
X107526630Y-94283669D01*
X107584863Y-94322279D01*
X107612473Y-94382737D01*
X107614420Y-94395030D01*
X107671546Y-94570849D01*
X107671547Y-94570852D01*
X107755479Y-94735575D01*
X107864135Y-94885129D01*
X107864139Y-94885134D01*
X107994865Y-95015860D01*
X107994870Y-95015864D01*
X108084211Y-95080773D01*
X108144428Y-95124523D01*
X108248205Y-95177400D01*
X108309147Y-95208452D01*
X108309150Y-95208453D01*
X108484969Y-95265580D01*
X108667560Y-95294500D01*
X108667565Y-95294500D01*
X108852440Y-95294500D01*
X109035030Y-95265580D01*
X109210849Y-95208453D01*
X109210852Y-95208452D01*
X109236725Y-95195269D01*
X109375572Y-95124523D01*
X109525136Y-95015859D01*
X109655859Y-94885136D01*
X109764523Y-94735572D01*
X109848452Y-94570852D01*
X109905580Y-94395029D01*
X109907527Y-94382737D01*
X109937456Y-94319602D01*
X109996768Y-94282671D01*
X110066630Y-94283669D01*
X110124863Y-94322279D01*
X110152473Y-94382737D01*
X110154420Y-94395030D01*
X110211546Y-94570849D01*
X110211547Y-94570852D01*
X110295479Y-94735575D01*
X110404135Y-94885129D01*
X110404139Y-94885134D01*
X110534865Y-95015860D01*
X110534870Y-95015864D01*
X110624211Y-95080773D01*
X110684428Y-95124523D01*
X110788205Y-95177400D01*
X110849147Y-95208452D01*
X110849150Y-95208453D01*
X111024969Y-95265580D01*
X111207560Y-95294500D01*
X111207565Y-95294500D01*
X111392440Y-95294500D01*
X111575030Y-95265580D01*
X111750849Y-95208453D01*
X111750852Y-95208452D01*
X111776725Y-95195269D01*
X111915572Y-95124523D01*
X112065136Y-95015859D01*
X112195859Y-94885136D01*
X112304523Y-94735572D01*
X112388452Y-94570852D01*
X112445580Y-94395029D01*
X112447527Y-94382737D01*
X112477456Y-94319602D01*
X112536768Y-94282671D01*
X112606630Y-94283669D01*
X112664863Y-94322279D01*
X112692473Y-94382737D01*
X112694420Y-94395030D01*
X112751546Y-94570849D01*
X112751547Y-94570852D01*
X112835479Y-94735575D01*
X112944135Y-94885129D01*
X112944139Y-94885134D01*
X113074865Y-95015860D01*
X113074870Y-95015864D01*
X113164211Y-95080773D01*
X113224428Y-95124523D01*
X113328205Y-95177400D01*
X113389147Y-95208452D01*
X113389150Y-95208453D01*
X113564969Y-95265580D01*
X113747560Y-95294500D01*
X113747565Y-95294500D01*
X113932440Y-95294500D01*
X114115030Y-95265580D01*
X114290849Y-95208453D01*
X114290852Y-95208452D01*
X114316725Y-95195269D01*
X114455572Y-95124523D01*
X114605136Y-95015859D01*
X114735859Y-94885136D01*
X114844523Y-94735572D01*
X114928452Y-94570852D01*
X114985580Y-94395029D01*
X114987527Y-94382737D01*
X115017456Y-94319602D01*
X115076768Y-94282671D01*
X115146630Y-94283669D01*
X115204863Y-94322279D01*
X115232473Y-94382737D01*
X115234420Y-94395030D01*
X115291546Y-94570849D01*
X115291547Y-94570852D01*
X115375479Y-94735575D01*
X115484135Y-94885129D01*
X115484139Y-94885134D01*
X115614865Y-95015860D01*
X115614870Y-95015864D01*
X115704211Y-95080773D01*
X115764428Y-95124523D01*
X115868205Y-95177400D01*
X115929147Y-95208452D01*
X115929150Y-95208453D01*
X116104969Y-95265580D01*
X116287560Y-95294500D01*
X116287565Y-95294500D01*
X116472440Y-95294500D01*
X116655030Y-95265580D01*
X116830849Y-95208453D01*
X116830852Y-95208452D01*
X116856725Y-95195269D01*
X116995572Y-95124523D01*
X117145136Y-95015859D01*
X117275859Y-94885136D01*
X117384523Y-94735572D01*
X117468452Y-94570852D01*
X117473657Y-94554834D01*
X117525580Y-94395030D01*
X117554500Y-94212440D01*
X117554500Y-94027559D01*
X117525580Y-93844969D01*
X117468453Y-93669150D01*
X117468452Y-93669147D01*
X117434303Y-93602127D01*
X117384523Y-93504428D01*
X117357332Y-93467002D01*
X117275864Y-93354870D01*
X117275860Y-93354865D01*
X117145134Y-93224139D01*
X117145129Y-93224135D01*
X116995575Y-93115479D01*
X116995574Y-93115478D01*
X116995572Y-93115477D01*
X116929801Y-93081965D01*
X116830852Y-93031547D01*
X116830849Y-93031546D01*
X116754600Y-93006772D01*
X116655030Y-92974420D01*
X116472440Y-92945500D01*
X116472435Y-92945500D01*
X116287565Y-92945500D01*
X116287560Y-92945500D01*
X116104969Y-92974419D01*
X115929150Y-93031546D01*
X115929147Y-93031547D01*
X115764424Y-93115479D01*
X115614870Y-93224135D01*
X115614865Y-93224139D01*
X115484139Y-93354865D01*
X115484135Y-93354870D01*
X115375479Y-93504424D01*
X115291547Y-93669147D01*
X115291546Y-93669150D01*
X115234420Y-93844969D01*
X115232473Y-93857263D01*
X115202543Y-93920397D01*
X115143231Y-93957328D01*
X115073369Y-93956330D01*
X115015136Y-93917719D01*
X114987527Y-93857263D01*
X114987192Y-93855150D01*
X114985580Y-93844971D01*
X114952695Y-93743762D01*
X114928453Y-93669150D01*
X114928452Y-93669147D01*
X114894303Y-93602127D01*
X114844523Y-93504428D01*
X114817332Y-93467002D01*
X114735864Y-93354870D01*
X114735860Y-93354865D01*
X114605134Y-93224139D01*
X114605129Y-93224135D01*
X114455575Y-93115479D01*
X114455574Y-93115478D01*
X114455572Y-93115477D01*
X114389801Y-93081965D01*
X114290852Y-93031547D01*
X114290849Y-93031546D01*
X114115030Y-92974419D01*
X113932440Y-92945500D01*
X113932435Y-92945500D01*
X113747565Y-92945500D01*
X113747560Y-92945500D01*
X113564969Y-92974419D01*
X113389150Y-93031546D01*
X113389147Y-93031547D01*
X113224424Y-93115479D01*
X113074870Y-93224135D01*
X113074865Y-93224139D01*
X112944139Y-93354865D01*
X112944135Y-93354870D01*
X112835479Y-93504424D01*
X112751547Y-93669147D01*
X112751546Y-93669150D01*
X112694420Y-93844969D01*
X112692473Y-93857263D01*
X112662543Y-93920397D01*
X112603231Y-93957328D01*
X112533369Y-93956330D01*
X112475136Y-93917719D01*
X112447527Y-93857263D01*
X112447192Y-93855150D01*
X112445580Y-93844971D01*
X112412695Y-93743762D01*
X112388453Y-93669150D01*
X112388452Y-93669147D01*
X112354303Y-93602127D01*
X112304523Y-93504428D01*
X112277332Y-93467002D01*
X112195864Y-93354870D01*
X112195860Y-93354865D01*
X112065134Y-93224139D01*
X112065129Y-93224135D01*
X111915575Y-93115479D01*
X111915574Y-93115478D01*
X111915572Y-93115477D01*
X111849801Y-93081965D01*
X111750852Y-93031547D01*
X111750849Y-93031546D01*
X111575030Y-92974419D01*
X111392440Y-92945500D01*
X111392435Y-92945500D01*
X111207565Y-92945500D01*
X111207560Y-92945500D01*
X111024969Y-92974419D01*
X110849150Y-93031546D01*
X110849147Y-93031547D01*
X110684424Y-93115479D01*
X110534870Y-93224135D01*
X110534865Y-93224139D01*
X110404139Y-93354865D01*
X110404135Y-93354870D01*
X110295479Y-93504424D01*
X110211547Y-93669147D01*
X110211546Y-93669150D01*
X110154420Y-93844969D01*
X110152473Y-93857263D01*
X110122543Y-93920397D01*
X110063231Y-93957328D01*
X109993369Y-93956330D01*
X109935136Y-93917719D01*
X109907527Y-93857263D01*
X109907192Y-93855150D01*
X109905580Y-93844971D01*
X109872695Y-93743762D01*
X109848453Y-93669150D01*
X109848452Y-93669147D01*
X109814303Y-93602127D01*
X109764523Y-93504428D01*
X109737332Y-93467002D01*
X109655864Y-93354870D01*
X109655860Y-93354865D01*
X109525134Y-93224139D01*
X109525129Y-93224135D01*
X109375575Y-93115479D01*
X109375574Y-93115478D01*
X109375572Y-93115477D01*
X109309801Y-93081965D01*
X109210852Y-93031547D01*
X109210849Y-93031546D01*
X109035030Y-92974419D01*
X108852440Y-92945500D01*
X108852435Y-92945500D01*
X108667565Y-92945500D01*
X108667560Y-92945500D01*
X108484969Y-92974419D01*
X108309150Y-93031546D01*
X108309147Y-93031547D01*
X108144424Y-93115479D01*
X107994870Y-93224135D01*
X107994865Y-93224139D01*
X107864139Y-93354865D01*
X107864135Y-93354870D01*
X107755479Y-93504424D01*
X107671547Y-93669147D01*
X107671546Y-93669150D01*
X107614420Y-93844969D01*
X107612473Y-93857263D01*
X107582543Y-93920397D01*
X107523231Y-93957328D01*
X107453369Y-93956330D01*
X107395136Y-93917719D01*
X107367527Y-93857263D01*
X107367192Y-93855150D01*
X107365580Y-93844971D01*
X107332695Y-93743762D01*
X107308453Y-93669150D01*
X107308452Y-93669147D01*
X107274303Y-93602127D01*
X107224523Y-93504428D01*
X107197332Y-93467002D01*
X107115864Y-93354870D01*
X107115860Y-93354865D01*
X106985134Y-93224139D01*
X106985129Y-93224135D01*
X106835575Y-93115479D01*
X106835574Y-93115478D01*
X106835572Y-93115477D01*
X106769801Y-93081965D01*
X106670852Y-93031547D01*
X106670849Y-93031546D01*
X106495030Y-92974419D01*
X106312440Y-92945500D01*
X106312435Y-92945500D01*
X106127565Y-92945500D01*
X106127560Y-92945500D01*
X105944969Y-92974419D01*
X105769150Y-93031546D01*
X105769147Y-93031547D01*
X105604424Y-93115479D01*
X105454870Y-93224135D01*
X105454865Y-93224139D01*
X105324139Y-93354865D01*
X105324135Y-93354870D01*
X105215479Y-93504424D01*
X105131547Y-93669147D01*
X105131546Y-93669150D01*
X105074420Y-93844969D01*
X105072473Y-93857263D01*
X105042543Y-93920397D01*
X104983231Y-93957328D01*
X104913369Y-93956330D01*
X104855136Y-93917719D01*
X104827527Y-93857263D01*
X104827192Y-93855150D01*
X104825580Y-93844971D01*
X104792695Y-93743762D01*
X104768453Y-93669150D01*
X104768452Y-93669147D01*
X104734303Y-93602127D01*
X104684523Y-93504428D01*
X104657332Y-93467002D01*
X104575864Y-93354870D01*
X104575860Y-93354865D01*
X104445134Y-93224139D01*
X104445129Y-93224135D01*
X104295575Y-93115479D01*
X104295574Y-93115478D01*
X104295572Y-93115477D01*
X104229801Y-93081965D01*
X104130852Y-93031547D01*
X104130849Y-93031546D01*
X103955030Y-92974419D01*
X103772440Y-92945500D01*
X103772435Y-92945500D01*
X103587565Y-92945500D01*
X103587560Y-92945500D01*
X103404969Y-92974419D01*
X103229150Y-93031546D01*
X103229147Y-93031547D01*
X103064424Y-93115479D01*
X102914870Y-93224135D01*
X102914865Y-93224139D01*
X102784139Y-93354865D01*
X102784135Y-93354870D01*
X102675479Y-93504424D01*
X102591547Y-93669147D01*
X102591546Y-93669150D01*
X102534420Y-93844969D01*
X102532473Y-93857263D01*
X102502543Y-93920397D01*
X102443231Y-93957328D01*
X102373369Y-93956330D01*
X102315136Y-93917719D01*
X102287527Y-93857263D01*
X102287192Y-93855150D01*
X102285580Y-93844971D01*
X102252695Y-93743762D01*
X102228453Y-93669150D01*
X102228452Y-93669147D01*
X102194303Y-93602127D01*
X102144523Y-93504428D01*
X102117332Y-93467002D01*
X102035864Y-93354870D01*
X102035860Y-93354865D01*
X101905134Y-93224139D01*
X101905129Y-93224135D01*
X101755575Y-93115479D01*
X101755574Y-93115478D01*
X101755572Y-93115477D01*
X101689801Y-93081965D01*
X101590852Y-93031547D01*
X101590849Y-93031546D01*
X101415030Y-92974419D01*
X101232440Y-92945500D01*
X101232435Y-92945500D01*
X101047565Y-92945500D01*
X101047560Y-92945500D01*
X100864969Y-92974419D01*
X100689150Y-93031546D01*
X100689147Y-93031547D01*
X100524424Y-93115479D01*
X100374870Y-93224135D01*
X100374865Y-93224139D01*
X100244139Y-93354865D01*
X100244135Y-93354870D01*
X100135479Y-93504424D01*
X100051547Y-93669147D01*
X100051546Y-93669150D01*
X99994420Y-93844969D01*
X99992473Y-93857263D01*
X99962543Y-93920397D01*
X99903231Y-93957328D01*
X99833369Y-93956330D01*
X99775136Y-93917719D01*
X99747527Y-93857263D01*
X99747192Y-93855150D01*
X99745580Y-93844971D01*
X99712695Y-93743762D01*
X99688453Y-93669150D01*
X99688452Y-93669147D01*
X99654303Y-93602127D01*
X99604523Y-93504428D01*
X99577332Y-93467002D01*
X99495864Y-93354870D01*
X99495860Y-93354865D01*
X99365134Y-93224139D01*
X99365129Y-93224135D01*
X99215575Y-93115479D01*
X99215574Y-93115478D01*
X99215572Y-93115477D01*
X99149801Y-93081965D01*
X99050852Y-93031547D01*
X99050849Y-93031546D01*
X98875030Y-92974419D01*
X98692440Y-92945500D01*
X98692435Y-92945500D01*
X98507565Y-92945500D01*
X98507560Y-92945500D01*
X98324969Y-92974419D01*
X98149150Y-93031546D01*
X98149147Y-93031547D01*
X97984424Y-93115479D01*
X97834870Y-93224135D01*
X97834865Y-93224139D01*
X97704139Y-93354865D01*
X97704135Y-93354870D01*
X97595479Y-93504424D01*
X97511547Y-93669147D01*
X97511546Y-93669150D01*
X97454419Y-93844969D01*
X97425500Y-94027559D01*
X96666453Y-94027559D01*
X96595729Y-93748518D01*
X96593698Y-93738924D01*
X96593588Y-93738282D01*
X96543152Y-93442735D01*
X96532767Y-93381879D01*
X96531536Y-93372539D01*
X96526284Y-93316243D01*
X96503322Y-93070123D01*
X96502857Y-93062767D01*
X96500568Y-92993740D01*
X96500500Y-92989631D01*
X96500500Y-86831491D01*
X96999500Y-86831491D01*
X96999500Y-87168508D01*
X97037231Y-87503381D01*
X97037233Y-87503397D01*
X97112223Y-87831953D01*
X97112227Y-87831965D01*
X97223532Y-88150054D01*
X97369752Y-88453683D01*
X97412116Y-88521104D01*
X97431122Y-88587076D01*
X97431122Y-91099185D01*
X119315274Y-91099185D01*
X119315274Y-80898855D01*
X97431122Y-80898855D01*
X97431122Y-85412923D01*
X97412116Y-85478895D01*
X97369752Y-85546316D01*
X97223532Y-85849945D01*
X97112227Y-86168034D01*
X97112223Y-86168046D01*
X97037233Y-86496602D01*
X97037231Y-86496618D01*
X96999500Y-86831491D01*
X96500500Y-86831491D01*
X96500500Y-79506848D01*
X96500530Y-79504124D01*
X96500741Y-79494504D01*
X96504993Y-79301023D01*
X96505242Y-79295454D01*
X96517783Y-79109923D01*
X96518313Y-79104130D01*
X96538541Y-78928779D01*
X96539378Y-78922815D01*
X96566696Y-78757700D01*
X96567881Y-78751516D01*
X96602019Y-78595016D01*
X96603549Y-78588790D01*
X96641531Y-78449998D01*
X96644564Y-78440450D01*
X96745724Y-78161573D01*
X96751178Y-78148817D01*
X96871734Y-77905526D01*
X96878768Y-77893168D01*
X97021250Y-77673278D01*
X97029703Y-77661754D01*
X97194987Y-77461739D01*
X97204612Y-77451362D01*
X97394594Y-77268697D01*
X97405034Y-77259722D01*
X97622018Y-77093247D01*
X97632907Y-77085782D01*
X97878936Y-76935745D01*
X97889959Y-76929767D01*
X98165924Y-76797728D01*
X98176804Y-76793146D01*
X98480958Y-76681837D01*
X98491511Y-76678503D01*
X98816737Y-76591597D01*
X98826969Y-76589322D01*
X99153963Y-76531021D01*
X99163843Y-76529668D01*
X99441601Y-76502969D01*
X99449269Y-76502473D01*
X99502997Y-76500678D01*
X99506288Y-76500569D01*
X99510426Y-76500500D01*
X104910902Y-76500500D01*
X104977941Y-76520185D01*
G37*
%TD.AperFunction*%
%TD*%
M02*
