%TF.GenerationSoftware,KiCad,Pcbnew,9.0.7*%
%TF.CreationDate,2026-01-28T06:38:56-05:00*%
%TF.ProjectId,teleop_pcb,74656c65-6f70-45f7-9063-622e6b696361,rev?*%
%TF.SameCoordinates,Original*%
%TF.FileFunction,Legend,Top*%
%TF.FilePolarity,Positive*%
%FSLAX46Y46*%
G04 Gerber Fmt 4.6, Leading zero omitted, Abs format (unit mm)*
G04 Created by KiCad (PCBNEW 9.0.7) date 2026-01-28 06:38:56*
%MOMM*%
%LPD*%
G01*
G04 APERTURE LIST*
%ADD10C,0.120000*%
%ADD11C,0.127000*%
G04 APERTURE END LIST*
D10*
%TO.C,RIGHT_IMU1*%
X134170000Y-81570000D02*
X134170000Y-94330000D01*
X134170000Y-81570000D02*
X136830000Y-81570000D01*
X134170000Y-94330000D02*
X136830000Y-94330000D01*
X135500000Y-78970000D02*
X136830000Y-78970000D01*
X136830000Y-78970000D02*
X136830000Y-80300000D01*
X136830000Y-81570000D02*
X136830000Y-94330000D01*
%TO.C,LEFT_IMU1*%
X121470000Y-81570000D02*
X121470000Y-94330000D01*
X121470000Y-81570000D02*
X124130000Y-81570000D01*
X121470000Y-94330000D02*
X124130000Y-94330000D01*
X122800000Y-78970000D02*
X124130000Y-78970000D01*
X124130000Y-78970000D02*
X124130000Y-80300000D01*
X124130000Y-81570000D02*
X124130000Y-94330000D01*
%TO.C,volt_reg1*%
X138350000Y-86640000D02*
X148570000Y-86640000D01*
X138350000Y-91260000D02*
X138350000Y-86640000D01*
X141610000Y-91260000D02*
X141610000Y-89880000D01*
X145310000Y-91260000D02*
X145310000Y-89880000D01*
X148570000Y-86640000D02*
X148570000Y-91260000D01*
X148570000Y-89880000D02*
X138350000Y-89880000D01*
X148570000Y-91260000D02*
X138350000Y-91260000D01*
%TO.C,joystick_2axes1*%
X150120000Y-82540000D02*
X151500000Y-82540000D01*
X150120000Y-83920000D02*
X150120000Y-82540000D01*
X150120000Y-85190000D02*
X150120000Y-95460000D01*
X150120000Y-85190000D02*
X152880000Y-85190000D01*
X150120000Y-95460000D02*
X152880000Y-95460000D01*
X152880000Y-85190000D02*
X152880000Y-95460000D01*
%TO.C,smart_motor1*%
X139080000Y-95880000D02*
X139080000Y-94500000D01*
X140460000Y-95880000D02*
X139080000Y-95880000D01*
X141730000Y-93120000D02*
X146920000Y-93120000D01*
X141730000Y-95880000D02*
X141730000Y-93120000D01*
X141730000Y-95880000D02*
X146920000Y-95880000D01*
X146920000Y-95880000D02*
X146920000Y-93120000D01*
%TO.C,output_c1*%
X137920000Y-80932600D02*
X142080000Y-80932600D01*
X137920000Y-80972600D02*
X142080000Y-80972600D01*
X137922000Y-80892600D02*
X142078000Y-80892600D01*
X137923000Y-80852600D02*
X142077000Y-80852600D01*
X137926000Y-80812600D02*
X142074000Y-80812600D01*
X137929000Y-80772600D02*
X139160000Y-80772600D01*
X137934000Y-80732600D02*
X139160000Y-80732600D01*
X137939000Y-80692600D02*
X139160000Y-80692600D01*
X137944000Y-80652600D02*
X139160000Y-80652600D01*
X137951000Y-80612600D02*
X139160000Y-80612600D01*
X137958000Y-80572600D02*
X139160000Y-80572600D01*
X137966000Y-80532600D02*
X139160000Y-80532600D01*
X137975000Y-80492600D02*
X139160000Y-80492600D01*
X137985000Y-80452600D02*
X139160000Y-80452600D01*
X137995000Y-80412600D02*
X139160000Y-80412600D01*
X138007000Y-80372600D02*
X139160000Y-80372600D01*
X138019000Y-80332600D02*
X139160000Y-80332600D01*
X138032000Y-80292600D02*
X139160000Y-80292600D01*
X138046000Y-80252600D02*
X139160000Y-80252600D01*
X138061000Y-80212600D02*
X139160000Y-80212600D01*
X138077000Y-80172600D02*
X139160000Y-80172600D01*
X138094000Y-80132600D02*
X139160000Y-80132600D01*
X138111000Y-80092600D02*
X139160000Y-80092600D01*
X138130000Y-80052600D02*
X139160000Y-80052600D01*
X138150000Y-80012600D02*
X139160000Y-80012600D01*
X138171000Y-79972600D02*
X139160000Y-79972600D01*
X138193000Y-79932600D02*
X139160000Y-79932600D01*
X138216000Y-79892600D02*
X139160000Y-79892600D01*
X138240000Y-79852600D02*
X139160000Y-79852600D01*
X138266000Y-79812600D02*
X139160000Y-79812600D01*
X138292000Y-79772600D02*
X139160000Y-79772600D01*
X138320000Y-79732600D02*
X139160000Y-79732600D01*
X138350000Y-79692600D02*
X139160000Y-79692600D01*
X138381000Y-79652600D02*
X139160000Y-79652600D01*
X138414000Y-79612600D02*
X139160000Y-79612600D01*
X138448000Y-79572600D02*
X139160000Y-79572600D01*
X138484000Y-79532600D02*
X139160000Y-79532600D01*
X138522000Y-79492600D02*
X139160000Y-79492600D01*
X138562000Y-79452600D02*
X139160000Y-79452600D01*
X138604000Y-79412600D02*
X139160000Y-79412600D01*
X138605000Y-83042401D02*
X139005000Y-83042401D01*
X138649000Y-79372600D02*
X139160000Y-79372600D01*
X138697000Y-79332600D02*
X139160000Y-79332600D01*
X138747000Y-79292600D02*
X139160000Y-79292600D01*
X138801000Y-79252600D02*
X139160000Y-79252600D01*
X138805000Y-83242401D02*
X138805000Y-82842401D01*
X138858000Y-79212600D02*
X139160000Y-79212600D01*
X138920000Y-79172600D02*
X139160000Y-79172600D01*
X138987000Y-79132600D02*
X141013000Y-79132600D01*
X139060000Y-79092600D02*
X140940000Y-79092600D01*
X139141000Y-79052600D02*
X140859000Y-79052600D01*
X139232000Y-79012600D02*
X140768000Y-79012600D01*
X139337000Y-78972600D02*
X140663000Y-78972600D01*
X139463000Y-78932600D02*
X140537000Y-78932600D01*
X139630000Y-78892600D02*
X140370000Y-78892600D01*
X140840000Y-79172600D02*
X141080000Y-79172600D01*
X140840000Y-79212600D02*
X141142000Y-79212600D01*
X140840000Y-79252600D02*
X141199000Y-79252600D01*
X140840000Y-79292600D02*
X141253000Y-79292600D01*
X140840000Y-79332600D02*
X141303000Y-79332600D01*
X140840000Y-79372600D02*
X141351000Y-79372600D01*
X140840000Y-79412600D02*
X141396000Y-79412600D01*
X140840000Y-79452600D02*
X141438000Y-79452600D01*
X140840000Y-79492600D02*
X141478000Y-79492600D01*
X140840000Y-79532600D02*
X141516000Y-79532600D01*
X140840000Y-79572600D02*
X141552000Y-79572600D01*
X140840000Y-79612600D02*
X141586000Y-79612600D01*
X140840000Y-79652600D02*
X141619000Y-79652600D01*
X140840000Y-79692600D02*
X141650000Y-79692600D01*
X140840000Y-79732600D02*
X141680000Y-79732600D01*
X140840000Y-79772600D02*
X141708000Y-79772600D01*
X140840000Y-79812600D02*
X141734000Y-79812600D01*
X140840000Y-79852600D02*
X141760000Y-79852600D01*
X140840000Y-79892600D02*
X141784000Y-79892600D01*
X140840000Y-79932600D02*
X141807000Y-79932600D01*
X140840000Y-79972600D02*
X141829000Y-79972600D01*
X140840000Y-80012600D02*
X141850000Y-80012600D01*
X140840000Y-80052600D02*
X141870000Y-80052600D01*
X140840000Y-80092600D02*
X141889000Y-80092600D01*
X140840000Y-80132600D02*
X141906000Y-80132600D01*
X140840000Y-80172600D02*
X141923000Y-80172600D01*
X140840000Y-80212600D02*
X141939000Y-80212600D01*
X140840000Y-80252600D02*
X141954000Y-80252600D01*
X140840000Y-80292600D02*
X141968000Y-80292600D01*
X140840000Y-80332600D02*
X141981000Y-80332600D01*
X140840000Y-80372600D02*
X141993000Y-80372600D01*
X140840000Y-80412600D02*
X142005000Y-80412600D01*
X140840000Y-80452600D02*
X142015000Y-80452600D01*
X140840000Y-80492600D02*
X142025000Y-80492600D01*
X140840000Y-80532600D02*
X142034000Y-80532600D01*
X140840000Y-80572600D02*
X142042000Y-80572600D01*
X140840000Y-80612600D02*
X142049000Y-80612600D01*
X140840000Y-80652600D02*
X142056000Y-80652600D01*
X140840000Y-80692600D02*
X142061000Y-80692600D01*
X140840000Y-80732600D02*
X142066000Y-80732600D01*
X140840000Y-80772600D02*
X142071000Y-80772600D01*
X142120000Y-80972600D02*
G75*
G02*
X137880000Y-80972600I-2120000J0D01*
G01*
X137880000Y-80972600D02*
G75*
G02*
X142120000Y-80972600I2120000J0D01*
G01*
D11*
%TO.C,ESP32-C3_SuperMini1*%
X95850000Y-82000000D02*
X95850000Y-91000000D01*
X95850000Y-82000000D02*
X97150000Y-82000000D01*
X95850000Y-91000000D02*
X97150000Y-91000000D01*
X97150000Y-77500000D02*
X97150000Y-82000000D01*
X97150000Y-91000000D02*
X97150000Y-95500000D01*
X119850000Y-77500000D02*
X97150000Y-77500000D01*
X119850000Y-77500000D02*
X119850000Y-95500000D01*
X119850000Y-95500000D02*
X97150000Y-95500000D01*
D10*
%TO.C,input_c1*%
X142770000Y-82210000D02*
X149230000Y-82210000D01*
X142770000Y-82250000D02*
X149230000Y-82250000D01*
X142771000Y-82170000D02*
X149229000Y-82170000D01*
X142772000Y-82130000D02*
X149228000Y-82130000D01*
X142774000Y-82090000D02*
X149226000Y-82090000D01*
X142776000Y-82050000D02*
X149224000Y-82050000D01*
X142779000Y-82010000D02*
X144960000Y-82010000D01*
X142782000Y-81970000D02*
X144960000Y-81970000D01*
X142786000Y-81930000D02*
X144960000Y-81930000D01*
X142790000Y-81890000D02*
X144960000Y-81890000D01*
X142795000Y-81850000D02*
X144960000Y-81850000D01*
X142800000Y-81810000D02*
X144960000Y-81810000D01*
X142805000Y-81770000D02*
X144960000Y-81770000D01*
X142812000Y-81730000D02*
X144960000Y-81730000D01*
X142818000Y-81690000D02*
X144960000Y-81690000D01*
X142826000Y-81650000D02*
X144960000Y-81650000D01*
X142833000Y-81610000D02*
X144960000Y-81610000D01*
X142841000Y-81570000D02*
X144960000Y-81570000D01*
X142850000Y-81530000D02*
X144960000Y-81530000D01*
X142860000Y-81490000D02*
X144960000Y-81490000D01*
X142869000Y-81450000D02*
X144960000Y-81450000D01*
X142880000Y-81410000D02*
X144960000Y-81410000D01*
X142891000Y-81370000D02*
X144960000Y-81370000D01*
X142902000Y-81330000D02*
X144960000Y-81330000D01*
X142914000Y-81290000D02*
X144960000Y-81290000D01*
X142927000Y-81250000D02*
X144960000Y-81250000D01*
X142940000Y-81210000D02*
X144960000Y-81210000D01*
X142953000Y-81170000D02*
X144960000Y-81170000D01*
X142968000Y-81130000D02*
X144960000Y-81130000D01*
X142983000Y-81090000D02*
X144960000Y-81090000D01*
X142998000Y-81050000D02*
X144960000Y-81050000D01*
X143014000Y-81010000D02*
X144960000Y-81010000D01*
X143031000Y-80970000D02*
X144960000Y-80970000D01*
X143048000Y-80930000D02*
X144960000Y-80930000D01*
X143066000Y-80890000D02*
X144960000Y-80890000D01*
X143085000Y-80850000D02*
X144960000Y-80850000D01*
X143104000Y-80810000D02*
X144960000Y-80810000D01*
X143124000Y-80770000D02*
X144960000Y-80770000D01*
X143145000Y-80730000D02*
X144960000Y-80730000D01*
X143166000Y-80690000D02*
X144960000Y-80690000D01*
X143188000Y-80650000D02*
X144960000Y-80650000D01*
X143211000Y-80610000D02*
X144960000Y-80610000D01*
X143235000Y-80570000D02*
X144960000Y-80570000D01*
X143259000Y-80530000D02*
X144960000Y-80530000D01*
X143284000Y-80490000D02*
X144960000Y-80490000D01*
X143310000Y-80450000D02*
X144960000Y-80450000D01*
X143337000Y-80410000D02*
X144960000Y-80410000D01*
X143364000Y-80370000D02*
X144960000Y-80370000D01*
X143393000Y-80330000D02*
X144960000Y-80330000D01*
X143423000Y-80290000D02*
X144960000Y-80290000D01*
X143453000Y-80250000D02*
X144960000Y-80250000D01*
X143484000Y-80210000D02*
X144960000Y-80210000D01*
X143517000Y-80170000D02*
X144960000Y-80170000D01*
X143550000Y-80130000D02*
X144960000Y-80130000D01*
X143585000Y-80090000D02*
X144960000Y-80090000D01*
X143621000Y-80050000D02*
X144960000Y-80050000D01*
X143658000Y-80010000D02*
X144960000Y-80010000D01*
X143696000Y-79970000D02*
X144960000Y-79970000D01*
X143736000Y-79930000D02*
X148264000Y-79930000D01*
X143777000Y-79890000D02*
X148223000Y-79890000D01*
X143819000Y-79850000D02*
X148181000Y-79850000D01*
X143846000Y-85435241D02*
X144476000Y-85435241D01*
X143863000Y-79810000D02*
X148137000Y-79810000D01*
X143909000Y-79770000D02*
X148091000Y-79770000D01*
X143956000Y-79730000D02*
X148044000Y-79730000D01*
X144005000Y-79690000D02*
X147995000Y-79690000D01*
X144057000Y-79650000D02*
X147943000Y-79650000D01*
X144110000Y-79610000D02*
X147890000Y-79610000D01*
X144161000Y-85750241D02*
X144161000Y-85120241D01*
X144166000Y-79570000D02*
X147834000Y-79570000D01*
X144225000Y-79530000D02*
X147775000Y-79530000D01*
X144286000Y-79490000D02*
X147714000Y-79490000D01*
X144351000Y-79450000D02*
X147649000Y-79450000D01*
X144419000Y-79410000D02*
X147581000Y-79410000D01*
X144491000Y-79370000D02*
X147509000Y-79370000D01*
X144568000Y-79330000D02*
X147432000Y-79330000D01*
X144650000Y-79290000D02*
X147350000Y-79290000D01*
X144739000Y-79250000D02*
X147261000Y-79250000D01*
X144835000Y-79210000D02*
X147165000Y-79210000D01*
X144942000Y-79170000D02*
X147058000Y-79170000D01*
X145061000Y-79130000D02*
X146939000Y-79130000D01*
X145199000Y-79090000D02*
X146801000Y-79090000D01*
X145367000Y-79050000D02*
X146633000Y-79050000D01*
X145598000Y-79010000D02*
X146402000Y-79010000D01*
X147040000Y-79970000D02*
X148304000Y-79970000D01*
X147040000Y-80010000D02*
X148342000Y-80010000D01*
X147040000Y-80050000D02*
X148379000Y-80050000D01*
X147040000Y-80090000D02*
X148415000Y-80090000D01*
X147040000Y-80130000D02*
X148450000Y-80130000D01*
X147040000Y-80170000D02*
X148483000Y-80170000D01*
X147040000Y-80210000D02*
X148516000Y-80210000D01*
X147040000Y-80250000D02*
X148547000Y-80250000D01*
X147040000Y-80290000D02*
X148577000Y-80290000D01*
X147040000Y-80330000D02*
X148607000Y-80330000D01*
X147040000Y-80370000D02*
X148636000Y-80370000D01*
X147040000Y-80410000D02*
X148663000Y-80410000D01*
X147040000Y-80450000D02*
X148690000Y-80450000D01*
X147040000Y-80490000D02*
X148716000Y-80490000D01*
X147040000Y-80530000D02*
X148741000Y-80530000D01*
X147040000Y-80570000D02*
X148765000Y-80570000D01*
X147040000Y-80610000D02*
X148789000Y-80610000D01*
X147040000Y-80650000D02*
X148812000Y-80650000D01*
X147040000Y-80690000D02*
X148834000Y-80690000D01*
X147040000Y-80730000D02*
X148855000Y-80730000D01*
X147040000Y-80770000D02*
X148876000Y-80770000D01*
X147040000Y-80810000D02*
X148896000Y-80810000D01*
X147040000Y-80850000D02*
X148915000Y-80850000D01*
X147040000Y-80890000D02*
X148934000Y-80890000D01*
X147040000Y-80930000D02*
X148952000Y-80930000D01*
X147040000Y-80970000D02*
X148969000Y-80970000D01*
X147040000Y-81010000D02*
X148986000Y-81010000D01*
X147040000Y-81050000D02*
X149002000Y-81050000D01*
X147040000Y-81090000D02*
X149017000Y-81090000D01*
X147040000Y-81130000D02*
X149032000Y-81130000D01*
X147040000Y-81170000D02*
X149047000Y-81170000D01*
X147040000Y-81210000D02*
X149060000Y-81210000D01*
X147040000Y-81250000D02*
X149073000Y-81250000D01*
X147040000Y-81290000D02*
X149086000Y-81290000D01*
X147040000Y-81330000D02*
X149098000Y-81330000D01*
X147040000Y-81370000D02*
X149109000Y-81370000D01*
X147040000Y-81410000D02*
X149120000Y-81410000D01*
X147040000Y-81450000D02*
X149131000Y-81450000D01*
X147040000Y-81490000D02*
X149140000Y-81490000D01*
X147040000Y-81530000D02*
X149150000Y-81530000D01*
X147040000Y-81570000D02*
X149159000Y-81570000D01*
X147040000Y-81610000D02*
X149167000Y-81610000D01*
X147040000Y-81650000D02*
X149174000Y-81650000D01*
X147040000Y-81690000D02*
X149182000Y-81690000D01*
X147040000Y-81730000D02*
X149188000Y-81730000D01*
X147040000Y-81770000D02*
X149195000Y-81770000D01*
X147040000Y-81810000D02*
X149200000Y-81810000D01*
X147040000Y-81850000D02*
X149205000Y-81850000D01*
X147040000Y-81890000D02*
X149210000Y-81890000D01*
X147040000Y-81930000D02*
X149214000Y-81930000D01*
X147040000Y-81970000D02*
X149218000Y-81970000D01*
X147040000Y-82010000D02*
X149221000Y-82010000D01*
X149270000Y-82250000D02*
G75*
G02*
X142730000Y-82250000I-3270000J0D01*
G01*
X142730000Y-82250000D02*
G75*
G02*
X149270000Y-82250000I3270000J0D01*
G01*
%TD*%
M02*
