%TF.GenerationSoftware,KiCad,Pcbnew,9.0.7*%
%TF.CreationDate,2026-01-28T06:38:56-05:00*%
%TF.ProjectId,teleop_pcb,74656c65-6f70-45f7-9063-622e6b696361,rev?*%
%TF.SameCoordinates,Original*%
%TF.FileFunction,Profile,NP*%
%FSLAX46Y46*%
G04 Gerber Fmt 4.6, Leading zero omitted, Abs format (unit mm)*
G04 Created by KiCad (PCBNEW 9.0.7) date 2026-01-28 06:38:56*
%MOMM*%
%LPD*%
G01*
G04 APERTURE LIST*
%TA.AperFunction,Profile*%
%ADD10C,0.050000*%
%TD*%
%ADD11C,0.050000*%
G04 APERTURE END LIST*
D10*
X154500000Y-78500000D02*
X154500000Y-93500000D01*
D11*
X154500000Y-78500000D02*
X154499990Y-78491350D01*
X154499960Y-78482719D01*
X154499910Y-78474109D01*
X154499840Y-78465519D01*
X154499751Y-78456948D01*
X154499642Y-78448397D01*
X154499513Y-78439866D01*
X154499364Y-78431355D01*
X154499196Y-78422863D01*
X154499008Y-78414391D01*
X154498800Y-78405938D01*
X154498573Y-78397505D01*
X154498327Y-78389092D01*
X154498061Y-78380698D01*
X154497776Y-78372323D01*
X154497471Y-78363967D01*
X154497147Y-78355631D01*
X154496804Y-78347314D01*
X154496442Y-78339016D01*
X154496060Y-78330738D01*
X154495660Y-78322479D01*
X154495240Y-78314238D01*
X154494801Y-78306017D01*
X154494344Y-78297815D01*
X154493867Y-78289631D01*
X154493372Y-78281467D01*
X154492857Y-78273321D01*
X154492324Y-78265194D01*
X154491772Y-78257086D01*
X154491201Y-78248997D01*
X154490612Y-78240925D01*
X154490004Y-78232874D01*
X154489377Y-78224840D01*
X154488732Y-78216825D01*
X154488068Y-78208828D01*
X154487385Y-78200850D01*
X154486684Y-78192890D01*
X154485965Y-78184949D01*
X154485227Y-78177026D01*
X154484471Y-78169121D01*
X154483697Y-78161234D01*
X154482904Y-78153366D01*
X154482093Y-78145516D01*
X154481264Y-78137684D01*
X154480417Y-78129869D01*
X154479551Y-78122074D01*
X154478668Y-78114295D01*
X154477766Y-78106535D01*
X154476846Y-78098792D01*
X154475909Y-78091069D01*
X154474953Y-78083361D01*
X154473979Y-78075673D01*
X154472988Y-78068001D01*
X154471979Y-78060348D01*
X154470951Y-78052711D01*
X154469907Y-78045094D01*
X154468844Y-78037492D01*
X154467764Y-78029909D01*
X154466665Y-78022343D01*
X154465550Y-78014795D01*
X154464416Y-78007263D01*
X154463265Y-77999750D01*
X154462097Y-77992253D01*
X154460911Y-77984774D01*
X154459707Y-77977311D01*
X154458486Y-77969867D01*
X154457248Y-77962438D01*
X154455992Y-77955028D01*
X154454719Y-77947634D01*
X154453428Y-77940258D01*
X154452120Y-77932897D01*
X154450795Y-77925555D01*
X154449453Y-77918228D01*
X154448093Y-77910920D01*
X154446716Y-77903626D01*
X154445323Y-77896352D01*
X154443911Y-77889092D01*
X154442483Y-77881850D01*
X154441038Y-77874624D01*
X154439576Y-77867416D01*
X154438096Y-77860222D01*
X154436600Y-77853047D01*
X154435086Y-77845886D01*
X154433556Y-77838744D01*
X154432009Y-77831616D01*
X154430445Y-77824507D01*
X154428864Y-77817412D01*
X154427266Y-77810335D01*
X154425652Y-77803272D01*
X154424021Y-77796228D01*
X154422372Y-77789197D01*
X154420708Y-77782185D01*
X154419026Y-77775187D01*
X154417328Y-77768207D01*
X154415613Y-77761241D01*
X154413881Y-77754292D01*
X154412133Y-77747358D01*
X154410368Y-77740442D01*
X154408587Y-77733539D01*
X154406789Y-77726654D01*
X154404974Y-77719783D01*
X154403144Y-77712930D01*
X154401296Y-77706090D01*
X154399433Y-77699269D01*
X154397552Y-77692460D01*
X154395656Y-77685669D01*
X154393742Y-77678892D01*
X154391813Y-77672132D01*
X154389867Y-77665386D01*
X154387905Y-77658657D01*
X154385926Y-77651941D01*
X154383932Y-77645244D01*
X154381920Y-77638558D01*
X154379893Y-77631891D01*
X154377849Y-77625237D01*
X154375790Y-77618600D01*
X154373714Y-77611975D01*
X154371622Y-77605369D01*
X154367389Y-77592199D01*
X154363092Y-77579089D01*
X154358730Y-77566038D01*
X154354304Y-77553047D01*
X154349814Y-77540116D01*
X154345260Y-77527243D01*
X154340642Y-77514429D01*
X154335960Y-77501673D01*
X154331215Y-77488976D01*
X154326406Y-77476336D01*
X154321534Y-77463755D01*
X154316598Y-77451230D01*
X154311599Y-77438763D01*
X154306536Y-77426352D01*
X154301411Y-77413999D01*
X154296222Y-77401701D01*
X154290971Y-77389460D01*
X154285656Y-77377274D01*
X154280279Y-77365144D01*
X154274839Y-77353069D01*
X154269337Y-77341050D01*
X154263772Y-77329086D01*
X154258144Y-77317176D01*
X154252453Y-77305320D01*
X154246700Y-77293519D01*
X154240885Y-77281772D01*
X154235007Y-77270078D01*
X154229067Y-77258438D01*
X154223064Y-77246852D01*
X154216999Y-77235318D01*
X154210872Y-77223838D01*
X154204682Y-77212410D01*
X154198430Y-77201035D01*
X154192115Y-77189712D01*
X154185739Y-77178441D01*
X154179300Y-77167222D01*
X154172798Y-77156054D01*
X154166234Y-77144939D01*
X154159608Y-77133874D01*
X154152920Y-77122861D01*
X154146169Y-77111899D01*
X154139356Y-77100988D01*
X154132480Y-77090127D01*
X154125541Y-77079317D01*
X154118541Y-77068557D01*
X154111477Y-77057847D01*
X154104351Y-77047187D01*
X154097163Y-77036578D01*
X154089911Y-77026018D01*
X154082597Y-77015507D01*
X154075220Y-77005046D01*
X154067780Y-76994634D01*
X154060277Y-76984272D01*
X154052711Y-76973958D01*
X154045082Y-76963693D01*
X154037390Y-76953478D01*
X154029635Y-76943310D01*
X154021816Y-76933192D01*
X154013934Y-76923122D01*
X154005988Y-76913100D01*
X153997979Y-76903126D01*
X153989906Y-76893201D01*
X153981769Y-76883324D01*
X153973568Y-76873494D01*
X153965304Y-76863713D01*
X153956975Y-76853979D01*
X153948582Y-76844293D01*
X153940125Y-76834655D01*
X153931603Y-76825064D01*
X153923017Y-76815521D01*
X153914367Y-76806025D01*
X153905651Y-76796577D01*
X153896871Y-76787176D01*
X153888025Y-76777822D01*
X153879115Y-76768516D01*
X153870139Y-76759257D01*
X153861098Y-76750045D01*
X153851991Y-76740880D01*
X153842819Y-76731762D01*
X153833581Y-76722692D01*
X153824277Y-76713669D01*
X153814907Y-76704693D01*
X153805471Y-76695763D01*
X153795968Y-76686881D01*
X153786400Y-76678047D01*
X153776764Y-76669259D01*
X153767062Y-76660518D01*
X153757293Y-76651825D01*
X153747457Y-76643178D01*
X153737554Y-76634579D01*
X153727583Y-76626028D01*
X153717545Y-76617523D01*
X153707440Y-76609066D01*
X153697267Y-76600656D01*
X153687026Y-76592294D01*
X153676717Y-76583979D01*
X153666340Y-76575711D01*
X153655895Y-76567491D01*
X153645381Y-76559319D01*
X153634799Y-76551195D01*
X153624148Y-76543119D01*
X153613428Y-76535090D01*
X153602640Y-76527110D01*
X153591782Y-76519177D01*
X153580856Y-76511293D01*
X153569860Y-76503457D01*
X153558794Y-76495670D01*
X153547659Y-76487931D01*
X153536454Y-76480241D01*
X153525180Y-76472600D01*
X153513836Y-76465008D01*
X153502421Y-76457465D01*
X153490937Y-76449971D01*
X153479382Y-76442527D01*
X153467758Y-76435132D01*
X153456062Y-76427787D01*
X153444297Y-76420491D01*
X153432461Y-76413246D01*
X153420554Y-76406051D01*
X153408576Y-76398907D01*
X153396528Y-76391813D01*
X153384409Y-76384770D01*
X153372219Y-76377778D01*
X153359959Y-76370838D01*
X153347627Y-76363948D01*
X153335225Y-76357111D01*
X153322752Y-76350325D01*
X153310207Y-76343592D01*
X153297592Y-76336910D01*
X153284906Y-76330282D01*
X153272149Y-76323706D01*
X153259321Y-76317184D01*
X153246422Y-76310714D01*
X153233453Y-76304299D01*
X153220413Y-76297937D01*
X153207302Y-76291630D01*
X153194121Y-76285377D01*
X153180869Y-76279179D01*
X153167547Y-76273036D01*
X153154155Y-76266948D01*
X153140693Y-76260916D01*
X153127161Y-76254940D01*
X153113560Y-76249020D01*
X153099890Y-76243157D01*
X153086150Y-76237351D01*
X153072341Y-76231602D01*
X153058464Y-76225911D01*
X153044519Y-76220277D01*
X153030505Y-76214703D01*
X153016424Y-76209187D01*
X153002276Y-76203730D01*
X152988061Y-76198333D01*
X152973780Y-76192995D01*
X152959433Y-76187718D01*
X152945020Y-76182502D01*
X152930543Y-76177346D01*
X152916002Y-76172253D01*
X152901396Y-76167221D01*
X152886728Y-76162251D01*
X152871998Y-76157345D01*
X152857206Y-76152502D01*
X152842353Y-76147722D01*
X152827440Y-76143007D01*
X152812469Y-76138356D01*
X152797439Y-76133770D01*
X152782352Y-76129251D01*
X152767209Y-76124797D01*
X152752012Y-76120410D01*
X152736760Y-76116090D01*
X152721457Y-76111837D01*
X152706102Y-76107653D01*
X152690698Y-76103538D01*
X152675245Y-76099491D01*
X152659747Y-76095515D01*
X152644203Y-76091609D01*
X152628617Y-76087774D01*
X152612990Y-76084011D01*
X152597324Y-76080319D01*
X152581621Y-76076701D01*
X152565884Y-76073155D01*
X152550115Y-76069684D01*
X152534317Y-76066287D01*
X152518492Y-76062966D01*
X152502644Y-76059720D01*
X152486776Y-76056551D01*
X152470892Y-76053460D01*
X152454994Y-76050446D01*
X152439088Y-76047511D01*
X152423176Y-76044655D01*
X152407264Y-76041879D01*
X152391357Y-76039185D01*
X152375460Y-76036571D01*
X152359578Y-76034040D01*
X152343718Y-76031593D01*
X152327886Y-76029229D01*
X152312090Y-76026949D01*
X152296337Y-76024756D01*
X152280637Y-76022649D01*
X152264997Y-76020629D01*
X152249429Y-76018697D01*
X152233944Y-76016854D01*
X152218554Y-76015101D01*
X152203274Y-76013439D01*
X152188119Y-76011869D01*
X152173107Y-76010392D01*
X152158257Y-76009008D01*
X152143592Y-76007719D01*
X152129138Y-76006526D01*
X152114925Y-76005430D01*
X152100990Y-76004432D01*
X152087373Y-76003532D01*
X152074128Y-76002733D01*
X152061318Y-76002035D01*
X152049024Y-76001439D01*
X152037356Y-76000946D01*
X152026465Y-76000557D01*
X152016579Y-76000273D01*
X152008084Y-76000091D01*
X152001801Y-76000009D01*
X152000000Y-76000000D01*
D10*
X96000000Y-93000000D02*
X96000000Y-79500000D01*
D11*
X96000000Y-79500000D02*
X96000010Y-79489763D01*
X96000040Y-79479546D01*
X96000090Y-79469349D01*
X96000160Y-79459172D01*
X96000249Y-79449015D01*
X96000359Y-79438877D01*
X96000488Y-79428759D01*
X96000637Y-79418662D01*
X96000805Y-79408583D01*
X96000994Y-79398525D01*
X96001201Y-79388486D01*
X96001429Y-79378467D01*
X96001676Y-79368467D01*
X96001942Y-79358487D01*
X96002228Y-79348526D01*
X96002534Y-79338585D01*
X96002858Y-79328663D01*
X96003203Y-79318760D01*
X96003566Y-79308877D01*
X96003949Y-79299013D01*
X96004351Y-79289168D01*
X96004772Y-79279343D01*
X96005212Y-79269536D01*
X96005672Y-79259749D01*
X96006151Y-79249981D01*
X96006648Y-79240232D01*
X96007165Y-79230502D01*
X96007701Y-79220791D01*
X96008255Y-79211099D01*
X96008829Y-79201426D01*
X96009422Y-79191771D01*
X96010033Y-79182136D01*
X96010663Y-79172519D01*
X96011312Y-79162921D01*
X96011980Y-79153342D01*
X96012666Y-79143781D01*
X96013372Y-79134239D01*
X96014095Y-79124716D01*
X96014838Y-79115211D01*
X96015599Y-79105725D01*
X96016379Y-79096257D01*
X96017177Y-79086808D01*
X96017993Y-79077377D01*
X96018828Y-79067965D01*
X96019682Y-79058570D01*
X96020554Y-79049195D01*
X96021444Y-79039837D01*
X96022353Y-79030498D01*
X96023280Y-79021176D01*
X96024225Y-79011874D01*
X96025188Y-79002589D01*
X96026170Y-78993322D01*
X96027170Y-78984073D01*
X96028188Y-78974843D01*
X96029224Y-78965630D01*
X96030278Y-78956435D01*
X96031350Y-78947258D01*
X96032441Y-78938099D01*
X96033549Y-78928958D01*
X96034675Y-78919835D01*
X96035819Y-78910728D01*
X96036981Y-78901641D01*
X96038161Y-78892570D01*
X96039359Y-78883518D01*
X96040575Y-78874483D01*
X96041808Y-78865466D01*
X96043059Y-78856465D01*
X96044328Y-78847484D01*
X96045615Y-78838518D01*
X96046919Y-78829571D01*
X96048241Y-78820640D01*
X96049581Y-78811728D01*
X96050938Y-78802832D01*
X96052313Y-78793955D01*
X96053705Y-78785093D01*
X96055115Y-78776250D01*
X96056542Y-78767423D01*
X96057987Y-78758615D01*
X96059449Y-78749822D01*
X96060929Y-78741047D01*
X96062426Y-78732289D01*
X96063940Y-78723548D01*
X96065472Y-78714823D01*
X96067021Y-78706117D01*
X96068587Y-78697426D01*
X96070170Y-78688754D01*
X96071771Y-78680096D01*
X96073389Y-78671457D01*
X96075024Y-78662834D01*
X96076677Y-78654228D01*
X96078346Y-78645638D01*
X96080033Y-78637066D01*
X96081736Y-78628509D01*
X96083457Y-78619970D01*
X96085195Y-78611446D01*
X96086950Y-78602940D01*
X96088721Y-78594449D01*
X96090510Y-78585977D01*
X96092316Y-78577518D01*
X96094138Y-78569079D01*
X96095978Y-78560653D01*
X96097834Y-78552246D01*
X96099708Y-78543853D01*
X96101598Y-78535479D01*
X96103505Y-78527118D01*
X96105428Y-78518776D01*
X96107369Y-78510448D01*
X96109326Y-78502139D01*
X96111300Y-78493843D01*
X96113291Y-78485565D01*
X96115298Y-78477301D01*
X96117322Y-78469056D01*
X96119363Y-78460824D01*
X96121420Y-78452610D01*
X96123494Y-78444410D01*
X96125584Y-78436228D01*
X96127692Y-78428060D01*
X96129815Y-78419910D01*
X96131956Y-78411773D01*
X96134112Y-78403654D01*
X96136286Y-78395549D01*
X96138475Y-78387462D01*
X96140681Y-78379387D01*
X96142904Y-78371331D01*
X96145143Y-78363288D01*
X96147398Y-78355264D01*
X96149670Y-78347252D01*
X96151958Y-78339258D01*
X96154263Y-78331277D01*
X96156583Y-78323314D01*
X96158921Y-78315363D01*
X96161274Y-78307431D01*
X96163644Y-78299512D01*
X96166030Y-78291610D01*
X96168433Y-78283721D01*
X96170851Y-78275850D01*
X96173286Y-78267991D01*
X96175736Y-78260151D01*
X96178204Y-78252322D01*
X96180687Y-78244512D01*
X96185702Y-78228934D01*
X96190782Y-78213415D01*
X96195926Y-78197957D01*
X96201134Y-78182558D01*
X96206407Y-78167218D01*
X96211744Y-78151938D01*
X96217144Y-78136716D01*
X96222609Y-78121554D01*
X96228137Y-78106449D01*
X96233730Y-78091403D01*
X96239385Y-78076415D01*
X96245105Y-78061485D01*
X96250888Y-78046612D01*
X96256734Y-78031796D01*
X96262643Y-78017038D01*
X96268616Y-78002336D01*
X96274652Y-77987692D01*
X96280751Y-77973103D01*
X96286913Y-77958571D01*
X96293138Y-77944095D01*
X96299426Y-77929675D01*
X96305777Y-77915310D01*
X96312190Y-77901001D01*
X96318666Y-77886747D01*
X96325205Y-77872548D01*
X96331807Y-77858404D01*
X96338471Y-77844314D01*
X96345198Y-77830279D01*
X96351987Y-77816298D01*
X96358839Y-77802371D01*
X96365754Y-77788498D01*
X96372731Y-77774679D01*
X96379770Y-77760913D01*
X96386872Y-77747201D01*
X96394036Y-77733541D01*
X96401262Y-77719935D01*
X96408551Y-77706381D01*
X96415902Y-77692880D01*
X96423316Y-77679432D01*
X96430792Y-77666035D01*
X96438330Y-77652691D01*
X96445931Y-77639399D01*
X96453594Y-77626159D01*
X96461319Y-77612970D01*
X96469107Y-77599832D01*
X96476957Y-77586746D01*
X96484870Y-77573711D01*
X96492845Y-77560728D01*
X96500882Y-77547795D01*
X96508982Y-77534912D01*
X96517145Y-77522081D01*
X96525370Y-77509299D01*
X96533658Y-77496568D01*
X96542008Y-77483888D01*
X96550421Y-77471257D01*
X96558896Y-77458676D01*
X96567434Y-77446145D01*
X96576036Y-77433664D01*
X96584699Y-77421232D01*
X96593426Y-77408849D01*
X96602216Y-77396516D01*
X96611068Y-77384232D01*
X96619984Y-77371997D01*
X96628963Y-77359812D01*
X96638005Y-77347675D01*
X96647110Y-77335587D01*
X96656279Y-77323547D01*
X96665510Y-77311556D01*
X96674806Y-77299614D01*
X96684164Y-77287720D01*
X96693587Y-77275874D01*
X96703073Y-77264076D01*
X96712622Y-77252327D01*
X96722236Y-77240626D01*
X96731913Y-77228972D01*
X96741655Y-77217367D01*
X96751460Y-77205809D01*
X96761330Y-77194300D01*
X96771264Y-77182838D01*
X96781262Y-77171423D01*
X96791325Y-77160056D01*
X96801452Y-77148737D01*
X96811644Y-77137465D01*
X96821900Y-77126241D01*
X96832222Y-77115064D01*
X96842608Y-77103935D01*
X96853059Y-77092852D01*
X96863576Y-77081817D01*
X96874158Y-77070830D01*
X96884805Y-77059889D01*
X96895517Y-77048996D01*
X96906295Y-77038150D01*
X96917139Y-77027351D01*
X96928049Y-77016599D01*
X96939024Y-77005894D01*
X96950066Y-76995237D01*
X96961173Y-76984626D01*
X96972347Y-76974063D01*
X96983587Y-76963547D01*
X96994894Y-76953078D01*
X97006267Y-76942656D01*
X97017707Y-76932281D01*
X97029214Y-76921953D01*
X97040788Y-76911672D01*
X97052429Y-76901439D01*
X97064137Y-76891253D01*
X97075912Y-76881114D01*
X97087755Y-76871022D01*
X97099665Y-76860978D01*
X97111643Y-76850981D01*
X97123689Y-76841031D01*
X97135803Y-76831129D01*
X97147985Y-76821274D01*
X97160235Y-76811467D01*
X97172553Y-76801707D01*
X97184939Y-76791995D01*
X97197394Y-76782331D01*
X97209918Y-76772714D01*
X97222510Y-76763146D01*
X97235171Y-76753625D01*
X97247901Y-76744152D01*
X97260700Y-76734727D01*
X97273569Y-76725351D01*
X97286506Y-76716023D01*
X97299513Y-76706743D01*
X97312590Y-76697511D01*
X97325735Y-76688328D01*
X97338951Y-76679194D01*
X97352237Y-76670109D01*
X97365592Y-76661072D01*
X97379017Y-76652084D01*
X97392513Y-76643146D01*
X97406078Y-76634256D01*
X97419714Y-76625417D01*
X97433420Y-76616626D01*
X97447196Y-76607885D01*
X97461043Y-76599194D01*
X97474961Y-76590553D01*
X97488949Y-76581962D01*
X97503007Y-76573421D01*
X97517137Y-76564931D01*
X97531337Y-76556491D01*
X97545608Y-76548101D01*
X97559950Y-76539763D01*
X97574363Y-76531475D01*
X97588847Y-76523239D01*
X97603402Y-76515054D01*
X97618027Y-76506921D01*
X97632724Y-76498839D01*
X97647492Y-76490810D01*
X97662331Y-76482832D01*
X97677241Y-76474907D01*
X97692222Y-76467034D01*
X97707274Y-76459214D01*
X97722397Y-76451448D01*
X97737591Y-76443734D01*
X97752856Y-76436073D01*
X97768192Y-76428467D01*
X97783599Y-76420914D01*
X97799076Y-76413415D01*
X97814624Y-76405971D01*
X97830243Y-76398581D01*
X97845932Y-76391246D01*
X97861692Y-76383966D01*
X97877521Y-76376741D01*
X97893421Y-76369572D01*
X97909391Y-76362459D01*
X97925431Y-76355402D01*
X97941541Y-76348401D01*
X97957720Y-76341457D01*
X97973968Y-76334570D01*
X97990285Y-76327740D01*
X98006671Y-76320968D01*
X98023126Y-76314253D01*
X98039649Y-76307597D01*
X98056241Y-76300999D01*
X98072899Y-76294460D01*
X98089626Y-76287980D01*
X98106419Y-76281560D01*
X98123280Y-76275199D01*
X98140206Y-76268898D01*
X98157199Y-76262658D01*
X98174257Y-76256478D01*
X98191380Y-76250359D01*
X98208568Y-76244302D01*
X98225820Y-76238307D01*
X98243135Y-76232374D01*
X98260513Y-76226503D01*
X98277954Y-76220696D01*
X98295457Y-76214951D01*
X98313021Y-76209270D01*
X98330645Y-76203654D01*
X98348329Y-76198101D01*
X98366072Y-76192614D01*
X98383873Y-76187192D01*
X98401731Y-76181835D01*
X98419645Y-76176545D01*
X98437615Y-76171321D01*
X98455640Y-76166164D01*
X98473718Y-76161075D01*
X98491848Y-76156053D01*
X98510029Y-76151100D01*
X98528261Y-76146215D01*
X98546541Y-76141400D01*
X98564868Y-76136654D01*
X98583241Y-76131978D01*
X98601659Y-76127373D01*
X98620119Y-76122839D01*
X98638621Y-76118377D01*
X98657162Y-76113986D01*
X98675741Y-76109669D01*
X98694355Y-76105424D01*
X98713004Y-76101253D01*
X98731684Y-76097157D01*
X98750393Y-76093135D01*
X98769129Y-76089188D01*
X98787889Y-76085317D01*
X98806672Y-76081523D01*
X98825473Y-76077805D01*
X98844290Y-76074165D01*
X98863120Y-76070604D01*
X98881959Y-76067120D01*
X98900805Y-76063717D01*
X98919652Y-76060393D01*
X98938498Y-76057149D01*
X98957338Y-76053987D01*
X98976167Y-76050907D01*
X98994980Y-76047909D01*
X99013773Y-76044995D01*
X99032540Y-76042164D01*
X99051275Y-76039418D01*
X99069971Y-76036757D01*
X99088622Y-76034182D01*
X99107220Y-76031693D01*
X99125758Y-76029292D01*
X99144227Y-76026980D01*
X99162617Y-76024756D01*
X99180918Y-76022621D01*
X99199120Y-76020577D01*
X99217209Y-76018625D01*
X99235174Y-76016764D01*
X99252998Y-76014997D01*
X99270665Y-76013323D01*
X99288158Y-76011743D01*
X99305456Y-76010260D01*
X99322535Y-76008872D01*
X99339369Y-76007582D01*
X99355927Y-76006390D01*
X99372175Y-76005298D01*
X99388070Y-76004305D01*
X99403564Y-76003414D01*
X99418596Y-76002624D01*
X99433090Y-76001937D01*
X99446950Y-76001354D01*
X99460047Y-76000876D01*
X99472200Y-76000503D01*
X99483133Y-76000235D01*
X99492361Y-76000071D01*
X99498802Y-76000004D01*
X99500000Y-76000000D01*
D10*
X100000000Y-97000000D02*
X151000000Y-97000000D01*
D11*
X154500000Y-93500000D02*
X154499990Y-93510237D01*
X154499960Y-93520454D01*
X154499910Y-93530651D01*
X154499840Y-93540828D01*
X154499751Y-93550985D01*
X154499641Y-93561123D01*
X154499512Y-93571241D01*
X154499363Y-93581338D01*
X154499195Y-93591417D01*
X154499006Y-93601475D01*
X154498799Y-93611514D01*
X154498571Y-93621533D01*
X154498324Y-93631533D01*
X154498058Y-93641513D01*
X154497772Y-93651474D01*
X154497466Y-93661415D01*
X154497142Y-93671337D01*
X154496797Y-93681240D01*
X154496434Y-93691123D01*
X154496051Y-93700987D01*
X154495649Y-93710832D01*
X154495228Y-93720657D01*
X154494788Y-93730464D01*
X154494328Y-93740251D01*
X154493849Y-93750019D01*
X154493352Y-93759768D01*
X154492835Y-93769498D01*
X154492299Y-93779209D01*
X154491745Y-93788901D01*
X154491171Y-93798574D01*
X154490578Y-93808229D01*
X154489967Y-93817864D01*
X154489337Y-93827481D01*
X154488688Y-93837079D01*
X154488020Y-93846658D01*
X154487334Y-93856219D01*
X154486628Y-93865761D01*
X154485905Y-93875284D01*
X154485162Y-93884789D01*
X154484401Y-93894275D01*
X154483621Y-93903743D01*
X154482823Y-93913192D01*
X154482007Y-93922623D01*
X154481172Y-93932035D01*
X154480318Y-93941430D01*
X154479446Y-93950805D01*
X154478556Y-93960163D01*
X154477647Y-93969502D01*
X154476720Y-93978824D01*
X154475775Y-93988126D01*
X154474812Y-93997411D01*
X154473830Y-94006678D01*
X154472830Y-94015927D01*
X154471812Y-94025157D01*
X154470776Y-94034370D01*
X154469722Y-94043565D01*
X154468650Y-94052742D01*
X154467559Y-94061901D01*
X154466451Y-94071042D01*
X154465325Y-94080165D01*
X154464181Y-94089272D01*
X154463019Y-94098359D01*
X154461839Y-94107430D01*
X154460641Y-94116482D01*
X154459425Y-94125517D01*
X154458192Y-94134534D01*
X154456941Y-94143535D01*
X154455672Y-94152516D01*
X154454385Y-94161482D01*
X154453081Y-94170429D01*
X154451759Y-94179360D01*
X154450419Y-94188272D01*
X154449062Y-94197168D01*
X154447687Y-94206045D01*
X154446295Y-94214907D01*
X154444885Y-94223750D01*
X154443458Y-94232577D01*
X154442013Y-94241385D01*
X154440551Y-94250178D01*
X154439071Y-94258953D01*
X154437574Y-94267711D01*
X154436060Y-94276452D01*
X154434528Y-94285177D01*
X154432979Y-94293883D01*
X154431413Y-94302574D01*
X154429830Y-94311246D01*
X154428229Y-94319904D01*
X154426611Y-94328543D01*
X154424976Y-94337166D01*
X154423323Y-94345772D01*
X154421654Y-94354362D01*
X154419967Y-94362934D01*
X154418264Y-94371491D01*
X154416543Y-94380030D01*
X154414805Y-94388554D01*
X154413050Y-94397060D01*
X154411279Y-94405551D01*
X154409490Y-94414023D01*
X154407684Y-94422482D01*
X154405862Y-94430921D01*
X154404022Y-94439347D01*
X154402166Y-94447754D01*
X154400292Y-94456147D01*
X154398402Y-94464521D01*
X154396495Y-94472882D01*
X154394572Y-94481224D01*
X154392631Y-94489552D01*
X154390674Y-94497861D01*
X154388700Y-94506157D01*
X154386709Y-94514435D01*
X154384702Y-94522699D01*
X154382678Y-94530944D01*
X154380637Y-94539176D01*
X154378580Y-94547390D01*
X154376506Y-94555590D01*
X154374416Y-94563772D01*
X154372308Y-94571940D01*
X154370185Y-94580090D01*
X154368044Y-94588227D01*
X154365888Y-94596346D01*
X154363714Y-94604451D01*
X154361525Y-94612538D01*
X154359319Y-94620613D01*
X154357096Y-94628669D01*
X154354857Y-94636712D01*
X154352602Y-94644736D01*
X154350330Y-94652748D01*
X154348042Y-94660742D01*
X154345737Y-94668723D01*
X154343417Y-94676686D01*
X154341079Y-94684637D01*
X154338726Y-94692569D01*
X154336356Y-94700488D01*
X154333970Y-94708390D01*
X154331567Y-94716279D01*
X154329149Y-94724150D01*
X154326714Y-94732009D01*
X154324264Y-94739849D01*
X154321796Y-94747678D01*
X154319313Y-94755488D01*
X154314298Y-94771066D01*
X154309218Y-94786585D01*
X154304074Y-94802043D01*
X154298866Y-94817442D01*
X154293593Y-94832782D01*
X154288256Y-94848062D01*
X154282856Y-94863284D01*
X154277391Y-94878446D01*
X154271863Y-94893551D01*
X154266270Y-94908597D01*
X154260615Y-94923585D01*
X154254895Y-94938515D01*
X154249112Y-94953388D01*
X154243266Y-94968204D01*
X154237357Y-94982962D01*
X154231384Y-94997664D01*
X154225348Y-95012308D01*
X154219249Y-95026897D01*
X154213087Y-95041429D01*
X154206862Y-95055905D01*
X154200574Y-95070325D01*
X154194223Y-95084690D01*
X154187810Y-95098999D01*
X154181334Y-95113253D01*
X154174795Y-95127452D01*
X154168193Y-95141596D01*
X154161529Y-95155686D01*
X154154802Y-95169721D01*
X154148013Y-95183702D01*
X154141161Y-95197629D01*
X154134246Y-95211502D01*
X154127269Y-95225321D01*
X154120230Y-95239087D01*
X154113128Y-95252799D01*
X154105964Y-95266459D01*
X154098738Y-95280065D01*
X154091449Y-95293619D01*
X154084098Y-95307120D01*
X154076684Y-95320568D01*
X154069208Y-95333965D01*
X154061670Y-95347309D01*
X154054069Y-95360601D01*
X154046406Y-95373841D01*
X154038681Y-95387030D01*
X154030893Y-95400168D01*
X154023043Y-95413254D01*
X154015130Y-95426289D01*
X154007155Y-95439272D01*
X153999118Y-95452205D01*
X153991018Y-95465088D01*
X153982855Y-95477919D01*
X153974630Y-95490701D01*
X153966342Y-95503432D01*
X153957992Y-95516112D01*
X153949579Y-95528743D01*
X153941104Y-95541324D01*
X153932566Y-95553855D01*
X153923964Y-95566336D01*
X153915301Y-95578768D01*
X153906574Y-95591151D01*
X153897784Y-95603484D01*
X153888932Y-95615768D01*
X153880016Y-95628003D01*
X153871037Y-95640188D01*
X153861995Y-95652325D01*
X153852890Y-95664413D01*
X153843721Y-95676453D01*
X153834490Y-95688444D01*
X153825194Y-95700386D01*
X153815836Y-95712280D01*
X153806413Y-95724126D01*
X153796927Y-95735924D01*
X153787378Y-95747673D01*
X153777764Y-95759374D01*
X153768087Y-95771028D01*
X153758345Y-95782633D01*
X153748540Y-95794191D01*
X153738670Y-95805700D01*
X153728736Y-95817162D01*
X153718738Y-95828577D01*
X153708675Y-95839944D01*
X153698548Y-95851263D01*
X153688356Y-95862535D01*
X153678100Y-95873759D01*
X153667778Y-95884936D01*
X153657392Y-95896065D01*
X153646941Y-95907148D01*
X153636424Y-95918183D01*
X153625842Y-95929170D01*
X153615195Y-95940111D01*
X153604483Y-95951004D01*
X153593705Y-95961850D01*
X153582861Y-95972649D01*
X153571951Y-95983401D01*
X153560976Y-95994106D01*
X153549934Y-96004763D01*
X153538827Y-96015374D01*
X153527653Y-96025937D01*
X153516413Y-96036453D01*
X153505106Y-96046922D01*
X153493733Y-96057344D01*
X153482293Y-96067719D01*
X153470786Y-96078047D01*
X153459212Y-96088328D01*
X153447571Y-96098561D01*
X153435863Y-96108747D01*
X153424088Y-96118886D01*
X153412245Y-96128978D01*
X153400335Y-96139022D01*
X153388357Y-96149019D01*
X153376311Y-96158969D01*
X153364197Y-96168871D01*
X153352015Y-96178726D01*
X153339765Y-96188533D01*
X153327447Y-96198293D01*
X153315061Y-96208005D01*
X153302606Y-96217669D01*
X153290082Y-96227286D01*
X153277490Y-96236854D01*
X153264829Y-96246375D01*
X153252099Y-96255848D01*
X153239300Y-96265273D01*
X153226431Y-96274649D01*
X153213494Y-96283977D01*
X153200487Y-96293257D01*
X153187410Y-96302489D01*
X153174265Y-96311672D01*
X153161049Y-96320806D01*
X153147763Y-96329891D01*
X153134408Y-96338928D01*
X153120983Y-96347916D01*
X153107487Y-96356854D01*
X153093922Y-96365744D01*
X153080286Y-96374583D01*
X153066580Y-96383374D01*
X153052804Y-96392115D01*
X153038957Y-96400806D01*
X153025039Y-96409447D01*
X153011051Y-96418038D01*
X152996993Y-96426579D01*
X152982863Y-96435069D01*
X152968663Y-96443509D01*
X152954392Y-96451899D01*
X152940050Y-96460237D01*
X152925637Y-96468525D01*
X152911153Y-96476761D01*
X152896598Y-96484946D01*
X152881973Y-96493079D01*
X152867276Y-96501161D01*
X152852508Y-96509190D01*
X152837669Y-96517168D01*
X152822759Y-96525093D01*
X152807778Y-96532966D01*
X152792726Y-96540786D01*
X152777603Y-96548552D01*
X152762409Y-96556266D01*
X152747144Y-96563927D01*
X152731808Y-96571533D01*
X152716401Y-96579086D01*
X152700924Y-96586585D01*
X152685376Y-96594029D01*
X152669757Y-96601419D01*
X152654068Y-96608754D01*
X152638308Y-96616034D01*
X152622479Y-96623259D01*
X152606579Y-96630428D01*
X152590609Y-96637541D01*
X152574569Y-96644598D01*
X152558459Y-96651599D01*
X152542280Y-96658543D01*
X152526032Y-96665430D01*
X152509715Y-96672260D01*
X152493329Y-96679032D01*
X152476874Y-96685747D01*
X152460351Y-96692403D01*
X152443759Y-96699001D01*
X152427101Y-96705540D01*
X152410374Y-96712020D01*
X152393581Y-96718440D01*
X152376720Y-96724801D01*
X152359794Y-96731102D01*
X152342801Y-96737342D01*
X152325743Y-96743522D01*
X152308620Y-96749641D01*
X152291432Y-96755698D01*
X152274180Y-96761693D01*
X152256865Y-96767626D01*
X152239487Y-96773497D01*
X152222046Y-96779304D01*
X152204543Y-96785049D01*
X152186979Y-96790730D01*
X152169355Y-96796346D01*
X152151671Y-96801899D01*
X152133928Y-96807386D01*
X152116127Y-96812808D01*
X152098269Y-96818165D01*
X152080355Y-96823455D01*
X152062385Y-96828679D01*
X152044360Y-96833836D01*
X152026282Y-96838925D01*
X152008152Y-96843947D01*
X151989971Y-96848900D01*
X151971739Y-96853785D01*
X151953459Y-96858600D01*
X151935132Y-96863346D01*
X151916759Y-96868022D01*
X151898341Y-96872627D01*
X151879881Y-96877161D01*
X151861379Y-96881623D01*
X151842838Y-96886014D01*
X151824259Y-96890331D01*
X151805645Y-96894576D01*
X151786996Y-96898747D01*
X151768316Y-96902843D01*
X151749607Y-96906865D01*
X151730871Y-96910812D01*
X151712111Y-96914683D01*
X151693328Y-96918477D01*
X151674527Y-96922195D01*
X151655710Y-96925835D01*
X151636880Y-96929396D01*
X151618041Y-96932880D01*
X151599195Y-96936283D01*
X151580348Y-96939607D01*
X151561502Y-96942851D01*
X151542662Y-96946013D01*
X151523833Y-96949093D01*
X151505020Y-96952091D01*
X151486227Y-96955005D01*
X151467460Y-96957836D01*
X151448725Y-96960582D01*
X151430029Y-96963243D01*
X151411378Y-96965818D01*
X151392780Y-96968307D01*
X151374242Y-96970708D01*
X151355773Y-96973020D01*
X151337383Y-96975244D01*
X151319082Y-96977379D01*
X151300880Y-96979423D01*
X151282791Y-96981375D01*
X151264826Y-96983236D01*
X151247002Y-96985003D01*
X151229335Y-96986677D01*
X151211842Y-96988257D01*
X151194544Y-96989740D01*
X151177465Y-96991128D01*
X151160631Y-96992418D01*
X151144073Y-96993610D01*
X151127825Y-96994702D01*
X151111930Y-96995695D01*
X151096436Y-96996586D01*
X151081404Y-96997376D01*
X151066910Y-96998063D01*
X151053050Y-96998646D01*
X151039953Y-96999124D01*
X151027800Y-96999497D01*
X151016867Y-96999765D01*
X151007639Y-96999929D01*
X151001198Y-96999996D01*
X151000000Y-97000000D01*
D10*
X99500000Y-76000000D02*
X152000000Y-76000000D01*
D11*
X100000000Y-97000000D02*
X99989056Y-96999990D01*
X99978131Y-96999960D01*
X99967227Y-96999910D01*
X99956342Y-96999840D01*
X99945477Y-96999751D01*
X99934632Y-96999641D01*
X99923807Y-96999512D01*
X99913002Y-96999363D01*
X99902216Y-96999194D01*
X99891450Y-96999006D01*
X99880704Y-96998798D01*
X99869977Y-96998570D01*
X99859270Y-96998323D01*
X99848583Y-96998057D01*
X99837915Y-96997770D01*
X99827266Y-96997465D01*
X99816637Y-96997140D01*
X99806027Y-96996795D01*
X99795437Y-96996431D01*
X99784866Y-96996048D01*
X99774314Y-96995645D01*
X99763782Y-96995224D01*
X99753268Y-96994783D01*
X99742775Y-96994322D01*
X99732300Y-96993843D01*
X99721844Y-96993345D01*
X99711407Y-96992827D01*
X99700990Y-96992291D01*
X99690591Y-96991735D01*
X99680211Y-96991160D01*
X99669850Y-96990567D01*
X99659509Y-96989954D01*
X99649186Y-96989323D01*
X99638882Y-96988672D01*
X99628596Y-96988003D01*
X99618330Y-96987315D01*
X99608082Y-96986609D01*
X99597853Y-96985883D01*
X99587642Y-96985139D01*
X99577451Y-96984376D01*
X99567277Y-96983595D01*
X99557123Y-96982795D01*
X99546986Y-96981976D01*
X99536869Y-96981139D01*
X99526769Y-96980283D01*
X99516688Y-96979409D01*
X99506626Y-96978516D01*
X99496582Y-96977605D01*
X99486556Y-96976675D01*
X99476548Y-96975727D01*
X99466559Y-96974761D01*
X99456588Y-96973777D01*
X99446635Y-96972774D01*
X99436700Y-96971753D01*
X99426783Y-96970713D01*
X99416885Y-96969656D01*
X99407004Y-96968580D01*
X99397142Y-96967486D01*
X99387296Y-96966374D01*
X99377470Y-96965244D01*
X99367661Y-96964096D01*
X99357871Y-96962930D01*
X99348097Y-96961746D01*
X99338342Y-96960544D01*
X99328604Y-96959324D01*
X99318885Y-96958086D01*
X99309182Y-96956830D01*
X99299498Y-96955557D01*
X99289830Y-96954265D01*
X99280182Y-96952956D01*
X99270549Y-96951629D01*
X99260936Y-96950284D01*
X99251338Y-96948921D01*
X99241760Y-96947541D01*
X99232197Y-96946143D01*
X99222654Y-96944728D01*
X99213126Y-96943294D01*
X99203617Y-96941844D01*
X99194123Y-96940375D01*
X99184649Y-96938889D01*
X99175190Y-96937386D01*
X99165750Y-96935865D01*
X99156326Y-96934326D01*
X99146920Y-96932771D01*
X99137530Y-96931197D01*
X99128158Y-96929607D01*
X99118802Y-96927998D01*
X99109465Y-96926373D01*
X99100142Y-96924730D01*
X99090839Y-96923070D01*
X99081550Y-96921393D01*
X99072281Y-96919699D01*
X99063026Y-96917987D01*
X99053790Y-96916258D01*
X99044568Y-96914511D01*
X99035366Y-96912748D01*
X99026178Y-96910967D01*
X99017009Y-96909170D01*
X99007854Y-96907355D01*
X98998718Y-96905524D01*
X98989597Y-96903675D01*
X98980494Y-96901809D01*
X98971406Y-96899926D01*
X98962336Y-96898026D01*
X98953281Y-96896109D01*
X98944244Y-96894175D01*
X98935221Y-96892225D01*
X98926217Y-96890257D01*
X98917227Y-96888272D01*
X98908255Y-96886271D01*
X98899298Y-96884253D01*
X98890359Y-96882218D01*
X98881434Y-96880166D01*
X98872527Y-96878098D01*
X98863634Y-96876012D01*
X98854760Y-96873910D01*
X98845899Y-96871791D01*
X98837057Y-96869656D01*
X98828229Y-96867503D01*
X98819418Y-96865335D01*
X98810622Y-96863149D01*
X98801844Y-96860947D01*
X98793079Y-96858728D01*
X98784332Y-96856493D01*
X98775599Y-96854241D01*
X98766884Y-96851973D01*
X98758182Y-96849687D01*
X98749499Y-96847386D01*
X98740829Y-96845068D01*
X98732177Y-96842734D01*
X98723538Y-96840382D01*
X98714917Y-96838015D01*
X98706310Y-96835631D01*
X98697720Y-96833231D01*
X98689143Y-96830814D01*
X98680585Y-96828381D01*
X98672039Y-96825931D01*
X98663512Y-96823466D01*
X98654997Y-96820984D01*
X98646500Y-96818485D01*
X98638016Y-96815970D01*
X98629550Y-96813440D01*
X98621097Y-96810892D01*
X98612661Y-96808329D01*
X98604238Y-96805748D01*
X98595833Y-96803153D01*
X98587441Y-96800540D01*
X98579066Y-96797912D01*
X98570704Y-96795267D01*
X98562359Y-96792607D01*
X98545713Y-96787236D01*
X98529127Y-96781802D01*
X98512600Y-96776303D01*
X98496133Y-96770739D01*
X98479726Y-96765111D01*
X98463377Y-96759420D01*
X98447088Y-96753664D01*
X98430857Y-96747844D01*
X98414685Y-96741960D01*
X98398571Y-96736013D01*
X98382515Y-96730002D01*
X98366517Y-96723927D01*
X98350577Y-96717789D01*
X98334695Y-96711588D01*
X98318869Y-96705323D01*
X98303101Y-96698994D01*
X98287389Y-96692603D01*
X98271734Y-96686148D01*
X98256136Y-96679630D01*
X98240594Y-96673049D01*
X98225108Y-96666406D01*
X98209677Y-96659699D01*
X98194303Y-96652929D01*
X98178984Y-96646097D01*
X98163720Y-96639202D01*
X98148511Y-96632244D01*
X98133357Y-96625223D01*
X98118258Y-96618140D01*
X98103214Y-96610994D01*
X98088224Y-96603786D01*
X98073288Y-96596515D01*
X98058406Y-96589181D01*
X98043578Y-96581785D01*
X98028804Y-96574326D01*
X98014083Y-96566806D01*
X97999415Y-96559222D01*
X97984801Y-96551576D01*
X97970239Y-96543868D01*
X97955731Y-96536098D01*
X97941275Y-96528265D01*
X97926871Y-96520369D01*
X97912520Y-96512412D01*
X97898221Y-96504392D01*
X97883975Y-96496309D01*
X97869780Y-96488164D01*
X97855637Y-96479957D01*
X97841545Y-96471688D01*
X97827505Y-96463356D01*
X97813516Y-96454961D01*
X97799578Y-96446504D01*
X97785692Y-96437985D01*
X97771856Y-96429403D01*
X97758071Y-96420759D01*
X97744336Y-96412053D01*
X97730652Y-96403283D01*
X97717019Y-96394451D01*
X97703435Y-96385557D01*
X97689902Y-96376600D01*
X97676419Y-96367580D01*
X97662986Y-96358498D01*
X97649602Y-96349352D01*
X97636268Y-96340144D01*
X97622983Y-96330874D01*
X97609748Y-96321540D01*
X97596563Y-96312143D01*
X97583426Y-96302683D01*
X97570338Y-96293161D01*
X97557300Y-96283575D01*
X97544310Y-96273926D01*
X97531370Y-96264214D01*
X97518478Y-96254438D01*
X97505634Y-96244599D01*
X97492839Y-96234697D01*
X97480093Y-96224731D01*
X97467395Y-96214702D01*
X97454745Y-96204609D01*
X97442143Y-96194453D01*
X97429590Y-96184232D01*
X97417084Y-96173948D01*
X97404627Y-96163600D01*
X97392217Y-96153188D01*
X97379855Y-96142712D01*
X97367541Y-96132171D01*
X97355275Y-96121567D01*
X97343057Y-96110898D01*
X97330886Y-96100165D01*
X97318762Y-96089367D01*
X97306687Y-96078504D01*
X97294658Y-96067577D01*
X97282677Y-96056585D01*
X97270744Y-96045528D01*
X97258858Y-96034407D01*
X97247019Y-96023220D01*
X97235227Y-96011968D01*
X97223483Y-96000650D01*
X97211786Y-95989268D01*
X97200136Y-95977820D01*
X97188533Y-95966306D01*
X97176977Y-95954726D01*
X97165469Y-95943081D01*
X97154007Y-95931370D01*
X97142593Y-95919593D01*
X97131226Y-95907750D01*
X97119906Y-95895841D01*
X97108633Y-95883865D01*
X97097407Y-95871823D01*
X97086229Y-95859714D01*
X97075097Y-95847539D01*
X97064013Y-95835297D01*
X97052975Y-95822988D01*
X97041985Y-95810612D01*
X97031042Y-95798169D01*
X97020147Y-95785658D01*
X97009298Y-95773081D01*
X96998497Y-95760436D01*
X96987743Y-95747723D01*
X96977036Y-95734943D01*
X96966377Y-95722095D01*
X96955765Y-95709180D01*
X96945201Y-95696196D01*
X96934684Y-95683144D01*
X96924214Y-95670024D01*
X96913793Y-95656835D01*
X96903419Y-95643579D01*
X96893092Y-95630253D01*
X96882814Y-95616859D01*
X96872583Y-95603397D01*
X96862400Y-95589865D01*
X96852265Y-95576264D01*
X96842178Y-95562595D01*
X96832140Y-95548856D01*
X96822149Y-95535048D01*
X96812207Y-95521171D01*
X96802314Y-95507224D01*
X96792469Y-95493207D01*
X96782672Y-95479121D01*
X96772924Y-95464965D01*
X96763225Y-95450740D01*
X96753575Y-95436444D01*
X96743974Y-95422079D01*
X96734422Y-95407643D01*
X96724919Y-95393137D01*
X96715465Y-95378561D01*
X96706062Y-95363914D01*
X96696707Y-95349197D01*
X96687403Y-95334410D01*
X96678148Y-95319552D01*
X96668943Y-95304624D01*
X96659789Y-95289624D01*
X96650684Y-95274554D01*
X96641631Y-95259414D01*
X96632627Y-95244202D01*
X96623675Y-95228919D01*
X96614773Y-95213566D01*
X96605923Y-95198142D01*
X96597123Y-95182646D01*
X96588375Y-95167080D01*
X96579679Y-95151442D01*
X96571035Y-95135734D01*
X96562442Y-95119954D01*
X96553901Y-95104103D01*
X96545413Y-95088182D01*
X96536977Y-95072189D01*
X96528594Y-95056125D01*
X96520264Y-95039990D01*
X96511987Y-95023784D01*
X96503763Y-95007507D01*
X96495592Y-94991159D01*
X96487476Y-94974740D01*
X96479413Y-94958250D01*
X96471404Y-94941690D01*
X96463450Y-94925059D01*
X96455550Y-94908357D01*
X96447706Y-94891584D01*
X96439916Y-94874742D01*
X96432181Y-94857828D01*
X96424502Y-94840845D01*
X96416879Y-94823791D01*
X96409312Y-94806668D01*
X96401801Y-94789475D01*
X96394347Y-94772212D01*
X96386950Y-94754880D01*
X96379609Y-94737478D01*
X96372326Y-94720008D01*
X96365101Y-94702468D01*
X96357934Y-94684860D01*
X96350824Y-94667184D01*
X96343774Y-94649439D01*
X96336782Y-94631627D01*
X96329849Y-94613747D01*
X96322975Y-94595801D01*
X96316161Y-94577787D01*
X96309408Y-94559706D01*
X96302714Y-94541560D01*
X96296081Y-94523348D01*
X96289509Y-94505070D01*
X96282999Y-94486728D01*
X96276550Y-94468321D01*
X96270162Y-94449850D01*
X96263838Y-94431316D01*
X96257575Y-94412718D01*
X96251376Y-94394059D01*
X96245240Y-94375337D01*
X96239168Y-94356555D01*
X96233160Y-94337712D01*
X96227217Y-94318809D01*
X96221338Y-94299847D01*
X96215524Y-94280827D01*
X96209776Y-94261749D01*
X96204094Y-94242614D01*
X96198479Y-94223423D01*
X96192930Y-94204178D01*
X96187448Y-94184878D01*
X96182034Y-94165526D01*
X96176688Y-94146121D01*
X96171410Y-94126666D01*
X96166201Y-94107160D01*
X96161062Y-94087607D01*
X96155992Y-94068006D01*
X96150992Y-94048358D01*
X96146063Y-94028667D01*
X96141205Y-94008932D01*
X96136419Y-93989156D01*
X96131704Y-93969339D01*
X96127062Y-93949485D01*
X96122493Y-93929594D01*
X96117998Y-93909668D01*
X96113576Y-93889709D01*
X96109229Y-93869720D01*
X96104957Y-93849702D01*
X96100760Y-93829658D01*
X96096639Y-93809590D01*
X96092595Y-93789501D01*
X96088628Y-93769393D01*
X96084739Y-93749269D01*
X96080927Y-93729132D01*
X96077195Y-93708986D01*
X96073541Y-93688833D01*
X96069968Y-93668676D01*
X96066475Y-93648521D01*
X96063063Y-93628370D01*
X96059732Y-93608227D01*
X96056484Y-93588098D01*
X96053319Y-93567986D01*
X96050237Y-93547897D01*
X96047239Y-93527837D01*
X96044326Y-93507809D01*
X96041499Y-93487822D01*
X96038758Y-93467881D01*
X96036103Y-93447993D01*
X96033536Y-93428166D01*
X96031057Y-93408407D01*
X96028667Y-93388726D01*
X96026366Y-93369131D01*
X96024156Y-93349634D01*
X96022037Y-93330244D01*
X96020010Y-93310975D01*
X96018075Y-93291840D01*
X96016234Y-93272852D01*
X96014487Y-93254029D01*
X96012835Y-93235389D01*
X96011279Y-93216950D01*
X96009820Y-93198736D01*
X96008458Y-93180773D01*
X96007195Y-93163089D01*
X96006031Y-93145719D01*
X96004967Y-93128700D01*
X96004004Y-93112080D01*
X96003144Y-93095914D01*
X96002386Y-93080271D01*
X96001733Y-93065234D01*
X96001183Y-93050916D01*
X96000740Y-93037466D01*
X96000401Y-93025101D01*
X96000168Y-93014165D01*
X96000038Y-93005295D01*
X96000000Y-93000000D01*
M02*
