M48
; DRILL file {KiCad 9.0.7} date 2026-01-28T06:39:00-0500
; FORMAT={-:-/ absolute / metric / decimal}
; #@! TF.CreationDate,2026-01-28T06:39:00-05:00
; #@! TF.GenerationSoftware,Kicad,Pcbnew,9.0.7
; #@! TF.FileFunction,Plated,1,2,PTH
FMAT,2
METRIC
; #@! TA.AperFunction,Plated,PTH,ComponentDrill
T1C0.600
; #@! TA.AperFunction,Plated,PTH,ComponentDrill
T2C0.800
; #@! TA.AperFunction,Plated,PTH,ComponentDrill
T3C0.840
; #@! TA.AperFunction,Plated,PTH,ComponentDrill
T4C1.000
; #@! TA.AperFunction,Plated,PTH,ComponentDrill
T5C1.100
; #@! TA.AperFunction,Plated,PTH,ComponentDrill
T6C2.500
%
G90
G05
T1
X140.0Y-79.973
X140.0Y-81.973
T2
X146.0Y-81.0
X146.0Y-83.5
T3
X98.6Y-78.88
X98.6Y-94.12
X101.14Y-78.88
X101.14Y-94.12
X103.68Y-78.88
X103.68Y-94.12
X106.22Y-78.88
X106.22Y-94.12
X108.76Y-78.88
X108.76Y-94.12
X111.3Y-78.88
X111.3Y-94.12
X113.84Y-78.88
X113.84Y-94.12
X116.38Y-78.88
X116.38Y-94.12
T4
X122.8Y-80.3
X122.8Y-82.84
X122.8Y-85.38
X122.8Y-87.92
X122.8Y-90.46
X122.8Y-93.0
X135.5Y-80.3
X135.5Y-82.84
X135.5Y-85.38
X135.5Y-87.92
X135.5Y-90.46
X135.5Y-93.0
X140.46Y-94.5
X143.0Y-94.5
X145.54Y-94.5
X151.5Y-83.92
X151.5Y-86.46
X151.5Y-89.0
X151.5Y-91.54
X151.5Y-94.08
T5
X140.92Y-88.0
X143.46Y-88.0
X146.0Y-88.0
T6
X100.0Y-87.0
X129.25Y-92.25
X151.5Y-79.0
M30
