%TF.GenerationSoftware,KiCad,Pcbnew,9.0.7*%
%TF.CreationDate,2026-01-23T22:12:35-05:00*%
%TF.ProjectId,pcb,7063622e-6b69-4636-9164-5f7063625858,rev?*%
%TF.SameCoordinates,Original*%
%TF.FileFunction,Copper,L2,Bot*%
%TF.FilePolarity,Positive*%
%FSLAX46Y46*%
G04 Gerber Fmt 4.6, Leading zero omitted, Abs format (unit mm)*
G04 Created by KiCad (PCBNEW 9.0.7) date 2026-01-23 22:12:35*
%MOMM*%
%LPD*%
G01*
G04 APERTURE LIST*
G04 Aperture macros list*
%AMRoundRect*
0 Rectangle with rounded corners*
0 $1 Rounding radius*
0 $2 $3 $4 $5 $6 $7 $8 $9 X,Y pos of 4 corners*
0 Add a 4 corners polygon primitive as box body*
4,1,4,$2,$3,$4,$5,$6,$7,$8,$9,$2,$3,0*
0 Add four circle primitives for the rounded corners*
1,1,$1+$1,$2,$3*
1,1,$1+$1,$4,$5*
1,1,$1+$1,$6,$7*
1,1,$1+$1,$8,$9*
0 Add four rect primitives between the rounded corners*
20,1,$1+$1,$2,$3,$4,$5,0*
20,1,$1+$1,$4,$5,$6,$7,0*
20,1,$1+$1,$6,$7,$8,$9,0*
20,1,$1+$1,$8,$9,$2,$3,0*%
G04 Aperture macros list end*
%TA.AperFunction,ComponentPad*%
%ADD10C,5.000000*%
%TD*%
%TA.AperFunction,ComponentPad*%
%ADD11RoundRect,0.250000X0.550000X-0.550000X0.550000X0.550000X-0.550000X0.550000X-0.550000X-0.550000X0*%
%TD*%
%TA.AperFunction,ComponentPad*%
%ADD12C,1.600000*%
%TD*%
%TA.AperFunction,ComponentPad*%
%ADD13R,1.905000X2.000000*%
%TD*%
%TA.AperFunction,ComponentPad*%
%ADD14O,1.905000X2.000000*%
%TD*%
%TA.AperFunction,ComponentPad*%
%ADD15RoundRect,0.250000X0.350000X-0.350000X0.350000X0.350000X-0.350000X0.350000X-0.350000X-0.350000X0*%
%TD*%
%TA.AperFunction,ComponentPad*%
%ADD16C,1.200000*%
%TD*%
%TA.AperFunction,ComponentPad*%
%ADD17R,1.700000X1.700000*%
%TD*%
%TA.AperFunction,ComponentPad*%
%ADD18C,1.700000*%
%TD*%
%TA.AperFunction,ComponentPad*%
%ADD19C,1.348000*%
%TD*%
%TA.AperFunction,Conductor*%
%ADD20C,0.500000*%
%TD*%
G04 APERTURE END LIST*
D10*
%TO.P,H1,1,1*%
%TO.N,unconnected-(H1-Pad1)*%
X101000000Y-106000000D03*
%TD*%
D11*
%TO.P,input_c1,1*%
%TO.N,/7V4*%
X121000000Y-101000000D03*
D12*
%TO.P,input_c1,2*%
%TO.N,GND*%
X121000000Y-98500000D03*
%TD*%
D13*
%TO.P,volt_reg1,1,IN*%
%TO.N,/7V4*%
X121000000Y-105000000D03*
D14*
%TO.P,volt_reg1,2,GND*%
%TO.N,GND*%
X118460000Y-105000000D03*
%TO.P,volt_reg1,3,OUT*%
%TO.N,/5V0*%
X115920000Y-105000000D03*
%TD*%
D15*
%TO.P,output_c1,1*%
%TO.N,/5V0*%
X115000000Y-100000000D03*
D16*
%TO.P,output_c1,2*%
%TO.N,GND*%
X115000000Y-98000000D03*
%TD*%
D17*
%TO.P,joystick_2axes1,1,SW*%
%TO.N,/SW*%
X128000000Y-113080000D03*
D18*
%TO.P,joystick_2axes1,2,Ry*%
%TO.N,/RY*%
X128000000Y-110540000D03*
%TO.P,joystick_2axes1,3,Rx*%
%TO.N,/RX*%
X128000000Y-108000000D03*
%TO.P,joystick_2axes1,4,5V*%
%TO.N,/3V3*%
X128000000Y-105460000D03*
%TO.P,joystick_2axes1,5,GND*%
%TO.N,GND*%
X128000000Y-102920000D03*
%TD*%
D10*
%TO.P,H2,1,1*%
%TO.N,unconnected-(H2-Pad1)*%
X127000000Y-98000000D03*
%TD*%
D17*
%TO.P,smart_motor1,1,7V4*%
%TO.N,/7V4*%
X113460000Y-112000000D03*
D18*
%TO.P,smart_motor1,2,GND*%
%TO.N,GND*%
X116000000Y-112000000D03*
%TO.P,smart_motor1,3,DATA*%
%TO.N,unconnected-(smart_motor1-DATA-Pad3)*%
X118540000Y-112000000D03*
%TD*%
D10*
%TO.P,H3,1,1*%
%TO.N,unconnected-(H3-Pad1)*%
X123309708Y-111545341D03*
%TD*%
D19*
%TO.P,ESP32-C3_SuperMini1,0,GPIO0*%
%TO.N,/RY*%
X107780000Y-98000000D03*
%TO.P,ESP32-C3_SuperMini1,1,GPIO1*%
%TO.N,/SW*%
X105240000Y-98000000D03*
%TO.P,ESP32-C3_SuperMini1,2,GPIO2*%
%TO.N,unconnected-(ESP32-C3_SuperMini1-GPIO2-Pad2)*%
X102700000Y-98000000D03*
%TO.P,ESP32-C3_SuperMini1,3,GPIO3*%
%TO.N,/RX*%
X100160000Y-98000000D03*
%TO.P,ESP32-C3_SuperMini1,3.3,3V3*%
%TO.N,/3V3*%
X95080000Y-98000000D03*
%TO.P,ESP32-C3_SuperMini1,4,GPIO4*%
%TO.N,unconnected-(ESP32-C3_SuperMini1-GPIO4-Pad4)*%
X97620000Y-98000000D03*
%TO.P,ESP32-C3_SuperMini1,5,GPIO5*%
%TO.N,unconnected-(ESP32-C3_SuperMini1-GPIO5-Pad5)*%
X90000000Y-113240000D03*
%TO.P,ESP32-C3_SuperMini1,5V,5V*%
%TO.N,/5V0*%
X90000000Y-98000000D03*
%TO.P,ESP32-C3_SuperMini1,6,GPIO6*%
%TO.N,unconnected-(ESP32-C3_SuperMini1-GPIO6-Pad6)*%
X92540000Y-113240000D03*
%TO.P,ESP32-C3_SuperMini1,7,GPIO7*%
%TO.N,unconnected-(ESP32-C3_SuperMini1-GPIO7-Pad7)*%
X95080000Y-113240000D03*
%TO.P,ESP32-C3_SuperMini1,8,GPIO8*%
%TO.N,unconnected-(ESP32-C3_SuperMini1-GPIO8-Pad8)*%
X97620000Y-113240000D03*
%TO.P,ESP32-C3_SuperMini1,9,GPIO9*%
%TO.N,unconnected-(ESP32-C3_SuperMini1-GPIO9-Pad9)*%
X100160000Y-113240000D03*
%TO.P,ESP32-C3_SuperMini1,10,GPIO10*%
%TO.N,unconnected-(ESP32-C3_SuperMini1-GPIO10-Pad10)*%
X102700000Y-113240000D03*
%TO.P,ESP32-C3_SuperMini1,20,GPIO20*%
%TO.N,unconnected-(ESP32-C3_SuperMini1-GPIO20-Pad20)*%
X105240000Y-113240000D03*
%TO.P,ESP32-C3_SuperMini1,21,GPIO21*%
%TO.N,unconnected-(ESP32-C3_SuperMini1-GPIO21-Pad21)*%
X107780000Y-113240000D03*
%TO.P,ESP32-C3_SuperMini1,G,GND*%
%TO.N,GND*%
X92540000Y-98000000D03*
%TD*%
D20*
%TO.N,/7V4*%
X121000000Y-101000000D02*
X121000000Y-105000000D01*
%TO.N,GND*%
X127960000Y-102880000D02*
X126500000Y-102880000D01*
X116000000Y-111500000D02*
X118460000Y-109040000D01*
X108716701Y-97275000D02*
X108266701Y-96825000D01*
X103636701Y-97275000D02*
X103186701Y-96825000D01*
X101096701Y-97275000D02*
X100646701Y-96825000D01*
X96016701Y-97275000D02*
X95566701Y-96825000D01*
X95566701Y-96825000D02*
X93715000Y-96825000D01*
X115000000Y-98000000D02*
X115500000Y-98500000D01*
X114275000Y-97275000D02*
X108716701Y-97275000D01*
X128000000Y-102920000D02*
X127960000Y-102880000D01*
X121000000Y-98500000D02*
X118460000Y-101040000D01*
X105726701Y-96825000D02*
X104753299Y-96825000D01*
X103186701Y-96825000D02*
X102213299Y-96825000D01*
X125420000Y-102920000D02*
X128000000Y-102920000D01*
X106843299Y-97275000D02*
X106176701Y-97275000D01*
X118460000Y-109040000D02*
X118460000Y-105000000D01*
X118460000Y-101040000D02*
X118460000Y-105000000D01*
X108266701Y-96825000D02*
X107293299Y-96825000D01*
X115500000Y-98500000D02*
X121000000Y-98500000D01*
X115000000Y-98000000D02*
X114275000Y-97275000D01*
X121000000Y-98500000D02*
X125420000Y-102920000D01*
X99673299Y-96825000D02*
X99223299Y-97275000D01*
X107293299Y-96825000D02*
X106843299Y-97275000D01*
X104303299Y-97275000D02*
X103636701Y-97275000D01*
X93715000Y-96825000D02*
X92540000Y-98000000D01*
X116000000Y-112000000D02*
X116000000Y-111500000D01*
X98106701Y-96825000D02*
X97133299Y-96825000D01*
X96683299Y-97275000D02*
X96016701Y-97275000D01*
X106176701Y-97275000D02*
X105726701Y-96825000D01*
X104753299Y-96825000D02*
X104303299Y-97275000D01*
X102213299Y-96825000D02*
X101763299Y-97275000D01*
X101763299Y-97275000D02*
X101096701Y-97275000D01*
X99223299Y-97275000D02*
X98556701Y-97275000D01*
X98556701Y-97275000D02*
X98106701Y-96825000D01*
X97133299Y-96825000D02*
X96683299Y-97275000D01*
X100646701Y-96825000D02*
X99673299Y-96825000D01*
%TO.N,/5V0*%
X115000000Y-101000000D02*
X115920000Y-101920000D01*
X115920000Y-101920000D02*
X115920000Y-105000000D01*
X90000000Y-98500000D02*
X91500000Y-100000000D01*
X115000000Y-100000000D02*
X115000000Y-101000000D01*
X90000000Y-98000000D02*
X90000000Y-98500000D01*
X91500000Y-100000000D02*
X115000000Y-100000000D01*
%TD*%
%TA.AperFunction,Conductor*%
%TO.N,GND*%
G36*
X125034512Y-95520185D02*
G01*
X125080267Y-95572989D01*
X125090211Y-95642147D01*
X125061186Y-95705703D01*
X125044786Y-95721447D01*
X124997477Y-95759174D01*
X124759174Y-95997477D01*
X124549053Y-96260962D01*
X124369752Y-96546316D01*
X124223532Y-96849945D01*
X124112227Y-97168034D01*
X124112223Y-97168046D01*
X124037233Y-97496602D01*
X124037231Y-97496618D01*
X123999500Y-97831491D01*
X123999500Y-98168508D01*
X124037231Y-98503381D01*
X124037233Y-98503397D01*
X124112223Y-98831953D01*
X124112227Y-98831965D01*
X124223532Y-99150054D01*
X124369752Y-99453683D01*
X124369754Y-99453686D01*
X124549054Y-99739039D01*
X124759175Y-100002523D01*
X124997477Y-100240825D01*
X125260961Y-100450946D01*
X125546314Y-100630246D01*
X125546316Y-100630247D01*
X125618656Y-100665084D01*
X125849949Y-100776469D01*
X126088848Y-100860063D01*
X126168034Y-100887772D01*
X126168046Y-100887776D01*
X126496606Y-100962767D01*
X126831492Y-101000499D01*
X126831493Y-101000500D01*
X126831496Y-101000500D01*
X127168507Y-101000500D01*
X127168507Y-101000499D01*
X127503394Y-100962767D01*
X127831954Y-100887776D01*
X128150051Y-100776469D01*
X128453686Y-100630246D01*
X128739039Y-100450946D01*
X129002523Y-100240825D01*
X129240825Y-100002523D01*
X129278553Y-99955213D01*
X129335740Y-99915073D01*
X129405552Y-99912223D01*
X129465822Y-99947568D01*
X129497416Y-100009886D01*
X129499500Y-100032526D01*
X129499500Y-102383388D01*
X129479815Y-102450427D01*
X129427011Y-102496182D01*
X129357853Y-102506126D01*
X129294297Y-102477101D01*
X129257569Y-102421706D01*
X129251095Y-102401782D01*
X129154624Y-102212449D01*
X129115270Y-102158282D01*
X129115269Y-102158282D01*
X128482962Y-102790590D01*
X128465925Y-102727007D01*
X128400099Y-102612993D01*
X128307007Y-102519901D01*
X128192993Y-102454075D01*
X128129409Y-102437037D01*
X128761716Y-101804728D01*
X128707550Y-101765375D01*
X128518217Y-101668904D01*
X128316129Y-101603242D01*
X128106246Y-101570000D01*
X127893754Y-101570000D01*
X127683872Y-101603242D01*
X127683869Y-101603242D01*
X127481782Y-101668904D01*
X127292439Y-101765380D01*
X127238282Y-101804727D01*
X127238282Y-101804728D01*
X127870591Y-102437037D01*
X127807007Y-102454075D01*
X127692993Y-102519901D01*
X127599901Y-102612993D01*
X127534075Y-102727007D01*
X127517037Y-102790591D01*
X126884728Y-102158282D01*
X126884727Y-102158282D01*
X126845380Y-102212439D01*
X126748904Y-102401782D01*
X126683242Y-102603869D01*
X126683242Y-102603872D01*
X126650000Y-102813753D01*
X126650000Y-103026246D01*
X126683242Y-103236127D01*
X126683242Y-103236130D01*
X126748904Y-103438217D01*
X126845375Y-103627550D01*
X126884728Y-103681716D01*
X127517037Y-103049408D01*
X127534075Y-103112993D01*
X127599901Y-103227007D01*
X127692993Y-103320099D01*
X127807007Y-103385925D01*
X127870590Y-103402962D01*
X127238282Y-104035269D01*
X127238282Y-104035270D01*
X127292452Y-104074626D01*
X127292451Y-104074626D01*
X127301495Y-104079234D01*
X127352292Y-104127208D01*
X127369087Y-104195029D01*
X127346550Y-104261164D01*
X127301499Y-104300202D01*
X127292182Y-104304949D01*
X127120213Y-104429890D01*
X126969890Y-104580213D01*
X126844951Y-104752179D01*
X126748444Y-104941585D01*
X126682753Y-105143760D01*
X126678907Y-105168046D01*
X126649500Y-105353713D01*
X126649500Y-105566287D01*
X126682754Y-105776243D01*
X126734075Y-105934193D01*
X126748444Y-105978414D01*
X126844951Y-106167820D01*
X126969890Y-106339786D01*
X127120213Y-106490109D01*
X127292182Y-106615050D01*
X127300946Y-106619516D01*
X127351742Y-106667491D01*
X127368536Y-106735312D01*
X127345998Y-106801447D01*
X127300946Y-106840484D01*
X127292182Y-106844949D01*
X127120213Y-106969890D01*
X126969890Y-107120213D01*
X126844951Y-107292179D01*
X126748444Y-107481585D01*
X126682753Y-107683760D01*
X126673998Y-107739037D01*
X126649500Y-107893713D01*
X126649500Y-108106287D01*
X126682754Y-108316243D01*
X126734075Y-108474193D01*
X126748444Y-108518414D01*
X126844951Y-108707820D01*
X126969890Y-108879786D01*
X127120213Y-109030109D01*
X127292182Y-109155050D01*
X127300946Y-109159516D01*
X127351742Y-109207491D01*
X127368536Y-109275312D01*
X127345998Y-109341447D01*
X127300946Y-109380484D01*
X127292182Y-109384949D01*
X127120213Y-109509890D01*
X126969890Y-109660213D01*
X126844951Y-109832179D01*
X126748444Y-110021585D01*
X126682753Y-110223760D01*
X126649500Y-110433713D01*
X126649500Y-110646286D01*
X126681032Y-110845375D01*
X126682754Y-110856243D01*
X126743278Y-111042517D01*
X126748444Y-111058414D01*
X126844951Y-111247820D01*
X126969890Y-111419786D01*
X127083430Y-111533326D01*
X127116915Y-111594649D01*
X127111931Y-111664341D01*
X127070059Y-111720274D01*
X127039083Y-111737189D01*
X126907669Y-111786203D01*
X126907664Y-111786206D01*
X126792455Y-111872452D01*
X126792452Y-111872455D01*
X126706206Y-111987664D01*
X126706202Y-111987671D01*
X126655908Y-112122517D01*
X126649501Y-112182116D01*
X126649500Y-112182135D01*
X126649500Y-113977870D01*
X126649501Y-113977876D01*
X126655908Y-114037483D01*
X126706202Y-114172328D01*
X126706206Y-114172335D01*
X126792452Y-114287544D01*
X126792455Y-114287547D01*
X126907664Y-114373793D01*
X126907671Y-114373797D01*
X127042517Y-114424091D01*
X127042516Y-114424091D01*
X127049444Y-114424835D01*
X127102127Y-114430500D01*
X128897872Y-114430499D01*
X128957483Y-114424091D01*
X129092331Y-114373796D01*
X129207546Y-114287546D01*
X129276234Y-114195789D01*
X129332167Y-114153920D01*
X129401859Y-114148936D01*
X129463182Y-114182421D01*
X129496666Y-114243745D01*
X129499500Y-114270102D01*
X129499500Y-114993038D01*
X129498720Y-115006923D01*
X129488540Y-115097264D01*
X129482362Y-115124333D01*
X129454648Y-115203537D01*
X129442600Y-115228555D01*
X129397957Y-115299604D01*
X129380644Y-115321313D01*
X129321313Y-115380644D01*
X129299604Y-115397957D01*
X129228555Y-115442600D01*
X129203537Y-115454648D01*
X129124333Y-115482362D01*
X129097264Y-115488540D01*
X129017075Y-115497576D01*
X129006921Y-115498720D01*
X128993038Y-115499500D01*
X92503246Y-115499500D01*
X92496756Y-115499330D01*
X92192953Y-115483407D01*
X92180046Y-115482050D01*
X91882794Y-115434971D01*
X91870097Y-115432273D01*
X91579376Y-115354374D01*
X91567033Y-115350363D01*
X91286064Y-115242510D01*
X91274206Y-115237231D01*
X91006036Y-115100591D01*
X90994796Y-115094101D01*
X90742391Y-114930187D01*
X90731890Y-114922558D01*
X90497989Y-114733149D01*
X90488344Y-114724464D01*
X90323337Y-114559457D01*
X90289852Y-114498134D01*
X90294836Y-114428442D01*
X90336708Y-114372509D01*
X90372701Y-114353845D01*
X90450846Y-114328454D01*
X90450852Y-114328452D01*
X90615572Y-114244523D01*
X90765136Y-114135859D01*
X90895859Y-114005136D01*
X91004523Y-113855572D01*
X91088452Y-113690852D01*
X91145580Y-113515029D01*
X91147527Y-113502737D01*
X91177456Y-113439602D01*
X91236768Y-113402671D01*
X91306630Y-113403669D01*
X91364863Y-113442279D01*
X91392473Y-113502737D01*
X91394420Y-113515030D01*
X91451546Y-113690849D01*
X91451547Y-113690852D01*
X91535479Y-113855575D01*
X91644135Y-114005129D01*
X91644139Y-114005134D01*
X91774865Y-114135860D01*
X91774870Y-114135864D01*
X91905318Y-114230639D01*
X91924428Y-114244523D01*
X92032106Y-114299388D01*
X92089147Y-114328452D01*
X92089150Y-114328453D01*
X92264969Y-114385580D01*
X92447560Y-114414500D01*
X92447565Y-114414500D01*
X92632440Y-114414500D01*
X92815030Y-114385580D01*
X92990849Y-114328453D01*
X92990852Y-114328452D01*
X93155572Y-114244523D01*
X93305136Y-114135859D01*
X93435859Y-114005136D01*
X93544523Y-113855572D01*
X93628452Y-113690852D01*
X93685580Y-113515029D01*
X93687527Y-113502737D01*
X93717456Y-113439602D01*
X93776768Y-113402671D01*
X93846630Y-113403669D01*
X93904863Y-113442279D01*
X93932473Y-113502737D01*
X93934420Y-113515030D01*
X93991546Y-113690849D01*
X93991547Y-113690852D01*
X94075479Y-113855575D01*
X94184135Y-114005129D01*
X94184139Y-114005134D01*
X94314865Y-114135860D01*
X94314870Y-114135864D01*
X94445318Y-114230639D01*
X94464428Y-114244523D01*
X94572106Y-114299388D01*
X94629147Y-114328452D01*
X94629150Y-114328453D01*
X94804969Y-114385580D01*
X94987560Y-114414500D01*
X94987565Y-114414500D01*
X95172440Y-114414500D01*
X95355030Y-114385580D01*
X95530849Y-114328453D01*
X95530852Y-114328452D01*
X95695572Y-114244523D01*
X95845136Y-114135859D01*
X95975859Y-114005136D01*
X96084523Y-113855572D01*
X96168452Y-113690852D01*
X96225580Y-113515029D01*
X96227527Y-113502737D01*
X96257456Y-113439602D01*
X96316768Y-113402671D01*
X96386630Y-113403669D01*
X96444863Y-113442279D01*
X96472473Y-113502737D01*
X96474420Y-113515030D01*
X96531546Y-113690849D01*
X96531547Y-113690852D01*
X96615479Y-113855575D01*
X96724135Y-114005129D01*
X96724139Y-114005134D01*
X96854865Y-114135860D01*
X96854870Y-114135864D01*
X96985318Y-114230639D01*
X97004428Y-114244523D01*
X97112106Y-114299388D01*
X97169147Y-114328452D01*
X97169150Y-114328453D01*
X97344969Y-114385580D01*
X97527560Y-114414500D01*
X97527565Y-114414500D01*
X97712440Y-114414500D01*
X97895030Y-114385580D01*
X98070849Y-114328453D01*
X98070852Y-114328452D01*
X98235572Y-114244523D01*
X98385136Y-114135859D01*
X98515859Y-114005136D01*
X98624523Y-113855572D01*
X98708452Y-113690852D01*
X98765580Y-113515029D01*
X98767527Y-113502737D01*
X98797456Y-113439602D01*
X98856768Y-113402671D01*
X98926630Y-113403669D01*
X98984863Y-113442279D01*
X99012473Y-113502737D01*
X99014420Y-113515030D01*
X99071546Y-113690849D01*
X99071547Y-113690852D01*
X99155479Y-113855575D01*
X99264135Y-114005129D01*
X99264139Y-114005134D01*
X99394865Y-114135860D01*
X99394870Y-114135864D01*
X99525318Y-114230639D01*
X99544428Y-114244523D01*
X99652106Y-114299388D01*
X99709147Y-114328452D01*
X99709150Y-114328453D01*
X99884969Y-114385580D01*
X100067560Y-114414500D01*
X100067565Y-114414500D01*
X100252440Y-114414500D01*
X100435030Y-114385580D01*
X100610849Y-114328453D01*
X100610852Y-114328452D01*
X100775572Y-114244523D01*
X100925136Y-114135859D01*
X101055859Y-114005136D01*
X101164523Y-113855572D01*
X101248452Y-113690852D01*
X101305580Y-113515029D01*
X101307527Y-113502737D01*
X101337456Y-113439602D01*
X101396768Y-113402671D01*
X101466630Y-113403669D01*
X101524863Y-113442279D01*
X101552473Y-113502737D01*
X101554420Y-113515030D01*
X101611546Y-113690849D01*
X101611547Y-113690852D01*
X101695479Y-113855575D01*
X101804135Y-114005129D01*
X101804139Y-114005134D01*
X101934865Y-114135860D01*
X101934870Y-114135864D01*
X102065318Y-114230639D01*
X102084428Y-114244523D01*
X102192106Y-114299388D01*
X102249147Y-114328452D01*
X102249150Y-114328453D01*
X102424969Y-114385580D01*
X102607560Y-114414500D01*
X102607565Y-114414500D01*
X102792440Y-114414500D01*
X102975030Y-114385580D01*
X103150849Y-114328453D01*
X103150852Y-114328452D01*
X103315572Y-114244523D01*
X103465136Y-114135859D01*
X103595859Y-114005136D01*
X103704523Y-113855572D01*
X103788452Y-113690852D01*
X103845580Y-113515029D01*
X103847527Y-113502737D01*
X103877456Y-113439602D01*
X103936768Y-113402671D01*
X104006630Y-113403669D01*
X104064863Y-113442279D01*
X104092473Y-113502737D01*
X104094420Y-113515030D01*
X104151546Y-113690849D01*
X104151547Y-113690852D01*
X104235479Y-113855575D01*
X104344135Y-114005129D01*
X104344139Y-114005134D01*
X104474865Y-114135860D01*
X104474870Y-114135864D01*
X104605318Y-114230639D01*
X104624428Y-114244523D01*
X104732106Y-114299388D01*
X104789147Y-114328452D01*
X104789150Y-114328453D01*
X104964969Y-114385580D01*
X105147560Y-114414500D01*
X105147565Y-114414500D01*
X105332440Y-114414500D01*
X105515030Y-114385580D01*
X105690849Y-114328453D01*
X105690852Y-114328452D01*
X105855572Y-114244523D01*
X106005136Y-114135859D01*
X106135859Y-114005136D01*
X106244523Y-113855572D01*
X106328452Y-113690852D01*
X106385580Y-113515029D01*
X106387527Y-113502737D01*
X106417456Y-113439602D01*
X106476768Y-113402671D01*
X106546630Y-113403669D01*
X106604863Y-113442279D01*
X106632473Y-113502737D01*
X106634420Y-113515030D01*
X106691546Y-113690849D01*
X106691547Y-113690852D01*
X106775479Y-113855575D01*
X106884135Y-114005129D01*
X106884139Y-114005134D01*
X107014865Y-114135860D01*
X107014870Y-114135864D01*
X107145318Y-114230639D01*
X107164428Y-114244523D01*
X107272106Y-114299388D01*
X107329147Y-114328452D01*
X107329150Y-114328453D01*
X107504969Y-114385580D01*
X107687560Y-114414500D01*
X107687565Y-114414500D01*
X107872440Y-114414500D01*
X108055030Y-114385580D01*
X108230849Y-114328453D01*
X108230852Y-114328452D01*
X108395572Y-114244523D01*
X108545136Y-114135859D01*
X108675859Y-114005136D01*
X108784523Y-113855572D01*
X108868452Y-113690852D01*
X108868453Y-113690849D01*
X108925580Y-113515030D01*
X108954500Y-113332440D01*
X108954500Y-113147559D01*
X108925580Y-112964969D01*
X108868453Y-112789150D01*
X108868452Y-112789147D01*
X108822268Y-112698507D01*
X108784523Y-112624428D01*
X108707500Y-112518414D01*
X108675864Y-112474870D01*
X108675860Y-112474865D01*
X108545134Y-112344139D01*
X108545129Y-112344135D01*
X108395575Y-112235479D01*
X108395574Y-112235478D01*
X108395572Y-112235477D01*
X108342799Y-112208588D01*
X108230852Y-112151547D01*
X108230849Y-112151546D01*
X108055030Y-112094419D01*
X107872440Y-112065500D01*
X107872435Y-112065500D01*
X107687565Y-112065500D01*
X107687560Y-112065500D01*
X107504969Y-112094419D01*
X107329150Y-112151546D01*
X107329147Y-112151547D01*
X107164424Y-112235479D01*
X107014870Y-112344135D01*
X107014865Y-112344139D01*
X106884139Y-112474865D01*
X106884135Y-112474870D01*
X106775479Y-112624424D01*
X106691547Y-112789147D01*
X106691546Y-112789150D01*
X106634420Y-112964969D01*
X106632473Y-112977263D01*
X106602543Y-113040397D01*
X106543231Y-113077328D01*
X106473369Y-113076330D01*
X106415136Y-113037719D01*
X106387527Y-112977263D01*
X106387192Y-112975150D01*
X106385580Y-112964971D01*
X106331859Y-112799634D01*
X106328453Y-112789150D01*
X106328452Y-112789147D01*
X106282268Y-112698507D01*
X106244523Y-112624428D01*
X106167500Y-112518414D01*
X106135864Y-112474870D01*
X106135860Y-112474865D01*
X106005134Y-112344139D01*
X106005129Y-112344135D01*
X105855575Y-112235479D01*
X105855574Y-112235478D01*
X105855572Y-112235477D01*
X105802799Y-112208588D01*
X105690852Y-112151547D01*
X105690849Y-112151546D01*
X105515030Y-112094419D01*
X105332440Y-112065500D01*
X105332435Y-112065500D01*
X105147565Y-112065500D01*
X105147560Y-112065500D01*
X104964969Y-112094419D01*
X104789150Y-112151546D01*
X104789147Y-112151547D01*
X104624424Y-112235479D01*
X104474870Y-112344135D01*
X104474865Y-112344139D01*
X104344139Y-112474865D01*
X104344135Y-112474870D01*
X104235479Y-112624424D01*
X104151547Y-112789147D01*
X104151546Y-112789150D01*
X104094420Y-112964969D01*
X104092473Y-112977263D01*
X104062543Y-113040397D01*
X104003231Y-113077328D01*
X103933369Y-113076330D01*
X103875136Y-113037719D01*
X103847527Y-112977263D01*
X103847192Y-112975150D01*
X103845580Y-112964971D01*
X103791859Y-112799634D01*
X103788453Y-112789150D01*
X103788452Y-112789147D01*
X103742268Y-112698507D01*
X103704523Y-112624428D01*
X103627500Y-112518414D01*
X103595864Y-112474870D01*
X103595860Y-112474865D01*
X103465134Y-112344139D01*
X103465129Y-112344135D01*
X103315575Y-112235479D01*
X103315574Y-112235478D01*
X103315572Y-112235477D01*
X103262799Y-112208588D01*
X103150852Y-112151547D01*
X103150849Y-112151546D01*
X102975030Y-112094419D01*
X102792440Y-112065500D01*
X102792435Y-112065500D01*
X102607565Y-112065500D01*
X102607560Y-112065500D01*
X102424969Y-112094419D01*
X102249150Y-112151546D01*
X102249147Y-112151547D01*
X102084424Y-112235479D01*
X101934870Y-112344135D01*
X101934865Y-112344139D01*
X101804139Y-112474865D01*
X101804135Y-112474870D01*
X101695479Y-112624424D01*
X101611547Y-112789147D01*
X101611546Y-112789150D01*
X101554420Y-112964969D01*
X101552473Y-112977263D01*
X101522543Y-113040397D01*
X101463231Y-113077328D01*
X101393369Y-113076330D01*
X101335136Y-113037719D01*
X101307527Y-112977263D01*
X101307192Y-112975150D01*
X101305580Y-112964971D01*
X101251859Y-112799634D01*
X101248453Y-112789150D01*
X101248452Y-112789147D01*
X101202268Y-112698507D01*
X101164523Y-112624428D01*
X101087500Y-112518414D01*
X101055864Y-112474870D01*
X101055860Y-112474865D01*
X100925134Y-112344139D01*
X100925129Y-112344135D01*
X100775575Y-112235479D01*
X100775574Y-112235478D01*
X100775572Y-112235477D01*
X100722799Y-112208588D01*
X100610852Y-112151547D01*
X100610849Y-112151546D01*
X100435030Y-112094419D01*
X100252440Y-112065500D01*
X100252435Y-112065500D01*
X100067565Y-112065500D01*
X100067560Y-112065500D01*
X99884969Y-112094419D01*
X99709150Y-112151546D01*
X99709147Y-112151547D01*
X99544424Y-112235479D01*
X99394870Y-112344135D01*
X99394865Y-112344139D01*
X99264139Y-112474865D01*
X99264135Y-112474870D01*
X99155479Y-112624424D01*
X99071547Y-112789147D01*
X99071546Y-112789150D01*
X99014420Y-112964969D01*
X99012473Y-112977263D01*
X98982543Y-113040397D01*
X98923231Y-113077328D01*
X98853369Y-113076330D01*
X98795136Y-113037719D01*
X98767527Y-112977263D01*
X98767192Y-112975150D01*
X98765580Y-112964971D01*
X98711859Y-112799634D01*
X98708453Y-112789150D01*
X98708452Y-112789147D01*
X98662268Y-112698507D01*
X98624523Y-112624428D01*
X98547500Y-112518414D01*
X98515864Y-112474870D01*
X98515860Y-112474865D01*
X98385134Y-112344139D01*
X98385129Y-112344135D01*
X98235575Y-112235479D01*
X98235574Y-112235478D01*
X98235572Y-112235477D01*
X98182799Y-112208588D01*
X98070852Y-112151547D01*
X98070849Y-112151546D01*
X97895030Y-112094419D01*
X97712440Y-112065500D01*
X97712435Y-112065500D01*
X97527565Y-112065500D01*
X97527560Y-112065500D01*
X97344969Y-112094419D01*
X97169150Y-112151546D01*
X97169147Y-112151547D01*
X97004424Y-112235479D01*
X96854870Y-112344135D01*
X96854865Y-112344139D01*
X96724139Y-112474865D01*
X96724135Y-112474870D01*
X96615479Y-112624424D01*
X96531547Y-112789147D01*
X96531546Y-112789150D01*
X96474420Y-112964969D01*
X96472473Y-112977263D01*
X96442543Y-113040397D01*
X96383231Y-113077328D01*
X96313369Y-113076330D01*
X96255136Y-113037719D01*
X96227527Y-112977263D01*
X96227192Y-112975150D01*
X96225580Y-112964971D01*
X96171859Y-112799634D01*
X96168453Y-112789150D01*
X96168452Y-112789147D01*
X96122268Y-112698507D01*
X96084523Y-112624428D01*
X96007500Y-112518414D01*
X95975864Y-112474870D01*
X95975860Y-112474865D01*
X95845134Y-112344139D01*
X95845129Y-112344135D01*
X95695575Y-112235479D01*
X95695574Y-112235478D01*
X95695572Y-112235477D01*
X95642799Y-112208588D01*
X95530852Y-112151547D01*
X95530849Y-112151546D01*
X95355030Y-112094419D01*
X95172440Y-112065500D01*
X95172435Y-112065500D01*
X94987565Y-112065500D01*
X94987560Y-112065500D01*
X94804969Y-112094419D01*
X94629150Y-112151546D01*
X94629147Y-112151547D01*
X94464424Y-112235479D01*
X94314870Y-112344135D01*
X94314865Y-112344139D01*
X94184139Y-112474865D01*
X94184135Y-112474870D01*
X94075479Y-112624424D01*
X93991547Y-112789147D01*
X93991546Y-112789150D01*
X93934420Y-112964969D01*
X93932473Y-112977263D01*
X93902543Y-113040397D01*
X93843231Y-113077328D01*
X93773369Y-113076330D01*
X93715136Y-113037719D01*
X93687527Y-112977263D01*
X93687192Y-112975150D01*
X93685580Y-112964971D01*
X93631859Y-112799634D01*
X93628453Y-112789150D01*
X93628452Y-112789147D01*
X93582268Y-112698507D01*
X93544523Y-112624428D01*
X93467500Y-112518414D01*
X93435864Y-112474870D01*
X93435860Y-112474865D01*
X93305134Y-112344139D01*
X93305129Y-112344135D01*
X93155575Y-112235479D01*
X93155574Y-112235478D01*
X93155572Y-112235477D01*
X93102799Y-112208588D01*
X92990852Y-112151547D01*
X92990849Y-112151546D01*
X92815030Y-112094419D01*
X92632440Y-112065500D01*
X92632435Y-112065500D01*
X92447565Y-112065500D01*
X92447560Y-112065500D01*
X92264969Y-112094419D01*
X92089150Y-112151546D01*
X92089147Y-112151547D01*
X91924424Y-112235479D01*
X91774870Y-112344135D01*
X91774865Y-112344139D01*
X91644139Y-112474865D01*
X91644135Y-112474870D01*
X91535479Y-112624424D01*
X91451547Y-112789147D01*
X91451546Y-112789150D01*
X91394420Y-112964969D01*
X91392473Y-112977263D01*
X91362543Y-113040397D01*
X91303231Y-113077328D01*
X91233369Y-113076330D01*
X91175136Y-113037719D01*
X91147527Y-112977263D01*
X91147192Y-112975150D01*
X91145580Y-112964971D01*
X91091859Y-112799634D01*
X91088453Y-112789150D01*
X91088452Y-112789147D01*
X91042268Y-112698507D01*
X91004523Y-112624428D01*
X90927500Y-112518414D01*
X90895864Y-112474870D01*
X90895860Y-112474865D01*
X90765134Y-112344139D01*
X90765129Y-112344135D01*
X90615575Y-112235479D01*
X90615574Y-112235478D01*
X90615572Y-112235477D01*
X90562799Y-112208588D01*
X90450852Y-112151547D01*
X90450849Y-112151546D01*
X90275030Y-112094419D01*
X90092440Y-112065500D01*
X90092435Y-112065500D01*
X89907565Y-112065500D01*
X89907560Y-112065500D01*
X89724967Y-112094420D01*
X89662817Y-112114614D01*
X89592976Y-112116609D01*
X89533144Y-112080528D01*
X89502316Y-112017827D01*
X89500500Y-111996683D01*
X89500500Y-111102135D01*
X112109500Y-111102135D01*
X112109500Y-112897870D01*
X112109501Y-112897876D01*
X112115908Y-112957483D01*
X112166202Y-113092328D01*
X112166206Y-113092335D01*
X112252452Y-113207544D01*
X112252455Y-113207547D01*
X112367664Y-113293793D01*
X112367671Y-113293797D01*
X112502517Y-113344091D01*
X112502516Y-113344091D01*
X112509444Y-113344835D01*
X112562127Y-113350500D01*
X114357872Y-113350499D01*
X114417483Y-113344091D01*
X114552331Y-113293796D01*
X114667546Y-113207546D01*
X114753796Y-113092331D01*
X114804091Y-112957483D01*
X114810500Y-112897873D01*
X114810499Y-112873979D01*
X114813330Y-112860963D01*
X114823940Y-112841525D01*
X114830179Y-112820275D01*
X114846803Y-112799643D01*
X114846808Y-112799636D01*
X114846811Y-112799634D01*
X114846818Y-112799626D01*
X115517037Y-112129408D01*
X115534075Y-112192993D01*
X115599901Y-112307007D01*
X115692993Y-112400099D01*
X115807007Y-112465925D01*
X115870590Y-112482962D01*
X115238282Y-113115269D01*
X115238282Y-113115270D01*
X115292449Y-113154624D01*
X115481782Y-113251095D01*
X115683870Y-113316757D01*
X115893754Y-113350000D01*
X116106246Y-113350000D01*
X116316127Y-113316757D01*
X116316130Y-113316757D01*
X116518217Y-113251095D01*
X116707554Y-113154622D01*
X116761716Y-113115270D01*
X116761717Y-113115270D01*
X116129408Y-112482962D01*
X116192993Y-112465925D01*
X116307007Y-112400099D01*
X116400099Y-112307007D01*
X116465925Y-112192993D01*
X116482962Y-112129409D01*
X117115270Y-112761717D01*
X117115270Y-112761716D01*
X117154622Y-112707555D01*
X117159232Y-112698507D01*
X117207205Y-112647709D01*
X117275025Y-112630912D01*
X117341161Y-112653447D01*
X117380204Y-112698504D01*
X117384949Y-112707817D01*
X117509890Y-112879786D01*
X117660213Y-113030109D01*
X117832179Y-113155048D01*
X117832181Y-113155049D01*
X117832184Y-113155051D01*
X118021588Y-113251557D01*
X118223757Y-113317246D01*
X118433713Y-113350500D01*
X118433714Y-113350500D01*
X118646286Y-113350500D01*
X118646287Y-113350500D01*
X118856243Y-113317246D01*
X119058412Y-113251557D01*
X119247816Y-113155051D01*
X119334138Y-113092335D01*
X119419786Y-113030109D01*
X119419788Y-113030106D01*
X119419792Y-113030104D01*
X119570104Y-112879792D01*
X119570106Y-112879788D01*
X119570109Y-112879786D01*
X119695048Y-112707820D01*
X119695050Y-112707817D01*
X119695051Y-112707816D01*
X119791557Y-112518412D01*
X119857246Y-112316243D01*
X119890500Y-112106287D01*
X119890500Y-111893713D01*
X119857246Y-111683757D01*
X119791557Y-111481588D01*
X119738181Y-111376832D01*
X120309208Y-111376832D01*
X120309208Y-111713849D01*
X120346939Y-112048722D01*
X120346941Y-112048738D01*
X120421931Y-112377294D01*
X120421935Y-112377306D01*
X120533240Y-112695395D01*
X120679460Y-112999024D01*
X120679462Y-112999027D01*
X120858762Y-113284380D01*
X120911490Y-113350499D01*
X121032895Y-113502737D01*
X121068883Y-113547864D01*
X121307185Y-113786166D01*
X121570669Y-113996287D01*
X121856022Y-114175587D01*
X122159657Y-114321810D01*
X122383005Y-114399963D01*
X122477742Y-114433113D01*
X122477754Y-114433117D01*
X122806314Y-114508108D01*
X123141200Y-114545840D01*
X123141201Y-114545841D01*
X123141204Y-114545841D01*
X123478215Y-114545841D01*
X123478215Y-114545840D01*
X123813102Y-114508108D01*
X124141662Y-114433117D01*
X124459759Y-114321810D01*
X124763394Y-114175587D01*
X125048747Y-113996287D01*
X125312231Y-113786166D01*
X125550533Y-113547864D01*
X125760654Y-113284380D01*
X125939954Y-112999027D01*
X126086177Y-112695392D01*
X126197484Y-112377295D01*
X126272475Y-112048735D01*
X126310208Y-111713845D01*
X126310208Y-111376837D01*
X126272475Y-111041947D01*
X126197484Y-110713387D01*
X126086177Y-110395290D01*
X125939954Y-110091655D01*
X125760654Y-109806302D01*
X125550533Y-109542818D01*
X125312231Y-109304516D01*
X125048747Y-109094395D01*
X124763394Y-108915095D01*
X124763391Y-108915093D01*
X124459762Y-108768873D01*
X124141673Y-108657568D01*
X124141661Y-108657564D01*
X123813105Y-108582574D01*
X123813089Y-108582572D01*
X123478216Y-108544841D01*
X123478212Y-108544841D01*
X123141204Y-108544841D01*
X123141199Y-108544841D01*
X122806326Y-108582572D01*
X122806310Y-108582574D01*
X122477754Y-108657564D01*
X122477742Y-108657568D01*
X122159653Y-108768873D01*
X121856024Y-108915093D01*
X121570670Y-109094394D01*
X121307185Y-109304515D01*
X121068882Y-109542818D01*
X120858761Y-109806303D01*
X120679460Y-110091657D01*
X120533240Y-110395286D01*
X120421935Y-110713375D01*
X120421931Y-110713387D01*
X120346941Y-111041943D01*
X120346939Y-111041959D01*
X120309208Y-111376832D01*
X119738181Y-111376832D01*
X119695051Y-111292184D01*
X119662816Y-111247816D01*
X119570109Y-111120213D01*
X119419786Y-110969890D01*
X119247820Y-110844951D01*
X119058414Y-110748444D01*
X119058413Y-110748443D01*
X119058412Y-110748443D01*
X118856243Y-110682754D01*
X118856241Y-110682753D01*
X118856240Y-110682753D01*
X118694957Y-110657208D01*
X118646287Y-110649500D01*
X118433713Y-110649500D01*
X118385042Y-110657208D01*
X118223760Y-110682753D01*
X118021585Y-110748444D01*
X117832179Y-110844951D01*
X117660213Y-110969890D01*
X117509890Y-111120213D01*
X117384949Y-111292182D01*
X117380202Y-111301499D01*
X117332227Y-111352293D01*
X117264405Y-111369087D01*
X117198271Y-111346548D01*
X117159234Y-111301495D01*
X117154626Y-111292452D01*
X117115270Y-111238282D01*
X117115269Y-111238282D01*
X116482962Y-111870590D01*
X116465925Y-111807007D01*
X116400099Y-111692993D01*
X116307007Y-111599901D01*
X116192993Y-111534075D01*
X116129409Y-111517037D01*
X116761716Y-110884728D01*
X116707550Y-110845375D01*
X116518217Y-110748904D01*
X116316129Y-110683242D01*
X116106246Y-110650000D01*
X115893754Y-110650000D01*
X115683872Y-110683242D01*
X115683869Y-110683242D01*
X115481782Y-110748904D01*
X115292439Y-110845380D01*
X115238282Y-110884727D01*
X115238282Y-110884728D01*
X115870591Y-111517037D01*
X115807007Y-111534075D01*
X115692993Y-111599901D01*
X115599901Y-111692993D01*
X115534075Y-111807007D01*
X115517037Y-111870591D01*
X114846818Y-111200372D01*
X114813333Y-111139049D01*
X114813330Y-111139036D01*
X114810499Y-111126015D01*
X114810499Y-111102128D01*
X114804091Y-111042517D01*
X114771462Y-110955034D01*
X114753798Y-110907673D01*
X114753793Y-110907664D01*
X114667547Y-110792455D01*
X114667544Y-110792452D01*
X114552335Y-110706206D01*
X114552328Y-110706202D01*
X114417482Y-110655908D01*
X114417483Y-110655908D01*
X114357883Y-110649501D01*
X114357881Y-110649500D01*
X114357873Y-110649500D01*
X114357864Y-110649500D01*
X112562129Y-110649500D01*
X112562123Y-110649501D01*
X112502516Y-110655908D01*
X112367671Y-110706202D01*
X112367664Y-110706206D01*
X112252455Y-110792452D01*
X112252452Y-110792455D01*
X112166206Y-110907664D01*
X112166202Y-110907671D01*
X112115908Y-111042517D01*
X112109501Y-111102116D01*
X112109500Y-111102135D01*
X89500500Y-111102135D01*
X89500500Y-105831491D01*
X97999500Y-105831491D01*
X97999500Y-106168508D01*
X98037231Y-106503381D01*
X98037233Y-106503397D01*
X98112223Y-106831953D01*
X98112227Y-106831965D01*
X98223532Y-107150054D01*
X98369752Y-107453683D01*
X98369754Y-107453686D01*
X98549054Y-107739039D01*
X98759175Y-108002523D01*
X98997477Y-108240825D01*
X99260961Y-108450946D01*
X99546314Y-108630246D01*
X99849949Y-108776469D01*
X100088848Y-108860063D01*
X100168034Y-108887772D01*
X100168046Y-108887776D01*
X100496606Y-108962767D01*
X100831492Y-109000499D01*
X100831493Y-109000500D01*
X100831496Y-109000500D01*
X101168507Y-109000500D01*
X101168507Y-109000499D01*
X101503394Y-108962767D01*
X101831954Y-108887776D01*
X102150051Y-108776469D01*
X102453686Y-108630246D01*
X102739039Y-108450946D01*
X103002523Y-108240825D01*
X103240825Y-108002523D01*
X103450946Y-107739039D01*
X103630246Y-107453686D01*
X103776469Y-107150051D01*
X103887776Y-106831954D01*
X103962767Y-106503394D01*
X104000500Y-106168504D01*
X104000500Y-105831496D01*
X103962767Y-105496606D01*
X103887776Y-105168046D01*
X103885609Y-105161854D01*
X103808535Y-104941588D01*
X103776469Y-104849949D01*
X103630246Y-104546314D01*
X103450946Y-104260961D01*
X103240825Y-103997477D01*
X103002523Y-103759175D01*
X103000628Y-103757664D01*
X102907717Y-103683570D01*
X102739039Y-103549054D01*
X102453686Y-103369754D01*
X102453683Y-103369752D01*
X102150054Y-103223532D01*
X101831965Y-103112227D01*
X101831953Y-103112223D01*
X101503397Y-103037233D01*
X101503381Y-103037231D01*
X101168508Y-102999500D01*
X101168504Y-102999500D01*
X100831496Y-102999500D01*
X100831491Y-102999500D01*
X100496618Y-103037231D01*
X100496602Y-103037233D01*
X100168046Y-103112223D01*
X100168034Y-103112227D01*
X99849945Y-103223532D01*
X99546316Y-103369752D01*
X99260962Y-103549053D01*
X98997477Y-103759174D01*
X98759174Y-103997477D01*
X98549053Y-104260962D01*
X98369752Y-104546316D01*
X98223532Y-104849945D01*
X98112227Y-105168034D01*
X98112223Y-105168046D01*
X98037233Y-105496602D01*
X98037231Y-105496618D01*
X97999500Y-105831491D01*
X89500500Y-105831491D01*
X89500500Y-99361229D01*
X89520185Y-99294190D01*
X89572989Y-99248435D01*
X89642147Y-99238491D01*
X89705703Y-99267516D01*
X89712168Y-99273536D01*
X90917048Y-100478415D01*
X90917049Y-100478416D01*
X91021584Y-100582951D01*
X91021585Y-100582952D01*
X91144498Y-100665080D01*
X91144511Y-100665087D01*
X91281082Y-100721656D01*
X91281087Y-100721658D01*
X91281091Y-100721658D01*
X91281092Y-100721659D01*
X91426079Y-100750500D01*
X91426082Y-100750500D01*
X113946042Y-100750500D01*
X114013081Y-100770185D01*
X114051580Y-100809402D01*
X114057288Y-100818656D01*
X114181344Y-100942712D01*
X114190591Y-100948416D01*
X114237318Y-101000360D01*
X114249500Y-101053957D01*
X114249500Y-101073918D01*
X114249500Y-101073920D01*
X114249499Y-101073920D01*
X114278340Y-101218907D01*
X114278343Y-101218917D01*
X114334914Y-101355492D01*
X114367812Y-101404727D01*
X114367813Y-101404730D01*
X114417046Y-101478414D01*
X114417052Y-101478421D01*
X115133181Y-102194548D01*
X115166666Y-102255871D01*
X115169500Y-102282229D01*
X115169500Y-103638582D01*
X115149815Y-103705621D01*
X115118386Y-103738899D01*
X114973434Y-103844214D01*
X114973432Y-103844216D01*
X114973431Y-103844216D01*
X114811716Y-104005931D01*
X114811716Y-104005932D01*
X114811714Y-104005934D01*
X114790401Y-104035269D01*
X114677283Y-104190961D01*
X114573450Y-104394744D01*
X114502778Y-104612250D01*
X114502778Y-104612253D01*
X114467000Y-104838146D01*
X114467000Y-105161853D01*
X114502778Y-105387746D01*
X114502778Y-105387749D01*
X114573450Y-105605255D01*
X114573452Y-105605258D01*
X114677283Y-105809038D01*
X114811714Y-105994066D01*
X114973434Y-106155786D01*
X115158462Y-106290217D01*
X115255747Y-106339786D01*
X115362244Y-106394049D01*
X115579751Y-106464721D01*
X115579752Y-106464721D01*
X115579755Y-106464722D01*
X115805646Y-106500500D01*
X115805647Y-106500500D01*
X116034353Y-106500500D01*
X116034354Y-106500500D01*
X116260245Y-106464722D01*
X116260248Y-106464721D01*
X116260249Y-106464721D01*
X116477755Y-106394049D01*
X116477755Y-106394048D01*
X116477758Y-106394048D01*
X116681538Y-106290217D01*
X116866566Y-106155786D01*
X117028286Y-105994066D01*
X117089992Y-105909134D01*
X117145319Y-105866470D01*
X117214932Y-105860491D01*
X117276727Y-105893096D01*
X117290626Y-105909135D01*
X117352097Y-105993741D01*
X117352097Y-105993742D01*
X117513757Y-106155402D01*
X117698723Y-106289788D01*
X117902429Y-106393582D01*
X118119871Y-106464234D01*
X118210000Y-106478509D01*
X118210000Y-105490747D01*
X118247708Y-105512518D01*
X118387591Y-105550000D01*
X118532409Y-105550000D01*
X118672292Y-105512518D01*
X118710000Y-105490747D01*
X118710000Y-106478508D01*
X118800128Y-106464234D01*
X119017570Y-106393582D01*
X119221276Y-106289788D01*
X119404059Y-106156988D01*
X119469865Y-106133508D01*
X119537919Y-106149333D01*
X119586614Y-106199439D01*
X119593127Y-106213974D01*
X119603701Y-106242326D01*
X119603706Y-106242335D01*
X119689952Y-106357544D01*
X119689955Y-106357547D01*
X119805164Y-106443793D01*
X119805171Y-106443797D01*
X119940017Y-106494091D01*
X119940016Y-106494091D01*
X119946944Y-106494835D01*
X119999627Y-106500500D01*
X122000372Y-106500499D01*
X122059983Y-106494091D01*
X122194831Y-106443796D01*
X122310046Y-106357546D01*
X122396296Y-106242331D01*
X122446591Y-106107483D01*
X122453000Y-106047873D01*
X122452999Y-103952128D01*
X122446591Y-103892517D01*
X122436841Y-103866377D01*
X122396297Y-103757671D01*
X122396293Y-103757664D01*
X122310047Y-103642455D01*
X122310044Y-103642452D01*
X122194835Y-103556206D01*
X122194828Y-103556202D01*
X122059982Y-103505908D01*
X122059983Y-103505908D01*
X122000383Y-103499501D01*
X122000381Y-103499500D01*
X122000373Y-103499500D01*
X122000365Y-103499500D01*
X121874500Y-103499500D01*
X121807461Y-103479815D01*
X121761706Y-103427011D01*
X121750500Y-103375500D01*
X121750500Y-102363732D01*
X121770185Y-102296693D01*
X121822989Y-102250938D01*
X121835495Y-102246026D01*
X121869334Y-102234814D01*
X122018656Y-102142712D01*
X122142712Y-102018656D01*
X122234814Y-101869334D01*
X122289999Y-101702797D01*
X122300500Y-101600009D01*
X122300499Y-100399992D01*
X122289999Y-100297203D01*
X122234814Y-100130666D01*
X122142712Y-99981344D01*
X122018656Y-99857288D01*
X121869334Y-99765186D01*
X121807558Y-99744715D01*
X121750115Y-99704943D01*
X121723292Y-99640427D01*
X121722946Y-99617280D01*
X121725921Y-99579473D01*
X121046447Y-98900000D01*
X121052661Y-98900000D01*
X121154394Y-98872741D01*
X121245606Y-98820080D01*
X121320080Y-98745606D01*
X121372741Y-98654394D01*
X121400000Y-98552661D01*
X121400000Y-98546448D01*
X122079474Y-99225922D01*
X122079474Y-99225921D01*
X122111859Y-99181349D01*
X122204755Y-98999031D01*
X122267990Y-98804417D01*
X122300000Y-98602317D01*
X122300000Y-98397682D01*
X122267990Y-98195582D01*
X122204755Y-98000968D01*
X122111859Y-97818650D01*
X122079474Y-97774077D01*
X122079474Y-97774076D01*
X121400000Y-98453551D01*
X121400000Y-98447339D01*
X121372741Y-98345606D01*
X121320080Y-98254394D01*
X121245606Y-98179920D01*
X121154394Y-98127259D01*
X121052661Y-98100000D01*
X121046446Y-98100000D01*
X121725922Y-97420524D01*
X121725921Y-97420523D01*
X121681359Y-97388147D01*
X121681350Y-97388141D01*
X121499031Y-97295244D01*
X121304417Y-97232009D01*
X121102317Y-97200000D01*
X120897683Y-97200000D01*
X120695582Y-97232009D01*
X120500968Y-97295244D01*
X120318644Y-97388143D01*
X120274077Y-97420523D01*
X120274077Y-97420524D01*
X120953554Y-98100000D01*
X120947339Y-98100000D01*
X120845606Y-98127259D01*
X120754394Y-98179920D01*
X120679920Y-98254394D01*
X120627259Y-98345606D01*
X120600000Y-98447339D01*
X120600000Y-98453553D01*
X119920524Y-97774077D01*
X119920523Y-97774077D01*
X119888143Y-97818644D01*
X119795244Y-98000968D01*
X119732009Y-98195582D01*
X119700000Y-98397682D01*
X119700000Y-98602317D01*
X119732009Y-98804417D01*
X119795244Y-98999031D01*
X119888141Y-99181350D01*
X119888147Y-99181359D01*
X119920523Y-99225921D01*
X119920524Y-99225922D01*
X120600000Y-98546446D01*
X120600000Y-98552661D01*
X120627259Y-98654394D01*
X120679920Y-98745606D01*
X120754394Y-98820080D01*
X120845606Y-98872741D01*
X120947339Y-98900000D01*
X120953553Y-98900000D01*
X120274076Y-99579474D01*
X120277052Y-99617282D01*
X120262687Y-99685659D01*
X120213636Y-99735415D01*
X120192440Y-99744715D01*
X120130672Y-99765184D01*
X120130663Y-99765187D01*
X119981342Y-99857289D01*
X119857289Y-99981342D01*
X119765187Y-100130663D01*
X119765186Y-100130666D01*
X119710001Y-100297203D01*
X119710001Y-100297204D01*
X119710000Y-100297204D01*
X119699500Y-100399983D01*
X119699500Y-101600001D01*
X119699501Y-101600018D01*
X119710000Y-101702796D01*
X119710001Y-101702799D01*
X119746513Y-101812983D01*
X119765186Y-101869334D01*
X119857288Y-102018656D01*
X119981344Y-102142712D01*
X120130666Y-102234814D01*
X120164500Y-102246025D01*
X120221947Y-102285796D01*
X120248772Y-102350311D01*
X120249500Y-102363732D01*
X120249500Y-103375500D01*
X120229815Y-103442539D01*
X120177011Y-103488294D01*
X120125501Y-103499500D01*
X119999630Y-103499500D01*
X119999623Y-103499501D01*
X119940016Y-103505908D01*
X119805171Y-103556202D01*
X119805164Y-103556206D01*
X119689955Y-103642452D01*
X119689952Y-103642455D01*
X119603706Y-103757664D01*
X119603702Y-103757671D01*
X119593127Y-103786026D01*
X119551256Y-103841960D01*
X119485791Y-103866377D01*
X119417518Y-103851525D01*
X119404060Y-103843011D01*
X119221279Y-103710213D01*
X119017568Y-103606417D01*
X118800124Y-103535765D01*
X118710000Y-103521490D01*
X118710000Y-104509252D01*
X118672292Y-104487482D01*
X118532409Y-104450000D01*
X118387591Y-104450000D01*
X118247708Y-104487482D01*
X118210000Y-104509252D01*
X118210000Y-103521490D01*
X118209999Y-103521490D01*
X118119875Y-103535765D01*
X117902431Y-103606417D01*
X117698723Y-103710211D01*
X117513757Y-103844597D01*
X117352097Y-104006257D01*
X117290627Y-104090864D01*
X117235297Y-104133529D01*
X117165684Y-104139508D01*
X117103889Y-104106902D01*
X117089991Y-104090864D01*
X117028286Y-104005934D01*
X116866566Y-103844214D01*
X116721613Y-103738899D01*
X116678949Y-103683570D01*
X116670500Y-103638582D01*
X116670500Y-101846079D01*
X116641659Y-101701092D01*
X116641658Y-101701091D01*
X116641658Y-101701087D01*
X116641656Y-101701082D01*
X116585087Y-101564511D01*
X116585080Y-101564498D01*
X116502952Y-101441585D01*
X116466094Y-101404727D01*
X116398416Y-101337049D01*
X115988125Y-100926758D01*
X115954640Y-100865435D01*
X115959624Y-100795743D01*
X115970262Y-100773989D01*
X116034814Y-100669334D01*
X116089999Y-100502797D01*
X116100500Y-100400009D01*
X116100499Y-99599992D01*
X116089999Y-99497203D01*
X116034814Y-99330666D01*
X115942712Y-99181344D01*
X115818656Y-99057288D01*
X115669334Y-98965186D01*
X115669332Y-98965185D01*
X115669330Y-98965184D01*
X115669331Y-98965184D01*
X115610929Y-98945831D01*
X115562254Y-98915807D01*
X115000001Y-98353553D01*
X115000000Y-98353553D01*
X114437742Y-98915809D01*
X114389066Y-98945834D01*
X114330666Y-98965186D01*
X114181342Y-99057289D01*
X114057287Y-99181344D01*
X114051580Y-99190598D01*
X113999632Y-99237322D01*
X113946042Y-99249500D01*
X108431275Y-99249500D01*
X108364236Y-99229815D01*
X108318481Y-99177011D01*
X108308537Y-99107853D01*
X108337562Y-99044297D01*
X108374980Y-99015015D01*
X108395572Y-99004523D01*
X108545136Y-98895859D01*
X108675859Y-98765136D01*
X108784523Y-98615572D01*
X108868452Y-98450852D01*
X108887776Y-98391378D01*
X108925580Y-98275030D01*
X108954500Y-98092440D01*
X108954500Y-97913428D01*
X113900000Y-97913428D01*
X113900000Y-98086571D01*
X113927085Y-98257584D01*
X113980592Y-98422259D01*
X114059196Y-98576525D01*
X114063709Y-98582736D01*
X114063709Y-98582737D01*
X114646446Y-98000001D01*
X114646446Y-97999999D01*
X114606951Y-97960504D01*
X114700000Y-97960504D01*
X114700000Y-98039496D01*
X114720444Y-98115796D01*
X114759940Y-98184205D01*
X114815795Y-98240060D01*
X114884204Y-98279556D01*
X114960504Y-98300000D01*
X115039496Y-98300000D01*
X115115796Y-98279556D01*
X115184205Y-98240060D01*
X115240060Y-98184205D01*
X115279556Y-98115796D01*
X115300000Y-98039496D01*
X115300000Y-97999999D01*
X115353553Y-97999999D01*
X115353553Y-98000001D01*
X115936289Y-98582737D01*
X115936289Y-98582736D01*
X115940803Y-98576525D01*
X116019408Y-98422257D01*
X116041425Y-98354497D01*
X116072913Y-98257584D01*
X116100000Y-98086571D01*
X116100000Y-97913428D01*
X116072914Y-97742415D01*
X116019406Y-97577737D01*
X115992066Y-97524080D01*
X115992064Y-97524078D01*
X115940801Y-97423471D01*
X115936290Y-97417262D01*
X115936289Y-97417261D01*
X115353553Y-97999999D01*
X115300000Y-97999999D01*
X115300000Y-97960504D01*
X115279556Y-97884204D01*
X115240060Y-97815795D01*
X115184205Y-97759940D01*
X115115796Y-97720444D01*
X115039496Y-97700000D01*
X114960504Y-97700000D01*
X114884204Y-97720444D01*
X114815795Y-97759940D01*
X114759940Y-97815795D01*
X114720444Y-97884204D01*
X114700000Y-97960504D01*
X114606951Y-97960504D01*
X114063709Y-97417261D01*
X114063708Y-97417261D01*
X114059203Y-97423463D01*
X114059193Y-97423480D01*
X113980592Y-97577740D01*
X113927085Y-97742415D01*
X113900000Y-97913428D01*
X108954500Y-97913428D01*
X108954500Y-97907559D01*
X108925580Y-97724969D01*
X108868453Y-97549150D01*
X108868452Y-97549147D01*
X108836149Y-97485750D01*
X108784523Y-97384428D01*
X108769887Y-97364283D01*
X108675864Y-97234870D01*
X108675860Y-97234865D01*
X108545134Y-97104139D01*
X108545129Y-97104135D01*
X108489485Y-97063708D01*
X114417261Y-97063708D01*
X114417261Y-97063709D01*
X115000000Y-97646446D01*
X115000001Y-97646446D01*
X115582737Y-97063709D01*
X115576525Y-97059196D01*
X115422259Y-96980592D01*
X115257584Y-96927085D01*
X115086571Y-96900000D01*
X114913429Y-96900000D01*
X114742415Y-96927085D01*
X114577740Y-96980592D01*
X114423480Y-97059193D01*
X114423463Y-97059203D01*
X114417261Y-97063708D01*
X108489485Y-97063708D01*
X108395575Y-96995479D01*
X108395574Y-96995478D01*
X108395572Y-96995477D01*
X108342799Y-96968588D01*
X108230852Y-96911547D01*
X108230849Y-96911546D01*
X108055030Y-96854419D01*
X107872440Y-96825500D01*
X107872435Y-96825500D01*
X107687565Y-96825500D01*
X107687560Y-96825500D01*
X107504969Y-96854419D01*
X107329150Y-96911546D01*
X107329147Y-96911547D01*
X107164424Y-96995479D01*
X107014870Y-97104135D01*
X107014865Y-97104139D01*
X106884139Y-97234865D01*
X106884135Y-97234870D01*
X106775479Y-97384424D01*
X106691547Y-97549147D01*
X106691546Y-97549150D01*
X106634420Y-97724969D01*
X106632473Y-97737263D01*
X106602543Y-97800397D01*
X106543231Y-97837328D01*
X106473369Y-97836330D01*
X106415136Y-97797719D01*
X106387527Y-97737263D01*
X106387192Y-97735150D01*
X106385580Y-97724971D01*
X106339485Y-97583105D01*
X106328453Y-97549150D01*
X106328452Y-97549147D01*
X106296149Y-97485750D01*
X106244523Y-97384428D01*
X106229887Y-97364283D01*
X106135864Y-97234870D01*
X106135860Y-97234865D01*
X106005134Y-97104139D01*
X106005129Y-97104135D01*
X105855575Y-96995479D01*
X105855574Y-96995478D01*
X105855572Y-96995477D01*
X105802799Y-96968588D01*
X105690852Y-96911547D01*
X105690849Y-96911546D01*
X105515030Y-96854419D01*
X105332440Y-96825500D01*
X105332435Y-96825500D01*
X105147565Y-96825500D01*
X105147560Y-96825500D01*
X104964969Y-96854419D01*
X104789150Y-96911546D01*
X104789147Y-96911547D01*
X104624424Y-96995479D01*
X104474870Y-97104135D01*
X104474865Y-97104139D01*
X104344139Y-97234865D01*
X104344135Y-97234870D01*
X104235479Y-97384424D01*
X104151547Y-97549147D01*
X104151546Y-97549150D01*
X104094420Y-97724969D01*
X104092473Y-97737263D01*
X104062543Y-97800397D01*
X104003231Y-97837328D01*
X103933369Y-97836330D01*
X103875136Y-97797719D01*
X103847527Y-97737263D01*
X103847192Y-97735150D01*
X103845580Y-97724971D01*
X103799485Y-97583105D01*
X103788453Y-97549150D01*
X103788452Y-97549147D01*
X103756149Y-97485750D01*
X103704523Y-97384428D01*
X103689887Y-97364283D01*
X103595864Y-97234870D01*
X103595860Y-97234865D01*
X103465134Y-97104139D01*
X103465129Y-97104135D01*
X103315575Y-96995479D01*
X103315574Y-96995478D01*
X103315572Y-96995477D01*
X103262799Y-96968588D01*
X103150852Y-96911547D01*
X103150849Y-96911546D01*
X102975030Y-96854419D01*
X102792440Y-96825500D01*
X102792435Y-96825500D01*
X102607565Y-96825500D01*
X102607560Y-96825500D01*
X102424969Y-96854419D01*
X102249150Y-96911546D01*
X102249147Y-96911547D01*
X102084424Y-96995479D01*
X101934870Y-97104135D01*
X101934865Y-97104139D01*
X101804139Y-97234865D01*
X101804135Y-97234870D01*
X101695479Y-97384424D01*
X101611547Y-97549147D01*
X101611546Y-97549150D01*
X101554420Y-97724969D01*
X101552473Y-97737263D01*
X101522543Y-97800397D01*
X101463231Y-97837328D01*
X101393369Y-97836330D01*
X101335136Y-97797719D01*
X101307527Y-97737263D01*
X101307192Y-97735150D01*
X101305580Y-97724971D01*
X101259485Y-97583105D01*
X101248453Y-97549150D01*
X101248452Y-97549147D01*
X101216149Y-97485750D01*
X101164523Y-97384428D01*
X101149887Y-97364283D01*
X101055864Y-97234870D01*
X101055860Y-97234865D01*
X100925134Y-97104139D01*
X100925129Y-97104135D01*
X100775575Y-96995479D01*
X100775574Y-96995478D01*
X100775572Y-96995477D01*
X100722799Y-96968588D01*
X100610852Y-96911547D01*
X100610849Y-96911546D01*
X100435030Y-96854419D01*
X100252440Y-96825500D01*
X100252435Y-96825500D01*
X100067565Y-96825500D01*
X100067560Y-96825500D01*
X99884969Y-96854419D01*
X99709150Y-96911546D01*
X99709147Y-96911547D01*
X99544424Y-96995479D01*
X99394870Y-97104135D01*
X99394865Y-97104139D01*
X99264139Y-97234865D01*
X99264135Y-97234870D01*
X99155479Y-97384424D01*
X99071547Y-97549147D01*
X99071546Y-97549150D01*
X99014420Y-97724969D01*
X99012473Y-97737263D01*
X98982543Y-97800397D01*
X98923231Y-97837328D01*
X98853369Y-97836330D01*
X98795136Y-97797719D01*
X98767527Y-97737263D01*
X98767192Y-97735150D01*
X98765580Y-97724971D01*
X98719485Y-97583105D01*
X98708453Y-97549150D01*
X98708452Y-97549147D01*
X98676149Y-97485750D01*
X98624523Y-97384428D01*
X98609887Y-97364283D01*
X98515864Y-97234870D01*
X98515860Y-97234865D01*
X98385134Y-97104139D01*
X98385129Y-97104135D01*
X98235575Y-96995479D01*
X98235574Y-96995478D01*
X98235572Y-96995477D01*
X98182799Y-96968588D01*
X98070852Y-96911547D01*
X98070849Y-96911546D01*
X97895030Y-96854419D01*
X97712440Y-96825500D01*
X97712435Y-96825500D01*
X97527565Y-96825500D01*
X97527560Y-96825500D01*
X97344969Y-96854419D01*
X97169150Y-96911546D01*
X97169147Y-96911547D01*
X97004424Y-96995479D01*
X96854870Y-97104135D01*
X96854865Y-97104139D01*
X96724139Y-97234865D01*
X96724135Y-97234870D01*
X96615479Y-97384424D01*
X96531547Y-97549147D01*
X96531546Y-97549150D01*
X96474420Y-97724969D01*
X96472473Y-97737263D01*
X96442543Y-97800397D01*
X96383231Y-97837328D01*
X96313369Y-97836330D01*
X96255136Y-97797719D01*
X96227527Y-97737263D01*
X96227192Y-97735150D01*
X96225580Y-97724971D01*
X96179485Y-97583105D01*
X96168453Y-97549150D01*
X96168452Y-97549147D01*
X96136149Y-97485750D01*
X96084523Y-97384428D01*
X96069887Y-97364283D01*
X95975864Y-97234870D01*
X95975860Y-97234865D01*
X95845134Y-97104139D01*
X95845129Y-97104135D01*
X95695575Y-96995479D01*
X95695574Y-96995478D01*
X95695572Y-96995477D01*
X95642799Y-96968588D01*
X95530852Y-96911547D01*
X95530849Y-96911546D01*
X95355030Y-96854419D01*
X95172440Y-96825500D01*
X95172435Y-96825500D01*
X94987565Y-96825500D01*
X94987560Y-96825500D01*
X94804969Y-96854419D01*
X94629150Y-96911546D01*
X94629147Y-96911547D01*
X94464424Y-96995479D01*
X94314870Y-97104135D01*
X94314865Y-97104139D01*
X94184139Y-97234865D01*
X94184135Y-97234870D01*
X94075479Y-97384424D01*
X93991547Y-97549147D01*
X93991546Y-97549150D01*
X93934419Y-97724971D01*
X93932218Y-97738867D01*
X93902286Y-97802000D01*
X93842973Y-97838928D01*
X93773110Y-97837927D01*
X93714879Y-97799315D01*
X93687272Y-97738857D01*
X93685091Y-97725087D01*
X93627986Y-97549338D01*
X93544092Y-97384686D01*
X93529269Y-97364283D01*
X93529268Y-97364283D01*
X92957642Y-97935909D01*
X92931378Y-97837886D01*
X92876084Y-97742114D01*
X92797886Y-97663916D01*
X92702114Y-97608622D01*
X92604090Y-97582356D01*
X93175716Y-97010730D01*
X93155307Y-96995903D01*
X93155303Y-96995900D01*
X92990664Y-96912014D01*
X92814908Y-96854907D01*
X92632395Y-96826000D01*
X92447605Y-96826000D01*
X92265091Y-96854907D01*
X92089338Y-96912013D01*
X91924692Y-96995903D01*
X91924688Y-96995906D01*
X91904283Y-97010729D01*
X91904283Y-97010730D01*
X92475910Y-97582356D01*
X92377886Y-97608622D01*
X92282114Y-97663916D01*
X92203916Y-97742114D01*
X92148622Y-97837886D01*
X92122356Y-97935910D01*
X91550730Y-97364283D01*
X91550729Y-97364283D01*
X91535906Y-97384688D01*
X91535903Y-97384692D01*
X91452013Y-97549338D01*
X91394908Y-97725088D01*
X91392726Y-97738864D01*
X91362795Y-97801998D01*
X91303483Y-97838928D01*
X91233620Y-97837928D01*
X91175388Y-97799317D01*
X91147780Y-97738860D01*
X91145580Y-97724970D01*
X91088453Y-97549150D01*
X91088452Y-97549147D01*
X91056149Y-97485750D01*
X91004523Y-97384428D01*
X90989887Y-97364283D01*
X90895864Y-97234870D01*
X90895860Y-97234865D01*
X90765134Y-97104139D01*
X90765129Y-97104135D01*
X90615575Y-96995479D01*
X90615574Y-96995478D01*
X90615572Y-96995477D01*
X90562799Y-96968588D01*
X90450852Y-96911547D01*
X90450849Y-96911546D01*
X90275030Y-96854420D01*
X90224088Y-96846351D01*
X90218602Y-96843750D01*
X90212535Y-96843953D01*
X90187397Y-96828957D01*
X90160953Y-96816421D01*
X90157744Y-96811268D01*
X90152531Y-96808158D01*
X90139491Y-96781952D01*
X90124023Y-96757109D01*
X90124109Y-96751039D01*
X90121405Y-96745604D01*
X90124602Y-96716510D01*
X90125021Y-96687246D01*
X90128545Y-96680642D01*
X90129039Y-96676153D01*
X90147118Y-96645846D01*
X90266858Y-96497979D01*
X90275525Y-96488354D01*
X90488354Y-96275525D01*
X90497979Y-96266858D01*
X90731899Y-96077434D01*
X90742380Y-96069819D01*
X90994808Y-95905891D01*
X91006023Y-95899415D01*
X91274215Y-95762763D01*
X91286054Y-95757493D01*
X91567040Y-95649633D01*
X91579368Y-95645627D01*
X91870107Y-95567723D01*
X91882786Y-95565029D01*
X92180046Y-95517949D01*
X92192951Y-95516592D01*
X92496756Y-95500669D01*
X92503246Y-95500500D01*
X92565892Y-95500500D01*
X124967473Y-95500500D01*
X125034512Y-95520185D01*
G37*
%TD.AperFunction*%
%TA.AperFunction,Conductor*%
G36*
X129115270Y-103681717D02*
G01*
X129115270Y-103681716D01*
X129154622Y-103627554D01*
X129251093Y-103438221D01*
X129257568Y-103418294D01*
X129297005Y-103360618D01*
X129361363Y-103333419D01*
X129430210Y-103345333D01*
X129481686Y-103392576D01*
X129499500Y-103456611D01*
X129499500Y-104921773D01*
X129479815Y-104988812D01*
X129427011Y-105034567D01*
X129357853Y-105044511D01*
X129294297Y-105015486D01*
X129257570Y-104960094D01*
X129251557Y-104941588D01*
X129155051Y-104752184D01*
X129155049Y-104752181D01*
X129155048Y-104752179D01*
X129030109Y-104580213D01*
X128879786Y-104429890D01*
X128707817Y-104304949D01*
X128698504Y-104300204D01*
X128647707Y-104252230D01*
X128630912Y-104184409D01*
X128653449Y-104118274D01*
X128698507Y-104079232D01*
X128707555Y-104074622D01*
X128761716Y-104035270D01*
X128761717Y-104035270D01*
X128129408Y-103402962D01*
X128192993Y-103385925D01*
X128307007Y-103320099D01*
X128400099Y-103227007D01*
X128465925Y-103112993D01*
X128482962Y-103049408D01*
X129115270Y-103681717D01*
G37*
%TD.AperFunction*%
%TA.AperFunction,Conductor*%
G36*
X93529268Y-98635716D02*
G01*
X93529268Y-98635715D01*
X93544094Y-98615310D01*
X93627986Y-98450661D01*
X93685091Y-98274911D01*
X93687272Y-98261143D01*
X93717199Y-98198007D01*
X93776509Y-98161073D01*
X93846372Y-98162068D01*
X93904606Y-98200676D01*
X93932219Y-98261133D01*
X93932220Y-98261140D01*
X93934420Y-98275029D01*
X93934420Y-98275031D01*
X93934421Y-98275033D01*
X93991546Y-98450849D01*
X93991547Y-98450852D01*
X94043422Y-98552661D01*
X94068723Y-98602317D01*
X94075479Y-98615575D01*
X94184135Y-98765129D01*
X94184139Y-98765134D01*
X94314865Y-98895860D01*
X94314870Y-98895864D01*
X94464423Y-99004520D01*
X94464425Y-99004521D01*
X94464428Y-99004523D01*
X94485020Y-99015015D01*
X94535816Y-99062990D01*
X94552611Y-99130811D01*
X94530074Y-99196945D01*
X94475359Y-99240397D01*
X94428725Y-99249500D01*
X93190173Y-99249500D01*
X93123134Y-99229815D01*
X93077379Y-99177011D01*
X93067435Y-99107853D01*
X93096460Y-99044297D01*
X93133878Y-99015015D01*
X93155310Y-99004094D01*
X93175715Y-98989268D01*
X93175716Y-98989268D01*
X92604089Y-98417643D01*
X92702114Y-98391378D01*
X92797886Y-98336084D01*
X92876084Y-98257886D01*
X92931378Y-98162114D01*
X92957643Y-98064090D01*
X93529268Y-98635716D01*
G37*
%TD.AperFunction*%
%TD*%
M02*
