M48
; DRILL file {KiCad 9.0.7} date 2026-01-23T22:12:38-0500
; FORMAT={-:-/ absolute / metric / decimal}
; #@! TF.CreationDate,2026-01-23T22:12:38-05:00
; #@! TF.GenerationSoftware,Kicad,Pcbnew,9.0.7
; #@! TF.FileFunction,Plated,1,2,PTH
FMAT,2
METRIC
; #@! TA.AperFunction,Plated,PTH,ComponentDrill
T1C0.600
; #@! TA.AperFunction,Plated,PTH,ComponentDrill
T2C0.800
; #@! TA.AperFunction,Plated,PTH,ComponentDrill
T3C0.840
; #@! TA.AperFunction,Plated,PTH,ComponentDrill
T4C1.000
; #@! TA.AperFunction,Plated,PTH,ComponentDrill
T5C1.100
; #@! TA.AperFunction,Plated,PTH,ComponentDrill
T6C2.500
%
G90
G05
T1
X115.0Y-98.0
X115.0Y-100.0
T2
X121.0Y-98.5
X121.0Y-101.0
T3
X90.0Y-98.0
X90.0Y-113.24
X92.54Y-98.0
X92.54Y-113.24
X95.08Y-98.0
X95.08Y-113.24
X97.62Y-98.0
X97.62Y-113.24
X100.16Y-98.0
X100.16Y-113.24
X102.7Y-98.0
X102.7Y-113.24
X105.24Y-98.0
X105.24Y-113.24
X107.78Y-98.0
X107.78Y-113.24
T4
X113.46Y-112.0
X116.0Y-112.0
X118.54Y-112.0
X128.0Y-102.92
X128.0Y-105.46
X128.0Y-108.0
X128.0Y-110.54
X128.0Y-113.08
T5
X115.92Y-105.0
X118.46Y-105.0
X121.0Y-105.0
T6
X101.0Y-106.0
X123.31Y-111.545
X127.0Y-98.0
M30
