%TF.GenerationSoftware,KiCad,Pcbnew,9.0.7*%
%TF.CreationDate,2026-01-23T22:12:35-05:00*%
%TF.ProjectId,pcb,7063622e-6b69-4636-9164-5f7063625858,rev?*%
%TF.SameCoordinates,Original*%
%TF.FileFunction,Copper,L1,Top*%
%TF.FilePolarity,Positive*%
%FSLAX46Y46*%
G04 Gerber Fmt 4.6, Leading zero omitted, Abs format (unit mm)*
G04 Created by KiCad (PCBNEW 9.0.7) date 2026-01-23 22:12:35*
%MOMM*%
%LPD*%
G01*
G04 APERTURE LIST*
G04 Aperture macros list*
%AMRoundRect*
0 Rectangle with rounded corners*
0 $1 Rounding radius*
0 $2 $3 $4 $5 $6 $7 $8 $9 X,Y pos of 4 corners*
0 Add a 4 corners polygon primitive as box body*
4,1,4,$2,$3,$4,$5,$6,$7,$8,$9,$2,$3,0*
0 Add four circle primitives for the rounded corners*
1,1,$1+$1,$2,$3*
1,1,$1+$1,$4,$5*
1,1,$1+$1,$6,$7*
1,1,$1+$1,$8,$9*
0 Add four rect primitives between the rounded corners*
20,1,$1+$1,$2,$3,$4,$5,0*
20,1,$1+$1,$4,$5,$6,$7,0*
20,1,$1+$1,$6,$7,$8,$9,0*
20,1,$1+$1,$8,$9,$2,$3,0*%
G04 Aperture macros list end*
%ADD10C,0.150000*%
%TA.AperFunction,NonConductor*%
%ADD11C,0.150000*%
%TD*%
%TA.AperFunction,ComponentPad*%
%ADD12C,5.000000*%
%TD*%
%TA.AperFunction,ComponentPad*%
%ADD13RoundRect,0.250000X0.550000X-0.550000X0.550000X0.550000X-0.550000X0.550000X-0.550000X-0.550000X0*%
%TD*%
%TA.AperFunction,ComponentPad*%
%ADD14C,1.600000*%
%TD*%
%TA.AperFunction,ComponentPad*%
%ADD15R,1.905000X2.000000*%
%TD*%
%TA.AperFunction,ComponentPad*%
%ADD16O,1.905000X2.000000*%
%TD*%
%TA.AperFunction,ComponentPad*%
%ADD17RoundRect,0.250000X0.350000X-0.350000X0.350000X0.350000X-0.350000X0.350000X-0.350000X-0.350000X0*%
%TD*%
%TA.AperFunction,ComponentPad*%
%ADD18C,1.200000*%
%TD*%
%TA.AperFunction,ComponentPad*%
%ADD19R,1.700000X1.700000*%
%TD*%
%TA.AperFunction,ComponentPad*%
%ADD20C,1.700000*%
%TD*%
%TA.AperFunction,ComponentPad*%
%ADD21C,1.348000*%
%TD*%
%TA.AperFunction,Conductor*%
%ADD22C,0.500000*%
%TD*%
%TA.AperFunction,Conductor*%
%ADD23C,0.250000*%
%TD*%
G04 APERTURE END LIST*
D10*
D11*
X90360588Y-100757774D02*
X90265350Y-100710155D01*
X90265350Y-100710155D02*
X90122493Y-100710155D01*
X90122493Y-100710155D02*
X89979636Y-100757774D01*
X89979636Y-100757774D02*
X89884398Y-100853012D01*
X89884398Y-100853012D02*
X89836779Y-100948250D01*
X89836779Y-100948250D02*
X89789160Y-101138726D01*
X89789160Y-101138726D02*
X89789160Y-101281583D01*
X89789160Y-101281583D02*
X89836779Y-101472059D01*
X89836779Y-101472059D02*
X89884398Y-101567297D01*
X89884398Y-101567297D02*
X89979636Y-101662536D01*
X89979636Y-101662536D02*
X90122493Y-101710155D01*
X90122493Y-101710155D02*
X90217731Y-101710155D01*
X90217731Y-101710155D02*
X90360588Y-101662536D01*
X90360588Y-101662536D02*
X90408207Y-101614916D01*
X90408207Y-101614916D02*
X90408207Y-101281583D01*
X90408207Y-101281583D02*
X90217731Y-101281583D01*
X91265350Y-101710155D02*
X91265350Y-101186345D01*
X91265350Y-101186345D02*
X91217731Y-101091107D01*
X91217731Y-101091107D02*
X91122493Y-101043488D01*
X91122493Y-101043488D02*
X90932017Y-101043488D01*
X90932017Y-101043488D02*
X90836779Y-101091107D01*
X91265350Y-101662536D02*
X91170112Y-101710155D01*
X91170112Y-101710155D02*
X90932017Y-101710155D01*
X90932017Y-101710155D02*
X90836779Y-101662536D01*
X90836779Y-101662536D02*
X90789160Y-101567297D01*
X90789160Y-101567297D02*
X90789160Y-101472059D01*
X90789160Y-101472059D02*
X90836779Y-101376821D01*
X90836779Y-101376821D02*
X90932017Y-101329202D01*
X90932017Y-101329202D02*
X91170112Y-101329202D01*
X91170112Y-101329202D02*
X91265350Y-101281583D01*
X91741541Y-101710155D02*
X91741541Y-100710155D01*
X91741541Y-101091107D02*
X91836779Y-101043488D01*
X91836779Y-101043488D02*
X92027255Y-101043488D01*
X92027255Y-101043488D02*
X92122493Y-101091107D01*
X92122493Y-101091107D02*
X92170112Y-101138726D01*
X92170112Y-101138726D02*
X92217731Y-101233964D01*
X92217731Y-101233964D02*
X92217731Y-101519678D01*
X92217731Y-101519678D02*
X92170112Y-101614916D01*
X92170112Y-101614916D02*
X92122493Y-101662536D01*
X92122493Y-101662536D02*
X92027255Y-101710155D01*
X92027255Y-101710155D02*
X91836779Y-101710155D01*
X91836779Y-101710155D02*
X91741541Y-101662536D01*
X92646303Y-101710155D02*
X92646303Y-101043488D01*
X92646303Y-101233964D02*
X92693922Y-101138726D01*
X92693922Y-101138726D02*
X92741541Y-101091107D01*
X92741541Y-101091107D02*
X92836779Y-101043488D01*
X92836779Y-101043488D02*
X92932017Y-101043488D01*
X93265351Y-101710155D02*
X93265351Y-101043488D01*
X93265351Y-100710155D02*
X93217732Y-100757774D01*
X93217732Y-100757774D02*
X93265351Y-100805393D01*
X93265351Y-100805393D02*
X93312970Y-100757774D01*
X93312970Y-100757774D02*
X93265351Y-100710155D01*
X93265351Y-100710155D02*
X93265351Y-100805393D01*
X94122493Y-101662536D02*
X94027255Y-101710155D01*
X94027255Y-101710155D02*
X93836779Y-101710155D01*
X93836779Y-101710155D02*
X93741541Y-101662536D01*
X93741541Y-101662536D02*
X93693922Y-101567297D01*
X93693922Y-101567297D02*
X93693922Y-101186345D01*
X93693922Y-101186345D02*
X93741541Y-101091107D01*
X93741541Y-101091107D02*
X93836779Y-101043488D01*
X93836779Y-101043488D02*
X94027255Y-101043488D01*
X94027255Y-101043488D02*
X94122493Y-101091107D01*
X94122493Y-101091107D02*
X94170112Y-101186345D01*
X94170112Y-101186345D02*
X94170112Y-101281583D01*
X94170112Y-101281583D02*
X93693922Y-101376821D01*
X94741541Y-101710155D02*
X94646303Y-101662536D01*
X94646303Y-101662536D02*
X94598684Y-101567297D01*
X94598684Y-101567297D02*
X94598684Y-100710155D01*
X96074875Y-100710155D02*
X96265351Y-100710155D01*
X96265351Y-100710155D02*
X96360589Y-100757774D01*
X96360589Y-100757774D02*
X96455827Y-100853012D01*
X96455827Y-100853012D02*
X96503446Y-101043488D01*
X96503446Y-101043488D02*
X96503446Y-101376821D01*
X96503446Y-101376821D02*
X96455827Y-101567297D01*
X96455827Y-101567297D02*
X96360589Y-101662536D01*
X96360589Y-101662536D02*
X96265351Y-101710155D01*
X96265351Y-101710155D02*
X96074875Y-101710155D01*
X96074875Y-101710155D02*
X95979637Y-101662536D01*
X95979637Y-101662536D02*
X95884399Y-101567297D01*
X95884399Y-101567297D02*
X95836780Y-101376821D01*
X95836780Y-101376821D02*
X95836780Y-101043488D01*
X95836780Y-101043488D02*
X95884399Y-100853012D01*
X95884399Y-100853012D02*
X95979637Y-100757774D01*
X95979637Y-100757774D02*
X96074875Y-100710155D01*
X96932018Y-101614916D02*
X96979637Y-101662536D01*
X96979637Y-101662536D02*
X96932018Y-101710155D01*
X96932018Y-101710155D02*
X96884399Y-101662536D01*
X96884399Y-101662536D02*
X96932018Y-101614916D01*
X96932018Y-101614916D02*
X96932018Y-101710155D01*
X98598684Y-101710155D02*
X98598684Y-100710155D01*
X98598684Y-101662536D02*
X98503446Y-101710155D01*
X98503446Y-101710155D02*
X98312970Y-101710155D01*
X98312970Y-101710155D02*
X98217732Y-101662536D01*
X98217732Y-101662536D02*
X98170113Y-101614916D01*
X98170113Y-101614916D02*
X98122494Y-101519678D01*
X98122494Y-101519678D02*
X98122494Y-101233964D01*
X98122494Y-101233964D02*
X98170113Y-101138726D01*
X98170113Y-101138726D02*
X98217732Y-101091107D01*
X98217732Y-101091107D02*
X98312970Y-101043488D01*
X98312970Y-101043488D02*
X98503446Y-101043488D01*
X98503446Y-101043488D02*
X98598684Y-101091107D01*
X99503446Y-101710155D02*
X99503446Y-101186345D01*
X99503446Y-101186345D02*
X99455827Y-101091107D01*
X99455827Y-101091107D02*
X99360589Y-101043488D01*
X99360589Y-101043488D02*
X99170113Y-101043488D01*
X99170113Y-101043488D02*
X99074875Y-101091107D01*
X99503446Y-101662536D02*
X99408208Y-101710155D01*
X99408208Y-101710155D02*
X99170113Y-101710155D01*
X99170113Y-101710155D02*
X99074875Y-101662536D01*
X99074875Y-101662536D02*
X99027256Y-101567297D01*
X99027256Y-101567297D02*
X99027256Y-101472059D01*
X99027256Y-101472059D02*
X99074875Y-101376821D01*
X99074875Y-101376821D02*
X99170113Y-101329202D01*
X99170113Y-101329202D02*
X99408208Y-101329202D01*
X99408208Y-101329202D02*
X99503446Y-101281583D01*
X100693923Y-101662536D02*
X100836780Y-101710155D01*
X100836780Y-101710155D02*
X101074875Y-101710155D01*
X101074875Y-101710155D02*
X101170113Y-101662536D01*
X101170113Y-101662536D02*
X101217732Y-101614916D01*
X101217732Y-101614916D02*
X101265351Y-101519678D01*
X101265351Y-101519678D02*
X101265351Y-101424440D01*
X101265351Y-101424440D02*
X101217732Y-101329202D01*
X101217732Y-101329202D02*
X101170113Y-101281583D01*
X101170113Y-101281583D02*
X101074875Y-101233964D01*
X101074875Y-101233964D02*
X100884399Y-101186345D01*
X100884399Y-101186345D02*
X100789161Y-101138726D01*
X100789161Y-101138726D02*
X100741542Y-101091107D01*
X100741542Y-101091107D02*
X100693923Y-100995869D01*
X100693923Y-100995869D02*
X100693923Y-100900631D01*
X100693923Y-100900631D02*
X100741542Y-100805393D01*
X100741542Y-100805393D02*
X100789161Y-100757774D01*
X100789161Y-100757774D02*
X100884399Y-100710155D01*
X100884399Y-100710155D02*
X101122494Y-100710155D01*
X101122494Y-100710155D02*
X101265351Y-100757774D01*
X101693923Y-101710155D02*
X101693923Y-101043488D01*
X101693923Y-100710155D02*
X101646304Y-100757774D01*
X101646304Y-100757774D02*
X101693923Y-100805393D01*
X101693923Y-100805393D02*
X101741542Y-100757774D01*
X101741542Y-100757774D02*
X101693923Y-100710155D01*
X101693923Y-100710155D02*
X101693923Y-100805393D01*
X102312970Y-101710155D02*
X102217732Y-101662536D01*
X102217732Y-101662536D02*
X102170113Y-101567297D01*
X102170113Y-101567297D02*
X102170113Y-100710155D01*
X102598685Y-101043488D02*
X102836780Y-101710155D01*
X102836780Y-101710155D02*
X103074875Y-101043488D01*
X103884399Y-101710155D02*
X103884399Y-101186345D01*
X103884399Y-101186345D02*
X103836780Y-101091107D01*
X103836780Y-101091107D02*
X103741542Y-101043488D01*
X103741542Y-101043488D02*
X103551066Y-101043488D01*
X103551066Y-101043488D02*
X103455828Y-101091107D01*
X103884399Y-101662536D02*
X103789161Y-101710155D01*
X103789161Y-101710155D02*
X103551066Y-101710155D01*
X103551066Y-101710155D02*
X103455828Y-101662536D01*
X103455828Y-101662536D02*
X103408209Y-101567297D01*
X103408209Y-101567297D02*
X103408209Y-101472059D01*
X103408209Y-101472059D02*
X103455828Y-101376821D01*
X103455828Y-101376821D02*
X103551066Y-101329202D01*
X103551066Y-101329202D02*
X103789161Y-101329202D01*
X103789161Y-101329202D02*
X103884399Y-101281583D01*
X89836779Y-103320099D02*
X89836779Y-102320099D01*
X89836779Y-102320099D02*
X90170112Y-103034384D01*
X90170112Y-103034384D02*
X90503445Y-102320099D01*
X90503445Y-102320099D02*
X90503445Y-103320099D01*
X90979636Y-103320099D02*
X90979636Y-102320099D01*
X91408207Y-103272480D02*
X91551064Y-103320099D01*
X91551064Y-103320099D02*
X91789159Y-103320099D01*
X91789159Y-103320099D02*
X91884397Y-103272480D01*
X91884397Y-103272480D02*
X91932016Y-103224860D01*
X91932016Y-103224860D02*
X91979635Y-103129622D01*
X91979635Y-103129622D02*
X91979635Y-103034384D01*
X91979635Y-103034384D02*
X91932016Y-102939146D01*
X91932016Y-102939146D02*
X91884397Y-102891527D01*
X91884397Y-102891527D02*
X91789159Y-102843908D01*
X91789159Y-102843908D02*
X91598683Y-102796289D01*
X91598683Y-102796289D02*
X91503445Y-102748670D01*
X91503445Y-102748670D02*
X91455826Y-102701051D01*
X91455826Y-102701051D02*
X91408207Y-102605813D01*
X91408207Y-102605813D02*
X91408207Y-102510575D01*
X91408207Y-102510575D02*
X91455826Y-102415337D01*
X91455826Y-102415337D02*
X91503445Y-102367718D01*
X91503445Y-102367718D02*
X91598683Y-102320099D01*
X91598683Y-102320099D02*
X91836778Y-102320099D01*
X91836778Y-102320099D02*
X91979635Y-102367718D01*
X92979635Y-103224860D02*
X92932016Y-103272480D01*
X92932016Y-103272480D02*
X92789159Y-103320099D01*
X92789159Y-103320099D02*
X92693921Y-103320099D01*
X92693921Y-103320099D02*
X92551064Y-103272480D01*
X92551064Y-103272480D02*
X92455826Y-103177241D01*
X92455826Y-103177241D02*
X92408207Y-103082003D01*
X92408207Y-103082003D02*
X92360588Y-102891527D01*
X92360588Y-102891527D02*
X92360588Y-102748670D01*
X92360588Y-102748670D02*
X92408207Y-102558194D01*
X92408207Y-102558194D02*
X92455826Y-102462956D01*
X92455826Y-102462956D02*
X92551064Y-102367718D01*
X92551064Y-102367718D02*
X92693921Y-102320099D01*
X92693921Y-102320099D02*
X92789159Y-102320099D01*
X92789159Y-102320099D02*
X92932016Y-102367718D01*
X92932016Y-102367718D02*
X92979635Y-102415337D01*
X94741540Y-103320099D02*
X94408207Y-102843908D01*
X94170112Y-103320099D02*
X94170112Y-102320099D01*
X94170112Y-102320099D02*
X94551064Y-102320099D01*
X94551064Y-102320099D02*
X94646302Y-102367718D01*
X94646302Y-102367718D02*
X94693921Y-102415337D01*
X94693921Y-102415337D02*
X94741540Y-102510575D01*
X94741540Y-102510575D02*
X94741540Y-102653432D01*
X94741540Y-102653432D02*
X94693921Y-102748670D01*
X94693921Y-102748670D02*
X94646302Y-102796289D01*
X94646302Y-102796289D02*
X94551064Y-102843908D01*
X94551064Y-102843908D02*
X94170112Y-102843908D01*
X95312969Y-103320099D02*
X95217731Y-103272480D01*
X95217731Y-103272480D02*
X95170112Y-103224860D01*
X95170112Y-103224860D02*
X95122493Y-103129622D01*
X95122493Y-103129622D02*
X95122493Y-102843908D01*
X95122493Y-102843908D02*
X95170112Y-102748670D01*
X95170112Y-102748670D02*
X95217731Y-102701051D01*
X95217731Y-102701051D02*
X95312969Y-102653432D01*
X95312969Y-102653432D02*
X95455826Y-102653432D01*
X95455826Y-102653432D02*
X95551064Y-102701051D01*
X95551064Y-102701051D02*
X95598683Y-102748670D01*
X95598683Y-102748670D02*
X95646302Y-102843908D01*
X95646302Y-102843908D02*
X95646302Y-103129622D01*
X95646302Y-103129622D02*
X95598683Y-103224860D01*
X95598683Y-103224860D02*
X95551064Y-103272480D01*
X95551064Y-103272480D02*
X95455826Y-103320099D01*
X95455826Y-103320099D02*
X95312969Y-103320099D01*
X96074874Y-103320099D02*
X96074874Y-102320099D01*
X96074874Y-102701051D02*
X96170112Y-102653432D01*
X96170112Y-102653432D02*
X96360588Y-102653432D01*
X96360588Y-102653432D02*
X96455826Y-102701051D01*
X96455826Y-102701051D02*
X96503445Y-102748670D01*
X96503445Y-102748670D02*
X96551064Y-102843908D01*
X96551064Y-102843908D02*
X96551064Y-103129622D01*
X96551064Y-103129622D02*
X96503445Y-103224860D01*
X96503445Y-103224860D02*
X96455826Y-103272480D01*
X96455826Y-103272480D02*
X96360588Y-103320099D01*
X96360588Y-103320099D02*
X96170112Y-103320099D01*
X96170112Y-103320099D02*
X96074874Y-103272480D01*
X97122493Y-103320099D02*
X97027255Y-103272480D01*
X97027255Y-103272480D02*
X96979636Y-103224860D01*
X96979636Y-103224860D02*
X96932017Y-103129622D01*
X96932017Y-103129622D02*
X96932017Y-102843908D01*
X96932017Y-102843908D02*
X96979636Y-102748670D01*
X96979636Y-102748670D02*
X97027255Y-102701051D01*
X97027255Y-102701051D02*
X97122493Y-102653432D01*
X97122493Y-102653432D02*
X97265350Y-102653432D01*
X97265350Y-102653432D02*
X97360588Y-102701051D01*
X97360588Y-102701051D02*
X97408207Y-102748670D01*
X97408207Y-102748670D02*
X97455826Y-102843908D01*
X97455826Y-102843908D02*
X97455826Y-103129622D01*
X97455826Y-103129622D02*
X97408207Y-103224860D01*
X97408207Y-103224860D02*
X97360588Y-103272480D01*
X97360588Y-103272480D02*
X97265350Y-103320099D01*
X97265350Y-103320099D02*
X97122493Y-103320099D01*
X97741541Y-102653432D02*
X98122493Y-102653432D01*
X97884398Y-102320099D02*
X97884398Y-103177241D01*
X97884398Y-103177241D02*
X97932017Y-103272480D01*
X97932017Y-103272480D02*
X98027255Y-103320099D01*
X98027255Y-103320099D02*
X98122493Y-103320099D01*
X98455827Y-103320099D02*
X98455827Y-102653432D01*
X98455827Y-102320099D02*
X98408208Y-102367718D01*
X98408208Y-102367718D02*
X98455827Y-102415337D01*
X98455827Y-102415337D02*
X98503446Y-102367718D01*
X98503446Y-102367718D02*
X98455827Y-102320099D01*
X98455827Y-102320099D02*
X98455827Y-102415337D01*
X99360588Y-103272480D02*
X99265350Y-103320099D01*
X99265350Y-103320099D02*
X99074874Y-103320099D01*
X99074874Y-103320099D02*
X98979636Y-103272480D01*
X98979636Y-103272480D02*
X98932017Y-103224860D01*
X98932017Y-103224860D02*
X98884398Y-103129622D01*
X98884398Y-103129622D02*
X98884398Y-102843908D01*
X98884398Y-102843908D02*
X98932017Y-102748670D01*
X98932017Y-102748670D02*
X98979636Y-102701051D01*
X98979636Y-102701051D02*
X99074874Y-102653432D01*
X99074874Y-102653432D02*
X99265350Y-102653432D01*
X99265350Y-102653432D02*
X99360588Y-102701051D01*
X99741541Y-103272480D02*
X99836779Y-103320099D01*
X99836779Y-103320099D02*
X100027255Y-103320099D01*
X100027255Y-103320099D02*
X100122493Y-103272480D01*
X100122493Y-103272480D02*
X100170112Y-103177241D01*
X100170112Y-103177241D02*
X100170112Y-103129622D01*
X100170112Y-103129622D02*
X100122493Y-103034384D01*
X100122493Y-103034384D02*
X100027255Y-102986765D01*
X100027255Y-102986765D02*
X99884398Y-102986765D01*
X99884398Y-102986765D02*
X99789160Y-102939146D01*
X99789160Y-102939146D02*
X99741541Y-102843908D01*
X99741541Y-102843908D02*
X99741541Y-102796289D01*
X99741541Y-102796289D02*
X99789160Y-102701051D01*
X99789160Y-102701051D02*
X99884398Y-102653432D01*
X99884398Y-102653432D02*
X100027255Y-102653432D01*
X100027255Y-102653432D02*
X100122493Y-102701051D01*
X90408207Y-104930043D02*
X90074874Y-104453852D01*
X89836779Y-104930043D02*
X89836779Y-103930043D01*
X89836779Y-103930043D02*
X90217731Y-103930043D01*
X90217731Y-103930043D02*
X90312969Y-103977662D01*
X90312969Y-103977662D02*
X90360588Y-104025281D01*
X90360588Y-104025281D02*
X90408207Y-104120519D01*
X90408207Y-104120519D02*
X90408207Y-104263376D01*
X90408207Y-104263376D02*
X90360588Y-104358614D01*
X90360588Y-104358614D02*
X90312969Y-104406233D01*
X90312969Y-104406233D02*
X90217731Y-104453852D01*
X90217731Y-104453852D02*
X89836779Y-104453852D01*
X91217731Y-104882424D02*
X91122493Y-104930043D01*
X91122493Y-104930043D02*
X90932017Y-104930043D01*
X90932017Y-104930043D02*
X90836779Y-104882424D01*
X90836779Y-104882424D02*
X90789160Y-104787185D01*
X90789160Y-104787185D02*
X90789160Y-104406233D01*
X90789160Y-104406233D02*
X90836779Y-104310995D01*
X90836779Y-104310995D02*
X90932017Y-104263376D01*
X90932017Y-104263376D02*
X91122493Y-104263376D01*
X91122493Y-104263376D02*
X91217731Y-104310995D01*
X91217731Y-104310995D02*
X91265350Y-104406233D01*
X91265350Y-104406233D02*
X91265350Y-104501471D01*
X91265350Y-104501471D02*
X90789160Y-104596709D01*
X91598684Y-104263376D02*
X91836779Y-104930043D01*
X91836779Y-104930043D02*
X92074874Y-104263376D01*
X92979636Y-104930043D02*
X92408208Y-104930043D01*
X92693922Y-104930043D02*
X92693922Y-103930043D01*
X92693922Y-103930043D02*
X92598684Y-104072900D01*
X92598684Y-104072900D02*
X92503446Y-104168138D01*
X92503446Y-104168138D02*
X92408208Y-104215757D01*
X90170112Y-110846009D02*
X89836779Y-110846009D01*
X89836779Y-111369819D02*
X89836779Y-110369819D01*
X89836779Y-110369819D02*
X90312969Y-110369819D01*
X90693922Y-111369819D02*
X90693922Y-110703152D01*
X90693922Y-110893628D02*
X90741541Y-110798390D01*
X90741541Y-110798390D02*
X90789160Y-110750771D01*
X90789160Y-110750771D02*
X90884398Y-110703152D01*
X90884398Y-110703152D02*
X90979636Y-110703152D01*
X91312970Y-111369819D02*
X91312970Y-110703152D01*
X91312970Y-110369819D02*
X91265351Y-110417438D01*
X91265351Y-110417438D02*
X91312970Y-110465057D01*
X91312970Y-110465057D02*
X91360589Y-110417438D01*
X91360589Y-110417438D02*
X91312970Y-110369819D01*
X91312970Y-110369819D02*
X91312970Y-110465057D01*
X91836779Y-111322200D02*
X91836779Y-111369819D01*
X91836779Y-111369819D02*
X91789160Y-111465057D01*
X91789160Y-111465057D02*
X91741541Y-111512676D01*
X93312969Y-110369819D02*
X93312969Y-111084104D01*
X93312969Y-111084104D02*
X93265350Y-111226961D01*
X93265350Y-111226961D02*
X93170112Y-111322200D01*
X93170112Y-111322200D02*
X93027255Y-111369819D01*
X93027255Y-111369819D02*
X92932017Y-111369819D01*
X94217731Y-111369819D02*
X94217731Y-110846009D01*
X94217731Y-110846009D02*
X94170112Y-110750771D01*
X94170112Y-110750771D02*
X94074874Y-110703152D01*
X94074874Y-110703152D02*
X93884398Y-110703152D01*
X93884398Y-110703152D02*
X93789160Y-110750771D01*
X94217731Y-111322200D02*
X94122493Y-111369819D01*
X94122493Y-111369819D02*
X93884398Y-111369819D01*
X93884398Y-111369819D02*
X93789160Y-111322200D01*
X93789160Y-111322200D02*
X93741541Y-111226961D01*
X93741541Y-111226961D02*
X93741541Y-111131723D01*
X93741541Y-111131723D02*
X93789160Y-111036485D01*
X93789160Y-111036485D02*
X93884398Y-110988866D01*
X93884398Y-110988866D02*
X94122493Y-110988866D01*
X94122493Y-110988866D02*
X94217731Y-110941247D01*
X94693922Y-110703152D02*
X94693922Y-111369819D01*
X94693922Y-110798390D02*
X94741541Y-110750771D01*
X94741541Y-110750771D02*
X94836779Y-110703152D01*
X94836779Y-110703152D02*
X94979636Y-110703152D01*
X94979636Y-110703152D02*
X95074874Y-110750771D01*
X95074874Y-110750771D02*
X95122493Y-110846009D01*
X95122493Y-110846009D02*
X95122493Y-111369819D01*
X96312970Y-110465057D02*
X96360589Y-110417438D01*
X96360589Y-110417438D02*
X96455827Y-110369819D01*
X96455827Y-110369819D02*
X96693922Y-110369819D01*
X96693922Y-110369819D02*
X96789160Y-110417438D01*
X96789160Y-110417438D02*
X96836779Y-110465057D01*
X96836779Y-110465057D02*
X96884398Y-110560295D01*
X96884398Y-110560295D02*
X96884398Y-110655533D01*
X96884398Y-110655533D02*
X96836779Y-110798390D01*
X96836779Y-110798390D02*
X96265351Y-111369819D01*
X96265351Y-111369819D02*
X96884398Y-111369819D01*
X97217732Y-110369819D02*
X97836779Y-110369819D01*
X97836779Y-110369819D02*
X97503446Y-110750771D01*
X97503446Y-110750771D02*
X97646303Y-110750771D01*
X97646303Y-110750771D02*
X97741541Y-110798390D01*
X97741541Y-110798390D02*
X97789160Y-110846009D01*
X97789160Y-110846009D02*
X97836779Y-110941247D01*
X97836779Y-110941247D02*
X97836779Y-111179342D01*
X97836779Y-111179342D02*
X97789160Y-111274580D01*
X97789160Y-111274580D02*
X97741541Y-111322200D01*
X97741541Y-111322200D02*
X97646303Y-111369819D01*
X97646303Y-111369819D02*
X97360589Y-111369819D01*
X97360589Y-111369819D02*
X97265351Y-111322200D01*
X97265351Y-111322200D02*
X97217732Y-111274580D01*
X98312970Y-111322200D02*
X98312970Y-111369819D01*
X98312970Y-111369819D02*
X98265351Y-111465057D01*
X98265351Y-111465057D02*
X98217732Y-111512676D01*
X99455827Y-110465057D02*
X99503446Y-110417438D01*
X99503446Y-110417438D02*
X99598684Y-110369819D01*
X99598684Y-110369819D02*
X99836779Y-110369819D01*
X99836779Y-110369819D02*
X99932017Y-110417438D01*
X99932017Y-110417438D02*
X99979636Y-110465057D01*
X99979636Y-110465057D02*
X100027255Y-110560295D01*
X100027255Y-110560295D02*
X100027255Y-110655533D01*
X100027255Y-110655533D02*
X99979636Y-110798390D01*
X99979636Y-110798390D02*
X99408208Y-111369819D01*
X99408208Y-111369819D02*
X100027255Y-111369819D01*
X100646303Y-110369819D02*
X100741541Y-110369819D01*
X100741541Y-110369819D02*
X100836779Y-110417438D01*
X100836779Y-110417438D02*
X100884398Y-110465057D01*
X100884398Y-110465057D02*
X100932017Y-110560295D01*
X100932017Y-110560295D02*
X100979636Y-110750771D01*
X100979636Y-110750771D02*
X100979636Y-110988866D01*
X100979636Y-110988866D02*
X100932017Y-111179342D01*
X100932017Y-111179342D02*
X100884398Y-111274580D01*
X100884398Y-111274580D02*
X100836779Y-111322200D01*
X100836779Y-111322200D02*
X100741541Y-111369819D01*
X100741541Y-111369819D02*
X100646303Y-111369819D01*
X100646303Y-111369819D02*
X100551065Y-111322200D01*
X100551065Y-111322200D02*
X100503446Y-111274580D01*
X100503446Y-111274580D02*
X100455827Y-111179342D01*
X100455827Y-111179342D02*
X100408208Y-110988866D01*
X100408208Y-110988866D02*
X100408208Y-110750771D01*
X100408208Y-110750771D02*
X100455827Y-110560295D01*
X100455827Y-110560295D02*
X100503446Y-110465057D01*
X100503446Y-110465057D02*
X100551065Y-110417438D01*
X100551065Y-110417438D02*
X100646303Y-110369819D01*
X101360589Y-110465057D02*
X101408208Y-110417438D01*
X101408208Y-110417438D02*
X101503446Y-110369819D01*
X101503446Y-110369819D02*
X101741541Y-110369819D01*
X101741541Y-110369819D02*
X101836779Y-110417438D01*
X101836779Y-110417438D02*
X101884398Y-110465057D01*
X101884398Y-110465057D02*
X101932017Y-110560295D01*
X101932017Y-110560295D02*
X101932017Y-110655533D01*
X101932017Y-110655533D02*
X101884398Y-110798390D01*
X101884398Y-110798390D02*
X101312970Y-111369819D01*
X101312970Y-111369819D02*
X101932017Y-111369819D01*
X102789160Y-110369819D02*
X102598684Y-110369819D01*
X102598684Y-110369819D02*
X102503446Y-110417438D01*
X102503446Y-110417438D02*
X102455827Y-110465057D01*
X102455827Y-110465057D02*
X102360589Y-110607914D01*
X102360589Y-110607914D02*
X102312970Y-110798390D01*
X102312970Y-110798390D02*
X102312970Y-111179342D01*
X102312970Y-111179342D02*
X102360589Y-111274580D01*
X102360589Y-111274580D02*
X102408208Y-111322200D01*
X102408208Y-111322200D02*
X102503446Y-111369819D01*
X102503446Y-111369819D02*
X102693922Y-111369819D01*
X102693922Y-111369819D02*
X102789160Y-111322200D01*
X102789160Y-111322200D02*
X102836779Y-111274580D01*
X102836779Y-111274580D02*
X102884398Y-111179342D01*
X102884398Y-111179342D02*
X102884398Y-110941247D01*
X102884398Y-110941247D02*
X102836779Y-110846009D01*
X102836779Y-110846009D02*
X102789160Y-110798390D01*
X102789160Y-110798390D02*
X102693922Y-110750771D01*
X102693922Y-110750771D02*
X102503446Y-110750771D01*
X102503446Y-110750771D02*
X102408208Y-110798390D01*
X102408208Y-110798390D02*
X102360589Y-110846009D01*
X102360589Y-110846009D02*
X102312970Y-110941247D01*
D12*
%TO.P,H1,1,1*%
%TO.N,unconnected-(H1-Pad1)*%
X101000000Y-106000000D03*
%TD*%
D13*
%TO.P,input_c1,1*%
%TO.N,/7V4*%
X121000000Y-101000000D03*
D14*
%TO.P,input_c1,2*%
%TO.N,GND*%
X121000000Y-98500000D03*
%TD*%
D15*
%TO.P,volt_reg1,1,IN*%
%TO.N,/7V4*%
X121000000Y-105000000D03*
D16*
%TO.P,volt_reg1,2,GND*%
%TO.N,GND*%
X118460000Y-105000000D03*
%TO.P,volt_reg1,3,OUT*%
%TO.N,/5V0*%
X115920000Y-105000000D03*
%TD*%
D17*
%TO.P,output_c1,1*%
%TO.N,/5V0*%
X115000000Y-100000000D03*
D18*
%TO.P,output_c1,2*%
%TO.N,GND*%
X115000000Y-98000000D03*
%TD*%
D19*
%TO.P,joystick_2axes1,1,SW*%
%TO.N,/SW*%
X128000000Y-113080000D03*
D20*
%TO.P,joystick_2axes1,2,Ry*%
%TO.N,/RY*%
X128000000Y-110540000D03*
%TO.P,joystick_2axes1,3,Rx*%
%TO.N,/RX*%
X128000000Y-108000000D03*
%TO.P,joystick_2axes1,4,5V*%
%TO.N,/3V3*%
X128000000Y-105460000D03*
%TO.P,joystick_2axes1,5,GND*%
%TO.N,GND*%
X128000000Y-102920000D03*
%TD*%
D12*
%TO.P,H2,1,1*%
%TO.N,unconnected-(H2-Pad1)*%
X127000000Y-98000000D03*
%TD*%
D19*
%TO.P,smart_motor1,1,7V4*%
%TO.N,/7V4*%
X113460000Y-112000000D03*
D20*
%TO.P,smart_motor1,2,GND*%
%TO.N,GND*%
X116000000Y-112000000D03*
%TO.P,smart_motor1,3,DATA*%
%TO.N,unconnected-(smart_motor1-DATA-Pad3)*%
X118540000Y-112000000D03*
%TD*%
D12*
%TO.P,H3,1,1*%
%TO.N,unconnected-(H3-Pad1)*%
X123309708Y-111545341D03*
%TD*%
D21*
%TO.P,ESP32-C3_SuperMini1,0,GPIO0*%
%TO.N,/RY*%
X107780000Y-98000000D03*
%TO.P,ESP32-C3_SuperMini1,1,GPIO1*%
%TO.N,/SW*%
X105240000Y-98000000D03*
%TO.P,ESP32-C3_SuperMini1,2,GPIO2*%
%TO.N,unconnected-(ESP32-C3_SuperMini1-GPIO2-Pad2)*%
X102700000Y-98000000D03*
%TO.P,ESP32-C3_SuperMini1,3,GPIO3*%
%TO.N,/RX*%
X100160000Y-98000000D03*
%TO.P,ESP32-C3_SuperMini1,3.3,3V3*%
%TO.N,/3V3*%
X95080000Y-98000000D03*
%TO.P,ESP32-C3_SuperMini1,4,GPIO4*%
%TO.N,unconnected-(ESP32-C3_SuperMini1-GPIO4-Pad4)*%
X97620000Y-98000000D03*
%TO.P,ESP32-C3_SuperMini1,5,GPIO5*%
%TO.N,unconnected-(ESP32-C3_SuperMini1-GPIO5-Pad5)*%
X90000000Y-113240000D03*
%TO.P,ESP32-C3_SuperMini1,5V,5V*%
%TO.N,/5V0*%
X90000000Y-98000000D03*
%TO.P,ESP32-C3_SuperMini1,6,GPIO6*%
%TO.N,unconnected-(ESP32-C3_SuperMini1-GPIO6-Pad6)*%
X92540000Y-113240000D03*
%TO.P,ESP32-C3_SuperMini1,7,GPIO7*%
%TO.N,unconnected-(ESP32-C3_SuperMini1-GPIO7-Pad7)*%
X95080000Y-113240000D03*
%TO.P,ESP32-C3_SuperMini1,8,GPIO8*%
%TO.N,unconnected-(ESP32-C3_SuperMini1-GPIO8-Pad8)*%
X97620000Y-113240000D03*
%TO.P,ESP32-C3_SuperMini1,9,GPIO9*%
%TO.N,unconnected-(ESP32-C3_SuperMini1-GPIO9-Pad9)*%
X100160000Y-113240000D03*
%TO.P,ESP32-C3_SuperMini1,10,GPIO10*%
%TO.N,unconnected-(ESP32-C3_SuperMini1-GPIO10-Pad10)*%
X102700000Y-113240000D03*
%TO.P,ESP32-C3_SuperMini1,20,GPIO20*%
%TO.N,unconnected-(ESP32-C3_SuperMini1-GPIO20-Pad20)*%
X105240000Y-113240000D03*
%TO.P,ESP32-C3_SuperMini1,21,GPIO21*%
%TO.N,unconnected-(ESP32-C3_SuperMini1-GPIO21-Pad21)*%
X107780000Y-113240000D03*
%TO.P,ESP32-C3_SuperMini1,G,GND*%
%TO.N,GND*%
X92540000Y-98000000D03*
%TD*%
D22*
%TO.N,/7V4*%
X114000000Y-112000000D02*
X121000000Y-105000000D01*
X113460000Y-112000000D02*
X114000000Y-112000000D01*
%TO.N,/3V3*%
X96255000Y-96825000D02*
X109074000Y-96825000D01*
X109074000Y-96825000D02*
X109524000Y-97275000D01*
X128000000Y-105460000D02*
X126039000Y-103499000D01*
X126039000Y-103499000D02*
X115748000Y-103499000D01*
X95080000Y-98000000D02*
X96255000Y-96825000D01*
X115748000Y-103499000D02*
X109524000Y-97275000D01*
D23*
%TO.N,/SW*%
X112003511Y-114710618D02*
X107500000Y-110207107D01*
X126369382Y-114710618D02*
X112003511Y-114710618D01*
X107500000Y-100260000D02*
X105240000Y-98000000D01*
X128000000Y-113080000D02*
X126369382Y-114710618D01*
X107500000Y-110207107D02*
X107500000Y-100260000D01*
%TO.N,/RY*%
X120433708Y-113807708D02*
X120367416Y-113874000D01*
X124669341Y-108669341D02*
X122118429Y-108669341D01*
X128000000Y-110540000D02*
X126540000Y-110540000D01*
X120433708Y-110354062D02*
X120433708Y-113807708D01*
X111874000Y-113874000D02*
X108870000Y-110870000D01*
X126540000Y-110540000D02*
X124669341Y-108669341D01*
X108870000Y-99090000D02*
X107780000Y-98000000D01*
X108870000Y-110870000D02*
X108870000Y-99090000D01*
X122118429Y-108669341D02*
X120433708Y-110354062D01*
X120367416Y-113874000D02*
X111874000Y-113874000D01*
%TO.N,/RX*%
X111874000Y-115374000D02*
X128626000Y-115374000D01*
X100160000Y-98000000D02*
X101660000Y-99500000D01*
X101660000Y-99500000D02*
X104500000Y-99500000D01*
X106000000Y-101000000D02*
X106000000Y-109500000D01*
X128626000Y-115374000D02*
X129374000Y-114626000D01*
X129374000Y-109374000D02*
X128000000Y-108000000D01*
X129374000Y-114626000D02*
X129374000Y-109374000D01*
X104500000Y-99500000D02*
X106000000Y-101000000D01*
X106000000Y-109500000D02*
X111874000Y-115374000D01*
%TD*%
%TA.AperFunction,Conductor*%
%TO.N,GND*%
G36*
X115534075Y-112192993D02*
G01*
X115599901Y-112307007D01*
X115692993Y-112400099D01*
X115807007Y-112465925D01*
X115870590Y-112482962D01*
X115238099Y-113115452D01*
X115235383Y-113128381D01*
X115237363Y-113142147D01*
X115228342Y-113161898D01*
X115223879Y-113183148D01*
X115214115Y-113193052D01*
X115208338Y-113205703D01*
X115190071Y-113217442D01*
X115174828Y-113232905D01*
X115160056Y-113236731D01*
X115149560Y-113243477D01*
X115114625Y-113248500D01*
X114874142Y-113248500D01*
X114807103Y-113228815D01*
X114761348Y-113176011D01*
X114751404Y-113106853D01*
X114757960Y-113081167D01*
X114775282Y-113034724D01*
X114804091Y-112957483D01*
X114810500Y-112897873D01*
X114810499Y-112887312D01*
X114830179Y-112820275D01*
X114846818Y-112799626D01*
X115517037Y-112129408D01*
X115534075Y-112192993D01*
G37*
%TD.AperFunction*%
%TA.AperFunction,Conductor*%
G36*
X117115270Y-112761717D02*
G01*
X117115270Y-112761716D01*
X117154622Y-112707555D01*
X117159232Y-112698507D01*
X117207205Y-112647709D01*
X117275025Y-112630912D01*
X117341161Y-112653447D01*
X117380204Y-112698504D01*
X117384949Y-112707817D01*
X117509890Y-112879786D01*
X117660209Y-113030105D01*
X117660340Y-113030217D01*
X117660375Y-113030271D01*
X117663653Y-113033549D01*
X117662964Y-113034237D01*
X117698528Y-113088727D01*
X117699021Y-113158595D01*
X117661662Y-113217638D01*
X117598312Y-113247110D01*
X117579800Y-113248500D01*
X116885374Y-113248500D01*
X116818335Y-113228815D01*
X116772580Y-113176011D01*
X116761871Y-113115424D01*
X116129408Y-112482962D01*
X116192993Y-112465925D01*
X116307007Y-112400099D01*
X116400099Y-112307007D01*
X116465925Y-112192993D01*
X116482962Y-112129409D01*
X117115270Y-112761717D01*
G37*
%TD.AperFunction*%
%TA.AperFunction,Conductor*%
G36*
X125743809Y-104269185D02*
G01*
X125764451Y-104285819D01*
X126629824Y-105151192D01*
X126663309Y-105212515D01*
X126664616Y-105258271D01*
X126649500Y-105353707D01*
X126649500Y-105353713D01*
X126649500Y-105566287D01*
X126682754Y-105776243D01*
X126734075Y-105934193D01*
X126748444Y-105978414D01*
X126844951Y-106167820D01*
X126969890Y-106339786D01*
X127120213Y-106490109D01*
X127292182Y-106615050D01*
X127300946Y-106619516D01*
X127351742Y-106667491D01*
X127368536Y-106735312D01*
X127345998Y-106801447D01*
X127300946Y-106840484D01*
X127292182Y-106844949D01*
X127120213Y-106969890D01*
X126969890Y-107120213D01*
X126844951Y-107292179D01*
X126748444Y-107481585D01*
X126682753Y-107683760D01*
X126649500Y-107893713D01*
X126649500Y-108106287D01*
X126650885Y-108115029D01*
X126682753Y-108316239D01*
X126748444Y-108518414D01*
X126844951Y-108707820D01*
X126969890Y-108879786D01*
X127120213Y-109030109D01*
X127292182Y-109155050D01*
X127300946Y-109159516D01*
X127351742Y-109207491D01*
X127368536Y-109275312D01*
X127345998Y-109341447D01*
X127300946Y-109380484D01*
X127292182Y-109384949D01*
X127120213Y-109509890D01*
X126969894Y-109660209D01*
X126969890Y-109660214D01*
X126876349Y-109788963D01*
X126821019Y-109831629D01*
X126751406Y-109837608D01*
X126689611Y-109805002D01*
X126688350Y-109803759D01*
X125165163Y-108280573D01*
X125155200Y-108270610D01*
X125155199Y-108270608D01*
X125068074Y-108183483D01*
X125016850Y-108149256D01*
X124965627Y-108115029D01*
X124965624Y-108115027D01*
X124965621Y-108115026D01*
X124891944Y-108084509D01*
X124891942Y-108084508D01*
X124885133Y-108081688D01*
X124851793Y-108067878D01*
X124791370Y-108055859D01*
X124786647Y-108054919D01*
X124786645Y-108054919D01*
X124730951Y-108043841D01*
X124730948Y-108043841D01*
X124730947Y-108043841D01*
X122180035Y-108043841D01*
X122056822Y-108043841D01*
X122056818Y-108043841D01*
X122001126Y-108054919D01*
X121996400Y-108055859D01*
X121953172Y-108064457D01*
X121935975Y-108067878D01*
X121822145Y-108115028D01*
X121822136Y-108115033D01*
X121719697Y-108183481D01*
X121676134Y-108227044D01*
X121632571Y-108270608D01*
X120037771Y-109865407D01*
X120037763Y-109865415D01*
X120034978Y-109868201D01*
X120034975Y-109868204D01*
X119947850Y-109955329D01*
X119918336Y-109999500D01*
X119913767Y-110006338D01*
X119879395Y-110057777D01*
X119879393Y-110057780D01*
X119846055Y-110138269D01*
X119840531Y-110151605D01*
X119832245Y-110171607D01*
X119832243Y-110171615D01*
X119808208Y-110292451D01*
X119808208Y-111066296D01*
X119788523Y-111133335D01*
X119735719Y-111179090D01*
X119666561Y-111189034D01*
X119603005Y-111160009D01*
X119583890Y-111139182D01*
X119570105Y-111120209D01*
X119419786Y-110969890D01*
X119247820Y-110844951D01*
X119058414Y-110748444D01*
X119058413Y-110748443D01*
X119058412Y-110748443D01*
X118856243Y-110682754D01*
X118856241Y-110682753D01*
X118856240Y-110682753D01*
X118694957Y-110657208D01*
X118646287Y-110649500D01*
X118433713Y-110649500D01*
X118385042Y-110657208D01*
X118223760Y-110682753D01*
X118021585Y-110748444D01*
X117832179Y-110844951D01*
X117660213Y-110969890D01*
X117509890Y-111120213D01*
X117384949Y-111292182D01*
X117380202Y-111301499D01*
X117332227Y-111352293D01*
X117264405Y-111369087D01*
X117198271Y-111346548D01*
X117159234Y-111301495D01*
X117154626Y-111292452D01*
X117115270Y-111238282D01*
X117115269Y-111238282D01*
X116482962Y-111870590D01*
X116465925Y-111807007D01*
X116400099Y-111692993D01*
X116307007Y-111599901D01*
X116192993Y-111534075D01*
X116129408Y-111517037D01*
X116761716Y-110884728D01*
X116707547Y-110845373D01*
X116707542Y-110845370D01*
X116533981Y-110756935D01*
X116483185Y-110708961D01*
X116466390Y-110641140D01*
X116488928Y-110575005D01*
X116502584Y-110558782D01*
X120524549Y-106536818D01*
X120585872Y-106503333D01*
X120612230Y-106500499D01*
X122000371Y-106500499D01*
X122000372Y-106500499D01*
X122059983Y-106494091D01*
X122194831Y-106443796D01*
X122310046Y-106357546D01*
X122396296Y-106242331D01*
X122446591Y-106107483D01*
X122453000Y-106047873D01*
X122452999Y-104373499D01*
X122472684Y-104306461D01*
X122525487Y-104260706D01*
X122576999Y-104249500D01*
X125676770Y-104249500D01*
X125743809Y-104269185D01*
G37*
%TD.AperFunction*%
%TA.AperFunction,Conductor*%
G36*
X129115270Y-103681717D02*
G01*
X129115270Y-103681716D01*
X129154622Y-103627554D01*
X129251093Y-103438221D01*
X129257568Y-103418294D01*
X129297005Y-103360618D01*
X129361363Y-103333419D01*
X129430210Y-103345333D01*
X129481686Y-103392576D01*
X129499500Y-103456611D01*
X129499500Y-104921773D01*
X129479815Y-104988812D01*
X129427011Y-105034567D01*
X129357853Y-105044511D01*
X129294297Y-105015486D01*
X129257570Y-104960094D01*
X129251557Y-104941588D01*
X129155051Y-104752184D01*
X129155049Y-104752181D01*
X129155048Y-104752179D01*
X129030109Y-104580213D01*
X128879786Y-104429890D01*
X128707817Y-104304949D01*
X128698504Y-104300204D01*
X128647707Y-104252230D01*
X128630912Y-104184409D01*
X128653449Y-104118274D01*
X128698507Y-104079232D01*
X128707555Y-104074622D01*
X128761716Y-104035270D01*
X128761717Y-104035270D01*
X128129408Y-103402962D01*
X128192993Y-103385925D01*
X128307007Y-103320099D01*
X128400099Y-103227007D01*
X128465925Y-103112993D01*
X128482962Y-103049408D01*
X129115270Y-103681717D01*
G37*
%TD.AperFunction*%
%TA.AperFunction,Conductor*%
G36*
X125034512Y-95520185D02*
G01*
X125080267Y-95572989D01*
X125090211Y-95642147D01*
X125061186Y-95705703D01*
X125044786Y-95721447D01*
X124997477Y-95759174D01*
X124759174Y-95997477D01*
X124549053Y-96260962D01*
X124369752Y-96546316D01*
X124223532Y-96849945D01*
X124112227Y-97168034D01*
X124112223Y-97168046D01*
X124037233Y-97496602D01*
X124037231Y-97496618D01*
X123999500Y-97831491D01*
X123999500Y-98168508D01*
X124037231Y-98503381D01*
X124037233Y-98503397D01*
X124112223Y-98831953D01*
X124112227Y-98831965D01*
X124223532Y-99150054D01*
X124369752Y-99453683D01*
X124369754Y-99453686D01*
X124549054Y-99739039D01*
X124759175Y-100002523D01*
X124997477Y-100240825D01*
X125260961Y-100450946D01*
X125546314Y-100630246D01*
X125849949Y-100776469D01*
X126088848Y-100860063D01*
X126168034Y-100887772D01*
X126168046Y-100887776D01*
X126496606Y-100962767D01*
X126831492Y-101000499D01*
X126831493Y-101000500D01*
X126831496Y-101000500D01*
X127168507Y-101000500D01*
X127168507Y-101000499D01*
X127503394Y-100962767D01*
X127831954Y-100887776D01*
X128150051Y-100776469D01*
X128453686Y-100630246D01*
X128739039Y-100450946D01*
X129002523Y-100240825D01*
X129240825Y-100002523D01*
X129278553Y-99955213D01*
X129335740Y-99915073D01*
X129405552Y-99912223D01*
X129465822Y-99947568D01*
X129497416Y-100009886D01*
X129499500Y-100032526D01*
X129499500Y-102383388D01*
X129479815Y-102450427D01*
X129427011Y-102496182D01*
X129357853Y-102506126D01*
X129294297Y-102477101D01*
X129257569Y-102421706D01*
X129251095Y-102401782D01*
X129154624Y-102212449D01*
X129115270Y-102158282D01*
X129115269Y-102158282D01*
X128482962Y-102790590D01*
X128465925Y-102727007D01*
X128400099Y-102612993D01*
X128307007Y-102519901D01*
X128192993Y-102454075D01*
X128129409Y-102437037D01*
X128761716Y-101804728D01*
X128707550Y-101765375D01*
X128518217Y-101668904D01*
X128316129Y-101603242D01*
X128106246Y-101570000D01*
X127893754Y-101570000D01*
X127683872Y-101603242D01*
X127683869Y-101603242D01*
X127481782Y-101668904D01*
X127292439Y-101765380D01*
X127238282Y-101804727D01*
X127238282Y-101804728D01*
X127870591Y-102437037D01*
X127807007Y-102454075D01*
X127692993Y-102519901D01*
X127599901Y-102612993D01*
X127534075Y-102727007D01*
X127517037Y-102790591D01*
X126884728Y-102158282D01*
X126884727Y-102158282D01*
X126845380Y-102212439D01*
X126748904Y-102401782D01*
X126683242Y-102603869D01*
X126683242Y-102603872D01*
X126652962Y-102795048D01*
X126652864Y-102795254D01*
X126652893Y-102795483D01*
X126637887Y-102826848D01*
X126623033Y-102858183D01*
X126622837Y-102858304D01*
X126622739Y-102858511D01*
X126593290Y-102876702D01*
X126563721Y-102895114D01*
X126563490Y-102895110D01*
X126563296Y-102895231D01*
X126528638Y-102894612D01*
X126493858Y-102894116D01*
X126493588Y-102893987D01*
X126493438Y-102893985D01*
X126461600Y-102878753D01*
X126443730Y-102866813D01*
X126443729Y-102866813D01*
X126394491Y-102833913D01*
X126257917Y-102777343D01*
X126257907Y-102777340D01*
X126112920Y-102748500D01*
X126112918Y-102748500D01*
X116110229Y-102748500D01*
X116043190Y-102728815D01*
X116022548Y-102712181D01*
X114622547Y-101312180D01*
X114589062Y-101250857D01*
X114594046Y-101181165D01*
X114635918Y-101125232D01*
X114701382Y-101100815D01*
X114710203Y-101100499D01*
X115400008Y-101100499D01*
X115400016Y-101100498D01*
X115400019Y-101100498D01*
X115456302Y-101094748D01*
X115502797Y-101089999D01*
X115669334Y-101034814D01*
X115818656Y-100942712D01*
X115942712Y-100818656D01*
X116034814Y-100669334D01*
X116089999Y-100502797D01*
X116100500Y-100400009D01*
X116100500Y-100399983D01*
X119699500Y-100399983D01*
X119699500Y-101600001D01*
X119699501Y-101600018D01*
X119710000Y-101702796D01*
X119710001Y-101702799D01*
X119746513Y-101812983D01*
X119765186Y-101869334D01*
X119857288Y-102018656D01*
X119981344Y-102142712D01*
X120130666Y-102234814D01*
X120297203Y-102289999D01*
X120399991Y-102300500D01*
X121600008Y-102300499D01*
X121702797Y-102289999D01*
X121869334Y-102234814D01*
X122018656Y-102142712D01*
X122142712Y-102018656D01*
X122234814Y-101869334D01*
X122289999Y-101702797D01*
X122300500Y-101600009D01*
X122300499Y-100399992D01*
X122300176Y-100396834D01*
X122289999Y-100297203D01*
X122289998Y-100297200D01*
X122271317Y-100240825D01*
X122234814Y-100130666D01*
X122142712Y-99981344D01*
X122018656Y-99857288D01*
X121869334Y-99765186D01*
X121807558Y-99744715D01*
X121750115Y-99704943D01*
X121723292Y-99640427D01*
X121722946Y-99617280D01*
X121725921Y-99579473D01*
X121046447Y-98900000D01*
X121052661Y-98900000D01*
X121154394Y-98872741D01*
X121245606Y-98820080D01*
X121320080Y-98745606D01*
X121372741Y-98654394D01*
X121400000Y-98552661D01*
X121400000Y-98546448D01*
X122079474Y-99225922D01*
X122079474Y-99225921D01*
X122111859Y-99181349D01*
X122204755Y-98999031D01*
X122267990Y-98804417D01*
X122300000Y-98602317D01*
X122300000Y-98397682D01*
X122267990Y-98195582D01*
X122204755Y-98000968D01*
X122111859Y-97818650D01*
X122079474Y-97774077D01*
X122079474Y-97774076D01*
X121400000Y-98453551D01*
X121400000Y-98447339D01*
X121372741Y-98345606D01*
X121320080Y-98254394D01*
X121245606Y-98179920D01*
X121154394Y-98127259D01*
X121052661Y-98100000D01*
X121046446Y-98100000D01*
X121725922Y-97420524D01*
X121725921Y-97420523D01*
X121681359Y-97388147D01*
X121681350Y-97388141D01*
X121499031Y-97295244D01*
X121304417Y-97232009D01*
X121102317Y-97200000D01*
X120897683Y-97200000D01*
X120695582Y-97232009D01*
X120500968Y-97295244D01*
X120318644Y-97388143D01*
X120274077Y-97420523D01*
X120274077Y-97420524D01*
X120953554Y-98100000D01*
X120947339Y-98100000D01*
X120845606Y-98127259D01*
X120754394Y-98179920D01*
X120679920Y-98254394D01*
X120627259Y-98345606D01*
X120600000Y-98447339D01*
X120600000Y-98453553D01*
X119920524Y-97774077D01*
X119920523Y-97774077D01*
X119888143Y-97818644D01*
X119795244Y-98000968D01*
X119732009Y-98195582D01*
X119700000Y-98397682D01*
X119700000Y-98602317D01*
X119732009Y-98804417D01*
X119795244Y-98999031D01*
X119888141Y-99181350D01*
X119888147Y-99181359D01*
X119920523Y-99225921D01*
X119920524Y-99225922D01*
X120600000Y-98546446D01*
X120600000Y-98552661D01*
X120627259Y-98654394D01*
X120679920Y-98745606D01*
X120754394Y-98820080D01*
X120845606Y-98872741D01*
X120947339Y-98900000D01*
X120953553Y-98900000D01*
X120274076Y-99579474D01*
X120277052Y-99617282D01*
X120262687Y-99685659D01*
X120213636Y-99735415D01*
X120192440Y-99744715D01*
X120130672Y-99765184D01*
X120130663Y-99765187D01*
X119981342Y-99857289D01*
X119857289Y-99981342D01*
X119765187Y-100130663D01*
X119765186Y-100130666D01*
X119710001Y-100297203D01*
X119710001Y-100297204D01*
X119710000Y-100297204D01*
X119699500Y-100399983D01*
X116100500Y-100399983D01*
X116100499Y-99599992D01*
X116089999Y-99497203D01*
X116034814Y-99330666D01*
X115942712Y-99181344D01*
X115818656Y-99057288D01*
X115669334Y-98965186D01*
X115669332Y-98965185D01*
X115669330Y-98965184D01*
X115669331Y-98965184D01*
X115610929Y-98945831D01*
X115562254Y-98915807D01*
X115000001Y-98353553D01*
X115000000Y-98353553D01*
X114437742Y-98915809D01*
X114389066Y-98945834D01*
X114330666Y-98965186D01*
X114181342Y-99057289D01*
X114057289Y-99181342D01*
X113965187Y-99330663D01*
X113965186Y-99330666D01*
X113910001Y-99497203D01*
X113910001Y-99497204D01*
X113910000Y-99497204D01*
X113899500Y-99599983D01*
X113899500Y-100289770D01*
X113879815Y-100356809D01*
X113827011Y-100402564D01*
X113757853Y-100412508D01*
X113694297Y-100383483D01*
X113687819Y-100377451D01*
X111306606Y-97996237D01*
X111223797Y-97913428D01*
X113900000Y-97913428D01*
X113900000Y-98086571D01*
X113927085Y-98257584D01*
X113980592Y-98422259D01*
X114059196Y-98576525D01*
X114063709Y-98582736D01*
X114063709Y-98582737D01*
X114646446Y-98000001D01*
X114646446Y-97999999D01*
X114606951Y-97960504D01*
X114700000Y-97960504D01*
X114700000Y-98039496D01*
X114720444Y-98115796D01*
X114759940Y-98184205D01*
X114815795Y-98240060D01*
X114884204Y-98279556D01*
X114960504Y-98300000D01*
X115039496Y-98300000D01*
X115115796Y-98279556D01*
X115184205Y-98240060D01*
X115240060Y-98184205D01*
X115279556Y-98115796D01*
X115300000Y-98039496D01*
X115300000Y-97999999D01*
X115353553Y-97999999D01*
X115353553Y-98000001D01*
X115936289Y-98582737D01*
X115936289Y-98582736D01*
X115940803Y-98576525D01*
X116019408Y-98422257D01*
X116041425Y-98354497D01*
X116072913Y-98257584D01*
X116100000Y-98086571D01*
X116100000Y-97913428D01*
X116072914Y-97742415D01*
X116019406Y-97577737D01*
X115992066Y-97524080D01*
X115992064Y-97524078D01*
X115940801Y-97423471D01*
X115936290Y-97417262D01*
X115936289Y-97417261D01*
X115353553Y-97999999D01*
X115300000Y-97999999D01*
X115300000Y-97960504D01*
X115279556Y-97884204D01*
X115240060Y-97815795D01*
X115184205Y-97759940D01*
X115115796Y-97720444D01*
X115039496Y-97700000D01*
X114960504Y-97700000D01*
X114884204Y-97720444D01*
X114815795Y-97759940D01*
X114759940Y-97815795D01*
X114720444Y-97884204D01*
X114700000Y-97960504D01*
X114606951Y-97960504D01*
X114063709Y-97417261D01*
X114063708Y-97417261D01*
X114059203Y-97423463D01*
X114059193Y-97423480D01*
X113980592Y-97577740D01*
X113927085Y-97742415D01*
X113900000Y-97913428D01*
X111223797Y-97913428D01*
X110374077Y-97063708D01*
X114417261Y-97063708D01*
X114417261Y-97063709D01*
X115000000Y-97646446D01*
X115000001Y-97646446D01*
X115582737Y-97063709D01*
X115576525Y-97059196D01*
X115422259Y-96980592D01*
X115257584Y-96927085D01*
X115086571Y-96900000D01*
X114913429Y-96900000D01*
X114742415Y-96927085D01*
X114577740Y-96980592D01*
X114423480Y-97059193D01*
X114423463Y-97059203D01*
X114417261Y-97063708D01*
X110374077Y-97063708D01*
X109998096Y-96687727D01*
X109998075Y-96687707D01*
X109552421Y-96242052D01*
X109552414Y-96242046D01*
X109478729Y-96192812D01*
X109478729Y-96192813D01*
X109429491Y-96159913D01*
X109292917Y-96103343D01*
X109292907Y-96103340D01*
X109147920Y-96074500D01*
X109147918Y-96074500D01*
X96181082Y-96074500D01*
X96181080Y-96074500D01*
X96036092Y-96103340D01*
X96036086Y-96103342D01*
X95899508Y-96159914D01*
X95899496Y-96159921D01*
X95850270Y-96192811D01*
X95850271Y-96192812D01*
X95776581Y-96242049D01*
X95776578Y-96242052D01*
X95229450Y-96789181D01*
X95168127Y-96822666D01*
X95141769Y-96825500D01*
X94987560Y-96825500D01*
X94804969Y-96854419D01*
X94629150Y-96911546D01*
X94629147Y-96911547D01*
X94464424Y-96995479D01*
X94314870Y-97104135D01*
X94314865Y-97104139D01*
X94184139Y-97234865D01*
X94184135Y-97234870D01*
X94075479Y-97384424D01*
X93991547Y-97549147D01*
X93991546Y-97549150D01*
X93934419Y-97724971D01*
X93932218Y-97738867D01*
X93902286Y-97802000D01*
X93842973Y-97838928D01*
X93773110Y-97837927D01*
X93714879Y-97799315D01*
X93687272Y-97738857D01*
X93685091Y-97725087D01*
X93627986Y-97549338D01*
X93544092Y-97384686D01*
X93529269Y-97364283D01*
X93529268Y-97364283D01*
X92957642Y-97935909D01*
X92931378Y-97837886D01*
X92876084Y-97742114D01*
X92797886Y-97663916D01*
X92702114Y-97608622D01*
X92604090Y-97582356D01*
X93175716Y-97010730D01*
X93155307Y-96995903D01*
X93155303Y-96995900D01*
X92990664Y-96912014D01*
X92814908Y-96854907D01*
X92632395Y-96826000D01*
X92447605Y-96826000D01*
X92265091Y-96854907D01*
X92089338Y-96912013D01*
X91924692Y-96995903D01*
X91924688Y-96995906D01*
X91904283Y-97010729D01*
X91904283Y-97010730D01*
X92475910Y-97582356D01*
X92377886Y-97608622D01*
X92282114Y-97663916D01*
X92203916Y-97742114D01*
X92148622Y-97837886D01*
X92122356Y-97935909D01*
X91550730Y-97364283D01*
X91550729Y-97364283D01*
X91535906Y-97384688D01*
X91535903Y-97384692D01*
X91452013Y-97549338D01*
X91394908Y-97725088D01*
X91392726Y-97738864D01*
X91362795Y-97801998D01*
X91303483Y-97838928D01*
X91233620Y-97837928D01*
X91175388Y-97799317D01*
X91147780Y-97738860D01*
X91145580Y-97724970D01*
X91088453Y-97549150D01*
X91088452Y-97549147D01*
X91056149Y-97485750D01*
X91004523Y-97384428D01*
X90989887Y-97364283D01*
X90895864Y-97234870D01*
X90895860Y-97234865D01*
X90765134Y-97104139D01*
X90765129Y-97104135D01*
X90615575Y-96995479D01*
X90615574Y-96995478D01*
X90615572Y-96995477D01*
X90562799Y-96968588D01*
X90450852Y-96911547D01*
X90450849Y-96911546D01*
X90275030Y-96854420D01*
X90224088Y-96846351D01*
X90218602Y-96843750D01*
X90212535Y-96843953D01*
X90187397Y-96828957D01*
X90160953Y-96816421D01*
X90157744Y-96811268D01*
X90152531Y-96808158D01*
X90139491Y-96781952D01*
X90124023Y-96757109D01*
X90124109Y-96751039D01*
X90121405Y-96745604D01*
X90124602Y-96716510D01*
X90125021Y-96687246D01*
X90128545Y-96680642D01*
X90129039Y-96676153D01*
X90147118Y-96645846D01*
X90266858Y-96497979D01*
X90275525Y-96488354D01*
X90488354Y-96275525D01*
X90497979Y-96266858D01*
X90731899Y-96077434D01*
X90742380Y-96069819D01*
X90994808Y-95905891D01*
X91006023Y-95899415D01*
X91274215Y-95762763D01*
X91286054Y-95757493D01*
X91567040Y-95649633D01*
X91579368Y-95645627D01*
X91870107Y-95567723D01*
X91882786Y-95565029D01*
X92180046Y-95517949D01*
X92192951Y-95516592D01*
X92496756Y-95500669D01*
X92503246Y-95500500D01*
X92565892Y-95500500D01*
X124967473Y-95500500D01*
X125034512Y-95520185D01*
G37*
%TD.AperFunction*%
%TA.AperFunction,Conductor*%
G36*
X93529268Y-98635716D02*
G01*
X93529268Y-98635715D01*
X93544094Y-98615310D01*
X93627986Y-98450661D01*
X93685091Y-98274911D01*
X93687272Y-98261143D01*
X93717199Y-98198007D01*
X93776509Y-98161073D01*
X93846372Y-98162068D01*
X93904606Y-98200676D01*
X93932219Y-98261133D01*
X93932220Y-98261140D01*
X93934420Y-98275029D01*
X93934420Y-98275031D01*
X93934421Y-98275033D01*
X93991546Y-98450849D01*
X93991547Y-98450852D01*
X94043422Y-98552661D01*
X94068723Y-98602317D01*
X94075479Y-98615575D01*
X94184135Y-98765129D01*
X94184139Y-98765134D01*
X94314865Y-98895860D01*
X94314870Y-98895864D01*
X94383645Y-98945831D01*
X94464428Y-99004523D01*
X94567985Y-99057288D01*
X94629147Y-99088452D01*
X94629150Y-99088453D01*
X94804969Y-99145580D01*
X94987560Y-99174500D01*
X94987565Y-99174500D01*
X95172440Y-99174500D01*
X95355030Y-99145580D01*
X95530849Y-99088453D01*
X95530852Y-99088452D01*
X95531767Y-99087986D01*
X95695572Y-99004523D01*
X95845136Y-98895859D01*
X95975859Y-98765136D01*
X96084523Y-98615572D01*
X96168452Y-98450852D01*
X96225580Y-98275029D01*
X96227527Y-98262737D01*
X96257456Y-98199602D01*
X96316768Y-98162671D01*
X96386630Y-98163669D01*
X96444863Y-98202279D01*
X96472473Y-98262737D01*
X96474420Y-98275030D01*
X96531546Y-98450849D01*
X96531547Y-98450852D01*
X96583422Y-98552661D01*
X96608723Y-98602317D01*
X96615479Y-98615575D01*
X96724135Y-98765129D01*
X96724139Y-98765134D01*
X96854865Y-98895860D01*
X96854870Y-98895864D01*
X96923645Y-98945831D01*
X97004428Y-99004523D01*
X97107985Y-99057288D01*
X97169147Y-99088452D01*
X97169150Y-99088453D01*
X97344969Y-99145580D01*
X97527560Y-99174500D01*
X97527565Y-99174500D01*
X97712440Y-99174500D01*
X97895030Y-99145580D01*
X98070849Y-99088453D01*
X98070852Y-99088452D01*
X98071767Y-99087986D01*
X98235572Y-99004523D01*
X98385136Y-98895859D01*
X98515859Y-98765136D01*
X98624523Y-98615572D01*
X98708452Y-98450852D01*
X98765580Y-98275029D01*
X98767527Y-98262737D01*
X98797456Y-98199602D01*
X98856768Y-98162671D01*
X98926630Y-98163669D01*
X98984863Y-98202279D01*
X99012473Y-98262737D01*
X99014420Y-98275030D01*
X99071546Y-98450849D01*
X99071547Y-98450852D01*
X99123422Y-98552661D01*
X99148723Y-98602317D01*
X99155479Y-98615575D01*
X99264135Y-98765129D01*
X99264139Y-98765134D01*
X99394865Y-98895860D01*
X99394870Y-98895864D01*
X99463645Y-98945831D01*
X99544428Y-99004523D01*
X99647985Y-99057288D01*
X99709147Y-99088452D01*
X99709150Y-99088453D01*
X99884969Y-99145580D01*
X100067560Y-99174500D01*
X100067565Y-99174500D01*
X100252433Y-99174500D01*
X100252435Y-99174500D01*
X100360508Y-99157382D01*
X100429797Y-99166336D01*
X100467584Y-99192174D01*
X101174141Y-99898732D01*
X101192527Y-99917118D01*
X101226012Y-99978441D01*
X101221028Y-100048133D01*
X101179156Y-100104066D01*
X101113692Y-100128483D01*
X101104846Y-100128799D01*
X89624500Y-100128799D01*
X89557461Y-100109114D01*
X89511706Y-100056310D01*
X89500500Y-100004799D01*
X89500500Y-99243316D01*
X89520185Y-99176277D01*
X89572989Y-99130522D01*
X89642147Y-99120578D01*
X89662811Y-99125383D01*
X89724971Y-99145580D01*
X89753200Y-99150051D01*
X89907560Y-99174500D01*
X89907565Y-99174500D01*
X90092440Y-99174500D01*
X90275030Y-99145580D01*
X90450849Y-99088453D01*
X90450852Y-99088452D01*
X90451767Y-99087986D01*
X90615572Y-99004523D01*
X90765136Y-98895859D01*
X90895859Y-98765136D01*
X91004523Y-98615572D01*
X91088452Y-98450852D01*
X91145580Y-98275029D01*
X91147780Y-98261137D01*
X91177708Y-98198005D01*
X91237019Y-98161073D01*
X91306882Y-98162069D01*
X91365115Y-98200678D01*
X91392726Y-98261136D01*
X91394907Y-98274910D01*
X91452014Y-98450664D01*
X91535900Y-98615303D01*
X91535903Y-98615307D01*
X91550730Y-98635715D01*
X91550730Y-98635716D01*
X92122356Y-98064090D01*
X92148622Y-98162114D01*
X92203916Y-98257886D01*
X92282114Y-98336084D01*
X92377886Y-98391378D01*
X92475909Y-98417643D01*
X91904283Y-98989268D01*
X91904283Y-98989269D01*
X91924686Y-99004092D01*
X92089338Y-99087986D01*
X92265091Y-99145092D01*
X92447605Y-99174000D01*
X92632395Y-99174000D01*
X92814908Y-99145092D01*
X92990661Y-99087986D01*
X93155310Y-99004094D01*
X93175715Y-98989268D01*
X93175716Y-98989268D01*
X92604090Y-98417642D01*
X92702114Y-98391378D01*
X92797886Y-98336084D01*
X92876084Y-98257886D01*
X92931378Y-98162114D01*
X92957643Y-98064090D01*
X93529268Y-98635716D01*
G37*
%TD.AperFunction*%
%TD*%
M02*
