%TF.GenerationSoftware,KiCad,Pcbnew,9.0.7*%
%TF.CreationDate,2026-01-23T21:13:36-05:00*%
%TF.ProjectId,pcb,7063622e-6b69-4636-9164-5f7063625858,rev?*%
%TF.SameCoordinates,Original*%
%TF.FileFunction,Copper,L2,Bot*%
%TF.FilePolarity,Positive*%
%FSLAX46Y46*%
G04 Gerber Fmt 4.6, Leading zero omitted, Abs format (unit mm)*
G04 Created by KiCad (PCBNEW 9.0.7) date 2026-01-23 21:13:36*
%MOMM*%
%LPD*%
G01*
G04 APERTURE LIST*
G04 Aperture macros list*
%AMRoundRect*
0 Rectangle with rounded corners*
0 $1 Rounding radius*
0 $2 $3 $4 $5 $6 $7 $8 $9 X,Y pos of 4 corners*
0 Add a 4 corners polygon primitive as box body*
4,1,4,$2,$3,$4,$5,$6,$7,$8,$9,$2,$3,0*
0 Add four circle primitives for the rounded corners*
1,1,$1+$1,$2,$3*
1,1,$1+$1,$4,$5*
1,1,$1+$1,$6,$7*
1,1,$1+$1,$8,$9*
0 Add four rect primitives between the rounded corners*
20,1,$1+$1,$2,$3,$4,$5,0*
20,1,$1+$1,$4,$5,$6,$7,0*
20,1,$1+$1,$6,$7,$8,$9,0*
20,1,$1+$1,$8,$9,$2,$3,0*%
G04 Aperture macros list end*
%TA.AperFunction,ComponentPad*%
%ADD10C,1.348000*%
%TD*%
%TA.AperFunction,ComponentPad*%
%ADD11R,1.700000X1.700000*%
%TD*%
%TA.AperFunction,ComponentPad*%
%ADD12C,1.700000*%
%TD*%
%TA.AperFunction,ComponentPad*%
%ADD13RoundRect,0.250000X-0.550000X-0.550000X0.550000X-0.550000X0.550000X0.550000X-0.550000X0.550000X0*%
%TD*%
%TA.AperFunction,ComponentPad*%
%ADD14C,1.600000*%
%TD*%
%TA.AperFunction,ComponentPad*%
%ADD15RoundRect,0.250000X-0.350000X0.350000X-0.350000X-0.350000X0.350000X-0.350000X0.350000X0.350000X0*%
%TD*%
%TA.AperFunction,ComponentPad*%
%ADD16C,1.200000*%
%TD*%
%TA.AperFunction,ComponentPad*%
%ADD17R,2.000000X1.905000*%
%TD*%
%TA.AperFunction,ComponentPad*%
%ADD18O,2.000000X1.905000*%
%TD*%
%TA.AperFunction,Conductor*%
%ADD19C,0.500000*%
%TD*%
G04 APERTURE END LIST*
D10*
%TO.P,ESP32-C3_SuperMini1,5V,5V*%
%TO.N,/5V0*%
X114620000Y-100100000D03*
%TO.P,ESP32-C3_SuperMini1,G,GND*%
%TO.N,GND*%
X114620000Y-102640000D03*
%TO.P,ESP32-C3_SuperMini1,3.3,3V3*%
%TO.N,/3V3*%
X114620000Y-105180000D03*
%TO.P,ESP32-C3_SuperMini1,4,GPIO4*%
%TO.N,unconnected-(ESP32-C3_SuperMini1-GPIO4-Pad4)*%
X114620000Y-107720000D03*
%TO.P,ESP32-C3_SuperMini1,3,GPIO3*%
%TO.N,/RX*%
X114620000Y-110260000D03*
%TO.P,ESP32-C3_SuperMini1,2,GPIO2*%
%TO.N,unconnected-(ESP32-C3_SuperMini1-GPIO2-Pad2)*%
X114620000Y-112800000D03*
%TO.P,ESP32-C3_SuperMini1,1,GPIO1*%
%TO.N,/SW*%
X114620000Y-115340000D03*
%TO.P,ESP32-C3_SuperMini1,0,GPIO0*%
%TO.N,/RY*%
X114620000Y-117880000D03*
%TO.P,ESP32-C3_SuperMini1,21,GPIO21*%
%TO.N,unconnected-(ESP32-C3_SuperMini1-GPIO21-Pad21)*%
X99380000Y-117880000D03*
%TO.P,ESP32-C3_SuperMini1,20,GPIO20*%
%TO.N,unconnected-(ESP32-C3_SuperMini1-GPIO20-Pad20)*%
X99380000Y-115340000D03*
%TO.P,ESP32-C3_SuperMini1,10,GPIO10*%
%TO.N,unconnected-(ESP32-C3_SuperMini1-GPIO10-Pad10)*%
X99380000Y-112800000D03*
%TO.P,ESP32-C3_SuperMini1,9,GPIO9*%
%TO.N,unconnected-(ESP32-C3_SuperMini1-GPIO9-Pad9)*%
X99380000Y-110260000D03*
%TO.P,ESP32-C3_SuperMini1,8,GPIO8*%
%TO.N,unconnected-(ESP32-C3_SuperMini1-GPIO8-Pad8)*%
X99380000Y-107720000D03*
%TO.P,ESP32-C3_SuperMini1,7,GPIO7*%
%TO.N,unconnected-(ESP32-C3_SuperMini1-GPIO7-Pad7)*%
X99380000Y-105180000D03*
%TO.P,ESP32-C3_SuperMini1,6,GPIO6*%
%TO.N,unconnected-(ESP32-C3_SuperMini1-GPIO6-Pad6)*%
X99380000Y-102640000D03*
%TO.P,ESP32-C3_SuperMini1,5,GPIO5*%
%TO.N,unconnected-(ESP32-C3_SuperMini1-GPIO5-Pad5)*%
X99380000Y-100100000D03*
%TD*%
D11*
%TO.P,joystick_2axes1,1,SW*%
%TO.N,/SW*%
X119380000Y-117000000D03*
D12*
%TO.P,joystick_2axes1,2,Ry*%
%TO.N,/RY*%
X121920000Y-117000000D03*
%TO.P,joystick_2axes1,3,Rx*%
%TO.N,/RX*%
X124460000Y-117000000D03*
%TO.P,joystick_2axes1,4,5V*%
%TO.N,/3V3*%
X127000000Y-117000000D03*
%TO.P,joystick_2axes1,5,GND*%
%TO.N,GND*%
X129540000Y-117000000D03*
%TD*%
D13*
%TO.P,input_c1,1*%
%TO.N,/7V4*%
X126500000Y-101000000D03*
D14*
%TO.P,input_c1,2*%
%TO.N,GND*%
X129000000Y-101000000D03*
%TD*%
D15*
%TO.P,output_c1,1*%
%TO.N,/5V0*%
X120500000Y-99500000D03*
D16*
%TO.P,output_c1,2*%
%TO.N,GND*%
X120500000Y-101500000D03*
%TD*%
D17*
%TO.P,volt_reg1,1,IN*%
%TO.N,/7V4*%
X130500000Y-107000000D03*
D18*
%TO.P,volt_reg1,2,GND*%
%TO.N,GND*%
X130500000Y-109540000D03*
%TO.P,volt_reg1,3,OUT*%
%TO.N,/5V0*%
X130500000Y-112080000D03*
%TD*%
D11*
%TO.P,smart_motor1,1,7V4*%
%TO.N,/7V4*%
X124000000Y-110500000D03*
D12*
%TO.P,smart_motor1,2,GND*%
%TO.N,GND*%
X121460000Y-110500000D03*
%TD*%
D19*
%TO.N,GND*%
X127200001Y-102799999D02*
X129000000Y-101000000D01*
X129000000Y-108040000D02*
X130500000Y-109540000D01*
X129000000Y-101000000D02*
X129000000Y-116460000D01*
X129000000Y-101000000D02*
X129000000Y-108040000D01*
X120500000Y-102000000D02*
X121299999Y-102799999D01*
X121299999Y-102799999D02*
X127200001Y-102799999D01*
X120500000Y-109540000D02*
X121460000Y-110500000D01*
X129000000Y-116460000D02*
X129540000Y-117000000D01*
X119960000Y-102540000D02*
X120500000Y-102000000D01*
X115240000Y-102540000D02*
X119960000Y-102540000D01*
X120500000Y-102000000D02*
X120500000Y-109540000D01*
%TD*%
%TA.AperFunction,Conductor*%
%TO.N,GND*%
G36*
X133942539Y-97520185D02*
G01*
X133988294Y-97572989D01*
X133999500Y-97624500D01*
X133999500Y-119875500D01*
X133979815Y-119942539D01*
X133927011Y-119988294D01*
X133875500Y-119999500D01*
X98124500Y-119999500D01*
X98057461Y-119979815D01*
X98011706Y-119927011D01*
X98000500Y-119875500D01*
X98000500Y-118218003D01*
X98020185Y-118150964D01*
X98072989Y-118105209D01*
X98142147Y-118095265D01*
X98205703Y-118124290D01*
X98242431Y-118179685D01*
X98291546Y-118330849D01*
X98291547Y-118330852D01*
X98375479Y-118495575D01*
X98484135Y-118645129D01*
X98484139Y-118645134D01*
X98614865Y-118775860D01*
X98614870Y-118775864D01*
X98745318Y-118870639D01*
X98764428Y-118884523D01*
X98872106Y-118939388D01*
X98929147Y-118968452D01*
X98929150Y-118968453D01*
X99104969Y-119025580D01*
X99287560Y-119054500D01*
X99287565Y-119054500D01*
X99472440Y-119054500D01*
X99655030Y-119025580D01*
X99830849Y-118968453D01*
X99830852Y-118968452D01*
X99995572Y-118884523D01*
X100145136Y-118775859D01*
X100275859Y-118645136D01*
X100384523Y-118495572D01*
X100468452Y-118330852D01*
X100480493Y-118293793D01*
X100525580Y-118155030D01*
X100554500Y-117972440D01*
X100554500Y-117787559D01*
X100525580Y-117604969D01*
X100468453Y-117429150D01*
X100468452Y-117429147D01*
X100410866Y-117316130D01*
X100384523Y-117264428D01*
X100332623Y-117192993D01*
X100275864Y-117114870D01*
X100275860Y-117114865D01*
X100145134Y-116984139D01*
X100145129Y-116984135D01*
X99995575Y-116875479D01*
X99995574Y-116875478D01*
X99995572Y-116875477D01*
X99942799Y-116848588D01*
X99830852Y-116791547D01*
X99830849Y-116791546D01*
X99655030Y-116734420D01*
X99642737Y-116732473D01*
X99579602Y-116702544D01*
X99542671Y-116643232D01*
X99543669Y-116573370D01*
X99582279Y-116515137D01*
X99642737Y-116487527D01*
X99644508Y-116487246D01*
X99655029Y-116485580D01*
X99830852Y-116428452D01*
X99995572Y-116344523D01*
X100145136Y-116235859D01*
X100275859Y-116105136D01*
X100384523Y-115955572D01*
X100468452Y-115790852D01*
X100482231Y-115748444D01*
X100525580Y-115615030D01*
X100554500Y-115432440D01*
X100554500Y-115247559D01*
X100525580Y-115064969D01*
X100468453Y-114889150D01*
X100468452Y-114889147D01*
X100439388Y-114832106D01*
X100384523Y-114724428D01*
X100370639Y-114705318D01*
X100275864Y-114574870D01*
X100275860Y-114574865D01*
X100145134Y-114444139D01*
X100145129Y-114444135D01*
X99995575Y-114335479D01*
X99995574Y-114335478D01*
X99995572Y-114335477D01*
X99942799Y-114308588D01*
X99830852Y-114251547D01*
X99830849Y-114251546D01*
X99655030Y-114194420D01*
X99642737Y-114192473D01*
X99579602Y-114162544D01*
X99542671Y-114103232D01*
X99543669Y-114033370D01*
X99582279Y-113975137D01*
X99642737Y-113947527D01*
X99644508Y-113947246D01*
X99655029Y-113945580D01*
X99830852Y-113888452D01*
X99995572Y-113804523D01*
X100145136Y-113695859D01*
X100275859Y-113565136D01*
X100384523Y-113415572D01*
X100468452Y-113250852D01*
X100505119Y-113138003D01*
X100525580Y-113075030D01*
X100554500Y-112892440D01*
X100554500Y-112707559D01*
X100525580Y-112524969D01*
X100468453Y-112349150D01*
X100468452Y-112349147D01*
X100439388Y-112292106D01*
X100384523Y-112184428D01*
X100370639Y-112165318D01*
X100275864Y-112034870D01*
X100275860Y-112034865D01*
X100145134Y-111904139D01*
X100145129Y-111904135D01*
X99995575Y-111795479D01*
X99995574Y-111795478D01*
X99995572Y-111795477D01*
X99942799Y-111768588D01*
X99830852Y-111711547D01*
X99830849Y-111711546D01*
X99655030Y-111654420D01*
X99642737Y-111652473D01*
X99579602Y-111622544D01*
X99542671Y-111563232D01*
X99543669Y-111493370D01*
X99582279Y-111435137D01*
X99642737Y-111407527D01*
X99644508Y-111407246D01*
X99655029Y-111405580D01*
X99830852Y-111348452D01*
X99995572Y-111264523D01*
X100145136Y-111155859D01*
X100275859Y-111025136D01*
X100384523Y-110875572D01*
X100468452Y-110710852D01*
X100495697Y-110627000D01*
X100525580Y-110535030D01*
X100554500Y-110352440D01*
X100554500Y-110167559D01*
X100525580Y-109984969D01*
X100468453Y-109809150D01*
X100468452Y-109809147D01*
X100413027Y-109700371D01*
X100384523Y-109644428D01*
X100353791Y-109602129D01*
X100275864Y-109494870D01*
X100275860Y-109494865D01*
X100145134Y-109364139D01*
X100145129Y-109364135D01*
X99995575Y-109255479D01*
X99995574Y-109255478D01*
X99995572Y-109255477D01*
X99942799Y-109228588D01*
X99830852Y-109171547D01*
X99830849Y-109171546D01*
X99655030Y-109114420D01*
X99642737Y-109112473D01*
X99579602Y-109082544D01*
X99542671Y-109023232D01*
X99543669Y-108953370D01*
X99582279Y-108895137D01*
X99642737Y-108867527D01*
X99644508Y-108867246D01*
X99655029Y-108865580D01*
X99830852Y-108808452D01*
X99995572Y-108724523D01*
X100145136Y-108615859D01*
X100275859Y-108485136D01*
X100384523Y-108335572D01*
X100468452Y-108170852D01*
X100468453Y-108170849D01*
X100525580Y-107995030D01*
X100554500Y-107812440D01*
X100554500Y-107627559D01*
X100525580Y-107444969D01*
X100468453Y-107269150D01*
X100468452Y-107269147D01*
X100439388Y-107212106D01*
X100384523Y-107104428D01*
X100370639Y-107085318D01*
X100275864Y-106954870D01*
X100275860Y-106954865D01*
X100145134Y-106824139D01*
X100145129Y-106824135D01*
X99995575Y-106715479D01*
X99995574Y-106715478D01*
X99995572Y-106715477D01*
X99942799Y-106688588D01*
X99830852Y-106631547D01*
X99830849Y-106631546D01*
X99655030Y-106574420D01*
X99642737Y-106572473D01*
X99579602Y-106542544D01*
X99542671Y-106483232D01*
X99543669Y-106413370D01*
X99582279Y-106355137D01*
X99642737Y-106327527D01*
X99644508Y-106327246D01*
X99655029Y-106325580D01*
X99830852Y-106268452D01*
X99995572Y-106184523D01*
X100145136Y-106075859D01*
X100275859Y-105945136D01*
X100384523Y-105795572D01*
X100468452Y-105630852D01*
X100525580Y-105455029D01*
X100535046Y-105395265D01*
X100554500Y-105272440D01*
X100554500Y-105087559D01*
X100525580Y-104904969D01*
X100468453Y-104729150D01*
X100468452Y-104729147D01*
X100439388Y-104672106D01*
X100384523Y-104564428D01*
X100370639Y-104545318D01*
X100275864Y-104414870D01*
X100275860Y-104414865D01*
X100145134Y-104284139D01*
X100145129Y-104284135D01*
X99995575Y-104175479D01*
X99995574Y-104175478D01*
X99995572Y-104175477D01*
X99942799Y-104148588D01*
X99830852Y-104091547D01*
X99830849Y-104091546D01*
X99655030Y-104034420D01*
X99642737Y-104032473D01*
X99579602Y-104002544D01*
X99542671Y-103943232D01*
X99543669Y-103873370D01*
X99582279Y-103815137D01*
X99642737Y-103787527D01*
X99644508Y-103787246D01*
X99655029Y-103785580D01*
X99830852Y-103728452D01*
X99995572Y-103644523D01*
X100145136Y-103535859D01*
X100275859Y-103405136D01*
X100384523Y-103255572D01*
X100468452Y-103090852D01*
X100505742Y-102976084D01*
X100525580Y-102915030D01*
X100554500Y-102732440D01*
X100554500Y-102547559D01*
X100525580Y-102364969D01*
X100468453Y-102189150D01*
X100468452Y-102189147D01*
X100429071Y-102111859D01*
X100384523Y-102024428D01*
X100346280Y-101971791D01*
X100275864Y-101874870D01*
X100275860Y-101874865D01*
X100145134Y-101744139D01*
X100145129Y-101744135D01*
X99995575Y-101635479D01*
X99995574Y-101635478D01*
X99995572Y-101635477D01*
X99925960Y-101600008D01*
X99830852Y-101551547D01*
X99830849Y-101551546D01*
X99655030Y-101494420D01*
X99642737Y-101492473D01*
X99579602Y-101462544D01*
X99542671Y-101403232D01*
X99543669Y-101333370D01*
X99582279Y-101275137D01*
X99642737Y-101247527D01*
X99644508Y-101247246D01*
X99655029Y-101245580D01*
X99830852Y-101188452D01*
X99995572Y-101104523D01*
X100145136Y-100995859D01*
X100275859Y-100865136D01*
X100384523Y-100715572D01*
X100468452Y-100550852D01*
X100517469Y-100399992D01*
X100525580Y-100375030D01*
X100554500Y-100192439D01*
X100554500Y-100007559D01*
X113445500Y-100007559D01*
X113445500Y-100192439D01*
X113474419Y-100375030D01*
X113531546Y-100550849D01*
X113531547Y-100550852D01*
X113588588Y-100662799D01*
X113597311Y-100679920D01*
X113615479Y-100715575D01*
X113724135Y-100865129D01*
X113724139Y-100865134D01*
X113854865Y-100995860D01*
X113854870Y-100995864D01*
X113967564Y-101077740D01*
X114004428Y-101104523D01*
X114112106Y-101159388D01*
X114169147Y-101188452D01*
X114169150Y-101188453D01*
X114344970Y-101245580D01*
X114358860Y-101247780D01*
X114421995Y-101277709D01*
X114458927Y-101337020D01*
X114457929Y-101406883D01*
X114419320Y-101465115D01*
X114358864Y-101492726D01*
X114345088Y-101494908D01*
X114169338Y-101552013D01*
X114004692Y-101635903D01*
X114004688Y-101635906D01*
X113984283Y-101650729D01*
X113984283Y-101650730D01*
X114555910Y-102222356D01*
X114457886Y-102248622D01*
X114362114Y-102303916D01*
X114283916Y-102382114D01*
X114228622Y-102477886D01*
X114202356Y-102575909D01*
X113630730Y-102004283D01*
X113630729Y-102004283D01*
X113615906Y-102024688D01*
X113615903Y-102024692D01*
X113532013Y-102189338D01*
X113474907Y-102365091D01*
X113446000Y-102547604D01*
X113446000Y-102732395D01*
X113474907Y-102914908D01*
X113532014Y-103090664D01*
X113615900Y-103255303D01*
X113615903Y-103255307D01*
X113630730Y-103275715D01*
X113630730Y-103275716D01*
X114202356Y-102704090D01*
X114228622Y-102802114D01*
X114283916Y-102897886D01*
X114362114Y-102976084D01*
X114457886Y-103031378D01*
X114555909Y-103057643D01*
X113984283Y-103629268D01*
X113984283Y-103629269D01*
X114004686Y-103644092D01*
X114169338Y-103727986D01*
X114345087Y-103785091D01*
X114358857Y-103787272D01*
X114421993Y-103817200D01*
X114458926Y-103876510D01*
X114457930Y-103946373D01*
X114419322Y-104004607D01*
X114358867Y-104032218D01*
X114344971Y-104034419D01*
X114169150Y-104091546D01*
X114169147Y-104091547D01*
X114004424Y-104175479D01*
X113854870Y-104284135D01*
X113854865Y-104284139D01*
X113724139Y-104414865D01*
X113724135Y-104414870D01*
X113615479Y-104564424D01*
X113531547Y-104729147D01*
X113531546Y-104729150D01*
X113474419Y-104904969D01*
X113445500Y-105087559D01*
X113445500Y-105272440D01*
X113474419Y-105455030D01*
X113531546Y-105630849D01*
X113531547Y-105630852D01*
X113615479Y-105795575D01*
X113724135Y-105945129D01*
X113724139Y-105945134D01*
X113854865Y-106075860D01*
X113854870Y-106075864D01*
X113985318Y-106170639D01*
X114004428Y-106184523D01*
X114112106Y-106239388D01*
X114169147Y-106268452D01*
X114169150Y-106268453D01*
X114257059Y-106297016D01*
X114344971Y-106325580D01*
X114355150Y-106327192D01*
X114357263Y-106327527D01*
X114420397Y-106357457D01*
X114457328Y-106416769D01*
X114456330Y-106486631D01*
X114417719Y-106544864D01*
X114357263Y-106572473D01*
X114344969Y-106574420D01*
X114169150Y-106631546D01*
X114169147Y-106631547D01*
X114004424Y-106715479D01*
X113854870Y-106824135D01*
X113854865Y-106824139D01*
X113724139Y-106954865D01*
X113724135Y-106954870D01*
X113615479Y-107104424D01*
X113531547Y-107269147D01*
X113531546Y-107269150D01*
X113474419Y-107444969D01*
X113445500Y-107627559D01*
X113445500Y-107812440D01*
X113474419Y-107995030D01*
X113531546Y-108170849D01*
X113531547Y-108170852D01*
X113588588Y-108282799D01*
X113602471Y-108310047D01*
X113615479Y-108335575D01*
X113724135Y-108485129D01*
X113724139Y-108485134D01*
X113854865Y-108615860D01*
X113854870Y-108615864D01*
X113985318Y-108710639D01*
X114004428Y-108724523D01*
X114110794Y-108778719D01*
X114169147Y-108808452D01*
X114169150Y-108808453D01*
X114257059Y-108837016D01*
X114344971Y-108865580D01*
X114355150Y-108867192D01*
X114357263Y-108867527D01*
X114420397Y-108897457D01*
X114457328Y-108956769D01*
X114456330Y-109026631D01*
X114417719Y-109084864D01*
X114357263Y-109112473D01*
X114344969Y-109114420D01*
X114169150Y-109171546D01*
X114169147Y-109171547D01*
X114004424Y-109255479D01*
X113854870Y-109364135D01*
X113854865Y-109364139D01*
X113724139Y-109494865D01*
X113724135Y-109494870D01*
X113615479Y-109644424D01*
X113531547Y-109809147D01*
X113531546Y-109809150D01*
X113474419Y-109984969D01*
X113445500Y-110167559D01*
X113445500Y-110352440D01*
X113474419Y-110535030D01*
X113531546Y-110710849D01*
X113531547Y-110710852D01*
X113558985Y-110764701D01*
X113604258Y-110853554D01*
X113615479Y-110875575D01*
X113724135Y-111025129D01*
X113724139Y-111025134D01*
X113854865Y-111155860D01*
X113854870Y-111155864D01*
X113926011Y-111207550D01*
X114004428Y-111264523D01*
X114110287Y-111318461D01*
X114169147Y-111348452D01*
X114169150Y-111348453D01*
X114207616Y-111360951D01*
X114344971Y-111405580D01*
X114355150Y-111407192D01*
X114357263Y-111407527D01*
X114420397Y-111437457D01*
X114457328Y-111496769D01*
X114456330Y-111566631D01*
X114417719Y-111624864D01*
X114357263Y-111652473D01*
X114344969Y-111654420D01*
X114169150Y-111711546D01*
X114169147Y-111711547D01*
X114004424Y-111795479D01*
X113854870Y-111904135D01*
X113854865Y-111904139D01*
X113724139Y-112034865D01*
X113724135Y-112034870D01*
X113615479Y-112184424D01*
X113531547Y-112349147D01*
X113531546Y-112349150D01*
X113474419Y-112524969D01*
X113445500Y-112707559D01*
X113445500Y-112892440D01*
X113474419Y-113075030D01*
X113531546Y-113250849D01*
X113531547Y-113250852D01*
X113615479Y-113415575D01*
X113724135Y-113565129D01*
X113724139Y-113565134D01*
X113854865Y-113695860D01*
X113854870Y-113695864D01*
X113985318Y-113790639D01*
X114004428Y-113804523D01*
X114112106Y-113859388D01*
X114169147Y-113888452D01*
X114169150Y-113888453D01*
X114257059Y-113917016D01*
X114344971Y-113945580D01*
X114355150Y-113947192D01*
X114357263Y-113947527D01*
X114420397Y-113977457D01*
X114457328Y-114036769D01*
X114456330Y-114106631D01*
X114417719Y-114164864D01*
X114357263Y-114192473D01*
X114344969Y-114194420D01*
X114169150Y-114251546D01*
X114169147Y-114251547D01*
X114004424Y-114335479D01*
X113854870Y-114444135D01*
X113854865Y-114444139D01*
X113724139Y-114574865D01*
X113724135Y-114574870D01*
X113615479Y-114724424D01*
X113531547Y-114889147D01*
X113531546Y-114889150D01*
X113474419Y-115064969D01*
X113445500Y-115247559D01*
X113445500Y-115432440D01*
X113474419Y-115615030D01*
X113531546Y-115790849D01*
X113531547Y-115790852D01*
X113559331Y-115845380D01*
X113615476Y-115955571D01*
X113615479Y-115955575D01*
X113724135Y-116105129D01*
X113724139Y-116105134D01*
X113854865Y-116235860D01*
X113854870Y-116235864D01*
X113945218Y-116301505D01*
X114004428Y-116344523D01*
X114112106Y-116399388D01*
X114169147Y-116428452D01*
X114169150Y-116428453D01*
X114257059Y-116457016D01*
X114344971Y-116485580D01*
X114355150Y-116487192D01*
X114357263Y-116487527D01*
X114420397Y-116517457D01*
X114457328Y-116576769D01*
X114456330Y-116646631D01*
X114417719Y-116704864D01*
X114357263Y-116732473D01*
X114344969Y-116734420D01*
X114169150Y-116791546D01*
X114169147Y-116791547D01*
X114004424Y-116875479D01*
X113854870Y-116984135D01*
X113854865Y-116984139D01*
X113724139Y-117114865D01*
X113724135Y-117114870D01*
X113615479Y-117264424D01*
X113531547Y-117429147D01*
X113531546Y-117429150D01*
X113474419Y-117604969D01*
X113445500Y-117787559D01*
X113445500Y-117972440D01*
X113474419Y-118155030D01*
X113531546Y-118330849D01*
X113531547Y-118330852D01*
X113615479Y-118495575D01*
X113724135Y-118645129D01*
X113724139Y-118645134D01*
X113854865Y-118775860D01*
X113854870Y-118775864D01*
X113985318Y-118870639D01*
X114004428Y-118884523D01*
X114112106Y-118939388D01*
X114169147Y-118968452D01*
X114169150Y-118968453D01*
X114344969Y-119025580D01*
X114527560Y-119054500D01*
X114527565Y-119054500D01*
X114712440Y-119054500D01*
X114895030Y-119025580D01*
X115070849Y-118968453D01*
X115070852Y-118968452D01*
X115235572Y-118884523D01*
X115385136Y-118775859D01*
X115515859Y-118645136D01*
X115624523Y-118495572D01*
X115708452Y-118330852D01*
X115720493Y-118293793D01*
X115765580Y-118155030D01*
X115794500Y-117972440D01*
X115794500Y-117787559D01*
X115765580Y-117604969D01*
X115708453Y-117429150D01*
X115708452Y-117429147D01*
X115650866Y-117316130D01*
X115624523Y-117264428D01*
X115572623Y-117192993D01*
X115515864Y-117114870D01*
X115515860Y-117114865D01*
X115385134Y-116984139D01*
X115385129Y-116984135D01*
X115235575Y-116875479D01*
X115235574Y-116875478D01*
X115235572Y-116875477D01*
X115182799Y-116848588D01*
X115070852Y-116791547D01*
X115070849Y-116791546D01*
X114895030Y-116734420D01*
X114882737Y-116732473D01*
X114819602Y-116702544D01*
X114782671Y-116643232D01*
X114783669Y-116573370D01*
X114822279Y-116515137D01*
X114882737Y-116487527D01*
X114884508Y-116487246D01*
X114895029Y-116485580D01*
X115070852Y-116428452D01*
X115235572Y-116344523D01*
X115385136Y-116235859D01*
X115515859Y-116105136D01*
X115518039Y-116102135D01*
X118029500Y-116102135D01*
X118029500Y-117897870D01*
X118029501Y-117897876D01*
X118035908Y-117957483D01*
X118086202Y-118092328D01*
X118086206Y-118092335D01*
X118172452Y-118207544D01*
X118172455Y-118207547D01*
X118287664Y-118293793D01*
X118287671Y-118293797D01*
X118422517Y-118344091D01*
X118422516Y-118344091D01*
X118429444Y-118344835D01*
X118482127Y-118350500D01*
X120277872Y-118350499D01*
X120337483Y-118344091D01*
X120472331Y-118293796D01*
X120587546Y-118207546D01*
X120673796Y-118092331D01*
X120722810Y-117960916D01*
X120764681Y-117904984D01*
X120830145Y-117880566D01*
X120898418Y-117895417D01*
X120926673Y-117916569D01*
X121040213Y-118030109D01*
X121212179Y-118155048D01*
X121212181Y-118155049D01*
X121212184Y-118155051D01*
X121401588Y-118251557D01*
X121603757Y-118317246D01*
X121813713Y-118350500D01*
X121813714Y-118350500D01*
X122026286Y-118350500D01*
X122026287Y-118350500D01*
X122236243Y-118317246D01*
X122438412Y-118251557D01*
X122627816Y-118155051D01*
X122714138Y-118092335D01*
X122799786Y-118030109D01*
X122799788Y-118030106D01*
X122799792Y-118030104D01*
X122950104Y-117879792D01*
X122950106Y-117879788D01*
X122950109Y-117879786D01*
X123075048Y-117707820D01*
X123075047Y-117707820D01*
X123075051Y-117707816D01*
X123079514Y-117699054D01*
X123127488Y-117648259D01*
X123195308Y-117631463D01*
X123261444Y-117653999D01*
X123300486Y-117699056D01*
X123304951Y-117707820D01*
X123429890Y-117879786D01*
X123580213Y-118030109D01*
X123752179Y-118155048D01*
X123752181Y-118155049D01*
X123752184Y-118155051D01*
X123941588Y-118251557D01*
X124143757Y-118317246D01*
X124353713Y-118350500D01*
X124353714Y-118350500D01*
X124566286Y-118350500D01*
X124566287Y-118350500D01*
X124776243Y-118317246D01*
X124978412Y-118251557D01*
X125167816Y-118155051D01*
X125254138Y-118092335D01*
X125339786Y-118030109D01*
X125339788Y-118030106D01*
X125339792Y-118030104D01*
X125490104Y-117879792D01*
X125490106Y-117879788D01*
X125490109Y-117879786D01*
X125615048Y-117707820D01*
X125615047Y-117707820D01*
X125615051Y-117707816D01*
X125619514Y-117699054D01*
X125667488Y-117648259D01*
X125735308Y-117631463D01*
X125801444Y-117653999D01*
X125840486Y-117699056D01*
X125844951Y-117707820D01*
X125969890Y-117879786D01*
X126120213Y-118030109D01*
X126292179Y-118155048D01*
X126292181Y-118155049D01*
X126292184Y-118155051D01*
X126481588Y-118251557D01*
X126683757Y-118317246D01*
X126893713Y-118350500D01*
X126893714Y-118350500D01*
X127106286Y-118350500D01*
X127106287Y-118350500D01*
X127316243Y-118317246D01*
X127518412Y-118251557D01*
X127707816Y-118155051D01*
X127794138Y-118092335D01*
X127879786Y-118030109D01*
X127879788Y-118030106D01*
X127879792Y-118030104D01*
X128030104Y-117879792D01*
X128030106Y-117879788D01*
X128030109Y-117879786D01*
X128115890Y-117761717D01*
X128155051Y-117707816D01*
X128159793Y-117698508D01*
X128207763Y-117647711D01*
X128275583Y-117630911D01*
X128341719Y-117653445D01*
X128380763Y-117698500D01*
X128385373Y-117707547D01*
X128424728Y-117761716D01*
X129057037Y-117129408D01*
X129074075Y-117192993D01*
X129139901Y-117307007D01*
X129232993Y-117400099D01*
X129347007Y-117465925D01*
X129410590Y-117482962D01*
X128778282Y-118115269D01*
X128778282Y-118115270D01*
X128832449Y-118154624D01*
X129021782Y-118251095D01*
X129223870Y-118316757D01*
X129433754Y-118350000D01*
X129646246Y-118350000D01*
X129856127Y-118316757D01*
X129856130Y-118316757D01*
X130058217Y-118251095D01*
X130247554Y-118154622D01*
X130301716Y-118115270D01*
X130301717Y-118115270D01*
X129669408Y-117482962D01*
X129732993Y-117465925D01*
X129847007Y-117400099D01*
X129940099Y-117307007D01*
X130005925Y-117192993D01*
X130022962Y-117129408D01*
X130655270Y-117761717D01*
X130655270Y-117761716D01*
X130694622Y-117707554D01*
X130791095Y-117518217D01*
X130856757Y-117316130D01*
X130856757Y-117316127D01*
X130890000Y-117106246D01*
X130890000Y-116893753D01*
X130856757Y-116683872D01*
X130856757Y-116683869D01*
X130791095Y-116481782D01*
X130694624Y-116292449D01*
X130655270Y-116238282D01*
X130655269Y-116238282D01*
X130022962Y-116870590D01*
X130005925Y-116807007D01*
X129940099Y-116692993D01*
X129847007Y-116599901D01*
X129732993Y-116534075D01*
X129669409Y-116517037D01*
X130301716Y-115884728D01*
X130247550Y-115845375D01*
X130058217Y-115748904D01*
X129856129Y-115683242D01*
X129646246Y-115650000D01*
X129433754Y-115650000D01*
X129223872Y-115683242D01*
X129223869Y-115683242D01*
X129021782Y-115748904D01*
X128832439Y-115845380D01*
X128778282Y-115884727D01*
X128778282Y-115884728D01*
X129410591Y-116517037D01*
X129347007Y-116534075D01*
X129232993Y-116599901D01*
X129139901Y-116692993D01*
X129074075Y-116807007D01*
X129057037Y-116870591D01*
X128424728Y-116238282D01*
X128424727Y-116238282D01*
X128385380Y-116292440D01*
X128385376Y-116292446D01*
X128380760Y-116301505D01*
X128332781Y-116352297D01*
X128264959Y-116369087D01*
X128198826Y-116346543D01*
X128159794Y-116301493D01*
X128155051Y-116292184D01*
X128155049Y-116292181D01*
X128155048Y-116292179D01*
X128030109Y-116120213D01*
X127879786Y-115969890D01*
X127707820Y-115844951D01*
X127518414Y-115748444D01*
X127518413Y-115748443D01*
X127518412Y-115748443D01*
X127316243Y-115682754D01*
X127316241Y-115682753D01*
X127316240Y-115682753D01*
X127154957Y-115657208D01*
X127106287Y-115649500D01*
X126893713Y-115649500D01*
X126845042Y-115657208D01*
X126683760Y-115682753D01*
X126481585Y-115748444D01*
X126292179Y-115844951D01*
X126120213Y-115969890D01*
X125969890Y-116120213D01*
X125844949Y-116292182D01*
X125840484Y-116300946D01*
X125792509Y-116351742D01*
X125724688Y-116368536D01*
X125658553Y-116345998D01*
X125619516Y-116300946D01*
X125615050Y-116292182D01*
X125490109Y-116120213D01*
X125339786Y-115969890D01*
X125167820Y-115844951D01*
X124978414Y-115748444D01*
X124978413Y-115748443D01*
X124978412Y-115748443D01*
X124776243Y-115682754D01*
X124776241Y-115682753D01*
X124776240Y-115682753D01*
X124614957Y-115657208D01*
X124566287Y-115649500D01*
X124353713Y-115649500D01*
X124305042Y-115657208D01*
X124143760Y-115682753D01*
X123941585Y-115748444D01*
X123752179Y-115844951D01*
X123580213Y-115969890D01*
X123429890Y-116120213D01*
X123304949Y-116292182D01*
X123300484Y-116300946D01*
X123252509Y-116351742D01*
X123184688Y-116368536D01*
X123118553Y-116345998D01*
X123079516Y-116300946D01*
X123075050Y-116292182D01*
X122950109Y-116120213D01*
X122799786Y-115969890D01*
X122627820Y-115844951D01*
X122438414Y-115748444D01*
X122438413Y-115748443D01*
X122438412Y-115748443D01*
X122236243Y-115682754D01*
X122236241Y-115682753D01*
X122236240Y-115682753D01*
X122074957Y-115657208D01*
X122026287Y-115649500D01*
X121813713Y-115649500D01*
X121765042Y-115657208D01*
X121603760Y-115682753D01*
X121401585Y-115748444D01*
X121212179Y-115844951D01*
X121040215Y-115969889D01*
X120926673Y-116083431D01*
X120865350Y-116116915D01*
X120795658Y-116111931D01*
X120739725Y-116070059D01*
X120722810Y-116039082D01*
X120673797Y-115907671D01*
X120673793Y-115907664D01*
X120587547Y-115792455D01*
X120587544Y-115792452D01*
X120472335Y-115706206D01*
X120472328Y-115706202D01*
X120337482Y-115655908D01*
X120337483Y-115655908D01*
X120277883Y-115649501D01*
X120277881Y-115649500D01*
X120277873Y-115649500D01*
X120277864Y-115649500D01*
X118482129Y-115649500D01*
X118482123Y-115649501D01*
X118422516Y-115655908D01*
X118287671Y-115706202D01*
X118287664Y-115706206D01*
X118172455Y-115792452D01*
X118172452Y-115792455D01*
X118086206Y-115907664D01*
X118086202Y-115907671D01*
X118035908Y-116042517D01*
X118029501Y-116102116D01*
X118029500Y-116102135D01*
X115518039Y-116102135D01*
X115624523Y-115955572D01*
X115708452Y-115790852D01*
X115722231Y-115748444D01*
X115765580Y-115615030D01*
X115794500Y-115432440D01*
X115794500Y-115247559D01*
X115765580Y-115064969D01*
X115708453Y-114889150D01*
X115708452Y-114889147D01*
X115679388Y-114832106D01*
X115624523Y-114724428D01*
X115610639Y-114705318D01*
X115515864Y-114574870D01*
X115515860Y-114574865D01*
X115385134Y-114444139D01*
X115385129Y-114444135D01*
X115235575Y-114335479D01*
X115235574Y-114335478D01*
X115235572Y-114335477D01*
X115182799Y-114308588D01*
X115070852Y-114251547D01*
X115070849Y-114251546D01*
X114895030Y-114194420D01*
X114882737Y-114192473D01*
X114819602Y-114162544D01*
X114782671Y-114103232D01*
X114783669Y-114033370D01*
X114822279Y-113975137D01*
X114882737Y-113947527D01*
X114884508Y-113947246D01*
X114895029Y-113945580D01*
X115070852Y-113888452D01*
X115235572Y-113804523D01*
X115385136Y-113695859D01*
X115515859Y-113565136D01*
X115624523Y-113415572D01*
X115708452Y-113250852D01*
X115745119Y-113138003D01*
X115765580Y-113075030D01*
X115794500Y-112892440D01*
X115794500Y-112707559D01*
X115765580Y-112524969D01*
X115708453Y-112349150D01*
X115708452Y-112349147D01*
X115679388Y-112292106D01*
X115624523Y-112184428D01*
X115610639Y-112165318D01*
X115515864Y-112034870D01*
X115515860Y-112034865D01*
X115385134Y-111904139D01*
X115385129Y-111904135D01*
X115235575Y-111795479D01*
X115235574Y-111795478D01*
X115235572Y-111795477D01*
X115182799Y-111768588D01*
X115070852Y-111711547D01*
X115070849Y-111711546D01*
X114993595Y-111686445D01*
X114993565Y-111686436D01*
X114895029Y-111654420D01*
X114874692Y-111651199D01*
X114866893Y-111648887D01*
X114844110Y-111634162D01*
X114819602Y-111622544D01*
X114815202Y-111615478D01*
X114808213Y-111610961D01*
X114797009Y-111586259D01*
X114782671Y-111563232D01*
X114782789Y-111554909D01*
X114779352Y-111547330D01*
X114783281Y-111520491D01*
X114783669Y-111493370D01*
X114788268Y-111486433D01*
X114789474Y-111478198D01*
X114807289Y-111457744D01*
X114822279Y-111435137D01*
X114830087Y-111431571D01*
X114835365Y-111425512D01*
X114857366Y-111419113D01*
X114882737Y-111407527D01*
X114884508Y-111407246D01*
X114895029Y-111405580D01*
X115070852Y-111348452D01*
X115235572Y-111264523D01*
X115385136Y-111155859D01*
X115515859Y-111025136D01*
X115624523Y-110875572D01*
X115708452Y-110710852D01*
X115765580Y-110535029D01*
X115787956Y-110393753D01*
X120110000Y-110393753D01*
X120110000Y-110606246D01*
X120143242Y-110816127D01*
X120143242Y-110816130D01*
X120208904Y-111018217D01*
X120305375Y-111207550D01*
X120344728Y-111261716D01*
X120977037Y-110629408D01*
X120994075Y-110692993D01*
X121059901Y-110807007D01*
X121152993Y-110900099D01*
X121267007Y-110965925D01*
X121330590Y-110982962D01*
X120698282Y-111615269D01*
X120698282Y-111615270D01*
X120752449Y-111654624D01*
X120941782Y-111751095D01*
X121143870Y-111816757D01*
X121353754Y-111850000D01*
X121566246Y-111850000D01*
X121776127Y-111816757D01*
X121776130Y-111816757D01*
X121978217Y-111751095D01*
X122167554Y-111654622D01*
X122221716Y-111615270D01*
X122221717Y-111615270D01*
X121589408Y-110982962D01*
X121652993Y-110965925D01*
X121767007Y-110900099D01*
X121860099Y-110807007D01*
X121925925Y-110692993D01*
X121942962Y-110629409D01*
X122613181Y-111299628D01*
X122646666Y-111360951D01*
X122649500Y-111387300D01*
X122649500Y-111397865D01*
X122649501Y-111397876D01*
X122655908Y-111457483D01*
X122706202Y-111592328D01*
X122706206Y-111592335D01*
X122792452Y-111707544D01*
X122792455Y-111707547D01*
X122907664Y-111793793D01*
X122907671Y-111793797D01*
X123042517Y-111844091D01*
X123042516Y-111844091D01*
X123049444Y-111844835D01*
X123102127Y-111850500D01*
X124897872Y-111850499D01*
X124957483Y-111844091D01*
X125092331Y-111793796D01*
X125207546Y-111707546D01*
X125293796Y-111592331D01*
X125344091Y-111457483D01*
X125350500Y-111397873D01*
X125350499Y-109602128D01*
X125344091Y-109542517D01*
X125330050Y-109504872D01*
X125293797Y-109407671D01*
X125293793Y-109407664D01*
X125207547Y-109292455D01*
X125207544Y-109292452D01*
X125092335Y-109206206D01*
X125092328Y-109206202D01*
X124957482Y-109155908D01*
X124957483Y-109155908D01*
X124897883Y-109149501D01*
X124897881Y-109149500D01*
X124897873Y-109149500D01*
X124897864Y-109149500D01*
X123102129Y-109149500D01*
X123102123Y-109149501D01*
X123042516Y-109155908D01*
X122907671Y-109206202D01*
X122907664Y-109206206D01*
X122792455Y-109292452D01*
X122792452Y-109292455D01*
X122706206Y-109407664D01*
X122706202Y-109407671D01*
X122655908Y-109542517D01*
X122649501Y-109602116D01*
X122649501Y-109602123D01*
X122649500Y-109602135D01*
X122649500Y-109612690D01*
X122629815Y-109679729D01*
X122613181Y-109700371D01*
X121942962Y-110370590D01*
X121925925Y-110307007D01*
X121860099Y-110192993D01*
X121767007Y-110099901D01*
X121652993Y-110034075D01*
X121589409Y-110017037D01*
X122221716Y-109384728D01*
X122167550Y-109345375D01*
X121978217Y-109248904D01*
X121776129Y-109183242D01*
X121566246Y-109150000D01*
X121353754Y-109150000D01*
X121143872Y-109183242D01*
X121143869Y-109183242D01*
X120941782Y-109248904D01*
X120752439Y-109345380D01*
X120698282Y-109384727D01*
X120698282Y-109384728D01*
X121330591Y-110017037D01*
X121267007Y-110034075D01*
X121152993Y-110099901D01*
X121059901Y-110192993D01*
X120994075Y-110307007D01*
X120977037Y-110370591D01*
X120344728Y-109738282D01*
X120344727Y-109738282D01*
X120305380Y-109792439D01*
X120208904Y-109981782D01*
X120143242Y-110183869D01*
X120143242Y-110183872D01*
X120110000Y-110393753D01*
X115787956Y-110393753D01*
X115791789Y-110369555D01*
X115791800Y-110369485D01*
X115794500Y-110352436D01*
X115794500Y-110167559D01*
X115765580Y-109984969D01*
X115708453Y-109809150D01*
X115708452Y-109809147D01*
X115653027Y-109700371D01*
X115624523Y-109644428D01*
X115593791Y-109602129D01*
X115523131Y-109504872D01*
X115523130Y-109504871D01*
X115515862Y-109494867D01*
X115385134Y-109364139D01*
X115385129Y-109364135D01*
X115235575Y-109255479D01*
X115235574Y-109255478D01*
X115235572Y-109255477D01*
X115182799Y-109228588D01*
X115070852Y-109171547D01*
X115070849Y-109171546D01*
X114895030Y-109114420D01*
X114882737Y-109112473D01*
X114819602Y-109082544D01*
X114782671Y-109023232D01*
X114783669Y-108953370D01*
X114822279Y-108895137D01*
X114882737Y-108867527D01*
X114884508Y-108867246D01*
X114895029Y-108865580D01*
X115070852Y-108808452D01*
X115235572Y-108724523D01*
X115385136Y-108615859D01*
X115515859Y-108485136D01*
X115624523Y-108335572D01*
X115708452Y-108170852D01*
X115708453Y-108170849D01*
X115765580Y-107995030D01*
X115794500Y-107812440D01*
X115794500Y-107627559D01*
X115765580Y-107444969D01*
X115708453Y-107269150D01*
X115708452Y-107269147D01*
X115679388Y-107212106D01*
X115624523Y-107104428D01*
X115610639Y-107085318D01*
X115515864Y-106954870D01*
X115515860Y-106954865D01*
X115385134Y-106824139D01*
X115385129Y-106824135D01*
X115235575Y-106715479D01*
X115235574Y-106715478D01*
X115235572Y-106715477D01*
X115182799Y-106688588D01*
X115070852Y-106631547D01*
X115070849Y-106631546D01*
X114895030Y-106574420D01*
X114882737Y-106572473D01*
X114819602Y-106542544D01*
X114782671Y-106483232D01*
X114783669Y-106413370D01*
X114822279Y-106355137D01*
X114882737Y-106327527D01*
X114884508Y-106327246D01*
X114895029Y-106325580D01*
X115070852Y-106268452D01*
X115235572Y-106184523D01*
X115385136Y-106075859D01*
X115461360Y-105999635D01*
X128999500Y-105999635D01*
X128999500Y-108000370D01*
X128999501Y-108000376D01*
X129005908Y-108059983D01*
X129056202Y-108194828D01*
X129056206Y-108194835D01*
X129142452Y-108310044D01*
X129142455Y-108310047D01*
X129257664Y-108396293D01*
X129257667Y-108396295D01*
X129257668Y-108396295D01*
X129257669Y-108396296D01*
X129286025Y-108406872D01*
X129341958Y-108448742D01*
X129366376Y-108514206D01*
X129351525Y-108582479D01*
X129343010Y-108595939D01*
X129210213Y-108778719D01*
X129106417Y-108982429D01*
X129035765Y-109199871D01*
X129021491Y-109290000D01*
X130009252Y-109290000D01*
X129987482Y-109327708D01*
X129950000Y-109467591D01*
X129950000Y-109612409D01*
X129987482Y-109752292D01*
X130009252Y-109790000D01*
X129021491Y-109790000D01*
X129035765Y-109880128D01*
X129106417Y-110097570D01*
X129210211Y-110301276D01*
X129344597Y-110486242D01*
X129506257Y-110647902D01*
X129506263Y-110647907D01*
X129590863Y-110709372D01*
X129633529Y-110764701D01*
X129639508Y-110834315D01*
X129606903Y-110896110D01*
X129590864Y-110910007D01*
X129505940Y-110971709D01*
X129505931Y-110971716D01*
X129344216Y-111133431D01*
X129344216Y-111133432D01*
X129344214Y-111133434D01*
X129327921Y-111155860D01*
X129209783Y-111318461D01*
X129105950Y-111522244D01*
X129035278Y-111739750D01*
X129035278Y-111739753D01*
X128999500Y-111965646D01*
X128999500Y-112194353D01*
X129035278Y-112420246D01*
X129035278Y-112420249D01*
X129105950Y-112637755D01*
X129105952Y-112637758D01*
X129209783Y-112841538D01*
X129344214Y-113026566D01*
X129505934Y-113188286D01*
X129690962Y-113322717D01*
X129873206Y-113415575D01*
X129894744Y-113426549D01*
X130112251Y-113497221D01*
X130112252Y-113497221D01*
X130112255Y-113497222D01*
X130338146Y-113533000D01*
X130338147Y-113533000D01*
X130661853Y-113533000D01*
X130661854Y-113533000D01*
X130887745Y-113497222D01*
X130887748Y-113497221D01*
X130887749Y-113497221D01*
X131105255Y-113426549D01*
X131105255Y-113426548D01*
X131105258Y-113426548D01*
X131309038Y-113322717D01*
X131494066Y-113188286D01*
X131655786Y-113026566D01*
X131790217Y-112841538D01*
X131894048Y-112637758D01*
X131915000Y-112573273D01*
X131964721Y-112420249D01*
X131964721Y-112420248D01*
X131964722Y-112420245D01*
X132000500Y-112194354D01*
X132000500Y-111965646D01*
X131964722Y-111739755D01*
X131964721Y-111739751D01*
X131964721Y-111739750D01*
X131894049Y-111522244D01*
X131871606Y-111478198D01*
X131790217Y-111318462D01*
X131655786Y-111133434D01*
X131494066Y-110971714D01*
X131409134Y-110910007D01*
X131366470Y-110854678D01*
X131360491Y-110785064D01*
X131393097Y-110723269D01*
X131409137Y-110709371D01*
X131493739Y-110647905D01*
X131655402Y-110486242D01*
X131789788Y-110301276D01*
X131893582Y-110097570D01*
X131964234Y-109880128D01*
X131978509Y-109790000D01*
X130990748Y-109790000D01*
X131012518Y-109752292D01*
X131050000Y-109612409D01*
X131050000Y-109467591D01*
X131012518Y-109327708D01*
X130990748Y-109290000D01*
X131978509Y-109290000D01*
X131964234Y-109199871D01*
X131893582Y-108982429D01*
X131789788Y-108778723D01*
X131656988Y-108595940D01*
X131633508Y-108530133D01*
X131649333Y-108462079D01*
X131699439Y-108413384D01*
X131713966Y-108406875D01*
X131742331Y-108396296D01*
X131857546Y-108310046D01*
X131943796Y-108194831D01*
X131994091Y-108059983D01*
X132000500Y-108000373D01*
X132000499Y-105999628D01*
X131994091Y-105940017D01*
X131943796Y-105805169D01*
X131943795Y-105805168D01*
X131943793Y-105805164D01*
X131857547Y-105689955D01*
X131857544Y-105689952D01*
X131742335Y-105603706D01*
X131742328Y-105603702D01*
X131607482Y-105553408D01*
X131607483Y-105553408D01*
X131547883Y-105547001D01*
X131547881Y-105547000D01*
X131547873Y-105547000D01*
X131547864Y-105547000D01*
X129452129Y-105547000D01*
X129452123Y-105547001D01*
X129392516Y-105553408D01*
X129257671Y-105603702D01*
X129257664Y-105603706D01*
X129142455Y-105689952D01*
X129142452Y-105689955D01*
X129056206Y-105805164D01*
X129056202Y-105805171D01*
X129005908Y-105940017D01*
X128999501Y-105999616D01*
X128999501Y-105999623D01*
X128999500Y-105999635D01*
X115461360Y-105999635D01*
X115515859Y-105945136D01*
X115624523Y-105795572D01*
X115708452Y-105630852D01*
X115765580Y-105455029D01*
X115775046Y-105395265D01*
X115794500Y-105272440D01*
X115794500Y-105087559D01*
X115765580Y-104904969D01*
X115708453Y-104729150D01*
X115708452Y-104729147D01*
X115679388Y-104672106D01*
X115624523Y-104564428D01*
X115610639Y-104545318D01*
X115515864Y-104414870D01*
X115515860Y-104414865D01*
X115385134Y-104284139D01*
X115385129Y-104284135D01*
X115235575Y-104175479D01*
X115235574Y-104175478D01*
X115235572Y-104175477D01*
X115182799Y-104148588D01*
X115070852Y-104091547D01*
X115070849Y-104091546D01*
X114895033Y-104034421D01*
X114895031Y-104034420D01*
X114895029Y-104034420D01*
X114882736Y-104032473D01*
X114881133Y-104032219D01*
X114818000Y-104002287D01*
X114781071Y-103942974D01*
X114782071Y-103873111D01*
X114820683Y-103814880D01*
X114881143Y-103787272D01*
X114894911Y-103785091D01*
X115070661Y-103727986D01*
X115235310Y-103644094D01*
X115255715Y-103629268D01*
X115255716Y-103629268D01*
X114684090Y-103057642D01*
X114782114Y-103031378D01*
X114877886Y-102976084D01*
X114956084Y-102897886D01*
X115011378Y-102802114D01*
X115037643Y-102704090D01*
X115609268Y-103275716D01*
X115609268Y-103275715D01*
X115624094Y-103255310D01*
X115707986Y-103090661D01*
X115765092Y-102914908D01*
X115794000Y-102732395D01*
X115794000Y-102547603D01*
X115776370Y-102436289D01*
X119917261Y-102436289D01*
X119917262Y-102436290D01*
X119923471Y-102440801D01*
X120077742Y-102519408D01*
X120242415Y-102572914D01*
X120413429Y-102600000D01*
X120586571Y-102600000D01*
X120757584Y-102572914D01*
X120922257Y-102519408D01*
X121076525Y-102440803D01*
X121082736Y-102436289D01*
X121082737Y-102436289D01*
X120500001Y-101853553D01*
X120500000Y-101853553D01*
X119917261Y-102436289D01*
X115776370Y-102436289D01*
X115771957Y-102408427D01*
X115765092Y-102365090D01*
X115707986Y-102189338D01*
X115624092Y-102024686D01*
X115609269Y-102004283D01*
X115037642Y-102575909D01*
X115011378Y-102477886D01*
X114956084Y-102382114D01*
X114877886Y-102303916D01*
X114782114Y-102248622D01*
X114684090Y-102222356D01*
X115255716Y-101650730D01*
X115235307Y-101635903D01*
X115235303Y-101635900D01*
X115070664Y-101552014D01*
X114993720Y-101527013D01*
X114865461Y-101489189D01*
X114842588Y-101474451D01*
X114818002Y-101462796D01*
X114813649Y-101455805D01*
X114806728Y-101451346D01*
X114795453Y-101426580D01*
X114787264Y-101413428D01*
X119400000Y-101413428D01*
X119400000Y-101586571D01*
X119427085Y-101757584D01*
X119480592Y-101922259D01*
X119559196Y-102076525D01*
X119563709Y-102082736D01*
X119563709Y-102082737D01*
X120146446Y-101500000D01*
X120146446Y-101499999D01*
X120106951Y-101460504D01*
X120200000Y-101460504D01*
X120200000Y-101539496D01*
X120220444Y-101615796D01*
X120259940Y-101684205D01*
X120315795Y-101740060D01*
X120384204Y-101779556D01*
X120460504Y-101800000D01*
X120539496Y-101800000D01*
X120615796Y-101779556D01*
X120684205Y-101740060D01*
X120740060Y-101684205D01*
X120779556Y-101615796D01*
X120800000Y-101539496D01*
X120800000Y-101499999D01*
X120853553Y-101499999D01*
X120853553Y-101500001D01*
X121436289Y-102082737D01*
X121436289Y-102082736D01*
X121440803Y-102076525D01*
X121519408Y-101922257D01*
X121572914Y-101757584D01*
X121600000Y-101586571D01*
X121600000Y-101413428D01*
X121572914Y-101242415D01*
X121519408Y-101077742D01*
X121440801Y-100923471D01*
X121436290Y-100917262D01*
X121436289Y-100917261D01*
X120853553Y-101499999D01*
X120800000Y-101499999D01*
X120800000Y-101460504D01*
X120779556Y-101384204D01*
X120740060Y-101315795D01*
X120684205Y-101259940D01*
X120615796Y-101220444D01*
X120539496Y-101200000D01*
X120460504Y-101200000D01*
X120384204Y-101220444D01*
X120315795Y-101259940D01*
X120259940Y-101315795D01*
X120220444Y-101384204D01*
X120200000Y-101460504D01*
X120106951Y-101460504D01*
X119563709Y-100917261D01*
X119563708Y-100917261D01*
X119559203Y-100923463D01*
X119559193Y-100923480D01*
X119480592Y-101077740D01*
X119427085Y-101242415D01*
X119400000Y-101413428D01*
X114787264Y-101413428D01*
X114781072Y-101403484D01*
X114781189Y-101395251D01*
X114777777Y-101387756D01*
X114781681Y-101360825D01*
X114782070Y-101333621D01*
X114786620Y-101326757D01*
X114787802Y-101318609D01*
X114805644Y-101298066D01*
X114820681Y-101275389D01*
X114828405Y-101271861D01*
X114833619Y-101265859D01*
X114855658Y-101259415D01*
X114881137Y-101247780D01*
X114895029Y-101245580D01*
X115070852Y-101188452D01*
X115235572Y-101104523D01*
X115385136Y-100995859D01*
X115515859Y-100865136D01*
X115624523Y-100715572D01*
X115708452Y-100550852D01*
X115757469Y-100399992D01*
X115765580Y-100375030D01*
X115794500Y-100192439D01*
X115794500Y-100007559D01*
X115765580Y-99824969D01*
X115708453Y-99649150D01*
X115708452Y-99649147D01*
X115679388Y-99592106D01*
X115624523Y-99484428D01*
X115610639Y-99465318D01*
X115515864Y-99334870D01*
X115515860Y-99334865D01*
X115385134Y-99204139D01*
X115375517Y-99197152D01*
X115375515Y-99197150D01*
X115241774Y-99099983D01*
X119399500Y-99099983D01*
X119399500Y-99900001D01*
X119399501Y-99900019D01*
X119410000Y-100002796D01*
X119410001Y-100002799D01*
X119452372Y-100130663D01*
X119465186Y-100169334D01*
X119557288Y-100318656D01*
X119681344Y-100442712D01*
X119830666Y-100534814D01*
X119889066Y-100554166D01*
X119937743Y-100584190D01*
X120500000Y-101146446D01*
X120500001Y-101146446D01*
X121062254Y-100584191D01*
X121110930Y-100554167D01*
X121169334Y-100534814D01*
X121318656Y-100442712D01*
X121361385Y-100399983D01*
X125199500Y-100399983D01*
X125199500Y-101600001D01*
X125199501Y-101600018D01*
X125210000Y-101702796D01*
X125210001Y-101702799D01*
X125265185Y-101869331D01*
X125265187Y-101869336D01*
X125297829Y-101922257D01*
X125357288Y-102018656D01*
X125481344Y-102142712D01*
X125630666Y-102234814D01*
X125797203Y-102289999D01*
X125899991Y-102300500D01*
X127100008Y-102300499D01*
X127202797Y-102289999D01*
X127369334Y-102234814D01*
X127518656Y-102142712D01*
X127642712Y-102018656D01*
X127734814Y-101869334D01*
X127758102Y-101799054D01*
X127762110Y-101791050D01*
X127780060Y-101771772D01*
X127795055Y-101750116D01*
X127803495Y-101746606D01*
X127809725Y-101739917D01*
X127835249Y-101733404D01*
X127859571Y-101723292D01*
X127875834Y-101723048D01*
X127877425Y-101722643D01*
X127878523Y-101723008D01*
X127882719Y-101722946D01*
X127920525Y-101725921D01*
X128600000Y-101046446D01*
X128600000Y-101052661D01*
X128627259Y-101154394D01*
X128679920Y-101245606D01*
X128754394Y-101320080D01*
X128845606Y-101372741D01*
X128947339Y-101400000D01*
X128953553Y-101400000D01*
X128274076Y-102079474D01*
X128318650Y-102111859D01*
X128500968Y-102204755D01*
X128695582Y-102267990D01*
X128897683Y-102300000D01*
X129102317Y-102300000D01*
X129304417Y-102267990D01*
X129499031Y-102204755D01*
X129681349Y-102111859D01*
X129725921Y-102079474D01*
X129046447Y-101400000D01*
X129052661Y-101400000D01*
X129154394Y-101372741D01*
X129245606Y-101320080D01*
X129320080Y-101245606D01*
X129372741Y-101154394D01*
X129400000Y-101052661D01*
X129400000Y-101046448D01*
X130079474Y-101725922D01*
X130079474Y-101725921D01*
X130111859Y-101681349D01*
X130204755Y-101499031D01*
X130267990Y-101304417D01*
X130300000Y-101102317D01*
X130300000Y-100897682D01*
X130267990Y-100695582D01*
X130204755Y-100500968D01*
X130111859Y-100318650D01*
X130079474Y-100274077D01*
X130079474Y-100274076D01*
X129400000Y-100953551D01*
X129400000Y-100947339D01*
X129372741Y-100845606D01*
X129320080Y-100754394D01*
X129245606Y-100679920D01*
X129154394Y-100627259D01*
X129052661Y-100600000D01*
X129046446Y-100600000D01*
X129725922Y-99920524D01*
X129725921Y-99920523D01*
X129681359Y-99888147D01*
X129681350Y-99888141D01*
X129499031Y-99795244D01*
X129304417Y-99732009D01*
X129102317Y-99700000D01*
X128897683Y-99700000D01*
X128695582Y-99732009D01*
X128500968Y-99795244D01*
X128318644Y-99888143D01*
X128274077Y-99920523D01*
X128274077Y-99920524D01*
X128953554Y-100600000D01*
X128947339Y-100600000D01*
X128845606Y-100627259D01*
X128754394Y-100679920D01*
X128679920Y-100754394D01*
X128627259Y-100845606D01*
X128600000Y-100947339D01*
X128600000Y-100953553D01*
X127920524Y-100274077D01*
X127882719Y-100277053D01*
X127814341Y-100262689D01*
X127764584Y-100213638D01*
X127762110Y-100208949D01*
X127758101Y-100200942D01*
X127734814Y-100130666D01*
X127642712Y-99981344D01*
X127518656Y-99857288D01*
X127369334Y-99765186D01*
X127202797Y-99710001D01*
X127202795Y-99710000D01*
X127100010Y-99699500D01*
X125899998Y-99699500D01*
X125899981Y-99699501D01*
X125797203Y-99710000D01*
X125797200Y-99710001D01*
X125630668Y-99765185D01*
X125630663Y-99765187D01*
X125481342Y-99857289D01*
X125357289Y-99981342D01*
X125265187Y-100130663D01*
X125265185Y-100130668D01*
X125252372Y-100169336D01*
X125210001Y-100297203D01*
X125210001Y-100297204D01*
X125210000Y-100297204D01*
X125199500Y-100399983D01*
X121361385Y-100399983D01*
X121442712Y-100318656D01*
X121534814Y-100169334D01*
X121589999Y-100002797D01*
X121600500Y-99900009D01*
X121600499Y-99099992D01*
X121589999Y-98997203D01*
X121534814Y-98830666D01*
X121442712Y-98681344D01*
X121318656Y-98557288D01*
X121169334Y-98465186D01*
X121002797Y-98410001D01*
X121002795Y-98410000D01*
X120900010Y-98399500D01*
X120099998Y-98399500D01*
X120099980Y-98399501D01*
X119997203Y-98410000D01*
X119997200Y-98410001D01*
X119830668Y-98465185D01*
X119830663Y-98465187D01*
X119681342Y-98557289D01*
X119557289Y-98681342D01*
X119465187Y-98830663D01*
X119465186Y-98830666D01*
X119410001Y-98997203D01*
X119410001Y-98997204D01*
X119410000Y-98997204D01*
X119399500Y-99099983D01*
X115241774Y-99099983D01*
X115235575Y-99095479D01*
X115235574Y-99095478D01*
X115235572Y-99095477D01*
X115182799Y-99068588D01*
X115070852Y-99011547D01*
X115070849Y-99011546D01*
X114895030Y-98954419D01*
X114712440Y-98925500D01*
X114712435Y-98925500D01*
X114527565Y-98925500D01*
X114527560Y-98925500D01*
X114344969Y-98954419D01*
X114169150Y-99011546D01*
X114169147Y-99011547D01*
X114004424Y-99095479D01*
X113854870Y-99204135D01*
X113854865Y-99204139D01*
X113724139Y-99334865D01*
X113724135Y-99334870D01*
X113615479Y-99484424D01*
X113531547Y-99649147D01*
X113531546Y-99649150D01*
X113474419Y-99824969D01*
X113445500Y-100007559D01*
X100554500Y-100007559D01*
X100525580Y-99824969D01*
X100468453Y-99649150D01*
X100468452Y-99649147D01*
X100439388Y-99592106D01*
X100384523Y-99484428D01*
X100370639Y-99465318D01*
X100275864Y-99334870D01*
X100275860Y-99334865D01*
X100145134Y-99204139D01*
X100145129Y-99204135D01*
X99995575Y-99095479D01*
X99995574Y-99095478D01*
X99995572Y-99095477D01*
X99942799Y-99068588D01*
X99830852Y-99011547D01*
X99830849Y-99011546D01*
X99655030Y-98954419D01*
X99472440Y-98925500D01*
X99472435Y-98925500D01*
X99287565Y-98925500D01*
X99287560Y-98925500D01*
X99104969Y-98954419D01*
X98929150Y-99011546D01*
X98929147Y-99011547D01*
X98764424Y-99095479D01*
X98614870Y-99204135D01*
X98614865Y-99204139D01*
X98484139Y-99334865D01*
X98484135Y-99334870D01*
X98375479Y-99484424D01*
X98291547Y-99649147D01*
X98291546Y-99649150D01*
X98242431Y-99800314D01*
X98202994Y-99857989D01*
X98138635Y-99885188D01*
X98069789Y-99873273D01*
X98018313Y-99826029D01*
X98000500Y-99761996D01*
X98000500Y-97624500D01*
X98020185Y-97557461D01*
X98072989Y-97511706D01*
X98124500Y-97500500D01*
X133875500Y-97500500D01*
X133942539Y-97520185D01*
G37*
%TD.AperFunction*%
%TD*%
M02*
