%TF.GenerationSoftware,KiCad,Pcbnew,9.0.7*%
%TF.CreationDate,2026-01-21T17:53:56-05:00*%
%TF.ProjectId,pcb,7063622e-6b69-4636-9164-5f7063625858,rev?*%
%TF.SameCoordinates,Original*%
%TF.FileFunction,Copper,L1,Top*%
%TF.FilePolarity,Positive*%
%FSLAX46Y46*%
G04 Gerber Fmt 4.6, Leading zero omitted, Abs format (unit mm)*
G04 Created by KiCad (PCBNEW 9.0.7) date 2026-01-21 17:53:56*
%MOMM*%
%LPD*%
G01*
G04 APERTURE LIST*
G04 Aperture macros list*
%AMRoundRect*
0 Rectangle with rounded corners*
0 $1 Rounding radius*
0 $2 $3 $4 $5 $6 $7 $8 $9 X,Y pos of 4 corners*
0 Add a 4 corners polygon primitive as box body*
4,1,4,$2,$3,$4,$5,$6,$7,$8,$9,$2,$3,0*
0 Add four circle primitives for the rounded corners*
1,1,$1+$1,$2,$3*
1,1,$1+$1,$4,$5*
1,1,$1+$1,$6,$7*
1,1,$1+$1,$8,$9*
0 Add four rect primitives between the rounded corners*
20,1,$1+$1,$2,$3,$4,$5,0*
20,1,$1+$1,$4,$5,$6,$7,0*
20,1,$1+$1,$6,$7,$8,$9,0*
20,1,$1+$1,$8,$9,$2,$3,0*%
G04 Aperture macros list end*
%TA.AperFunction,ComponentPad*%
%ADD10RoundRect,0.250000X-0.350000X0.350000X-0.350000X-0.350000X0.350000X-0.350000X0.350000X0.350000X0*%
%TD*%
%TA.AperFunction,ComponentPad*%
%ADD11C,1.200000*%
%TD*%
%TA.AperFunction,ComponentPad*%
%ADD12R,1.700000X1.700000*%
%TD*%
%TA.AperFunction,ComponentPad*%
%ADD13C,1.700000*%
%TD*%
%TA.AperFunction,ComponentPad*%
%ADD14RoundRect,0.250000X-0.550000X-0.550000X0.550000X-0.550000X0.550000X0.550000X-0.550000X0.550000X0*%
%TD*%
%TA.AperFunction,ComponentPad*%
%ADD15C,1.600000*%
%TD*%
%TA.AperFunction,ComponentPad*%
%ADD16R,2.000000X1.905000*%
%TD*%
%TA.AperFunction,ComponentPad*%
%ADD17O,2.000000X1.905000*%
%TD*%
%TA.AperFunction,Conductor*%
%ADD18C,0.500000*%
%TD*%
%TA.AperFunction,Conductor*%
%ADD19C,0.200000*%
%TD*%
G04 APERTURE END LIST*
D10*
%TO.P,output_c1,1*%
%TO.N,/5V0*%
X120500000Y-99500000D03*
D11*
%TO.P,output_c1,2*%
%TO.N,GND*%
X120500000Y-101500000D03*
%TD*%
D12*
%TO.P,joystick_2axes1,1,SW*%
%TO.N,/RY*%
X119380000Y-117000000D03*
D13*
%TO.P,joystick_2axes1,2,Ry*%
%TO.N,/SW*%
X121920000Y-117000000D03*
%TO.P,joystick_2axes1,3,Rx*%
%TO.N,/RX*%
X124460000Y-117000000D03*
%TO.P,joystick_2axes1,4,5V*%
%TO.N,/3V3*%
X127000000Y-117000000D03*
%TO.P,joystick_2axes1,5,GND*%
%TO.N,GND*%
X129540000Y-117000000D03*
%TD*%
D14*
%TO.P,input_c1,1*%
%TO.N,/7V4*%
X126500000Y-101000000D03*
D15*
%TO.P,input_c1,2*%
%TO.N,GND*%
X129000000Y-101000000D03*
%TD*%
D12*
%TO.P,left_ESP32-C1,1,5*%
%TO.N,unconnected-(left_ESP32-C1-5-Pad1)*%
X100000000Y-100000000D03*
D13*
%TO.P,left_ESP32-C1,2,6*%
%TO.N,unconnected-(left_ESP32-C1-6-Pad2)*%
X100000000Y-102540000D03*
%TO.P,left_ESP32-C1,3,7*%
%TO.N,unconnected-(left_ESP32-C1-7-Pad3)*%
X100000000Y-105080000D03*
%TO.P,left_ESP32-C1,4,8*%
%TO.N,unconnected-(left_ESP32-C1-8-Pad4)*%
X100000000Y-107620000D03*
%TO.P,left_ESP32-C1,5,9*%
%TO.N,unconnected-(left_ESP32-C1-9-Pad5)*%
X100000000Y-110160000D03*
%TO.P,left_ESP32-C1,6,10*%
%TO.N,unconnected-(left_ESP32-C1-10-Pad6)*%
X100000000Y-112700000D03*
%TO.P,left_ESP32-C1,7,20*%
%TO.N,unconnected-(left_ESP32-C1-20-Pad7)*%
X100000000Y-115240000D03*
%TO.P,left_ESP32-C1,8,21*%
%TO.N,unconnected-(left_ESP32-C1-21-Pad8)*%
X100000000Y-117780000D03*
%TD*%
D12*
%TO.P,right_ESP32-C1,1,5V*%
%TO.N,/5V0*%
X115240000Y-100000000D03*
D13*
%TO.P,right_ESP32-C1,2,GND*%
%TO.N,GND*%
X115240000Y-102540000D03*
%TO.P,right_ESP32-C1,3,3V3*%
%TO.N,/3V3*%
X115240000Y-105080000D03*
%TO.P,right_ESP32-C1,4,4*%
%TO.N,unconnected-(right_ESP32-C1-Pad4)*%
X115240000Y-107620000D03*
%TO.P,right_ESP32-C1,5,3*%
%TO.N,/RX*%
X115240000Y-110160000D03*
%TO.P,right_ESP32-C1,6,2*%
%TO.N,unconnected-(right_ESP32-C1-2-Pad6)*%
X115240000Y-112700000D03*
%TO.P,right_ESP32-C1,7,1*%
%TO.N,/RY*%
X115240000Y-115240000D03*
%TO.P,right_ESP32-C1,8,0*%
%TO.N,/SW*%
X115240000Y-117780000D03*
%TD*%
D16*
%TO.P,volt_reg1,1,IN*%
%TO.N,/7V4*%
X130500000Y-107000000D03*
D17*
%TO.P,volt_reg1,2,GND*%
%TO.N,GND*%
X130500000Y-109540000D03*
%TO.P,volt_reg1,3,OUT*%
%TO.N,/5V0*%
X130500000Y-112080000D03*
%TD*%
D12*
%TO.P,smart_motor1,1,7V4*%
%TO.N,/7V4*%
X124000000Y-110500000D03*
D13*
%TO.P,smart_motor1,2,GND*%
%TO.N,GND*%
X121460000Y-110500000D03*
%TD*%
D18*
%TO.N,/7V4*%
X126500000Y-103000000D02*
X130500000Y-107000000D01*
X126833500Y-113333500D02*
X131066717Y-113333500D01*
X124000000Y-110500000D02*
X126833500Y-113333500D01*
X131066717Y-113333500D02*
X131801000Y-112599217D01*
X131801000Y-112599217D02*
X131801000Y-108301000D01*
X131801000Y-108301000D02*
X130500000Y-107000000D01*
X126500000Y-101000000D02*
X126500000Y-103000000D01*
%TO.N,/3V3*%
X115240000Y-105907760D02*
X126332240Y-117000000D01*
D19*
X115240000Y-105080000D02*
X115240000Y-105907760D01*
X126332240Y-117000000D02*
X127000000Y-117000000D01*
%TO.N,/SW*%
X120290000Y-118630000D02*
X121920000Y-117000000D01*
X116090000Y-118630000D02*
X120290000Y-118630000D01*
X115240000Y-117780000D02*
X116090000Y-118630000D01*
%TO.N,/RY*%
X117000000Y-117000000D02*
X119380000Y-117000000D01*
X115240000Y-115240000D02*
X117000000Y-117000000D01*
%TO.N,/RX*%
X115240000Y-110160000D02*
X117620000Y-110160000D01*
X117620000Y-110160000D02*
X124460000Y-117000000D01*
D18*
%TO.N,/5V0*%
X115240000Y-100000000D02*
X120000000Y-100000000D01*
X121601000Y-100601000D02*
X121601000Y-103181000D01*
D19*
X120000000Y-100000000D02*
X120500000Y-99500000D01*
D18*
X120500000Y-99500000D02*
X121601000Y-100601000D01*
X121601000Y-103181000D02*
X130500000Y-112080000D01*
%TD*%
%TA.AperFunction,Conductor*%
%TO.N,GND*%
G36*
X119512020Y-100770185D02*
G01*
X119557775Y-100822989D01*
X119567719Y-100892147D01*
X119555466Y-100930795D01*
X119480591Y-101077742D01*
X119427085Y-101242415D01*
X119400000Y-101413428D01*
X119400000Y-101586571D01*
X119427085Y-101757584D01*
X119480592Y-101922259D01*
X119559196Y-102076525D01*
X119563709Y-102082736D01*
X119563709Y-102082737D01*
X120205145Y-101441300D01*
X120200000Y-101460504D01*
X120200000Y-101539496D01*
X120220444Y-101615796D01*
X120259940Y-101684205D01*
X120315795Y-101740060D01*
X120384204Y-101779556D01*
X120460504Y-101800000D01*
X120539496Y-101800000D01*
X120558696Y-101794855D01*
X119917261Y-102436289D01*
X119917262Y-102436290D01*
X119923471Y-102440801D01*
X120077742Y-102519408D01*
X120242415Y-102572914D01*
X120413429Y-102600000D01*
X120586570Y-102600000D01*
X120707101Y-102580909D01*
X120776395Y-102589863D01*
X120829847Y-102634859D01*
X120850487Y-102701611D01*
X120850500Y-102703382D01*
X120850500Y-103254918D01*
X120850500Y-103254920D01*
X120850499Y-103254920D01*
X120879340Y-103399907D01*
X120879343Y-103399917D01*
X120935913Y-103536490D01*
X120935914Y-103536491D01*
X120935916Y-103536495D01*
X120958372Y-103570102D01*
X120958373Y-103570104D01*
X121018051Y-103659420D01*
X121018052Y-103659421D01*
X128999231Y-111640598D01*
X129032716Y-111701921D01*
X129034023Y-111747677D01*
X128999500Y-111965646D01*
X128999500Y-112194353D01*
X129035277Y-112420242D01*
X129035418Y-112420675D01*
X129035423Y-112420851D01*
X129036416Y-112424988D01*
X129035547Y-112425196D01*
X129037417Y-112490516D01*
X129001340Y-112550351D01*
X128938641Y-112581183D01*
X128917489Y-112583000D01*
X127195729Y-112583000D01*
X127128690Y-112563315D01*
X127108048Y-112546681D01*
X125386818Y-110825450D01*
X125353333Y-110764127D01*
X125350499Y-110737769D01*
X125350499Y-109602129D01*
X125350498Y-109602123D01*
X125350497Y-109602116D01*
X125344091Y-109542517D01*
X125343083Y-109539815D01*
X125293797Y-109407671D01*
X125293793Y-109407664D01*
X125207547Y-109292455D01*
X125207544Y-109292452D01*
X125092335Y-109206206D01*
X125092328Y-109206202D01*
X124957482Y-109155908D01*
X124957483Y-109155908D01*
X124897883Y-109149501D01*
X124897881Y-109149500D01*
X124897873Y-109149500D01*
X124897864Y-109149500D01*
X123102129Y-109149500D01*
X123102123Y-109149501D01*
X123042516Y-109155908D01*
X122907671Y-109206202D01*
X122907664Y-109206206D01*
X122792455Y-109292452D01*
X122792452Y-109292455D01*
X122706206Y-109407664D01*
X122706202Y-109407671D01*
X122655908Y-109542517D01*
X122649683Y-109600423D01*
X122649501Y-109602123D01*
X122649500Y-109602135D01*
X122649500Y-109612690D01*
X122629815Y-109679729D01*
X122613181Y-109700371D01*
X121942962Y-110370590D01*
X121925925Y-110307007D01*
X121860099Y-110192993D01*
X121767007Y-110099901D01*
X121652993Y-110034075D01*
X121589409Y-110017037D01*
X122221716Y-109384728D01*
X122167550Y-109345375D01*
X121978217Y-109248904D01*
X121776129Y-109183242D01*
X121566246Y-109150000D01*
X121353754Y-109150000D01*
X121143872Y-109183242D01*
X121143869Y-109183242D01*
X120941782Y-109248904D01*
X120752439Y-109345380D01*
X120698282Y-109384727D01*
X120698282Y-109384728D01*
X121330591Y-110017037D01*
X121267007Y-110034075D01*
X121152993Y-110099901D01*
X121059901Y-110192993D01*
X120994075Y-110307007D01*
X120977037Y-110370591D01*
X120344728Y-109738282D01*
X120344726Y-109738282D01*
X120340501Y-109744098D01*
X120285171Y-109786764D01*
X120215558Y-109792743D01*
X120153763Y-109760137D01*
X120152502Y-109758894D01*
X116380042Y-105986434D01*
X116346557Y-105925111D01*
X116351541Y-105855419D01*
X116367405Y-105825867D01*
X116395051Y-105787816D01*
X116491557Y-105598412D01*
X116557246Y-105396243D01*
X116590500Y-105186287D01*
X116590500Y-104973713D01*
X116557246Y-104763757D01*
X116491557Y-104561588D01*
X116395051Y-104372184D01*
X116395049Y-104372181D01*
X116395048Y-104372179D01*
X116270109Y-104200213D01*
X116119786Y-104049890D01*
X115947817Y-103924949D01*
X115938504Y-103920204D01*
X115887707Y-103872230D01*
X115870912Y-103804409D01*
X115893449Y-103738274D01*
X115938507Y-103699232D01*
X115947555Y-103694622D01*
X116001716Y-103655270D01*
X116001717Y-103655270D01*
X115369408Y-103022962D01*
X115432993Y-103005925D01*
X115547007Y-102940099D01*
X115640099Y-102847007D01*
X115705925Y-102732993D01*
X115722962Y-102669408D01*
X116355270Y-103301717D01*
X116355270Y-103301716D01*
X116394622Y-103247554D01*
X116491095Y-103058217D01*
X116556757Y-102856130D01*
X116556757Y-102856127D01*
X116590000Y-102646246D01*
X116590000Y-102433753D01*
X116556757Y-102223872D01*
X116556757Y-102223869D01*
X116491095Y-102021782D01*
X116394624Y-101832449D01*
X116355270Y-101778282D01*
X116355269Y-101778282D01*
X115722962Y-102410590D01*
X115705925Y-102347007D01*
X115640099Y-102232993D01*
X115547007Y-102139901D01*
X115432993Y-102074075D01*
X115369409Y-102057037D01*
X116039627Y-101386818D01*
X116100950Y-101353333D01*
X116127307Y-101350499D01*
X116137872Y-101350499D01*
X116197483Y-101344091D01*
X116332331Y-101293796D01*
X116447546Y-101207546D01*
X116533796Y-101092331D01*
X116584091Y-100957483D01*
X116590500Y-100897873D01*
X116590500Y-100874500D01*
X116610185Y-100807461D01*
X116662989Y-100761706D01*
X116714500Y-100750500D01*
X119444981Y-100750500D01*
X119512020Y-100770185D01*
G37*
%TD.AperFunction*%
%TA.AperFunction,Conductor*%
G36*
X133942539Y-97520185D02*
G01*
X133988294Y-97572989D01*
X133999500Y-97624500D01*
X133999500Y-119875500D01*
X133979815Y-119942539D01*
X133927011Y-119988294D01*
X133875500Y-119999500D01*
X98124500Y-119999500D01*
X98057461Y-119979815D01*
X98011706Y-119927011D01*
X98000500Y-119875500D01*
X98000500Y-99102135D01*
X98649500Y-99102135D01*
X98649500Y-100897870D01*
X98649501Y-100897876D01*
X98655908Y-100957483D01*
X98706202Y-101092328D01*
X98706206Y-101092335D01*
X98792452Y-101207544D01*
X98792455Y-101207547D01*
X98907664Y-101293793D01*
X98907671Y-101293797D01*
X99039082Y-101342810D01*
X99095016Y-101384681D01*
X99119433Y-101450145D01*
X99104582Y-101518418D01*
X99083431Y-101546673D01*
X98969889Y-101660215D01*
X98844951Y-101832179D01*
X98748444Y-102021585D01*
X98682753Y-102223760D01*
X98649500Y-102433713D01*
X98649500Y-102646286D01*
X98682753Y-102856239D01*
X98748444Y-103058414D01*
X98844951Y-103247820D01*
X98969890Y-103419786D01*
X99120213Y-103570109D01*
X99292182Y-103695050D01*
X99300946Y-103699516D01*
X99351742Y-103747491D01*
X99368536Y-103815312D01*
X99345998Y-103881447D01*
X99300946Y-103920484D01*
X99292182Y-103924949D01*
X99120213Y-104049890D01*
X98969890Y-104200213D01*
X98844951Y-104372179D01*
X98748444Y-104561585D01*
X98682753Y-104763760D01*
X98649500Y-104973713D01*
X98649500Y-105186287D01*
X98682754Y-105396243D01*
X98733820Y-105553408D01*
X98748444Y-105598414D01*
X98844951Y-105787820D01*
X98969890Y-105959786D01*
X99120213Y-106110109D01*
X99292182Y-106235050D01*
X99300946Y-106239516D01*
X99351742Y-106287491D01*
X99368536Y-106355312D01*
X99345998Y-106421447D01*
X99300946Y-106460484D01*
X99292182Y-106464949D01*
X99120213Y-106589890D01*
X98969890Y-106740213D01*
X98844951Y-106912179D01*
X98748444Y-107101585D01*
X98682753Y-107303760D01*
X98649500Y-107513713D01*
X98649500Y-107726286D01*
X98676422Y-107896268D01*
X98682754Y-107936243D01*
X98730143Y-108082092D01*
X98748444Y-108138414D01*
X98844951Y-108327820D01*
X98969890Y-108499786D01*
X99120213Y-108650109D01*
X99292182Y-108775050D01*
X99300946Y-108779516D01*
X99351742Y-108827491D01*
X99368536Y-108895312D01*
X99345998Y-108961447D01*
X99300946Y-109000484D01*
X99292182Y-109004949D01*
X99120213Y-109129890D01*
X98969890Y-109280213D01*
X98844951Y-109452179D01*
X98748444Y-109641585D01*
X98682753Y-109843760D01*
X98658007Y-110000000D01*
X98649500Y-110053713D01*
X98649500Y-110266287D01*
X98682754Y-110476243D01*
X98743363Y-110662778D01*
X98748444Y-110678414D01*
X98844951Y-110867820D01*
X98969890Y-111039786D01*
X99120213Y-111190109D01*
X99292182Y-111315050D01*
X99300946Y-111319516D01*
X99351742Y-111367491D01*
X99368536Y-111435312D01*
X99345998Y-111501447D01*
X99300946Y-111540484D01*
X99292182Y-111544949D01*
X99120213Y-111669890D01*
X98969890Y-111820213D01*
X98844951Y-111992179D01*
X98748444Y-112181585D01*
X98682753Y-112383760D01*
X98665845Y-112490516D01*
X98649500Y-112593713D01*
X98649500Y-112806287D01*
X98659534Y-112869644D01*
X98676697Y-112978005D01*
X98682754Y-113016243D01*
X98702702Y-113077637D01*
X98748444Y-113218414D01*
X98844951Y-113407820D01*
X98969890Y-113579786D01*
X99120213Y-113730109D01*
X99292182Y-113855050D01*
X99300946Y-113859516D01*
X99351742Y-113907491D01*
X99368536Y-113975312D01*
X99345998Y-114041447D01*
X99300946Y-114080484D01*
X99292182Y-114084949D01*
X99120213Y-114209890D01*
X98969890Y-114360213D01*
X98844951Y-114532179D01*
X98748444Y-114721585D01*
X98682753Y-114923760D01*
X98649500Y-115133713D01*
X98649500Y-115346286D01*
X98682753Y-115556239D01*
X98682753Y-115556241D01*
X98682754Y-115556243D01*
X98745204Y-115748444D01*
X98748444Y-115758414D01*
X98844951Y-115947820D01*
X98969890Y-116119786D01*
X99120213Y-116270109D01*
X99292182Y-116395050D01*
X99300946Y-116399516D01*
X99351742Y-116447491D01*
X99368536Y-116515312D01*
X99345998Y-116581447D01*
X99300946Y-116620484D01*
X99292182Y-116624949D01*
X99120213Y-116749890D01*
X98969890Y-116900213D01*
X98844951Y-117072179D01*
X98748444Y-117261585D01*
X98682753Y-117463760D01*
X98649500Y-117673713D01*
X98649500Y-117886286D01*
X98672278Y-118030105D01*
X98682754Y-118096243D01*
X98733218Y-118251555D01*
X98748444Y-118298414D01*
X98844951Y-118487820D01*
X98969890Y-118659786D01*
X99120213Y-118810109D01*
X99292179Y-118935048D01*
X99292181Y-118935049D01*
X99292184Y-118935051D01*
X99481588Y-119031557D01*
X99683757Y-119097246D01*
X99893713Y-119130500D01*
X99893714Y-119130500D01*
X100106286Y-119130500D01*
X100106287Y-119130500D01*
X100316243Y-119097246D01*
X100518412Y-119031557D01*
X100707816Y-118935051D01*
X100729789Y-118919086D01*
X100879786Y-118810109D01*
X100879788Y-118810106D01*
X100879792Y-118810104D01*
X101030104Y-118659792D01*
X101030106Y-118659788D01*
X101030109Y-118659786D01*
X101155048Y-118487820D01*
X101155047Y-118487820D01*
X101155051Y-118487816D01*
X101251557Y-118298412D01*
X101317246Y-118096243D01*
X101350500Y-117886287D01*
X101350500Y-117673713D01*
X101317246Y-117463757D01*
X101251557Y-117261588D01*
X101155051Y-117072184D01*
X101155049Y-117072181D01*
X101155048Y-117072179D01*
X101030109Y-116900213D01*
X100879786Y-116749890D01*
X100707820Y-116624951D01*
X100707115Y-116624591D01*
X100699054Y-116620485D01*
X100648259Y-116572512D01*
X100631463Y-116504692D01*
X100653999Y-116438556D01*
X100699054Y-116399515D01*
X100707816Y-116395051D01*
X100780093Y-116342539D01*
X100879786Y-116270109D01*
X100879788Y-116270106D01*
X100879792Y-116270104D01*
X101030104Y-116119792D01*
X101030106Y-116119788D01*
X101030109Y-116119786D01*
X101155048Y-115947820D01*
X101155047Y-115947820D01*
X101155051Y-115947816D01*
X101251557Y-115758412D01*
X101317246Y-115556243D01*
X101350500Y-115346287D01*
X101350500Y-115133713D01*
X101317246Y-114923757D01*
X101251557Y-114721588D01*
X101155051Y-114532184D01*
X101155049Y-114532181D01*
X101155048Y-114532179D01*
X101030109Y-114360213D01*
X100879786Y-114209890D01*
X100707820Y-114084951D01*
X100705953Y-114084000D01*
X100699054Y-114080485D01*
X100648259Y-114032512D01*
X100631463Y-113964692D01*
X100653999Y-113898556D01*
X100699054Y-113859515D01*
X100707816Y-113855051D01*
X100767187Y-113811916D01*
X100879786Y-113730109D01*
X100879788Y-113730106D01*
X100879792Y-113730104D01*
X101030104Y-113579792D01*
X101030106Y-113579788D01*
X101030109Y-113579786D01*
X101155048Y-113407820D01*
X101155047Y-113407820D01*
X101155051Y-113407816D01*
X101251557Y-113218412D01*
X101317246Y-113016243D01*
X101350500Y-112806287D01*
X101350500Y-112593713D01*
X101317246Y-112383757D01*
X101251557Y-112181588D01*
X101155051Y-111992184D01*
X101155049Y-111992181D01*
X101155048Y-111992179D01*
X101030109Y-111820213D01*
X100879786Y-111669890D01*
X100707820Y-111544951D01*
X100707115Y-111544591D01*
X100699054Y-111540485D01*
X100648259Y-111492512D01*
X100631463Y-111424692D01*
X100653999Y-111358556D01*
X100699054Y-111319515D01*
X100707816Y-111315051D01*
X100729789Y-111299086D01*
X100879786Y-111190109D01*
X100879788Y-111190106D01*
X100879792Y-111190104D01*
X101030104Y-111039792D01*
X101030106Y-111039788D01*
X101030109Y-111039786D01*
X101155048Y-110867820D01*
X101155047Y-110867820D01*
X101155051Y-110867816D01*
X101251557Y-110678412D01*
X101317246Y-110476243D01*
X101350500Y-110266287D01*
X101350500Y-110053713D01*
X101317246Y-109843757D01*
X101251557Y-109641588D01*
X101155051Y-109452184D01*
X101155049Y-109452181D01*
X101155048Y-109452179D01*
X101030109Y-109280213D01*
X100879786Y-109129890D01*
X100707820Y-109004951D01*
X100707115Y-109004591D01*
X100699054Y-109000485D01*
X100648259Y-108952512D01*
X100631463Y-108884692D01*
X100653999Y-108818556D01*
X100699054Y-108779515D01*
X100707816Y-108775051D01*
X100729789Y-108759086D01*
X100879786Y-108650109D01*
X100879788Y-108650106D01*
X100879792Y-108650104D01*
X101030104Y-108499792D01*
X101030106Y-108499788D01*
X101030109Y-108499786D01*
X101155048Y-108327820D01*
X101155047Y-108327820D01*
X101155051Y-108327816D01*
X101251557Y-108138412D01*
X101317246Y-107936243D01*
X101350500Y-107726287D01*
X101350500Y-107513713D01*
X101317246Y-107303757D01*
X101251557Y-107101588D01*
X101155051Y-106912184D01*
X101155049Y-106912181D01*
X101155048Y-106912179D01*
X101030109Y-106740213D01*
X100879786Y-106589890D01*
X100707820Y-106464951D01*
X100707115Y-106464591D01*
X100699054Y-106460485D01*
X100648259Y-106412512D01*
X100631463Y-106344692D01*
X100653999Y-106278556D01*
X100699054Y-106239515D01*
X100707816Y-106235051D01*
X100729789Y-106219086D01*
X100879786Y-106110109D01*
X100879788Y-106110106D01*
X100879792Y-106110104D01*
X101030104Y-105959792D01*
X101030106Y-105959788D01*
X101030109Y-105959786D01*
X101155048Y-105787820D01*
X101155047Y-105787820D01*
X101155051Y-105787816D01*
X101251557Y-105598412D01*
X101317246Y-105396243D01*
X101350500Y-105186287D01*
X101350500Y-104973713D01*
X101317246Y-104763757D01*
X101251557Y-104561588D01*
X101155051Y-104372184D01*
X101155049Y-104372181D01*
X101155048Y-104372179D01*
X101030109Y-104200213D01*
X100879786Y-104049890D01*
X100707820Y-103924951D01*
X100707115Y-103924591D01*
X100699054Y-103920485D01*
X100648259Y-103872512D01*
X100631463Y-103804692D01*
X100653999Y-103738556D01*
X100699054Y-103699515D01*
X100707816Y-103695051D01*
X100762572Y-103655269D01*
X100879786Y-103570109D01*
X100879792Y-103570104D01*
X100913406Y-103536490D01*
X101030104Y-103419792D01*
X101030106Y-103419788D01*
X101030109Y-103419786D01*
X101155048Y-103247820D01*
X101155047Y-103247820D01*
X101155051Y-103247816D01*
X101251557Y-103058412D01*
X101317246Y-102856243D01*
X101350500Y-102646287D01*
X101350500Y-102433713D01*
X101317246Y-102223757D01*
X101251557Y-102021588D01*
X101155051Y-101832184D01*
X101155049Y-101832181D01*
X101155048Y-101832179D01*
X101030109Y-101660213D01*
X100916569Y-101546673D01*
X100883084Y-101485350D01*
X100888068Y-101415658D01*
X100929940Y-101359725D01*
X100960915Y-101342810D01*
X101092331Y-101293796D01*
X101207546Y-101207546D01*
X101293796Y-101092331D01*
X101344091Y-100957483D01*
X101350500Y-100897873D01*
X101350499Y-99102135D01*
X113889500Y-99102135D01*
X113889500Y-100897870D01*
X113889501Y-100897876D01*
X113895908Y-100957483D01*
X113946202Y-101092328D01*
X113946206Y-101092335D01*
X114032452Y-101207544D01*
X114032455Y-101207547D01*
X114147664Y-101293793D01*
X114147671Y-101293797D01*
X114176145Y-101304417D01*
X114282517Y-101344091D01*
X114342127Y-101350500D01*
X114352685Y-101350499D01*
X114419723Y-101370179D01*
X114440372Y-101386818D01*
X115110591Y-102057037D01*
X115047007Y-102074075D01*
X114932993Y-102139901D01*
X114839901Y-102232993D01*
X114774075Y-102347007D01*
X114757037Y-102410591D01*
X114124728Y-101778282D01*
X114124727Y-101778282D01*
X114085380Y-101832439D01*
X113988904Y-102021782D01*
X113923242Y-102223869D01*
X113923242Y-102223872D01*
X113890000Y-102433753D01*
X113890000Y-102646246D01*
X113923242Y-102856127D01*
X113923242Y-102856130D01*
X113988904Y-103058217D01*
X114085375Y-103247550D01*
X114124728Y-103301716D01*
X114757037Y-102669408D01*
X114774075Y-102732993D01*
X114839901Y-102847007D01*
X114932993Y-102940099D01*
X115047007Y-103005925D01*
X115110590Y-103022962D01*
X114478282Y-103655269D01*
X114478282Y-103655270D01*
X114532452Y-103694626D01*
X114532451Y-103694626D01*
X114541495Y-103699234D01*
X114592292Y-103747208D01*
X114609087Y-103815029D01*
X114586550Y-103881164D01*
X114541499Y-103920202D01*
X114532182Y-103924949D01*
X114360213Y-104049890D01*
X114209890Y-104200213D01*
X114084951Y-104372179D01*
X113988444Y-104561585D01*
X113922753Y-104763760D01*
X113889500Y-104973713D01*
X113889500Y-105186287D01*
X113922754Y-105396243D01*
X113973820Y-105553408D01*
X113988444Y-105598414D01*
X114084951Y-105787820D01*
X114209890Y-105959786D01*
X114209896Y-105959792D01*
X114360208Y-106110104D01*
X114532184Y-106235051D01*
X114539568Y-106238813D01*
X114551088Y-106249044D01*
X114562745Y-106254112D01*
X114586343Y-106280357D01*
X114587042Y-106281402D01*
X114607953Y-106348069D01*
X114589502Y-106415458D01*
X114540273Y-106460827D01*
X114532180Y-106464950D01*
X114360213Y-106589890D01*
X114209890Y-106740213D01*
X114084951Y-106912179D01*
X113988444Y-107101585D01*
X113922753Y-107303760D01*
X113889500Y-107513713D01*
X113889500Y-107726286D01*
X113916422Y-107896268D01*
X113922754Y-107936243D01*
X113970143Y-108082092D01*
X113988444Y-108138414D01*
X114084951Y-108327820D01*
X114209890Y-108499786D01*
X114360213Y-108650109D01*
X114532182Y-108775050D01*
X114540946Y-108779516D01*
X114591742Y-108827491D01*
X114608536Y-108895312D01*
X114585998Y-108961447D01*
X114540946Y-109000484D01*
X114532182Y-109004949D01*
X114360213Y-109129890D01*
X114209890Y-109280213D01*
X114084951Y-109452179D01*
X113988444Y-109641585D01*
X113922753Y-109843760D01*
X113898007Y-110000000D01*
X113889500Y-110053713D01*
X113889500Y-110266287D01*
X113922754Y-110476243D01*
X113983363Y-110662778D01*
X113988444Y-110678414D01*
X114084951Y-110867820D01*
X114209890Y-111039786D01*
X114360213Y-111190109D01*
X114532182Y-111315050D01*
X114540946Y-111319516D01*
X114591742Y-111367491D01*
X114608536Y-111435312D01*
X114585998Y-111501447D01*
X114540946Y-111540484D01*
X114532182Y-111544949D01*
X114360213Y-111669890D01*
X114209890Y-111820213D01*
X114084951Y-111992179D01*
X113988444Y-112181585D01*
X113922753Y-112383760D01*
X113905845Y-112490516D01*
X113889500Y-112593713D01*
X113889500Y-112806287D01*
X113899534Y-112869644D01*
X113916697Y-112978005D01*
X113922754Y-113016243D01*
X113942702Y-113077637D01*
X113988444Y-113218414D01*
X114084951Y-113407820D01*
X114209890Y-113579786D01*
X114360213Y-113730109D01*
X114532182Y-113855050D01*
X114540946Y-113859516D01*
X114591742Y-113907491D01*
X114608536Y-113975312D01*
X114585998Y-114041447D01*
X114540946Y-114080484D01*
X114532182Y-114084949D01*
X114360213Y-114209890D01*
X114209890Y-114360213D01*
X114084951Y-114532179D01*
X113988444Y-114721585D01*
X113922753Y-114923760D01*
X113889500Y-115133713D01*
X113889500Y-115346286D01*
X113922753Y-115556239D01*
X113922753Y-115556241D01*
X113922754Y-115556243D01*
X113985204Y-115748444D01*
X113988444Y-115758414D01*
X114084951Y-115947820D01*
X114209890Y-116119786D01*
X114360213Y-116270109D01*
X114532182Y-116395050D01*
X114540946Y-116399516D01*
X114591742Y-116447491D01*
X114608536Y-116515312D01*
X114585998Y-116581447D01*
X114540946Y-116620484D01*
X114532182Y-116624949D01*
X114360213Y-116749890D01*
X114209890Y-116900213D01*
X114084951Y-117072179D01*
X113988444Y-117261585D01*
X113922753Y-117463760D01*
X113889500Y-117673713D01*
X113889500Y-117886286D01*
X113912278Y-118030105D01*
X113922754Y-118096243D01*
X113973218Y-118251555D01*
X113988444Y-118298414D01*
X114084951Y-118487820D01*
X114209890Y-118659786D01*
X114360213Y-118810109D01*
X114532179Y-118935048D01*
X114532181Y-118935049D01*
X114532184Y-118935051D01*
X114721588Y-119031557D01*
X114923757Y-119097246D01*
X115133713Y-119130500D01*
X115133714Y-119130500D01*
X115346286Y-119130500D01*
X115346287Y-119130500D01*
X115556243Y-119097246D01*
X115598523Y-119083507D01*
X115668359Y-119081511D01*
X115713441Y-119107395D01*
X115714839Y-119105574D01*
X115721281Y-119110517D01*
X115721284Y-119110520D01*
X115721287Y-119110521D01*
X115721290Y-119110524D01*
X115858209Y-119189573D01*
X115858216Y-119189577D01*
X116010943Y-119230501D01*
X116010945Y-119230501D01*
X116176654Y-119230501D01*
X116176670Y-119230500D01*
X120203331Y-119230500D01*
X120203347Y-119230501D01*
X120210943Y-119230501D01*
X120369054Y-119230501D01*
X120369057Y-119230501D01*
X120521785Y-119189577D01*
X120571904Y-119160639D01*
X120658716Y-119110520D01*
X120770520Y-118998716D01*
X120770520Y-118998714D01*
X120780728Y-118988507D01*
X120780730Y-118988504D01*
X121435478Y-118333755D01*
X121496799Y-118300272D01*
X121561473Y-118303506D01*
X121603757Y-118317246D01*
X121813713Y-118350500D01*
X121813714Y-118350500D01*
X122026286Y-118350500D01*
X122026287Y-118350500D01*
X122236243Y-118317246D01*
X122438412Y-118251557D01*
X122627816Y-118155051D01*
X122708759Y-118096243D01*
X122799786Y-118030109D01*
X122799788Y-118030106D01*
X122799792Y-118030104D01*
X122950104Y-117879792D01*
X122950106Y-117879788D01*
X122950109Y-117879786D01*
X123075048Y-117707820D01*
X123075047Y-117707820D01*
X123075051Y-117707816D01*
X123079514Y-117699054D01*
X123127488Y-117648259D01*
X123195308Y-117631463D01*
X123261444Y-117653999D01*
X123300486Y-117699056D01*
X123304951Y-117707820D01*
X123429890Y-117879786D01*
X123580213Y-118030109D01*
X123752179Y-118155048D01*
X123752181Y-118155049D01*
X123752184Y-118155051D01*
X123941588Y-118251557D01*
X124143757Y-118317246D01*
X124353713Y-118350500D01*
X124353714Y-118350500D01*
X124566286Y-118350500D01*
X124566287Y-118350500D01*
X124776243Y-118317246D01*
X124978412Y-118251557D01*
X125167816Y-118155051D01*
X125248759Y-118096243D01*
X125339786Y-118030109D01*
X125339788Y-118030106D01*
X125339792Y-118030104D01*
X125490104Y-117879792D01*
X125490106Y-117879788D01*
X125490109Y-117879786D01*
X125615048Y-117707820D01*
X125615047Y-117707820D01*
X125615051Y-117707816D01*
X125619514Y-117699054D01*
X125667488Y-117648259D01*
X125735308Y-117631463D01*
X125801444Y-117653999D01*
X125840486Y-117699056D01*
X125844951Y-117707820D01*
X125969890Y-117879786D01*
X126120213Y-118030109D01*
X126292179Y-118155048D01*
X126292181Y-118155049D01*
X126292184Y-118155051D01*
X126481588Y-118251557D01*
X126683757Y-118317246D01*
X126893713Y-118350500D01*
X126893714Y-118350500D01*
X127106286Y-118350500D01*
X127106287Y-118350500D01*
X127316243Y-118317246D01*
X127518412Y-118251557D01*
X127707816Y-118155051D01*
X127788759Y-118096243D01*
X127879786Y-118030109D01*
X127879788Y-118030106D01*
X127879792Y-118030104D01*
X128030104Y-117879792D01*
X128030106Y-117879788D01*
X128030109Y-117879786D01*
X128115890Y-117761717D01*
X128155051Y-117707816D01*
X128159793Y-117698508D01*
X128207763Y-117647711D01*
X128275583Y-117630911D01*
X128341719Y-117653445D01*
X128380763Y-117698500D01*
X128385373Y-117707547D01*
X128424728Y-117761716D01*
X129057037Y-117129408D01*
X129074075Y-117192993D01*
X129139901Y-117307007D01*
X129232993Y-117400099D01*
X129347007Y-117465925D01*
X129410590Y-117482962D01*
X128778282Y-118115269D01*
X128778282Y-118115270D01*
X128832449Y-118154624D01*
X129021782Y-118251095D01*
X129223870Y-118316757D01*
X129433754Y-118350000D01*
X129646246Y-118350000D01*
X129856127Y-118316757D01*
X129856130Y-118316757D01*
X130058217Y-118251095D01*
X130247554Y-118154622D01*
X130301716Y-118115270D01*
X130301717Y-118115270D01*
X129669408Y-117482962D01*
X129732993Y-117465925D01*
X129847007Y-117400099D01*
X129940099Y-117307007D01*
X130005925Y-117192993D01*
X130022962Y-117129408D01*
X130655270Y-117761717D01*
X130655270Y-117761716D01*
X130694622Y-117707554D01*
X130791095Y-117518217D01*
X130856757Y-117316130D01*
X130856757Y-117316127D01*
X130890000Y-117106246D01*
X130890000Y-116893753D01*
X130856757Y-116683872D01*
X130856757Y-116683869D01*
X130791095Y-116481782D01*
X130694624Y-116292449D01*
X130655270Y-116238282D01*
X130655269Y-116238282D01*
X130022962Y-116870590D01*
X130005925Y-116807007D01*
X129940099Y-116692993D01*
X129847007Y-116599901D01*
X129732993Y-116534075D01*
X129669409Y-116517037D01*
X130301716Y-115884728D01*
X130247550Y-115845375D01*
X130058217Y-115748904D01*
X129856129Y-115683242D01*
X129646246Y-115650000D01*
X129433754Y-115650000D01*
X129223872Y-115683242D01*
X129223869Y-115683242D01*
X129021782Y-115748904D01*
X128832439Y-115845380D01*
X128778282Y-115884727D01*
X128778282Y-115884728D01*
X129410591Y-116517037D01*
X129347007Y-116534075D01*
X129232993Y-116599901D01*
X129139901Y-116692993D01*
X129074075Y-116807007D01*
X129057037Y-116870591D01*
X128424728Y-116238282D01*
X128424727Y-116238282D01*
X128385380Y-116292440D01*
X128385376Y-116292446D01*
X128380760Y-116301505D01*
X128332781Y-116352297D01*
X128264959Y-116369087D01*
X128198826Y-116346543D01*
X128159794Y-116301493D01*
X128155051Y-116292184D01*
X128155049Y-116292181D01*
X128155048Y-116292179D01*
X128030109Y-116120213D01*
X127879786Y-115969890D01*
X127707820Y-115844951D01*
X127518414Y-115748444D01*
X127518413Y-115748443D01*
X127518412Y-115748443D01*
X127316243Y-115682754D01*
X127316241Y-115682753D01*
X127316240Y-115682753D01*
X127154957Y-115657208D01*
X127106287Y-115649500D01*
X126893713Y-115649500D01*
X126845042Y-115657208D01*
X126683760Y-115682753D01*
X126481585Y-115748444D01*
X126395215Y-115792452D01*
X126363190Y-115808770D01*
X126336930Y-115822150D01*
X126268261Y-115835046D01*
X126203520Y-115808770D01*
X126192954Y-115799346D01*
X122201104Y-111807496D01*
X122167619Y-111746173D01*
X122172603Y-111676481D01*
X122214475Y-111620548D01*
X122215900Y-111619496D01*
X122221716Y-111615269D01*
X121589408Y-110982962D01*
X121652993Y-110965925D01*
X121767007Y-110900099D01*
X121860099Y-110807007D01*
X121925925Y-110692993D01*
X121942962Y-110629409D01*
X122613181Y-111299628D01*
X122646666Y-111360951D01*
X122649500Y-111387300D01*
X122649500Y-111397865D01*
X122649501Y-111397876D01*
X122655908Y-111457483D01*
X122706202Y-111592328D01*
X122706206Y-111592335D01*
X122792452Y-111707544D01*
X122792455Y-111707547D01*
X122907664Y-111793793D01*
X122907671Y-111793797D01*
X123042517Y-111844091D01*
X123042516Y-111844091D01*
X123049444Y-111844835D01*
X123102127Y-111850500D01*
X124237769Y-111850499D01*
X124304808Y-111870184D01*
X124325450Y-111886818D01*
X126250549Y-113811916D01*
X126337189Y-113898556D01*
X126355085Y-113916452D01*
X126477998Y-113998580D01*
X126478011Y-113998587D01*
X126614582Y-114055156D01*
X126614587Y-114055158D01*
X126614591Y-114055158D01*
X126614592Y-114055159D01*
X126759579Y-114084000D01*
X126759582Y-114084000D01*
X131140637Y-114084000D01*
X131238179Y-114064596D01*
X131285630Y-114055158D01*
X131422212Y-113998584D01*
X131492593Y-113951557D01*
X131545133Y-113916452D01*
X132383952Y-113077633D01*
X132450520Y-112978005D01*
X132466084Y-112954712D01*
X132522658Y-112818130D01*
X132551500Y-112673135D01*
X132551500Y-108227082D01*
X132551500Y-108227079D01*
X132522659Y-108082092D01*
X132522658Y-108082091D01*
X132522658Y-108082087D01*
X132466084Y-107945505D01*
X132433186Y-107896270D01*
X132433185Y-107896268D01*
X132383956Y-107822589D01*
X132383952Y-107822584D01*
X132036818Y-107475450D01*
X132003333Y-107414127D01*
X132000499Y-107387769D01*
X132000499Y-105999629D01*
X132000498Y-105999623D01*
X131999080Y-105986434D01*
X131994091Y-105940017D01*
X131988531Y-105925111D01*
X131943797Y-105805171D01*
X131943793Y-105805164D01*
X131857547Y-105689955D01*
X131857544Y-105689952D01*
X131742335Y-105603706D01*
X131742328Y-105603702D01*
X131607482Y-105553408D01*
X131607483Y-105553408D01*
X131547883Y-105547001D01*
X131547881Y-105547000D01*
X131547873Y-105547000D01*
X131547865Y-105547000D01*
X130159729Y-105547000D01*
X130092690Y-105527315D01*
X130072048Y-105510681D01*
X127286819Y-102725451D01*
X127253334Y-102664128D01*
X127250500Y-102637770D01*
X127250500Y-102363732D01*
X127270185Y-102296693D01*
X127322989Y-102250938D01*
X127335495Y-102246026D01*
X127369334Y-102234814D01*
X127518656Y-102142712D01*
X127642712Y-102018656D01*
X127734814Y-101869334D01*
X127758102Y-101799054D01*
X127762110Y-101791050D01*
X127780060Y-101771772D01*
X127795055Y-101750116D01*
X127803495Y-101746606D01*
X127809725Y-101739917D01*
X127835249Y-101733404D01*
X127859571Y-101723292D01*
X127875834Y-101723048D01*
X127877425Y-101722643D01*
X127878523Y-101723008D01*
X127882719Y-101722946D01*
X127920525Y-101725921D01*
X128600000Y-101046446D01*
X128600000Y-101052661D01*
X128627259Y-101154394D01*
X128679920Y-101245606D01*
X128754394Y-101320080D01*
X128845606Y-101372741D01*
X128947339Y-101400000D01*
X128953553Y-101400000D01*
X128274076Y-102079474D01*
X128318650Y-102111859D01*
X128500968Y-102204755D01*
X128695582Y-102267990D01*
X128897683Y-102300000D01*
X129102317Y-102300000D01*
X129304417Y-102267990D01*
X129499031Y-102204755D01*
X129681349Y-102111859D01*
X129725921Y-102079474D01*
X129046447Y-101400000D01*
X129052661Y-101400000D01*
X129154394Y-101372741D01*
X129245606Y-101320080D01*
X129320080Y-101245606D01*
X129372741Y-101154394D01*
X129400000Y-101052661D01*
X129400000Y-101046448D01*
X130079474Y-101725922D01*
X130079474Y-101725921D01*
X130111859Y-101681349D01*
X130204755Y-101499031D01*
X130267990Y-101304417D01*
X130300000Y-101102317D01*
X130300000Y-100897682D01*
X130267990Y-100695582D01*
X130204755Y-100500968D01*
X130111859Y-100318650D01*
X130079474Y-100274077D01*
X130079474Y-100274076D01*
X129400000Y-100953551D01*
X129400000Y-100947339D01*
X129372741Y-100845606D01*
X129320080Y-100754394D01*
X129245606Y-100679920D01*
X129154394Y-100627259D01*
X129052661Y-100600000D01*
X129046446Y-100600000D01*
X129725922Y-99920524D01*
X129725921Y-99920523D01*
X129681359Y-99888147D01*
X129681350Y-99888141D01*
X129499031Y-99795244D01*
X129304417Y-99732009D01*
X129102317Y-99700000D01*
X128897683Y-99700000D01*
X128695582Y-99732009D01*
X128500968Y-99795244D01*
X128318644Y-99888143D01*
X128274077Y-99920523D01*
X128274077Y-99920524D01*
X128953554Y-100600000D01*
X128947339Y-100600000D01*
X128845606Y-100627259D01*
X128754394Y-100679920D01*
X128679920Y-100754394D01*
X128627259Y-100845606D01*
X128600000Y-100947339D01*
X128600000Y-100953553D01*
X127920524Y-100274077D01*
X127882719Y-100277053D01*
X127814341Y-100262689D01*
X127764584Y-100213638D01*
X127762110Y-100208949D01*
X127758101Y-100200942D01*
X127734814Y-100130666D01*
X127642712Y-99981344D01*
X127518656Y-99857288D01*
X127369334Y-99765186D01*
X127202797Y-99710001D01*
X127202795Y-99710000D01*
X127100010Y-99699500D01*
X125899998Y-99699500D01*
X125899981Y-99699501D01*
X125797203Y-99710000D01*
X125797200Y-99710001D01*
X125630668Y-99765185D01*
X125630663Y-99765187D01*
X125481342Y-99857289D01*
X125357289Y-99981342D01*
X125265187Y-100130663D01*
X125265186Y-100130666D01*
X125210001Y-100297203D01*
X125210001Y-100297204D01*
X125210000Y-100297204D01*
X125199500Y-100399983D01*
X125199500Y-101600001D01*
X125199501Y-101600018D01*
X125210000Y-101702796D01*
X125210001Y-101702799D01*
X125230433Y-101764457D01*
X125265186Y-101869334D01*
X125357288Y-102018656D01*
X125481344Y-102142712D01*
X125630666Y-102234814D01*
X125664500Y-102246025D01*
X125721947Y-102285796D01*
X125748772Y-102350311D01*
X125749500Y-102363732D01*
X125749500Y-103073918D01*
X125749500Y-103073920D01*
X125749499Y-103073920D01*
X125778340Y-103218907D01*
X125778342Y-103218913D01*
X125834914Y-103355491D01*
X125834918Y-103355498D01*
X125864593Y-103399911D01*
X125917049Y-103478418D01*
X125917052Y-103478421D01*
X128963181Y-106524548D01*
X128996666Y-106585871D01*
X128999500Y-106612229D01*
X128999500Y-108000370D01*
X128999501Y-108000376D01*
X129005908Y-108059983D01*
X129056202Y-108194828D01*
X129056206Y-108194835D01*
X129142452Y-108310044D01*
X129142455Y-108310047D01*
X129257664Y-108396293D01*
X129257667Y-108396295D01*
X129257668Y-108396295D01*
X129257669Y-108396296D01*
X129286025Y-108406872D01*
X129341958Y-108448742D01*
X129366376Y-108514206D01*
X129351525Y-108582479D01*
X129343010Y-108595939D01*
X129210213Y-108778719D01*
X129106417Y-108982431D01*
X129035765Y-109199874D01*
X129025362Y-109265558D01*
X128995432Y-109328692D01*
X128936121Y-109365623D01*
X128866258Y-109364625D01*
X128815208Y-109333840D01*
X122387819Y-102906451D01*
X122354334Y-102845128D01*
X122351500Y-102818770D01*
X122351500Y-100527079D01*
X122322659Y-100382092D01*
X122322658Y-100382091D01*
X122322658Y-100382087D01*
X122296382Y-100318650D01*
X122266087Y-100245511D01*
X122266080Y-100245498D01*
X122183952Y-100122585D01*
X122183951Y-100122584D01*
X122079416Y-100018049D01*
X121636818Y-99575451D01*
X121603333Y-99514128D01*
X121600499Y-99487770D01*
X121600499Y-99099998D01*
X121600498Y-99099981D01*
X121589999Y-98997203D01*
X121589998Y-98997200D01*
X121560330Y-98907669D01*
X121534814Y-98830666D01*
X121442712Y-98681344D01*
X121318656Y-98557288D01*
X121169334Y-98465186D01*
X121002797Y-98410001D01*
X121002795Y-98410000D01*
X120900010Y-98399500D01*
X120099998Y-98399500D01*
X120099980Y-98399501D01*
X119997203Y-98410000D01*
X119997200Y-98410001D01*
X119830668Y-98465185D01*
X119830663Y-98465187D01*
X119681342Y-98557289D01*
X119557289Y-98681342D01*
X119465187Y-98830663D01*
X119465186Y-98830666D01*
X119410001Y-98997203D01*
X119410001Y-98997204D01*
X119410000Y-98997204D01*
X119399500Y-99099983D01*
X119399500Y-99125500D01*
X119379815Y-99192539D01*
X119327011Y-99238294D01*
X119275500Y-99249500D01*
X116714499Y-99249500D01*
X116647460Y-99229815D01*
X116601705Y-99177011D01*
X116590499Y-99125500D01*
X116590499Y-99102129D01*
X116590498Y-99102123D01*
X116590497Y-99102116D01*
X116584091Y-99042517D01*
X116567190Y-98997204D01*
X116533797Y-98907671D01*
X116533793Y-98907664D01*
X116447547Y-98792455D01*
X116447544Y-98792452D01*
X116332335Y-98706206D01*
X116332328Y-98706202D01*
X116197482Y-98655908D01*
X116197483Y-98655908D01*
X116137883Y-98649501D01*
X116137881Y-98649500D01*
X116137873Y-98649500D01*
X116137864Y-98649500D01*
X114342129Y-98649500D01*
X114342123Y-98649501D01*
X114282516Y-98655908D01*
X114147671Y-98706202D01*
X114147664Y-98706206D01*
X114032455Y-98792452D01*
X114032452Y-98792455D01*
X113946206Y-98907664D01*
X113946202Y-98907671D01*
X113895908Y-99042517D01*
X113889729Y-99099998D01*
X113889501Y-99102123D01*
X113889500Y-99102135D01*
X101350499Y-99102135D01*
X101350499Y-99102128D01*
X101344091Y-99042517D01*
X101327190Y-98997204D01*
X101293797Y-98907671D01*
X101293793Y-98907664D01*
X101207547Y-98792455D01*
X101207544Y-98792452D01*
X101092335Y-98706206D01*
X101092328Y-98706202D01*
X100957482Y-98655908D01*
X100957483Y-98655908D01*
X100897883Y-98649501D01*
X100897881Y-98649500D01*
X100897873Y-98649500D01*
X100897864Y-98649500D01*
X99102129Y-98649500D01*
X99102123Y-98649501D01*
X99042516Y-98655908D01*
X98907671Y-98706202D01*
X98907664Y-98706206D01*
X98792455Y-98792452D01*
X98792452Y-98792455D01*
X98706206Y-98907664D01*
X98706202Y-98907671D01*
X98655908Y-99042517D01*
X98649729Y-99099998D01*
X98649501Y-99102123D01*
X98649500Y-99102135D01*
X98000500Y-99102135D01*
X98000500Y-97624500D01*
X98020185Y-97557461D01*
X98072989Y-97511706D01*
X98124500Y-97500500D01*
X133875500Y-97500500D01*
X133942539Y-97520185D01*
G37*
%TD.AperFunction*%
%TD*%
M02*
