M48
; DRILL file {KiCad 9.0.7} date 2026-01-23T21:13:40-0500
; FORMAT={-:-/ absolute / metric / decimal}
; #@! TF.CreationDate,2026-01-23T21:13:40-05:00
; #@! TF.GenerationSoftware,Kicad,Pcbnew,9.0.7
; #@! TF.FileFunction,Plated,1,2,PTH
FMAT,2
METRIC
; #@! TA.AperFunction,Plated,PTH,ComponentDrill
T1C0.600
; #@! TA.AperFunction,Plated,PTH,ComponentDrill
T2C0.800
; #@! TA.AperFunction,Plated,PTH,ComponentDrill
T3C0.840
; #@! TA.AperFunction,Plated,PTH,ComponentDrill
T4C1.000
; #@! TA.AperFunction,Plated,PTH,ComponentDrill
T5C1.100
%
G90
G05
T1
X120.5Y-99.5
X120.5Y-101.5
T2
X126.5Y-101.0
X129.0Y-101.0
T3
X99.38Y-100.1
X99.38Y-102.64
X99.38Y-105.18
X99.38Y-107.72
X99.38Y-110.26
X99.38Y-112.8
X99.38Y-115.34
X99.38Y-117.88
X114.62Y-100.1
X114.62Y-102.64
X114.62Y-105.18
X114.62Y-107.72
X114.62Y-110.26
X114.62Y-112.8
X114.62Y-115.34
X114.62Y-117.88
T4
X119.38Y-117.0
X121.46Y-110.5
X121.92Y-117.0
X124.0Y-110.5
X124.46Y-117.0
X127.0Y-117.0
X129.54Y-117.0
T5
X130.5Y-107.0
X130.5Y-109.54
X130.5Y-112.08
M30
